<?xml version="1.0" encoding="UTF-8" standalone="no"?><!DOCTYPE svg PUBLIC "-//W3C//DTD SVG 1.1//EN" "http://www.w3.org/Graphics/SVG/1.1/DTD/svg11.dtd"><svg width="100%" height="100%" viewBox="0 0 156 156" version="1.1" xmlns="http://www.w3.org/2000/svg" xmlns:xlink="http://www.w3.org/1999/xlink" xml:space="preserve" xmlns:serif="http://www.serif.com/" style="fill-rule:evenodd;clip-rule:evenodd;stroke-linejoin:round;stroke-miterlimit:2;"><g><g><path d="M77.538,0c42.794,0 77.537,34.743 77.537,77.538c0,42.794 -34.743,77.537 -77.537,77.537c-42.795,0 -77.538,-34.743 -77.538,-77.537c-0,-42.795 34.743,-77.538 77.538,-77.538Zm-6.651,129.455c37.276,8.512 65.82,-37.091 34.338,-54.858c-3.584,-2.023 -3.588,-2.028 -4.026,-5.904c-1.724,-15.235 -17.976,-24.043 -32.362,-17.538c-3.517,1.59 -10.215,7.176 -9.419,7.855c4.781,4.075 7.524,4.984 9.474,3.141c7.803,-7.373 23.376,-2.722 23.371,6.979c-0,0.283 -4.07,0.532 -9.044,0.552c-16.503,0.067 -24.748,5.971 -24.748,17.721c-0,23.709 38.274,22.877 42.079,-0.915c1.313,-8.215 10.361,4.571 9.212,13.018c-3.597,26.432 -50.881,28.835 -63.128,3.209c-6.772,-14.171 -6.772,-36.842 0,-51.013c12.59,-26.344 56.284,-23.414 66.517,4.459c0.73,1.99 1.583,3.608 1.895,3.595c2.149,-0.085 8.125,-1.964 8.107,-2.548c-0.632,-20.039 -32.504,-37.529 -57.198,-31.389c-45.377,11.284 -45.377,93.62 -0,102.619c1.989,0.394 4.209,0.852 4.932,1.017Zm13.878,-35.084c-5.693,2.586 -13.866,0.945 -16.365,-3.286c-4.831,-8.178 6.493,-14.603 21.397,-12.139c5.166,0.854 1.36,12.522 -5.032,15.425Z" style="fill:#fff;"/></g></g></svg>