<?xml version="1.0" encoding="UTF-8" standalone="no"?><!DOCTYPE svg PUBLIC "-//W3C//DTD SVG 1.1//EN" "http://www.w3.org/Graphics/SVG/1.1/DTD/svg11.dtd"><svg width="100%" height="100%" viewBox="0 0 156 156" version="1.1" xmlns="http://www.w3.org/2000/svg" xmlns:xlink="http://www.w3.org/1999/xlink" xml:space="preserve" xmlns:serif="http://www.serif.com/" style="fill-rule:evenodd;clip-rule:evenodd;stroke-linejoin:round;stroke-miterlimit:2;"><g><path d="M77.538,-0c42.794,-0 77.537,34.743 77.537,77.538c0,42.794 -34.743,77.537 -77.537,77.537c-42.795,0 -77.538,-34.743 -77.538,-77.537c-0,-42.795 34.743,-77.538 77.538,-77.538Zm-22.724,31.763l-23.008,0l0,91.549l23.008,-0l0,-9.211l-13.804,0l-0,-73.128l13.804,-0l0,-9.21Zm0,20.33l17.064,31.241l-0,19.562l11.409,-0l-0,-19.562l16.974,-31.241l-12.863,0l-9.855,19.355l-9.859,-19.355l-12.87,0Zm45.447,-20.33l-0,9.21l13.805,-0l-0,73.128l-13.805,0l-0,9.211l23.008,-0l-0,-91.549l-23.008,0Z" style="fill:#fff;"/></g></svg>