<?xml version="1.0" encoding="UTF-8" standalone="no"?><!DOCTYPE svg PUBLIC "-//W3C//DTD SVG 1.1//EN" "http://www.w3.org/Graphics/SVG/1.1/DTD/svg11.dtd"><svg width="100%" height="100%" viewBox="0 0 156 156" version="1.1" xmlns="http://www.w3.org/2000/svg" xmlns:xlink="http://www.w3.org/1999/xlink" xml:space="preserve" xmlns:serif="http://www.serif.com/" style="fill-rule:evenodd;clip-rule:evenodd;stroke-linejoin:round;stroke-miterlimit:2;"><g><path d="M77.538,-0c42.794,-0 77.537,34.743 77.537,77.538c0,42.794 -34.743,77.537 -77.537,77.537c-42.795,0 -77.538,-34.743 -77.538,-77.537c-0,-42.795 34.743,-77.538 77.538,-77.538Zm0.445,31.763c-24.93,0 -45.217,20.284 -45.217,45.217c0,7.625 1.957,15.141 5.672,21.846l-6.563,24.486l24.615,-6.594c6.617,3.592 14.009,5.481 21.493,5.481c24.933,0 45.217,-20.283 45.217,-45.219c0,-24.933 -20.284,-45.217 -45.217,-45.217Zm0,81.887c-6.555,-0 -13.027,-1.792 -18.72,-5.184l-1.549,-0.922l-13.75,3.682l3.665,-13.67l-0.953,-1.563c-3.506,-5.762 -5.362,-12.336 -5.362,-19.013c-0,-20.222 16.45,-36.667 36.669,-36.667c20.22,-0 36.672,16.445 36.672,36.667c0,20.22 -16.452,36.67 -36.672,36.67Zm16.821,-30.381c-1.861,-1.115 -4.283,-2.356 -6.477,-1.457c-1.68,0.687 -2.754,3.318 -3.845,4.665c-0.559,0.69 -1.224,0.799 -2.087,0.452c-6.313,-2.517 -11.15,-6.731 -14.634,-12.538c-0.592,-0.903 -0.485,-1.616 0.226,-2.453c1.053,-1.238 2.374,-2.645 2.659,-4.316c0.285,-1.671 -0.499,-3.622 -1.188,-5.108c-0.882,-1.901 -1.868,-4.613 -3.772,-5.688c-1.752,-0.988 -4.055,-0.435 -5.614,0.837c-2.691,2.189 -3.991,5.624 -3.951,9.025c0.01,0.97 0.129,1.932 0.357,2.864c0.542,2.248 1.578,4.342 2.748,6.337c0.879,1.499 1.837,2.961 2.866,4.361c3.38,4.587 7.582,8.576 12.447,11.556c2.43,1.488 5.049,2.795 7.758,3.691c3.043,1.001 5.75,2.049 9.035,1.424c3.437,-0.651 6.826,-2.781 8.19,-6.092c0.404,-0.979 0.606,-2.072 0.383,-3.109c-0.468,-2.141 -3.368,-3.415 -5.101,-4.451Z" style="fill:#fff;"/></g></svg>