<?xml version="1.0" encoding="UTF-8" standalone="no"?><!DOCTYPE svg PUBLIC "-//W3C//DTD SVG 1.1//EN" "http://www.w3.org/Graphics/SVG/1.1/DTD/svg11.dtd"><svg width="100%" height="100%" viewBox="0 0 156 156" version="1.1" xmlns="http://www.w3.org/2000/svg" xmlns:xlink="http://www.w3.org/1999/xlink" xml:space="preserve" xmlns:serif="http://www.serif.com/" style="fill-rule:evenodd;clip-rule:evenodd;stroke-linejoin:round;stroke-miterlimit:2;"><g><path d="M77.538,-0c42.794,-0 77.537,34.743 77.537,77.538c0,42.794 -34.743,77.537 -77.537,77.537c-42.795,0 -77.538,-34.743 -77.538,-77.537c-0,-42.795 34.743,-77.538 77.538,-77.538Zm45.774,58.972c-0,-15.026 -12.183,-27.209 -27.211,-27.209l-37.127,0c-15.028,0 -27.211,12.183 -27.211,27.209l0,37.131c0,15.026 12.183,27.209 27.211,27.209l37.127,-0c15.028,-0 27.211,-12.183 27.211,-27.209l-0,-37.131Zm-8.932,36.722c0,10.32 -8.366,18.686 -18.686,18.686l-36.31,0c-10.321,0 -18.689,-8.366 -18.689,-18.686l-0,-36.313c-0,-10.32 8.368,-18.686 18.689,-18.686l36.31,-0c10.32,-0 18.686,8.366 18.686,18.686l0,36.313Zm-13.912,-18.8c0,-12.301 -10.005,-22.309 -22.308,-22.309c-12.301,0 -22.306,10.008 -22.306,22.309c-0,12.298 10.005,22.306 22.306,22.306c12.303,0 22.308,-10.008 22.308,-22.306Zm-8.018,0c0,7.879 -6.411,14.29 -14.29,14.29c-7.879,0 -14.291,-6.411 -14.291,-14.29c0,-7.879 6.412,-14.29 14.291,-14.29c7.879,-0 14.29,6.411 14.29,14.29Zm14.631,-23.809c0,-2.933 -2.377,-5.309 -5.311,-5.309c-2.932,0 -5.309,2.376 -5.309,5.309c-0,2.934 2.377,5.312 5.309,5.312c2.934,0 5.311,-2.378 5.311,-5.312Z" style="fill:#fff;"/></g></svg>