<?xml version="1.0" encoding="UTF-8" standalone="no"?><!DOCTYPE svg PUBLIC "-//W3C//DTD SVG 1.1//EN" "http://www.w3.org/Graphics/SVG/1.1/DTD/svg11.dtd"><svg width="100%" height="100%" viewBox="0 0 156 156" version="1.1" xmlns="http://www.w3.org/2000/svg" xmlns:xlink="http://www.w3.org/1999/xlink" xml:space="preserve" xmlns:serif="http://www.serif.com/" style="fill-rule:evenodd;clip-rule:evenodd;stroke-linejoin:round;stroke-miterlimit:2;"><g><path d="M62.133,153.542c-35.425,-7.153 -62.133,-38.484 -62.133,-76.004c-0,-42.795 34.743,-77.538 77.538,-77.538c42.794,-0 77.537,34.743 77.537,77.538c0,39.937 -30.259,72.863 -69.083,77.081c0.26,-0.269 0.42,-0.634 0.42,-1.036l-0,-58.273l15.436,-0c0.776,-0 1.423,-0.595 1.489,-1.37l1.483,-17.557c0.075,-0.87 -0.614,-1.621 -1.486,-1.621l-16.922,0l-0,-12.455c-0,-2.922 2.367,-5.286 5.286,-5.286l11.895,-0c0.829,-0 1.492,-0.67 1.492,-1.496l0,-17.557c0,-0.825 -0.663,-1.492 -1.492,-1.492l-20.103,0c-11.795,0 -21.357,9.562 -21.357,21.361l-0,16.925l-10.648,0c-0.826,0 -1.495,0.67 -1.495,1.495l-0,17.558c-0,0.825 0.669,1.495 1.495,1.495l10.648,-0l-0,58.232Z" style="fill:#fff;"/></g></svg>