<?xml version="1.0" encoding="UTF-8" standalone="no"?><!DOCTYPE svg PUBLIC "-//W3C//DTD SVG 1.1//EN" "http://www.w3.org/Graphics/SVG/1.1/DTD/svg11.dtd"><svg width="100%" height="100%" viewBox="0 0 156 156" version="1.1" xmlns="http://www.w3.org/2000/svg" xmlns:xlink="http://www.w3.org/1999/xlink" xml:space="preserve" xmlns:serif="http://www.serif.com/" style="fill-rule:evenodd;clip-rule:evenodd;stroke-linejoin:round;stroke-miterlimit:2;"><g><path d="M77.538,-0c42.794,-0 77.537,34.743 77.537,77.538c0,42.794 -34.743,77.537 -77.537,77.537c-42.795,0 -77.538,-34.743 -77.538,-77.537c-0,-42.795 34.743,-77.538 77.538,-77.538Zm-12.299,115.797l17.439,0l0,-27.767c0,-7.322 1.385,-14.412 10.47,-14.412c8.94,0 9.067,8.373 9.067,14.887l-0,27.292l17.437,0l0,-30.788c0,-15.119 -3.257,-26.739 -20.924,-26.739c-8.496,0 -14.189,4.652 -16.523,9.07l-0.229,0l0,-7.677l-16.737,-0l-0,56.134Zm-19.683,-84.034c-5.603,0 -10.133,4.538 -10.133,10.114c0,5.583 4.53,10.123 10.133,10.123c5.588,-0 10.116,-4.54 10.116,-10.123c-0,-5.576 -4.528,-10.114 -10.116,-10.114Zm-8.741,27.9l0,56.134l17.477,0l-0,-56.134l-17.477,-0Z" style="fill:#fff;"/></g></svg>