<?xml version="1.0" encoding="UTF-8" standalone="no"?><!DOCTYPE svg PUBLIC "-//W3C//DTD SVG 1.1//EN" "http://www.w3.org/Graphics/SVG/1.1/DTD/svg11.dtd"><svg width="100%" height="100%" viewBox="0 0 156 156" version="1.1" xmlns="http://www.w3.org/2000/svg" xmlns:xlink="http://www.w3.org/1999/xlink" xml:space="preserve" xmlns:serif="http://www.serif.com/" style="fill-rule:evenodd;clip-rule:evenodd;stroke-linejoin:round;stroke-miterlimit:2;"><g><path d="M77.538,-0c42.794,-0 77.537,34.743 77.537,77.538c0,42.794 -34.743,77.537 -77.537,77.537c-42.795,0 -77.538,-34.743 -77.538,-77.537c0,-42.795 34.743,-77.538 77.538,-77.538Zm-47.568,30.797l36.911,49.353l-37.144,40.126l8.36,-0l32.519,-35.131l26.274,35.131l28.448,-0l-38.987,-52.129l34.573,-37.35l-8.36,0l-29.948,32.355l-24.198,-32.355l-28.448,0Zm12.294,6.158l13.069,0l57.71,77.162l-13.069,0l-57.71,-77.162Z" style="fill:#fff;"/></g></svg>