<?xml version="1.0" encoding="UTF-8" standalone="no"?><!DOCTYPE svg PUBLIC "-//W3C//DTD SVG 1.1//EN" "http://www.w3.org/Graphics/SVG/1.1/DTD/svg11.dtd"><svg width="100%" height="100%" viewBox="0 0 559 330" version="1.1" xmlns="http://www.w3.org/2000/svg" xmlns:xlink="http://www.w3.org/1999/xlink" xml:space="preserve" xmlns:serif="http://www.serif.com/" style="fill-rule:evenodd;clip-rule:evenodd;stroke-linejoin:round;stroke-miterlimit:2;"><rect id="Artboard1" x="0" y="0" width="557.342" height="326.025" style="fill:none;"/><g><clipPath id="_clip1"><rect x="0" y="0" width="557.342" height="326.025"/></clipPath><g clip-path="url(#_clip1)"><g id="path1"><path d="M294.868,319.879c1.482,-3.546 2.695,-8.032 2.695,-9.968c0,-1.937 2.234,-6.775 4.962,-10.752c9.18,-13.383 5.185,-32.343 -6.814,-32.343c-1.813,-0 -4.694,-2.13 -6.4,-4.734c-1.706,-2.604 -5.18,-5.681 -7.722,-6.839c-6.73,-3.065 -14.36,-19.16 -12.865,-27.138c0.883,-4.706 0.392,-6.844 -1.966,-8.569c-3.586,-2.622 -0.885,-10.373 3.615,-10.373c1.342,-0 3.861,-1.572 5.604,-3.496c6.713,-7.42 -6.873,-13.034 -14.558,-6.016c-8.181,7.469 -12.443,6.98 -11.124,-1.272c0.734,-4.588 0.402,-7.824 -0.885,-8.62c-1.133,-0.699 -2.073,-3.107 -2.088,-5.346c-0.057,-8.099 -2.581,-9.688 -10.988,-6.913c-8.577,2.832 -10.556,9.485 -3.883,13.055c7.747,4.146 11.786,17.966 6.529,22.328c-4.148,3.444 -8.369,-0.883 -8.369,-8.58c0,-4.253 -1.195,-7.013 -3.719,-8.59c-2.046,-1.277 -3.72,-3.821 -3.72,-5.654c0,-4.914 -5.455,-6.142 -11.607,-2.608c-4.032,2.311 -6.314,2.613 -8.987,1.183c-5.043,-2.701 -4.451,-4.246 1.21,-3.165c9.302,1.778 15.744,-11.297 8.925,-18.116c-4.005,-4.005 -10.489,-2.894 -12.714,2.177c-0.984,2.237 -3.392,4.488 -5.353,5.002c-2.683,0.701 -3.34,2.11 -2.656,5.693c1.284,6.712 -3.298,6.169 -5.683,-0.675c-2.165,-6.209 -8.196,-10.146 -13.135,-8.579c-4.486,1.423 -18.705,-5.089 -22.712,-10.403c-2.683,-3.556 -5.616,-4.451 -18.127,-5.524c-8.21,-0.707 -23.976,-4.092 -35.04,-7.524c-21.678,-6.722 -20.046,-7.352 25.022,-9.628c13.939,-0.702 18.593,-3.792 10.497,-6.963c-5.418,-2.123 -5.418,-2.123 4.54,-4.732c13.773,-3.605 22.087,-9.549 17.77,-12.706c-2.921,-2.135 -2.894,-2.41 0.372,-3.905c2.67,-1.223 1.051,-1.877 -6.713,-2.72c-10.228,-1.114 -10.228,-1.114 -0.421,-2.656c11.86,-1.867 13.809,-4.059 5.601,-6.304c-8.785,-2.405 4.313,-4.999 16.22,-3.213c9.941,1.49 11.114,-1.173 2.482,-5.637c-7.089,-3.667 -19.701,-2.492 -31.7,2.954c-7.759,3.521 -23.741,5.004 -26.305,2.44c-0.699,-0.7 -8.999,-1.488 -18.444,-1.753c-18.962,-0.536 -40.31,-5.815 -47.86,-11.836c-2.557,-2.038 -7.159,-4.873 -10.229,-6.296c-7.687,-3.568 -21.388,-15.751 -21.388,-19.017c0,-1.478 -1.882,-3.543 -4.183,-4.595c-3.593,-1.639 -12.554,-12.812 -12.554,-15.651c-0,-2.277 19.331,-0.685 25.632,2.11c3.802,1.688 8.339,2.899 10.08,2.688c1.738,-0.209 5.341,1.049 8.005,2.794c2.774,1.818 9.395,3.395 15.5,3.693c5.86,0.285 14.392,1.82 18.96,3.412c9.614,3.345 14.811,3.727 14.811,1.083c0,-2.593 17.323,-2.204 30.686,0.687c14.911,3.226 21.289,6.797 33.831,18.948c12.22,11.833 14.65,12.701 35.911,12.822c26.404,0.151 36.025,-4.947 13.484,-7.141c-35.655,-3.474 -39.077,-6.108 -12.554,-9.656c12.822,-1.714 15.803,-3.559 9.068,-5.607c-4.265,-1.297 -1.962,-1.82 11.389,-2.584c15.893,-0.91 16.731,-1.17 16.592,-5.143c-0.196,-5.534 1.785,-5.289 5.716,0.709c2.467,3.767 3.565,4.315 4.763,2.379c1.247,-2.019 1.8,-1.885 2.78,0.674c1.659,4.32 4.555,2.19 4.555,-3.35c-0,-2.827 2.063,-6.011 5.579,-8.61c3.07,-2.268 5.607,-5.433 5.639,-7.03c0.05,-2.467 0.432,-2.412 2.529,0.35c3.965,5.22 4.851,3.903 4.851,-7.201c-0,-12.029 3.588,-11.63 7.568,0.841c2.631,8.237 4.587,10.655 6.335,7.826c0.955,-1.543 2.098,-1.461 4.253,0.305c2.571,2.105 2.802,1.857 1.823,-1.949c-1.476,-5.721 0.121,-9.607 3.422,-8.34c2.003,0.769 2.635,-0.768 2.635,-6.397c0,-13.17 5.793,-15.047 9.694,-3.142c2.675,8.168 8.411,10.459 7.352,2.938c-0.702,-4.996 6.926,-4.493 12.857,0.851c4.015,3.615 4.969,3.392 9.877,-2.314c4.567,-5.311 13.209,-7.057 17.695,-3.575c1.436,1.113 8.131,2.06 14.878,2.102c8.136,0.05 14.392,1.211 18.575,3.437c10.542,5.619 37.878,9.369 40.186,5.515c4.518,-7.538 25.564,-30.354 27.113,-29.397c0.943,0.583 1.714,4.776 1.714,9.319c-0,9.611 2.187,10.497 6.772,2.738c8.232,-13.939 8.696,3.61 0.58,21.96c-4.947,11.181 -4.934,11.225 6.204,23.693c5.411,6.056 13.12,15.615 17.135,21.241c4.012,5.624 11.171,14.831 15.91,20.458c4.738,5.624 11.734,15.25 15.547,21.387c3.812,6.138 11.266,16.738 16.562,23.557c22.283,28.695 29.739,46.321 21.718,51.33c-2.817,1.761 -3.72,4.337 -3.72,10.636c-0,18.724 -44.22,21.191 -44.575,2.484c-0.107,-5.624 -33.054,-24.665 -63.433,-36.66c-7.122,-2.812 -13.805,-7.563 -21.33,-15.168c-20.49,-20.705 -37.248,-11.555 -69.97,38.212c-24.891,37.855 -29.481,51.278 -26.93,78.738c2.071,22.26 -4.644,37.329 -21.317,47.856c-9.642,6.087 -11.256,5.7 -8.069,-1.93l-0,-0.002Zm16.733,-61.702c5.16,-5.57 5.991,-12.731 1.666,-14.39c-4.34,-1.666 -15.173,3.548 -16.579,7.982c-3.497,11.017 6.613,15.362 14.913,6.408Zm-20.272,-10.993c3.186,-3.186 4.421,-6.023 3.747,-8.604c-0.553,-2.121 0.255,-5.778 1.798,-8.134c4.485,-6.846 2.703,-16.634 -3.031,-16.634c-3.404,0 -4.808,1.121 -5.242,4.186c-0.327,2.301 -1.277,4.183 -2.112,4.183c-3.75,0 -7.65,9.309 -5.547,13.239c1.51,2.82 1.525,4.461 0.057,5.932c-2.745,2.742 -2.574,8.198 0.292,9.356c4.151,1.674 5.213,1.302 10.038,-3.524Zm34.131,-37.091c1.274,-1.533 3.756,-2.79 5.519,-2.79c4.052,0 10.125,-6.556 8.501,-9.18c-3.13,-5.066 -21.459,4.58 -21.459,11.293c-0,4.168 4.225,4.553 7.439,0.677Zm-17.202,-13.162c0.694,-5.354 -6.167,-13.48 -8.999,-10.658c-1.723,1.718 -1.505,3.727 0.97,8.942c3.33,7.017 7.23,7.85 8.029,1.716Zm25.972,-8.439c1.141,-1.143 4.03,-3.047 6.418,-4.233c6.774,-3.365 6.906,-10.432 0.193,-10.432c-2.936,0 -6.343,1.005 -7.57,2.232c-1.736,1.736 -2.232,0.729 -2.232,-4.538c-0,-3.724 -0.93,-7.347 -2.066,-8.049c-3.256,-2.011 -5.596,3.236 -4.57,10.239c0.516,3.516 0.028,7.491 -1.091,8.832c-4.327,5.215 6.016,10.849 10.918,5.949Zm-104.655,-21.928c0.573,-0.927 2.616,-1.274 4.54,-0.771c6.37,1.666 11.674,-10.209 8.386,-18.779c-1.54,-4.017 -5.053,-3.692 -9.16,0.843c-1.882,2.081 -4.421,3.403 -5.641,2.934c-3.298,-1.265 -6.388,2.68 -6.388,8.158c0,6.819 5.577,11.957 8.263,7.615Zm32.399,-3.377c1.268,-2.262 4.305,-3.251 10.338,-3.363c11.642,-0.22 14.829,-3.62 8.049,-8.592c-6.105,-4.476 -6.412,-7.27 -1.306,-11.89c4.473,-4.047 4.22,-11.612 -0.486,-14.558c-3.894,-2.438 -13.52,5.745 -17.393,14.786c-1.349,3.15 -3.757,6.81 -5.349,8.131c-1.594,1.324 -2.899,3.809 -2.899,5.525c0,1.716 -0.967,4.089 -2.152,5.274c-1.632,1.629 -1.574,2.847 0.228,5.022c3.164,3.811 8.746,3.642 10.973,-0.335l-0.003,-0Zm-81.053,-0.982c1.299,-3.623 -2.155,-8.835 -5.857,-8.835c-5.552,-0 -5.954,-2.153 -1.111,-5.961c5.795,-4.558 5.946,-8.917 0.307,-8.917c-5.386,-0 -8.741,3.278 -8.741,8.54c0,2.797 -1.458,4.441 -4.649,5.242c-8.734,2.192 -3.387,11.654 5.614,9.933c2.586,-0.493 5.153,-0.173 5.698,0.712c1.508,2.44 7.794,1.927 8.739,-0.714Zm128.934,-5.899c1.498,-3.906 -2.604,-10.375 -6.579,-10.375c-4.371,-0 -6.281,4.763 -3.781,9.435c2.236,4.178 8.884,4.783 10.36,0.94Zm-151.842,-76.149c-3.189,-2.976 -16.311,-6.832 -26.9,-7.903c-5.068,-0.513 -3.131,0.414 6.073,2.909c7.432,2.016 14.963,4.508 16.738,5.544c4.709,2.743 7.251,2.401 4.089,-0.55Zm-50.767,-11.717c-0.682,-0.682 -1.797,-0.682 -2.479,0c-0.682,0.682 -0.124,1.24 1.24,1.24c1.363,0 1.921,-0.558 1.239,-1.24Z" style="fill:#525150;fill-rule:nonzero;"/></g></g></g></svg>