<?xml version="1.0" encoding="UTF-8" standalone="no"?><!DOCTYPE svg PUBLIC "-//W3C//DTD SVG 1.1//EN" "http://www.w3.org/Graphics/SVG/1.1/DTD/svg11.dtd"><svg width="100%" height="100%" viewBox="0 0 1482 824" version="1.1" xmlns="http://www.w3.org/2000/svg" xmlns:xlink="http://www.w3.org/1999/xlink" xml:space="preserve" xmlns:serif="http://www.serif.com/" style="fill-rule:evenodd;clip-rule:evenodd;stroke-linejoin:round;stroke-miterlimit:2;"><g><g><path d="M280.769,782.128c-0,4.05 0.196,8.41 0.589,13.079c0.392,4.665 1.374,8.971 2.945,12.906c1.57,3.935 3.87,7.228 6.899,9.87c3.029,2.642 7.18,3.966 12.453,3.966c3.029,-1.239 5.357,-2.952 6.983,-5.148c1.627,-2.19 3.563,-5.426 5.806,-9.701c2.356,-4.387 4.011,-9.224 4.965,-14.509c0.953,-5.289 1.43,-10.463 1.43,-15.522c0.112,-4.05 -0.084,-8.409 -0.589,-13.079c-0.505,-4.665 -1.542,-8.998 -3.113,-12.99c-1.571,-3.992 -3.786,-7.254 -6.647,-9.786c-2.861,-2.531 -6.535,-3.682 -11.023,-3.457c-4.039,1.35 -6.899,3.037 -8.582,5.059c-1.57,1.912 -3.534,5.064 -5.89,9.45c-2.244,4.275 -3.842,9.056 -4.796,14.34c-0.953,5.289 -1.43,10.463 -1.43,15.522Zm17.332,24.467c-2.131,-0.451 -3.421,-1.014 -3.87,-1.686c-0.224,-0.788 -0.729,-2.647 -1.514,-5.568c-0.786,-3.036 -1.29,-6.077 -1.515,-9.113c-0.224,-3.037 -0.336,-5.453 -0.336,-7.255c-0,-4.722 0.476,-8.913 1.43,-12.569c0.954,-3.656 2.272,-6.723 3.954,-9.198c1.684,-2.584 3.086,-4.328 4.208,-5.227c1.121,-0.903 2.468,-1.465 4.038,-1.686c1.571,-0.226 2.833,-0.089 3.787,0.42c0.953,0.505 1.823,2.275 2.608,5.316c0.785,2.921 1.29,5.904 1.514,8.941c0.225,3.036 0.337,5.452 0.337,7.254c0,4.727 -0.477,8.914 -1.43,12.57c-0.954,3.656 -2.497,7.338 -4.628,11.051c-2.131,3.599 -4.992,5.852 -8.583,6.75Z" style="fill:#67652d;fill-rule:nonzero;"/><path d="M333.946,820.094c-0.225,-4.837 -0.393,-11.251 -0.506,-19.235c-0.112,-1.912 -0.168,-3.824 -0.168,-5.736l0,-5.904c0,-3.94 -0.056,-7.706 -0.168,-11.309c-0.112,-3.598 -0.168,-7.197 -0.168,-10.795l-0,-29.867l31.468,-0.168l-1.01,12.15l-16.491,-0.169l0,24.463l13.462,-0l0,13.499l-15.145,0l-0,20.245l-0.168,12.995l-11.106,-0.169Z" style="fill:#67652d;fill-rule:nonzero;"/><path d="M455.444,804.909c0.112,0.562 0.308,1.487 0.589,2.784c0.28,1.292 0.532,2.642 0.757,4.049c0.224,1.404 0.476,2.784 0.757,4.134c0.28,1.35 0.477,2.359 0.589,3.037c0.113,0.336 0.365,0.898 0.757,1.686c0.393,0.788 0.646,1.182 0.758,1.182l12.452,-0l-15.313,-65.129c0,-0.226 -0.028,-0.73 -0.084,-1.518c-0.056,-0.788 -0.084,-1.35 -0.084,-1.686c-0,-0.452 0.028,-0.983 0.084,-1.603c0.056,-0.619 0.224,-1.181 0.505,-1.686c0.28,-0.509 0.729,-0.845 1.346,-1.013c0.617,-0.169 1.486,-0.031 2.608,0.42l0,-10.968l-20.362,0l-25.242,81.496l11.78,0l1.515,-1.181c0.112,-0.678 0.364,-1.66 0.756,-2.953c0.393,-1.296 0.842,-2.673 1.347,-4.133c0.504,-1.465 0.953,-2.842 1.346,-4.134c0.393,-1.297 0.645,-2.222 0.757,-2.784c0.113,-0.226 0.253,-0.593 0.421,-1.098c0.168,-0.509 0.477,-1.04 0.926,-1.602l16.828,1.35l2.692,0.673l1.515,0.677Zm-10.266,-14.513l-8.245,-0.336l7.236,-27.672l1.514,-1.35l1.346,2.532c0,0.111 0.169,1.013 0.506,2.7c0.336,1.686 0.757,3.682 1.261,5.988c0.506,2.306 0.982,4.612 1.431,6.918c0.449,2.306 0.785,4.134 1.01,5.484c-0,0.115 0.028,0.42 0.083,0.929c0.057,0.505 0.085,0.93 0.085,1.266c-0,0.336 -0.056,0.956 -0.168,1.855c-0.113,0.898 -0.561,1.35 -1.346,1.35l-4.713,0.336Z" style="fill:#67652d;fill-rule:nonzero;"/><path d="M557.59,737.08c0.673,7.648 1.009,11.924 1.009,12.822c0,0.903 -4.038,1.35 -12.116,1.35l0,65.297c0,1.461 -0.112,2.758 -0.336,3.882c-0.113,0.672 -2.244,1.124 -6.395,1.35c-0.224,-0 -0.785,-0.031 -1.683,-0.084c-0.898,-0.058 -1.963,-0.257 -3.197,-0.594c-0.449,-0.447 -0.673,-7.648 -0.673,-21.594c0.112,-3.488 0.168,-7.086 0.168,-10.799l0,-36.78l-12.285,-0.169l0,-12.654l1.851,-1.69c0.113,-0 0.898,-0.027 2.357,-0.084c1.458,-0.054 2.523,-0.085 3.197,-0.085c5.048,0 9.704,0.085 13.967,0.253c4.263,0.172 8.975,0.031 14.136,-0.421Z" style="fill:#67652d;fill-rule:nonzero;"/><path d="M607.905,739.107c0.561,13.61 1.038,27.388 1.431,41.335c0.393,13.951 0.589,27.95 0.589,42.011l-12.117,0l-0.504,-35.598c-4.039,-2.363 -8.302,-2.868 -12.789,-1.518l-0.169,37.116l-11.275,0c-0.224,-6.408 -0.477,-13.216 -0.757,-20.412c-0.281,-7.201 -0.533,-14.54 -0.757,-22.02c-0.225,-7.48 -0.449,-14.933 -0.673,-22.355c-0.225,-7.423 -0.393,-14.513 -0.505,-21.258l14.809,-0l-0,33.407l11.442,1.35c-0.112,-4.391 -0.196,-8.861 -0.252,-13.415c-0.056,-4.555 -0.084,-9.198 -0.084,-13.92c0.112,-0.677 0.449,-1.686 1.01,-3.036c1.682,-1.124 3.141,-1.744 4.375,-1.855c1.234,-0.115 2.187,-0.172 2.861,-0.172c0.224,-0 0.785,0.057 1.683,0.172c0.897,0.111 1.458,0.168 1.682,0.168Z" style="fill:#67652d;fill-rule:nonzero;"/><path d="M620.694,782.128c0,4.05 0.197,8.41 0.589,13.079c0.393,4.665 1.375,8.971 2.946,12.906c1.57,3.935 3.87,7.228 6.899,9.87c3.029,2.642 7.18,3.966 12.454,3.966c3.026,-1.239 5.355,-2.952 6.982,-5.148c1.626,-2.19 3.56,-5.426 5.808,-9.701c2.352,-4.387 4.007,-9.224 4.96,-14.509c0.958,-5.289 1.435,-10.463 1.435,-15.522c0.11,-4.05 -0.087,-8.409 -0.593,-13.079c-0.505,-4.665 -1.539,-8.998 -3.113,-12.99c-1.568,-3.992 -3.787,-7.254 -6.645,-9.786c-2.863,-2.531 -6.534,-3.682 -11.023,-3.457c-4.037,1.35 -6.899,3.037 -8.582,5.059c-1.571,1.912 -3.534,5.064 -5.89,9.45c-2.244,4.275 -3.842,9.056 -4.796,14.34c-0.954,5.289 -1.431,10.463 -1.431,15.522Zm17.336,24.467c-2.134,-0.451 -3.424,-1.014 -3.873,-1.686c-0.225,-0.788 -0.729,-2.647 -1.515,-5.568c-0.785,-3.036 -1.29,-6.077 -1.514,-9.113c-0.225,-3.037 -0.337,-5.453 -0.337,-7.255c0,-4.722 0.477,-8.913 1.431,-12.569c0.954,-3.656 2.272,-6.723 3.954,-9.198c1.685,-2.584 3.085,-4.328 4.206,-5.227c1.121,-0.903 2.468,-1.465 4.042,-1.686c1.569,-0.226 2.829,-0.089 3.782,0.42c0.958,0.505 1.823,2.275 2.613,5.316c0.784,2.921 1.29,5.904 1.51,8.941c0.227,3.036 0.337,5.452 0.337,7.254c0,4.727 -0.476,8.914 -1.429,12.57c-0.952,3.656 -2.497,7.338 -4.629,11.051c-2.131,3.599 -4.989,5.852 -8.578,6.75Z" style="fill:#67652d;fill-rule:nonzero;"/><path d="M675.556,738.767l12.958,0.677c0,6.409 -0.116,13.048 -0.336,19.908c-0.227,6.86 -0.337,12.822 -0.337,17.885c-0,4.05 0.22,7.985 0.673,11.809c0.448,3.824 1.511,7.48 3.195,10.968c1.795,3.487 3.868,5.567 6.226,6.245c1.795,-0.452 3.026,-0.903 3.7,-1.35c0.674,-0.452 1.574,-2.253 2.695,-5.4c1.121,-3.151 2.132,-23.396 3.032,-60.742l14.131,0.677l-2.015,51.288c-1.348,9.901 -2.922,16.651 -4.716,20.249c-1.795,3.824 -4.374,6.635 -7.743,8.436c-3.252,1.686 -7.515,2.532 -12.784,2.532c-3.031,-1.239 -5.36,-2.952 -6.987,-5.148c-1.626,-2.19 -3.618,-5.426 -5.971,-9.701c-2.247,-4.387 -3.845,-9.224 -4.797,-14.509c-0.953,-5.289 -1.429,-10.463 -1.429,-15.522c-0,-2.027 0.023,-4.249 0.081,-6.665c0.058,-2.417 0.111,-5.148 0.169,-8.184c0.058,-3.036 0.11,-6.466 0.168,-10.29c0.058,-3.825 0.087,-8.211 0.087,-13.163Z" style="fill:#67652d;fill-rule:nonzero;"/><path d="M734.62,807.945c-0.227,5.736 0.9,9.728 3.363,11.977c2.468,2.253 6.395,3.377 11.785,3.377c3.252,-0 6.336,-0.452 9.252,-1.35c2.916,-0.899 5.442,-2.222 7.574,-3.966c2.132,-1.744 3.816,-3.939 5.047,-6.581c1.237,-2.643 1.853,-5.763 1.853,-9.361c0,-3.824 -0.761,-7.343 -2.271,-10.547c-1.516,-3.205 -3.421,-6.215 -5.721,-9.025c-2.3,-2.815 -4.856,-5.457 -7.661,-7.931c-2.805,-2.475 -5.495,-4.838 -8.073,-7.086c-1.011,-1.014 -1.574,-2.081 -1.685,-3.205c-0.11,-1.129 -0.168,-2.306 -0.168,-3.545c-0,-2.474 0.586,-4.444 1.765,-5.904c1.18,-1.465 2.695,-2.616 4.543,-3.462c1.852,-0.84 3.874,-1.434 6.057,-1.77c2.19,-0.336 4.293,-0.562 6.314,-0.673c0.11,-0.341 0.25,-0.903 0.418,-1.69c0.169,-0.784 0.337,-1.629 0.505,-2.528c0.169,-0.903 0.337,-1.744 0.506,-2.531c0.168,-0.788 0.255,-1.35 0.255,-1.687c0,-0.115 0.024,-0.425 0.082,-0.929c0.058,-0.505 0.087,-0.872 0.087,-1.098c-0,-1.013 -0.366,-1.744 -1.098,-2.191c-0.726,-0.451 -1.597,-0.761 -2.608,-0.929c-1.01,-0.168 -2.044,-0.226 -3.113,-0.168c-1.063,0.053 -1.934,0.084 -2.608,0.084c-3.253,-0 -6.366,0.535 -9.34,1.602c-2.973,1.067 -5.581,2.558 -7.823,4.47c-2.242,1.912 -4.037,4.276 -5.384,7.086c-1.348,2.815 -2.022,5.962 -2.022,9.45c0,5.063 1.238,9.308 3.706,12.738c2.463,3.43 5.216,6.581 8.242,9.449c3.032,2.868 5.779,5.794 8.248,8.773c2.468,2.983 3.699,6.55 3.699,10.715c0,6.86 -3.363,10.29 -10.094,10.29c-2.132,0 -4.153,-0.309 -6.058,-0.929c-1.911,-0.615 -3.869,-0.925 -5.89,-0.925l-1.684,-0Z" style="fill:#67652d;fill-rule:nonzero;"/><path d="M824.316,804.909c0.11,0.562 0.308,1.487 0.586,2.784c0.279,1.292 0.535,2.642 0.755,4.049c0.227,1.404 0.483,2.784 0.761,4.134c0.279,1.35 0.477,2.359 0.587,3.037c0.11,0.336 0.366,0.898 0.761,1.686c0.389,0.788 0.645,1.182 0.755,1.182l12.453,-0l-15.317,-65.129c0,-0.226 -0.023,-0.73 -0.081,-1.518c-0.058,-0.788 -0.087,-1.35 -0.087,-1.686c0,-0.452 0.029,-0.983 0.087,-1.603c0.058,-0.619 0.221,-1.181 0.505,-1.686c0.279,-0.509 0.727,-0.845 1.348,-1.013c0.616,-0.169 1.487,-0.031 2.608,0.42l-0,-10.968l-20.364,0l-25.242,81.496l11.779,0l1.516,-1.181c0.11,-0.678 0.366,-1.66 0.755,-2.953c0.395,-1.296 0.842,-2.673 1.347,-4.133c0.506,-1.465 0.953,-2.842 1.348,-4.134c0.389,-1.297 0.645,-2.222 0.755,-2.784c0.116,-0.226 0.256,-0.593 0.424,-1.098c0.168,-0.509 0.476,-1.04 0.924,-1.602l16.826,1.35l2.695,0.673l1.516,0.677Zm-10.269,-14.513l-8.242,-0.336l7.231,-27.672l1.516,-1.35l1.348,2.532c-0,0.111 0.168,1.013 0.505,2.7c0.337,1.686 0.755,3.682 1.26,5.988c0.506,2.306 0.982,4.612 1.435,6.918c0.447,2.306 0.784,4.134 1.005,5.484c-0,0.115 0.029,0.42 0.087,0.929c0.052,0.505 0.081,0.93 0.081,1.266c0,0.336 -0.052,0.956 -0.168,1.855c-0.11,0.898 -0.558,1.35 -1.342,1.35l-4.716,0.336Z" style="fill:#67652d;fill-rule:nonzero;"/><path d="M852.753,745.853c-0.558,12.6 -1.04,25.254 -1.429,37.966c-0.395,12.707 -0.593,25.361 -0.593,37.962l12.116,-0l0,-38.808l13.464,38.808l10.1,-0c0.447,-6.524 0.895,-13.389 1.342,-20.586c0.453,-7.196 0.871,-14.508 1.266,-21.935c0.389,-7.422 0.697,-14.818 0.924,-22.183c0.226,-7.369 0.336,-14.486 0.336,-21.347l-14.81,0l-0,45.557c-0.221,-0.226 -0.645,-0.761 -1.261,-1.602c-0.615,-0.845 -1.039,-1.434 -1.26,-1.775c-0.447,-1.124 -1.237,-3.12 -2.358,-5.988c-1.121,-2.868 -2.3,-5.931 -3.532,-9.193c-1.237,-3.262 -2.416,-6.329 -3.537,-9.197c-1.121,-2.868 -1.905,-4.864 -2.352,-5.989c-0.227,-1.124 -0.959,-1.717 -2.19,-1.774c-1.231,-0.054 -2.19,-0.085 -2.858,-0.085c-0.226,0 -0.789,0.031 -1.684,0.085c-0.9,0.057 -1.458,0.084 -1.684,0.084Z" style="fill:#67652d;fill-rule:nonzero;"/><path d="M940.764,782.128c0,4.05 -0.197,8.41 -0.592,13.079c-0.389,4.665 -1.371,8.971 -2.945,12.906c-1.568,3.935 -3.868,7.228 -6.894,9.87c-3.032,2.642 -7.185,3.966 -12.459,3.966l-13.457,0.673c-0.117,-2.811 -0.227,-5.09 -0.337,-6.834c-0.116,-1.744 -0.227,-2.952 -0.337,-3.625l-1.516,-75.419l8.753,-0c5.721,0.336 10.489,1.939 14.3,4.807c3.816,2.868 6.871,6.439 9.171,10.715c2.3,4.275 3.926,9.025 4.884,14.256c0.953,5.232 1.429,10.432 1.429,15.606Zm-28.442,-28.512c-0.221,37.231 -0.111,55.905 0.336,56.015c0.453,0.337 1.069,0.505 1.853,0.505c0.447,-0 1.011,-0.027 1.685,-0.084c0.673,-0.053 1.457,-0.137 2.352,-0.253c3.142,-1.124 5.39,-2.416 6.732,-3.881c1.347,-1.461 2.416,-3.656 3.2,-6.577c0.784,-3.036 1.289,-6.077 1.516,-9.113c0.221,-3.037 0.337,-5.453 0.337,-7.255c0.331,-4.722 -0.145,-8.913 -1.435,-12.569c-1.289,-3.656 -2.916,-6.75 -4.879,-9.282c-1.963,-2.527 -4.036,-4.439 -6.226,-5.736c-2.19,-1.292 -4.014,-1.881 -5.471,-1.77Z" style="fill:#67652d;fill-rule:nonzero;"/><path d="M1029.95,739.107c0.564,13.61 1.04,27.388 1.435,41.335c0.389,13.951 0.586,27.95 0.586,42.011l-12.116,0l-0.505,-35.598c-4.037,-2.363 -8.3,-2.868 -12.789,-1.518l-0.169,37.116l-11.274,0c-0.226,-6.408 -0.476,-13.216 -0.755,-20.412c-0.284,-7.201 -0.534,-14.54 -0.761,-22.02c-0.22,-7.48 -0.447,-14.933 -0.673,-22.355c-0.221,-7.423 -0.389,-14.513 -0.5,-21.258l14.805,-0l0,33.407l11.442,1.35c-0.11,-4.391 -0.197,-8.861 -0.249,-13.415c-0.058,-4.555 -0.087,-9.198 -0.087,-13.92c0.116,-0.677 0.453,-1.686 1.01,-3.036c1.685,-1.124 3.142,-1.744 4.374,-1.855c1.237,-0.115 2.189,-0.172 2.863,-0.172c0.227,-0 0.784,0.057 1.685,0.172c0.894,0.111 1.457,0.168 1.678,0.168Z" style="fill:#67652d;fill-rule:nonzero;"/><path d="M1045.77,742.312c-0.448,0.788 -0.674,10.458 -0.674,29.021c0.11,4.723 0.168,9.166 0.168,13.327l0,33.071c3.479,0.562 7.516,0.562 12.116,-0l0,-69.179c0,-1.234 -0.029,-2.274 -0.081,-3.12c-0.058,-0.841 -0.145,-1.545 -0.256,-2.107c-0.11,-0.903 -2.242,-1.465 -6.394,-1.69c-0.227,-0 -0.785,0.031 -1.685,0.088c-0.894,0.053 -1.963,0.252 -3.194,0.589Z" style="fill:#67652d;fill-rule:nonzero;"/><path d="M1080.94,737.757c-3.81,0 -6.476,0.195 -7.992,0.589c-1.516,0.394 -2.381,0.93 -2.608,1.602c-0.11,0.115 -0.168,4.108 -0.168,11.982l-1.011,44.543c0,0.673 -0.029,1.797 -0.081,3.372c-0.058,1.576 -0.087,3.373 -0.087,5.4c-0,1.912 -0.029,3.882 -0.081,5.904c-0.059,2.028 -0.088,3.882 -0.088,5.568l0,5.064l28.943,-0l1.684,-11.813l-18.511,-0l0,-72.211Z" style="fill:#67652d;fill-rule:nonzero;"/><path d="M1124.69,737.757c-3.816,0 -6.476,0.195 -7.992,0.589c-1.516,0.394 -2.387,0.93 -2.608,1.602c-0.11,0.115 -0.168,4.108 -0.168,11.982l-1.011,44.543c0,0.673 -0.029,1.797 -0.081,3.372c-0.058,1.576 -0.087,3.373 -0.087,5.4c-0,1.912 -0.029,3.882 -0.081,5.904c-0.058,2.028 -0.087,3.882 -0.087,5.568l-0,5.064l28.948,-0l1.678,-11.813l-18.511,-0l0,-72.211Z" style="fill:#67652d;fill-rule:nonzero;"/><path d="M1156.67,807.945c-0.227,5.736 0.9,9.728 3.368,11.977c2.463,2.253 6.395,3.377 11.779,3.377c3.253,-0 6.337,-0.452 9.253,-1.35c2.915,-0.899 5.442,-2.222 7.574,-3.966c2.131,-1.744 3.816,-3.939 5.047,-6.581c1.231,-2.643 1.853,-5.763 1.853,-9.361c-0,-3.824 -0.761,-7.343 -2.271,-10.547c-1.516,-3.205 -3.427,-6.215 -5.721,-9.025c-2.3,-2.815 -4.856,-5.457 -7.661,-7.931c-2.806,-2.475 -5.495,-4.838 -8.074,-7.086c-1.01,-1.014 -1.574,-2.081 -1.684,-3.205c-0.11,-1.129 -0.169,-2.306 -0.169,-3.545c0,-2.474 0.587,-4.444 1.766,-5.904c1.179,-1.465 2.695,-2.616 4.542,-3.462c1.853,-0.84 3.874,-1.434 6.058,-1.77c2.19,-0.336 4.292,-0.562 6.314,-0.673c0.11,-0.341 0.249,-0.903 0.418,-1.69c0.168,-0.784 0.337,-1.629 0.505,-2.528c0.169,-0.903 0.337,-1.744 0.505,-2.531c0.169,-0.788 0.256,-1.35 0.256,-1.687c0,-0.115 0.023,-0.425 0.081,-0.929c0.058,-0.505 0.087,-0.872 0.087,-1.098c0,-1.013 -0.365,-1.744 -1.097,-2.191c-0.726,-0.451 -1.598,-0.761 -2.608,-0.929c-1.011,-0.168 -2.045,-0.226 -3.113,-0.168c-1.063,0.053 -1.934,0.084 -2.608,0.084c-3.253,-0 -6.366,0.535 -9.34,1.602c-2.974,1.067 -5.581,2.558 -7.823,4.47c-2.242,1.912 -4.037,4.276 -5.385,7.086c-1.347,2.815 -2.021,5.962 -2.021,9.45c0,5.063 1.231,9.308 3.7,12.738c2.468,3.43 5.221,6.581 8.248,9.449c3.031,2.868 5.779,5.794 8.247,8.773c2.469,2.983 3.7,6.55 3.7,10.715c0,6.86 -3.363,10.29 -10.095,10.29c-2.131,0 -4.152,-0.309 -6.058,-0.929c-1.905,-0.615 -3.874,-0.925 -5.889,-0.925l-1.684,-0Z" style="fill:#67652d;fill-rule:nonzero;"/></g><g><path d="M7.503,512.951c-1.214,27.132 -2.224,54.469 -3.034,82.019c-0.809,27.551 -1.214,55.093 -1.214,82.643l25.792,0l0,-84.211l28.22,84.211l21.24,0c1.012,-14.19 2.022,-29.119 3.034,-44.77c1.012,-15.644 1.872,-31.509 2.579,-47.579c0.708,-16.071 1.315,-32.084 1.82,-48.047c0.507,-15.972 0.76,-31.468 0.76,-46.487l-31.255,-0l0,98.919c-0.404,-0.419 -1.264,-1.569 -2.579,-3.441c-1.314,-1.88 -2.174,-3.137 -2.579,-3.761c-1.011,-2.504 -2.73,-6.89 -5.158,-13.147c-2.427,-6.257 -4.956,-12.884 -7.586,-19.881c-2.629,-6.988 -5.108,-13.615 -7.434,-19.872c-2.327,-6.266 -3.894,-10.643 -4.703,-13.147c-0.607,-2.299 -2.175,-3.548 -4.704,-3.761c-2.528,-0.205 -4.501,-0.312 -5.916,-0.312c-0.607,-0 -1.821,0.107 -3.641,0.312c-1.822,0.213 -3.035,0.312 -3.642,0.312Z" style="fill:#67652d;fill-rule:nonzero;stroke:#67652d;stroke-width:6.51px;"/></g><g><path d="M199.877,634.582l-3.186,-3.583l-44.587,-3.583c-0.213,-0 -0.691,0.893 -1.434,2.689c-0.743,1.787 -1.327,3.283 -1.752,4.477c-0.424,1.439 -1.115,3.828 -2.07,7.177c-0.956,3.348 -1.964,6.865 -3.026,10.571c-1.062,3.706 -2.017,7.289 -2.866,10.76c-0.849,3.461 -1.38,5.916 -1.592,7.345l-3.185,3.593l-27.39,-0l57.965,-211.543l45.861,0l0,28.686c-2.548,-1.194 -4.511,-1.551 -5.891,-1.072c-1.381,0.48 -2.389,1.373 -3.026,2.681c-0.637,1.316 -1.009,2.755 -1.114,4.307c-0.107,1.552 -0.16,2.925 -0.16,4.12c0,0.959 0.106,2.389 0.319,4.307c0.212,1.91 0.318,3.104 0.318,3.584l34.715,168.513l-28.345,0c-0.212,0 -0.743,-0.903 -1.593,-2.69c-0.849,-1.796 -1.38,-3.291 -1.592,-4.486c-0.425,-1.429 -0.955,-3.818 -1.592,-7.167c-0.637,-3.348 -1.274,-6.931 -1.911,-10.759c-0.637,-3.819 -1.221,-7.402 -1.752,-10.75c-0.531,-3.349 -0.902,-5.738 -1.114,-7.177Zm-42.041,-39.436l29.301,0c1.911,0 2.973,-1.194 3.185,-3.583c0.212,-2.389 0.318,-4.063 0.318,-5.023c0,-0.714 -0.053,-1.787 -0.159,-3.226c-0.107,-1.439 -0.159,-2.266 -0.159,-2.511c-0.637,-3.828 -1.486,-8.906 -2.548,-15.236c-1.062,-6.33 -2.07,-12.547 -3.026,-18.641c-0.955,-6.095 -1.805,-11.418 -2.547,-15.961c-0.744,-4.543 -1.221,-7.045 -1.434,-7.524l-3.185,-7.176l-3.185,3.592l-16.561,75.289Z" style="fill:#67652d;fill-rule:nonzero;stroke:#67652d;stroke-width:6.51px;"/></g><g><path d="M329.622,656.439c3.014,-7.959 5.576,-14.594 7.686,-19.906c2.11,-5.306 3.769,-9.462 4.975,-12.47c1.406,-3.015 2.713,-5.883 3.919,-8.627c1.206,-2.743 2.512,-5.444 3.918,-8.097c1.206,-2.653 2.161,-4.909 2.864,-6.768c0.704,-1.859 1.357,-3.321 1.959,-4.379c0.403,-0.71 1.257,-1.817 2.564,-3.321c1.305,-1.504 2.16,-2.52 2.562,-3.05l-0,83.871l31.05,-0c-0,-12.561 -0.252,-25.608 -0.754,-39.15c-0.503,-13.536 -1.156,-27.112 -1.959,-40.738c-0.805,-13.626 -1.658,-27.077 -2.563,-40.341c-0.905,-13.27 -1.758,-25.928 -2.563,-37.959l-21.403,-0l-32.255,73.788l-4.221,6.106l-35.873,-75.118l-21.102,-0c-1.005,12.038 -2.01,24.689 -3.014,37.959c-1.005,13.271 -1.86,26.716 -2.564,40.341c-0.702,13.626 -1.305,27.203 -1.808,40.745c-0.502,13.535 -0.754,26.673 -0.754,39.408l31.05,-0l0,-83.871c0.603,0.536 1.507,1.553 2.713,3.057c1.206,1.504 2.111,2.604 2.714,3.314c1.004,1.949 2.612,5.528 4.823,10.75c2.211,5.222 4.723,10.924 7.536,17.121c2.814,6.015 4.773,11.014 5.879,14.997c1.105,3.983 2.663,8.09 4.672,12.338c3.819,2.478 7.135,2.478 9.949,-0Z" style="fill:#67652d;fill-rule:nonzero;stroke:#67652d;stroke-width:6.51px;"/></g><g><path d="M428.32,636.677c0,-11.835 0.041,-23.06 0.123,-33.666c0.082,-10.615 0.245,-21.221 0.49,-31.836c0.245,-10.606 0.571,-21.422 0.979,-32.438c0.408,-11.024 0.858,-22.963 1.348,-35.818l24.004,0c-0,14.084 -0.205,28.319 -0.612,42.699c-0.408,14.389 -0.94,28.929 -1.592,43.615c-0.653,14.693 -1.225,29.386 -1.715,44.08c-0.49,14.693 -1.388,28.158 -2.694,40.402l-17.391,0l-2.695,-10.1l0,-3.373c0,-2.24 -0.04,-4.841 -0.122,-7.804c-0.082,-2.955 -0.123,-5.861 -0.123,-8.72l0,-7.041Z" style="fill:#67652d;fill-rule:nonzero;stroke:#67652d;stroke-width:6.51px;"/></g><g><path d="M481.964,476.434l0.608,34.125l0,29.437c0,2.457 0.05,5.863 0.152,10.207c0.1,4.353 0.252,9.426 0.455,15.228c0.202,5.793 0.405,12.042 0.608,18.73c0.202,6.696 0.404,13.498 0.607,20.414c0.404,11.375 0.708,21.416 0.911,30.113c0.202,8.698 0.303,17.062 0.303,25.093l0,12.375c0,1.343 -0.101,2.791 -0.303,4.354c3.441,-0 7.692,0.105 12.754,0.333c5.06,0.22 9.919,0.334 14.575,0.334c7.895,-0 15.386,-1.168 22.471,-3.511c7.085,-2.343 13.311,-5.854 18.675,-10.541c5.365,-4.687 9.616,-10.593 12.754,-17.738c3.138,-7.135 4.706,-15.499 4.706,-25.084c0,-7.144 -1.011,-13.718 -3.036,-19.747c-2.024,-6.021 -4.707,-11.647 -8.047,-16.896c-3.341,-5.239 -7.136,-10.198 -11.387,-14.885c-4.251,-4.687 -8.604,-9.146 -13.058,-13.385l0,-3.677l2.126,-3.686c2.834,-4.011 5.465,-7.584 7.895,-10.699c2.43,-3.125 5.061,-6.583 7.895,-10.374c2.834,-3.792 4.96,-8.76 6.378,-14.895c1.416,-6.126 1.416,-11.646 -0,-16.553c-1.62,-4.686 -4.505,-8.592 -8.655,-11.717c-4.151,-3.115 -7.946,-5.125 -11.388,-6.02c-2.227,-1.335 -8.502,-1.782 -18.826,-1.335c-1.013,0.22 -2.126,0.334 -3.341,0.334l-30.366,-0c-1.619,-0 -3.441,-0.114 -5.466,-0.334Zm25.508,165.276l-0,-67.915c5.061,0 9.767,1.115 14.12,3.344c4.352,2.229 8.199,5.24 11.539,9.031c3.34,3.792 5.973,8.084 7.895,12.885c1.923,4.792 2.886,9.865 2.886,15.219c-0,0.667 -0.052,1.729 -0.152,3.177c-0.102,1.457 -0.203,3.019 -0.304,4.687c-0.101,1.676 -0.203,3.238 -0.305,4.686c-0.1,1.449 -0.151,2.511 -0.151,3.178c-2.834,4.906 -6.832,8.144 -11.994,9.698c-5.163,1.562 -10.072,2.343 -14.728,2.343c-0.81,0 -2.328,-0.052 -4.555,-0.166c-2.226,-0.106 -3.644,-0.167 -4.251,-0.167Zm-0,-142.526c18.422,1.782 26.924,5.125 25.508,10.032c-0.811,3.124 -2.785,7.592 -5.922,13.384c-3.137,5.802 -7.338,12.937 -12.602,21.416l-8.199,-0.667l1.215,-44.165Z" style="fill:#67652d;fill-rule:nonzero;stroke:#67652d;stroke-width:6.51px;"/></g><g><path d="M597.555,527.457c8.428,11.27 18.122,11.27 29.079,0l1.896,-37.826l-32.556,-0c0,7.381 0.158,14.198 0.474,20.45c0.316,6.252 0.685,12.044 1.107,17.376Z" style="fill:#67652d;fill-rule:nonzero;stroke:#67652d;stroke-width:6.51px;"/></g><g><path d="M658.385,647.155c-0.607,12.488 1.671,21.176 6.836,26.065c5.165,4.897 13.525,7.337 25.062,7.337c6.888,0 13.375,-0.991 19.451,-2.964c6.076,-1.974 11.393,-4.889 15.951,-8.738c4.557,-3.857 8.149,-8.639 10.787,-14.363c2.638,-5.724 3.952,-12.431 3.952,-20.137c-0,-8.115 -1.571,-15.714 -4.711,-22.79c-3.141,-7.075 -7.144,-13.626 -11.999,-19.661c-4.865,-6.035 -10.285,-11.759 -16.259,-17.172c-5.973,-5.413 -11.701,-10.507 -17.172,-15.297c-2.227,-2.285 -3.438,-4.578 -3.643,-6.863c-0.206,-2.293 -0.298,-4.897 -0.298,-7.804c-0,-5.208 1.262,-9.417 3.798,-12.643c2.525,-3.227 5.717,-5.724 9.566,-7.493c3.849,-1.769 8.109,-3.022 12.758,-3.751c4.66,-0.729 9.125,-1.195 13.374,-1.4c0.206,-0.622 0.503,-1.826 0.914,-3.595c0.4,-1.769 0.811,-3.636 1.211,-5.618c0.411,-1.973 0.76,-3.848 1.068,-5.617c0.297,-1.769 0.451,-2.965 0.451,-3.587c0,-0.213 0.052,-0.835 0.154,-1.875c0.103,-1.04 0.154,-1.876 0.154,-2.498c0,-2.08 -0.759,-3.644 -2.278,-4.684c-1.52,-1.04 -3.347,-1.712 -5.471,-2.031c-2.125,-0.311 -4.352,-0.409 -6.682,-0.311c-2.33,0.106 -4.209,0.156 -5.625,0.156c-6.887,-0 -13.415,1.146 -19.594,3.439c-6.179,2.285 -11.65,5.511 -16.413,9.671c-4.758,4.168 -8.556,9.262 -11.392,15.297c-2.836,6.035 -4.253,12.906 -4.253,20.603c-0,7.288 1.265,13.741 3.797,19.359c2.533,5.618 5.621,10.768 9.267,15.452c3.649,4.685 7.703,9.049 12.158,13.111c4.454,4.053 8.509,8.222 12.153,12.488c3.643,4.267 6.733,8.787 9.268,13.577c2.525,4.783 3.798,10.196 3.798,16.231c-0,7.075 -1.827,12.537 -5.471,16.394c-3.654,3.849 -9.012,5.773 -16.104,5.773c-4.455,0 -8.715,-0.679 -12.759,-2.031c-4.055,-1.351 -8.208,-2.03 -12.462,-2.03l-3.342,-0Z" style="fill:#67652d;fill-rule:nonzero;stroke:#67652d;stroke-width:6.51px;"/></g><g><path d="M836.272,514.357l37.186,155.337c0.634,2.413 1.052,4.32 1.267,5.728c0.215,1.409 0.58,2.516 1.116,3.315c0.526,0.808 1.214,1.314 2.062,1.512c0.848,0.198 2.222,0.3 4.133,0.3c7.203,0 11.754,-3.616 13.665,-10.855l41.63,-180.071l-34.319,-0l-3.5,6.939c-0.419,1.804 -0.955,4.668 -1.589,8.593c-0.633,3.924 -1.32,8.348 -2.061,13.269c-0.74,4.929 -1.535,10.057 -2.383,15.39c-0.848,5.325 -1.642,10.452 -2.383,15.381c-0.741,4.922 -1.385,9.298 -1.911,13.119c-0.526,3.822 -0.902,6.639 -1.116,8.443c-0,0.601 -0.151,1.764 -0.473,3.473c-0.322,1.709 -0.687,3.569 -1.116,5.579c-0.419,2.009 -0.795,3.821 -1.106,5.427c-0.322,1.607 -0.59,2.714 -0.794,3.316l-3.822,-3.616l-14.932,-70.579c-0.419,-2.01 -1.374,-3.117 -2.856,-3.323c-1.481,-0.198 -2.866,-0.301 -4.133,-0.301l-4.133,0c-0.633,0 -1.857,0.151 -3.65,0.451c-1.803,0.309 -3.66,0.657 -5.56,1.06c-1.911,0.404 -3.768,0.808 -5.561,1.203c-1.803,0.404 -3.027,0.704 -3.661,0.91Z" style="fill:#67652d;fill-rule:nonzero;stroke:#67652d;stroke-width:6.51px;"/></g><g><path d="M1040.51,639.552l-3.206,-2.845l-44.896,-2.845c-0.206,0 -0.693,0.71 -1.441,2.136c-0.747,1.419 -1.332,2.606 -1.765,3.554c-0.423,1.143 -1.116,3.039 -2.081,5.698c-0.964,2.658 -1.982,5.451 -3.044,8.393c-1.072,2.942 -2.037,5.787 -2.892,8.542c-0.856,2.748 -1.387,4.697 -1.604,5.832l-3.207,2.852l-27.582,0l58.372,-167.95l46.184,0l0,22.775c-2.567,-0.948 -4.55,-1.232 -5.937,-0.851c-1.386,0.381 -2.405,1.09 -3.044,2.128c-0.65,1.045 -1.018,2.188 -1.127,3.42c-0.108,1.232 -0.162,2.322 -0.162,3.27c-0,0.762 0.108,1.897 0.325,3.42c0.217,1.516 0.314,2.464 0.314,2.845l34.961,133.788l-28.536,0c-0.217,0 -0.748,-0.717 -1.604,-2.135c-0.856,-1.427 -1.397,-2.614 -1.603,-3.562c-0.434,-1.135 -0.964,-3.032 -1.604,-5.69c-0.65,-2.658 -1.289,-5.503 -1.928,-8.543c-0.639,-3.031 -1.235,-5.876 -1.766,-8.534c-0.531,-2.659 -0.91,-4.555 -1.127,-5.698Zm-42.327,-31.309l29.5,-0c1.929,-0 3.001,-0.949 3.218,-2.845c0.206,-1.897 0.314,-3.226 0.314,-3.988c-0,-0.567 -0.054,-1.418 -0.163,-2.561c-0.108,-1.142 -0.151,-1.799 -0.151,-1.994c-0.65,-3.039 -1.506,-7.071 -2.568,-12.096c-1.072,-5.026 -2.091,-9.961 -3.055,-14.8c-0.953,-4.839 -1.809,-9.065 -2.557,-12.672c-0.747,-3.606 -1.235,-5.593 -1.451,-5.973l-3.207,-5.698l-3.207,2.853l-16.673,59.774Z" style="fill:#67652d;fill-rule:nonzero;stroke:#67652d;stroke-width:6.51px;"/></g><g><path d="M1125.19,469.337c-5.706,-0 -9.936,0.239 -12.7,0.708c-2.753,0.46 -4.918,1.048 -6.494,1.747c-1.577,1.168 -2.465,2.226 -2.654,3.154c-0.2,0.24 -0.299,9.933 -0.299,29.098l-2.066,108.335c0,1.628 -0.05,4.377 -0.149,8.24c-0.1,3.853 -0.2,8.12 -0.29,12.792c-0.099,4.672 -0.199,9.528 -0.299,14.549c-0.1,5.021 -0.15,9.518 -0.15,13.5l0,12.269l59.66,-0l3.243,-28.749l-37.802,0l0,-175.643Z" style="fill:#67652d;fill-rule:nonzero;stroke:#67652d;stroke-width:6.51px;"/></g><g><path d="M1217.35,495.383c-6.123,-0 -10.662,0.208 -13.627,0.617c-2.955,0.402 -5.278,0.915 -6.969,1.525c-1.692,1.019 -2.634,1.942 -2.848,2.752c-0.214,0.209 -0.321,8.666 -0.321,25.388l-2.216,94.521c-0,1.42 -0.054,3.819 -0.161,7.189c-0.107,3.362 -0.203,7.085 -0.31,11.161c-0.107,4.077 -0.214,8.313 -0.321,12.694c-0.107,4.381 -0.161,8.305 -0.161,11.779l0,10.704l64.016,0l3.49,-25.082l-40.572,-0l0,-153.248Z" style="fill:#67652d;fill-rule:nonzero;stroke:#67652d;stroke-width:6.51px;"/></g><g><path d="M1277.53,482.675c-1.237,22.847 -2.036,46.925 -2.411,72.217c-0.362,25.291 -0.8,50.137 -1.287,74.547l0,44.263l75.066,-0l0,-27.291l-39.201,-0l0,-56.581l34.767,-0l-0,-30.949l-38.826,0l-0,-46.925l51.768,0l-0,-28.949l-4.435,-3.999c-0.25,0 -1.912,-0.052 -4.997,-0.166c-3.086,-0.113 -5.359,-0.166 -6.846,-0.166c-5.909,0 -11.218,0.114 -15.903,0.332c-4.672,0.227 -9.356,0.498 -14.041,0.838c-4.685,0.332 -9.744,0.716 -15.166,1.161c-5.421,0.446 -11.592,0.996 -18.488,1.668Z" style="fill:#67652d;fill-rule:nonzero;stroke:#67652d;stroke-width:6.51px;"/></g><g><path d="M1378.77,525.277l34.637,90.713l-0,56.694l25.183,1.034l1.255,-61.338l38.412,-97.67l-36.838,0c-0.415,1.542 -1.149,4.462 -2.202,8.762c-1.053,4.293 -2.148,8.843 -3.307,13.656c-1.149,4.814 -2.255,9.364 -3.308,13.657c-1.042,4.299 -1.786,7.22 -2.201,8.768c0,0.338 -0.159,1.028 -0.468,2.062c-0.319,1.028 -0.691,2.143 -1.106,3.346c-0.425,1.204 -0.84,2.319 -1.255,3.354c-0.425,1.027 -0.744,1.717 -0.946,2.062l-3.786,-2.062l-14.474,-43.038c-0.627,-1.203 -1.627,-1.893 -2.988,-2.062c-1.372,-0.176 -2.787,-0.264 -4.254,-0.264l-3.776,0c-0.84,0 -2.158,0.136 -3.934,0.393c-1.787,0.257 -3.627,0.513 -5.509,0.77c-1.893,0.257 -3.733,0.514 -5.509,0.771c-1.787,0.257 -2.988,0.392 -3.626,0.392Z" style="fill:#67652d;fill-rule:nonzero;stroke:#67652d;stroke-width:6.51px;"/></g><g><g><path d="M694.536,422.649c-6.406,-2.071 -13.916,-3.793 -16.689,-3.824c-2.772,-0.034 -9.498,-1.351 -14.946,-2.93c-5.448,-1.58 -12.624,-3.315 -15.948,-3.855c-6.205,-1.01 -11.595,-4.764 -12.946,-9.017c-0.976,-3.08 3.352,-9.156 9.834,-13.804c3.171,-2.273 9.011,-6.958 12.976,-10.412c8.124,-7.071 24.429,-18.488 36.055,-25.243c11.168,-6.491 45.414,-15.783 58.163,-15.783c6.986,0 11.209,-0.741 19.216,-3.372c5.644,-1.855 14.506,-3.814 19.692,-4.352c10.375,-1.077 36.627,-9.147 44.622,-13.718c2.609,-1.492 7.49,-3.587 10.847,-4.656c8.193,-2.608 15.825,-6.515 23.851,-12.205c3.661,-2.596 9.902,-6.207 13.867,-8.021c3.966,-1.817 10.457,-5.845 14.422,-8.952c3.966,-3.107 12.952,-9.948 19.969,-15.203c7.017,-5.256 15.253,-11.516 18.305,-13.912c9.626,-7.56 20.634,-11.886 48.219,-18.952l9.479,-2.428l8.299,2.521c7.775,2.36 8.896,3.125 17.768,12.116c5.284,5.354 13.854,15.97 19.388,24.017c8.187,11.906 13.797,18.302 32.148,36.646c15.836,15.832 25.421,24.441 33.324,29.928c6.102,4.237 14.339,10.729 18.305,14.427c3.966,3.698 12.203,10.283 18.305,14.632c6.101,4.35 14.713,11.641 19.136,16.204c6.873,7.088 8.043,8.859 8.043,12.178c0,2.754 -0.936,4.886 -3.218,7.329c-3.103,3.322 -3.55,3.445 -12.483,3.445c-6.967,0 -12.153,0.826 -20.908,3.328l-11.644,3.329l-36.058,-0.003c-21.109,-0.005 -37.747,-0.477 -40.134,-1.139c-2.244,-0.625 -7.146,-3.491 -10.894,-6.374c-22.671,-17.432 -29.021,-20.216 -46.113,-20.216c-7.418,0 -12.671,0.788 -21.513,3.229c-9.877,2.725 -14.724,3.355 -31.113,4.043c-37.568,1.575 -61.148,0.454 -77.813,-3.701c-10.961,-2.732 -12.23,-2.837 -17.75,-1.453c-10.287,2.577 -29.075,9.196 -33.122,11.668c-9.931,6.066 -34.178,17.015 -49.639,22.415l-17.051,5.955l-16.3,-0.057c-15.428,-0.055 -16.926,-0.261 -27.951,-3.825l0,-0.003Z" style="fill:#857c4d;"/></g><g><path d="M302.093,397.654c-3.406,-1.37 -6.689,-8.322 -5.119,-10.841c0.645,-1.036 5.397,-4.879 10.561,-8.54c5.165,-3.66 13.156,-9.945 17.756,-13.969c4.602,-4.022 15.555,-12.162 24.341,-18.087c35.449,-23.911 48.208,-34.107 70.888,-56.64c11.898,-11.822 24.494,-23.469 27.989,-25.883c3.844,-2.655 11.736,-6.266 19.969,-9.138c9.178,-3.203 16.504,-6.648 22.487,-10.572c12.366,-8.112 28.958,-25.619 39.903,-42.102c11.462,-17.261 18.792,-27.267 26.011,-35.5c3.21,-3.661 8.481,-10.4 11.716,-14.976c10.704,-15.145 15.474,-18.027 28.961,-17.497c6.261,0.247 8.595,-0.175 12.668,-2.286c7.227,-3.746 14.515,-11.272 24.347,-25.147c4.755,-6.711 9.784,-13.202 11.173,-14.422c3.852,-3.383 13.547,-16.888 17.918,-24.961c14.556,-26.882 20.295,-34.729 38.224,-52.266c22.101,-21.618 22.91,-21.395 45.999,12.689c4.888,7.216 10.983,15.749 13.547,18.962c2.562,3.214 7.816,10.29 11.673,15.725c3.859,5.436 8.985,12.379 11.391,15.429c2.409,3.052 7.364,9.946 11.014,15.321c6.189,9.115 6.636,10.199 6.631,16.086c-0.008,12.474 -10.945,23.426 -27.974,28.011c-5.668,1.527 -14.405,9.617 -17.67,16.359c-3.159,6.527 -9.122,13.129 -14.182,15.702c-7.699,3.917 -18.984,6.701 -27.152,6.701c-8.388,0 -18.927,2.574 -33.732,8.239c-5.896,2.254 -9.928,4.784 -14.75,9.248c-8.208,7.598 -11.269,12.737 -14.368,24.115c-2.896,10.636 -5.087,15.124 -10.383,21.264c-4.904,5.685 -16.425,14.026 -22.959,16.622c-2.675,1.062 -6.363,2.801 -8.193,3.865c-4.42,2.566 -18.908,6.507 -23.922,6.507c-4.593,-0 -35.262,8.694 -40.833,11.574c-5.847,3.024 -13.039,10.238 -19.868,19.929c-12.388,17.578 -19.753,22.676 -34.528,23.9c-11.806,0.978 -14.814,2.395 -37.801,17.814c-39.958,26.803 -64.573,40.43 -79.345,43.93c-4.272,1.012 -13.258,3.273 -19.969,5.028c-6.712,1.752 -13.336,3.187 -14.721,3.186c-1.383,-0 -7.921,1.747 -14.527,3.881c-11.982,3.874 -18.446,4.639 -23.171,2.74Z" style="fill:#d3c86d;"/></g><g><path d="M508.309,388.258c-2.078,-2.367 -3.473,-5.171 -3.47,-6.971c0.008,-2.82 0.541,-4.167 4.804,-12.122c3.642,-6.799 8.791,-18.639 10.268,-23.618c1.086,-3.652 3.074,-6.658 6.489,-9.806c5.587,-5.149 6.487,-5.431 19.48,-6.106c7.356,-0.381 13.209,-1.702 26.625,-6.008c26.626,-8.547 27.915,-9.223 66.562,-34.956c9.227,-6.143 16.851,-12.907 36.676,-32.539c24.97,-24.727 25.053,-24.795 36.055,-29.896c14.517,-6.731 16.854,-8.657 25.424,-20.948c7.375,-10.578 12.546,-15.946 18.158,-18.848c3.383,-1.748 28.146,-8.97 34.702,-10.118c6.887,-1.207 11.339,-4.838 36.194,-29.518c25.205,-25.029 31.927,-30.378 39.526,-31.45c6.739,-0.951 18.676,2.901 27.313,8.813c3.965,2.714 16.027,13.823 26.801,24.684c16.414,16.548 19.794,20.515 20.844,24.466c3.067,11.543 -2.529,19.349 -42.437,59.202c-33.234,33.188 -35.056,34.617 -43.851,34.392c-2.238,-0.057 -14.811,-0.401 -27.941,-0.763l-23.872,-0.66l-7.47,3.895c-7.237,3.772 -20.337,12.715 -35.199,24.032c-16.637,12.668 -51.131,27.672 -63.782,27.746c-1.834,0.012 -8.328,1.499 -14.43,3.308c-6.415,1.902 -13.709,3.298 -17.294,3.309c-5.855,0.017 -19.429,3.492 -29.299,7.496c-7.457,3.026 -11.285,6.573 -19.31,17.891c-8.506,11.997 -11.645,15.087 -22.449,22.095c-9.967,6.467 -19.736,9.115 -33.626,9.115c-8.782,0 -13.444,0.663 -22.745,3.232c-6.434,1.777 -14.752,3.541 -18.484,3.921c-6.727,0.684 -6.816,0.656 -10.262,-3.27Z" style="fill:#b1ae72;"/></g></g></g></svg>