<?xml version="1.0" encoding="UTF-8" standalone="no"?><!DOCTYPE svg PUBLIC "-//W3C//DTD SVG 1.1//EN" "http://www.w3.org/Graphics/SVG/1.1/DTD/svg11.dtd"><svg width="100%" height="100%" viewBox="0 0 1787 356" version="1.1" xmlns="http://www.w3.org/2000/svg" xmlns:xlink="http://www.w3.org/1999/xlink" xml:space="preserve" xmlns:serif="http://www.serif.com/" style="fill-rule:evenodd;clip-rule:evenodd;stroke-linejoin:round;stroke-miterlimit:2;"><g><path d="M73.598,93.56c23.228,-0 41.889,7.317 55.982,21.951c14.093,14.634 22.706,34.406 25.838,59.316l-26.229,-0c-1.566,-16.503 -7.243,-30.125 -17.03,-40.867c-9.787,-10.743 -22.901,-16.114 -39.344,-16.114c-14.093,0 -25.12,4.126 -33.08,12.377c-7.96,8.251 -11.94,19.227 -11.94,32.927c0,10.275 2.545,18.527 7.634,24.754c5.089,6.227 11.418,10.976 18.987,14.245c7.568,3.27 17.747,6.617 30.535,10.042c15.66,4.359 28.252,8.796 37.778,13.311c9.526,4.515 17.682,11.598 24.468,21.251c6.785,9.652 10.178,22.729 10.178,39.232c0,20.239 -6.329,36.819 -18.987,49.741c-12.657,12.922 -29.426,19.382 -50.305,19.382c-24.533,0 -44.629,-7.239 -60.288,-21.717c-15.659,-14.479 -24.924,-34.329 -27.795,-59.549l26.621,-0c1.566,16.813 7.699,30.514 18.399,41.1c10.701,10.587 25.186,15.88 43.455,15.88c13.571,-0 24.141,-4.204 31.71,-12.611c7.568,-8.407 11.353,-19.304 11.353,-32.693c-0,-10.898 -2.61,-19.616 -7.83,-26.155c-5.22,-6.539 -11.679,-11.443 -19.378,-14.712c-7.699,-3.27 -18.204,-6.772 -31.515,-10.509c-15.398,-4.359 -27.729,-8.718 -36.994,-13.077c-9.266,-4.359 -17.16,-11.132 -23.685,-20.317c-6.525,-9.185 -9.787,-21.718 -9.787,-37.598c-0,-20.861 6.394,-37.675 19.182,-50.441c12.789,-12.766 30.144,-19.149 52.067,-19.149Z" style="fill:#58585a;fill-rule:nonzero;"/><path d="M297.525,93.56c21.662,-0 40.127,6.694 55.395,20.083c15.268,13.389 25.773,31.137 31.514,53.244l0,-70.058l27.012,0l0,255.01l-27.012,0l0,-70.058c-5.741,22.107 -16.246,39.855 -31.514,53.244c-15.268,13.389 -33.733,20.083 -55.395,20.083c-19.313,0 -36.603,-5.293 -51.871,-15.879c-15.268,-10.587 -27.142,-25.766 -35.625,-45.538c-8.482,-19.772 -12.723,-42.891 -12.723,-69.357c0,-26.778 4.241,-50.052 12.723,-69.824c8.483,-19.772 20.292,-34.873 35.43,-45.304c15.137,-10.431 32.492,-15.646 52.066,-15.646Zm7.047,28.957c-24.011,-0 -43.259,9.107 -57.743,27.322c-14.485,18.215 -21.727,43.047 -21.727,74.495c-0,31.448 7.242,56.28 21.727,74.495c14.484,18.215 33.732,27.322 57.743,27.322c15.137,0 28.774,-4.203 40.91,-12.61c12.136,-8.407 21.662,-20.317 28.578,-35.73c6.916,-15.412 10.374,-33.238 10.374,-53.477c0,-20.239 -3.458,-38.065 -10.374,-53.477c-6.916,-15.413 -16.442,-27.323 -28.578,-35.73c-12.136,-8.407 -25.773,-12.61 -40.91,-12.61Z" style="fill:#58585a;fill-rule:nonzero;"/><path d="M577.826,92.159c24.794,-0 44.955,9.418 60.484,28.256c15.528,18.838 23.293,46.472 23.293,82.902l-0,148.522l-27.012,0l-0,-146.187c-0,-27.712 -5.873,-48.963 -17.617,-63.752c-11.745,-14.79 -27.795,-22.185 -48.152,-22.185c-21.401,-0 -38.431,8.173 -51.089,24.52c-12.657,16.347 -18.986,40.4 -18.986,72.159l-0,135.445l-27.795,0l-0,-255.01l27.795,0l-0,62.585c5.48,-21.796 15.398,-38.454 29.752,-49.975c14.354,-11.52 30.797,-17.28 49.327,-17.28Z" style="fill:#58585a;fill-rule:nonzero;"/><path d="M809.582,93.56c21.662,-0 40.127,6.694 55.395,20.083c15.268,13.389 25.642,31.137 31.123,53.244l-0,-160.666l27.403,0l0,345.618l-27.403,0l-0,-70.058c-5.481,22.107 -15.855,39.855 -31.123,53.244c-15.268,13.389 -33.733,20.083 -55.395,20.083c-19.313,0 -36.603,-5.293 -51.871,-15.879c-15.268,-10.587 -27.142,-25.766 -35.625,-45.538c-8.482,-19.772 -12.723,-42.891 -12.723,-69.357c0,-26.778 4.241,-50.052 12.723,-69.824c8.483,-19.772 20.292,-34.873 35.43,-45.304c15.137,-10.431 32.492,-15.646 52.066,-15.646Zm7.047,28.957c-24.011,-0 -43.259,9.107 -57.743,27.322c-14.485,18.215 -21.727,43.047 -21.727,74.495c-0,31.448 7.242,56.28 21.727,74.495c14.484,18.215 33.732,27.322 57.743,27.322c15.137,0 28.774,-4.203 40.91,-12.61c12.136,-8.407 21.662,-20.317 28.578,-35.73c6.916,-15.412 10.374,-33.238 10.374,-53.477c0,-20.239 -3.458,-38.065 -10.374,-53.477c-6.916,-15.413 -16.442,-27.323 -28.578,-35.73c-12.136,-8.407 -25.773,-12.61 -40.91,-12.61Z" style="fill:#58585a;fill-rule:nonzero;"/><path d="M1271.92,96.829l-63.028,255.01l-28.97,0l-64.202,-216.712l-64.986,216.712l-28.578,0l-63.029,-255.01l27.795,0l50.893,220.915l64.203,-220.915l28.186,0l64.595,220.915l50.501,-220.915l26.62,0Z" style="fill:#58585a;fill-rule:nonzero;"/><path d="M1400.33,328.019c19.313,0 35.494,-5.76 48.544,-17.28c13.049,-11.521 20.879,-27.089 23.489,-46.706l28.969,0c-3.915,27.089 -14.746,49.041 -32.493,65.855c-17.747,16.814 -40.192,25.22 -67.334,25.22c-20.357,0 -38.431,-5.215 -54.221,-15.646c-15.789,-10.431 -28.121,-25.532 -36.994,-45.304c-8.874,-19.772 -13.311,-43.046 -13.311,-69.824c0,-26.778 4.437,-50.052 13.311,-69.824c8.873,-19.772 21.205,-34.873 36.994,-45.304c15.79,-10.431 33.864,-15.646 54.221,-15.646c20.879,-0 38.952,5.215 54.22,15.646c15.267,10.431 26.881,24.364 34.841,41.801c7.961,17.437 11.941,36.43 11.941,56.98c-0,8.719 -0.522,16.658 -1.566,23.82l-176.95,-0c0.261,21.484 3.98,39.466 11.158,53.944c7.177,14.479 16.507,25.143 27.99,31.993c11.484,6.85 23.881,10.275 37.191,10.275Zm1.175,-207.837c-13.833,-0 -26.491,3.425 -37.974,10.275c-11.484,6.85 -20.814,17.359 -27.991,31.526c-7.177,14.167 -11.027,31.837 -11.549,53.01l151.112,0c1.044,-20.862 -1.827,-38.454 -8.613,-52.777c-6.785,-14.323 -15.92,-24.909 -27.403,-31.759c-11.484,-6.85 -24.011,-10.275 -37.582,-10.275Z" style="fill:#58585a;fill-rule:nonzero;"/><path d="M1579.62,149.606c6.264,-18.371 16.312,-32.538 30.144,-42.502c13.833,-9.964 30.666,-14.945 50.501,-14.945l0,35.495l-9.004,0c-20.618,0 -37.712,6.617 -51.284,19.85c-13.571,13.233 -20.357,34.795 -20.357,64.687l0,139.648l-27.795,0l0,-255.01l27.795,0l0,52.777Z" style="fill:#58585a;fill-rule:nonzero;"/><path d="M1786.72,29.107c-19.835,-0.312 -33.733,3.97 -41.693,12.844c-7.96,8.874 -11.94,23.741 -11.94,44.603l-0,10.275l53.633,0l-0,28.957l-53.633,0l-0,226.053l-27.404,0l0,-226.053l-31.71,0l0,-28.957l31.71,0l0,-12.61c0,-28.646 6.525,-50.13 19.574,-64.453c13.05,-14.323 33.537,-20.862 61.463,-19.617l-0,28.958Z" style="fill:#58585a;fill-rule:nonzero;"/></g></svg>