<?xml version="1.0" encoding="UTF-8" standalone="no"?><!DOCTYPE svg PUBLIC "-//W3C//DTD SVG 1.1//EN" "http://www.w3.org/Graphics/SVG/1.1/DTD/svg11.dtd"><svg width="100%" height="100%" viewBox="0 0 849 532" version="1.1" xmlns="http://www.w3.org/2000/svg" xmlns:xlink="http://www.w3.org/1999/xlink" xml:space="preserve" xmlns:serif="http://www.serif.com/" style="fill-rule:evenodd;clip-rule:evenodd;stroke-linejoin:round;stroke-miterlimit:2;"><path d="M280.082,57.373c-0.15,4.316 -4.602,8.481 -8.912,8.481c-9.057,0 -9.057,-1.15 -17.969,-1.15c-9.046,-0 -9.046,0.292 -18.105,0.292c-4.454,-0 -8.047,2.298 -10.919,5.174c-3.026,3.019 -4.599,6.609 -4.599,11.06c-0,8.484 -0.147,8.484 -0.147,16.962c-0,8.479 -0.864,8.479 -0.864,16.816c0,8.477 1.148,8.477 1.148,16.959c0,8.478 -1.579,8.478 -1.579,16.964c-0,4.45 -2.873,7.471 -7.472,7.323c-4.313,-0.145 -7.616,-3.301 -7.616,-7.62c0,-8.331 0.724,-8.331 0.724,-16.805c0,-8.481 -1.592,-8.481 -1.592,-16.821c-0,-8.479 0.574,-8.479 0.574,-16.957c-0,-8.337 -0.137,-8.337 -0.137,-16.821c-0,-4.451 -1.438,-8.475 -4.461,-11.494c-2.872,-2.879 -6.898,-5.032 -11.493,-5.032c-8.909,-0 -8.909,1.009 -17.969,1.009c-8.906,0 -8.906,-0.571 -17.966,-0.571c-4.306,-0 -7.323,-3.453 -7.471,-7.904c-0.141,-4.458 2.734,-8.778 7.332,-8.778c7.477,-0 7.477,0.289 15.088,0.289l30.186,0c7.47,0 7.47,1.01 15.086,1.01c7.472,-0 7.472,-1.436 15.088,-1.436c7.622,-0 7.622,0.854 15.098,0.854c7.612,0 7.612,-0.717 15.087,-0.717c7.618,-0 7.618,0.717 15.09,0.717c4.453,0 8.911,3.603 8.77,8.196" style="fill:#1a171b;fill-rule:nonzero;"/><path d="M690.557,85.252c0,-6.317 -2.87,-12.216 -7.046,-16.231c-4.159,-4.175 -10.061,-6.47 -16.233,-6.47c-8.626,-0 -8.626,0.715 -17.103,0.715c-8.628,-0 -8.628,-0.715 -17.105,-0.715c-8.623,-0 -8.623,0.282 -17.1,0.282c-8.63,-0 -8.63,0.433 -17.105,0.433c-6.321,-0 -12.366,1.437 -16.526,5.465c-4.023,4.168 -6.613,10.204 -6.613,16.521c-0,8.772 -0.573,8.917 -0.435,17.68c0.145,8.913 1.009,8.913 1.009,17.679c-0,6.327 2.016,12.362 6.039,16.526c4.16,4.026 10.205,5.609 16.526,5.609c8.475,0 8.475,1.147 17.105,1.147c8.477,-0 8.477,-0.282 17.1,-0.282c8.477,-0 8.477,-0.723 17.105,-0.723c8.477,0 8.477,0.433 17.103,0.433c6.172,0 12.074,-2.294 16.233,-6.466c4.03,-4.024 6.752,-9.917 6.752,-16.244c-0,-8.766 0.153,-8.766 0.153,-17.679c0,-8.908 0.141,-8.908 0.141,-17.68m15.091,0c0,8.772 -0.284,8.772 -0.284,17.68l-0,17.679c-0,5.32 -0.862,10.209 -2.733,14.662c-2.013,4.745 -4.457,9.196 -8.055,12.648c-3.586,3.588 -7.468,7.186 -12.209,9.197c-4.598,1.868 -9.923,2.305 -15.089,2.305c-8.626,-0 -8.626,0.138 -17.103,0.138c-8.628,0 -8.628,0.433 -17.105,0.433c-8.623,0 -8.623,-1.295 -17.1,-1.295c-8.63,0 -8.63,0.142 -17.105,0.142c-5.316,0 -10.344,-0.428 -14.805,-2.298c-4.736,-2.008 -9.34,-4.594 -12.939,-8.196c-3.592,-3.586 -6.457,-8.043 -8.47,-12.646c-1.873,-4.594 -2.444,-9.77 -2.444,-15.09c-0,-8.766 0.137,-8.766 0.137,-17.679c-0,-8.908 -0.859,-8.908 -0.859,-17.68c0,-5.31 1.293,-10.486 3.166,-14.947c2.013,-4.737 4.737,-9.335 8.334,-12.932c3.596,-3.59 8.62,-5.171 13.367,-7.187c4.593,-1.864 9.197,-3.733 14.513,-3.733c8.475,0 8.475,0.719 17.105,0.719c8.477,-0 8.477,-1.292 17.1,-1.292c8.477,0 8.477,1.292 17.105,1.292c8.477,-0 8.477,-0.427 17.103,-0.427c5.166,-0 10.338,0.427 14.945,2.432c4.743,1.878 8.905,5.036 12.353,8.632c3.598,3.586 6.181,8.045 8.196,12.793c1.874,4.451 2.876,9.34 2.876,14.65" style="fill:#1a171b;fill-rule:nonzero;"/><path d="M18.127,241.604c2.284,3.712 6.709,6.417 11.13,6.417c6.711,0 6.711,-1.424 13.561,-1.424l13.551,0c6.853,0 6.853,0.853 13.562,0.853c6.852,-0 6.852,-0.421 13.556,-0.421c6.852,0 12.276,-5.142 12.42,-11.849c0.284,-7.137 -5.135,-12.991 -12.136,-12.991c-6.846,0 -6.846,-0.138 -13.693,-0.138c-6.713,-0 -6.713,0.849 -13.564,0.849c-6.851,0 -6.851,-0.143 -13.696,-0.143c-6.711,-0 -6.711,-0.28 -13.561,-0.28c-4.995,0 -10.275,2.857 -12.278,7.562c-1.563,3.71 -0.989,8.136 1.148,11.565m79.635,27.402c-3.569,-3.572 -8.567,-6.005 -13.991,-6.005c-8.421,0 -8.421,0.866 -16.837,0.866c-8.56,0 -8.56,-0.142 -16.986,-0.142c-8.422,-0 -8.422,-0.288 -16.836,-0.288c-4.563,-0 -9.275,0.998 -12.272,3.994c-3.002,2.855 -4.715,7.565 -4.715,12.135c-0,3.284 -0.135,3.284 -0.135,6.421c-0,4.567 3.136,8.128 5.987,11.132c2.996,2.997 6.572,4.567 11.135,4.567c8.414,-0 8.414,0.995 16.697,0.995c8.419,0 8.419,-0.561 16.835,-0.561l16.843,-0c5.287,-0 10.56,-1.438 14.275,-4.858c3.573,-3.424 4.707,-8.705 4.85,-14.129c0,-5.42 -1.277,-10.415 -4.85,-14.127m22.121,13.844c0,4.707 -1.285,9.418 -2.994,13.697c-1.861,4.28 -5.423,7.421 -8.567,10.705c-3.281,3.284 -6.851,5.993 -11.135,7.846c-4.281,1.712 -8.557,2.573 -13.416,2.573c-7.557,0 -7.557,1.424 -14.975,1.424c-7.57,-0 -7.57,-0.144 -14.994,-0.144c-7.564,0 -7.564,-0.856 -14.989,-0.856c-7.558,0 -7.558,0.426 -15.127,0.426c-7.417,-0 -7.417,0.143 -14.983,0.143c-4.282,0 -7.706,-3.989 -7.706,-8.279c0,-7.988 0.144,-7.988 0.144,-15.98c-0,-8.131 -0.997,-8.131 -0.997,-16.127c-0,-7.992 -0.144,-7.992 -0.144,-15.984c0,-7.989 0.997,-7.989 0.997,-15.984c0,-7.99 -0.57,-7.99 -0.57,-15.983c0,-8.138 0.57,-8.138 0.57,-16.125c0,-4.284 3.424,-8.566 7.706,-8.566c7.566,-0 7.566,0.998 14.983,0.998c7.569,0 7.569,-0.136 15.127,-0.136c7.425,0 7.425,-0.148 14.989,-0.148c7.424,-0 7.424,0.571 14.994,0.571c7.418,0 7.418,-0.287 14.975,-0.287c5.141,0 9.707,1.57 13.991,3.997c4.279,2.424 8.845,5.137 11.277,9.421c2.427,4.278 3.138,9.562 3.138,14.703c-0,7.416 -3.002,14.268 -7.848,19.259c4.56,3.285 9.133,7.28 11.7,12.283c2.428,4.842 3.854,10.694 3.854,16.553" style="fill:#1a171b;fill-rule:nonzero;"/><path d="M147.07,238.89c-0.997,9.13 7.286,14.844 15.416,14.844c7.85,-0 7.85,1.139 15.695,1.139c7.856,0 7.856,-0.568 15.702,-0.568c7.846,0 7.846,0.712 15.696,0.712c7.852,-0 7.852,-1.146 15.706,-1.146c4.424,0 7.849,4.143 7.702,8.71c-0.286,4.282 -3.567,7.705 -7.854,7.705c-7.844,0 -7.844,-0.573 -15.695,-0.573c-7.854,0 -7.854,1.143 -15.555,1.143c-7.846,0 -7.846,-0.57 -15.702,-0.57c-7.845,0 -7.845,0.714 -15.695,0.714c-3.286,-0 -6.85,0.571 -9.708,2.565c-3.561,2.572 -5.28,8.423 -4.844,13.136c0.707,6.998 7.418,13.982 14.552,13.982c8.14,-0 14.081,-0.568 22.212,-0.568c8.137,-0 8.137,-0.992 16.27,-0.992c8.129,-0 17.052,1.56 25.191,1.56c7.999,-0 7.999,-1.279 16.129,-1.279c8.135,-0 8.135,-0.281 16.275,-0.281c4.417,-0 8.414,4.555 8.27,9.131c-0.144,4.276 -4.14,6.844 -8.42,6.844c-7.418,0 -7.418,0.432 -14.836,0.432c-7.426,0 -7.426,1.143 -14.85,1.143c-7.42,0 -16.337,-0.714 -23.755,-0.714c-7.424,0 -7.424,-0.148 -14.849,-0.148c-7.423,-0 -13.367,-0.713 -20.792,-0.713c-7.418,0 -7.418,-0.136 -14.842,-0.136c-7.274,0 -7.274,0.428 -14.693,0.428c-3.854,0 -7.714,-2.145 -8.421,-5.711c-0.144,-0.574 -0.292,-1.291 -0.292,-1.717c0,-7.705 1.43,-7.705 1.43,-15.267c0,-7.564 -1.138,-7.564 -1.138,-15.131c0,-7.707 1.138,-7.707 1.138,-15.27c0,-7.564 -0.712,-7.564 -0.712,-15.127c-0,-7.706 0.573,-7.706 0.573,-15.272c-0,-4.707 -0.999,-9.562 -0.431,-14.129c0,-1.279 0.283,-2.425 0.857,-3.565c0.428,-1.147 0.994,-2.144 1.855,-2.996c4.001,-4.137 14.562,-2.141 19.978,-2.141c7.425,-0 7.425,-0.568 14.848,-0.568c7.419,-0 7.419,0.992 14.84,0.992c7.417,-0 7.417,-0.992 14.841,-0.992c7.417,-0 7.417,-0.435 14.843,-0.435c7.421,-0 7.421,0.859 14.838,0.859c7.425,0 7.425,0.568 14.85,0.568c4.421,-0 8.843,3.002 8.702,7.564c-0.144,4.279 -4.567,7.279 -8.844,7.279c-8.136,-0 -8.136,-0.14 -16.273,-0.14c-7.992,-0 -7.992,0.855 -16.124,0.855c-8.137,-0 -8.137,-0.144 -16.269,-0.144c-7.999,0 -7.999,-0.711 -16.129,-0.711c-8.13,-0 -8.13,0.999 -16.27,0.999c-5.425,0 -10.13,3.277 -13.133,7.85c-1.141,1.715 -1.998,3.709 -2.283,5.85" style="fill:#1a171b;fill-rule:nonzero;"/><path d="M353.896,266.148c-4.421,-6.277 -4.137,-6.277 -8.56,-12.414c-4.428,-6.137 -3.852,-6.568 -8.275,-12.704c-3.855,-5.421 -12.99,-5.421 -16.844,-0c-4.42,6.28 -3.709,6.708 -7.991,12.841c-4.429,6.14 -4.712,6 -9.135,12.135c-2.853,3.999 -0,9.847 4.997,9.847c6.847,0 6.847,0.572 13.701,0.572c6.706,-0 6.706,-0.861 13.555,-0.861l13.7,-0c4.999,-0 7.71,-5.423 4.852,-9.416m38.968,49.096c-1.72,-0.146 -3.284,-0.716 -4.427,-1.999c-0.571,-0.573 -0.863,-1.283 -1.286,-1.86c-5.133,-8.416 -15.555,-14.838 -24.69,-17.838c-4.705,-1.567 -9.846,-2.993 -14.986,-2.993c-9.417,-0 -9.417,0.854 -18.98,0.854l-18.836,0c-5.14,0 -10.133,1.004 -14.845,2.573c-8.848,2.85 -18.268,8.416 -23.839,15.975c-1.561,2.145 -3.135,4.86 -5.7,5.855c-2.286,0.862 -4.43,-0.144 -6.429,-1.563c-3.557,-2.433 -4.562,-7.568 -1.993,-11.135c4.558,-6.421 4.849,-6.282 9.563,-12.844c4.559,-6.42 4.283,-6.707 8.99,-13.132c4.567,-6.561 4.996,-6.281 9.701,-12.845c4.706,-6.426 4.284,-6.703 8.994,-13.128c4.712,-6.567 4.854,-6.431 9.42,-12.988c4.711,-6.569 4.137,-6.849 8.85,-13.418c1.133,-1.566 2.711,-2.993 3.993,-4.567c2.143,-2.712 3.711,-5.989 6.139,-8.562c2.143,-2.285 5.423,-3.848 8.419,-2.709c1.712,0.568 3.143,2.145 4.278,3.571c6.851,7.991 12.989,16.688 18.979,25.253c4.715,6.429 3.861,7.144 8.567,13.561c4.568,6.561 4.713,6.424 9.418,12.987c4.712,6.423 4.857,6.284 9.419,12.845c4.71,6.56 4.427,6.712 8.994,13.268c4.715,6.426 4.715,6.57 9.275,12.992c3.853,5.566 -0.569,12.562 -6.988,11.847" style="fill:#1a171b;fill-rule:nonzero;"/><path d="M526.737,247.31c-0,-4.712 -0.131,-4.712 -0.131,-9.278c-0,-4.284 -2.002,-7.852 -4.863,-10.844c-2.847,-2.857 -6.419,-4.287 -10.838,-4.287c-8.568,-0 -8.568,-0.281 -17.127,-0.281l-16.987,-0c-8.565,-0 -8.565,-0.715 -16.99,-0.715c-8.551,-0 -8.551,-0.287 -17.116,-0.287c-6.996,-0 -13.563,6.281 -13.563,13.418c0,7.562 0.29,7.562 0.29,15.27c-0,7.136 6.277,12.275 13.273,12.275c8.565,-0 8.565,1.286 17.116,1.286c8.425,0 8.425,0.144 16.99,0.144c8.565,-0 8.565,-1.01 16.987,-1.01c8.559,0 8.559,0.866 17.127,0.866c4.419,0 8.558,-2.292 11.418,-5.282c2.849,-2.853 4.414,-6.996 4.414,-11.275m14.849,55.658c2.424,3.572 1.572,9.133 -1.997,11.706c-1.426,0.992 -3.289,0.856 -4.853,0.856c-2.427,0 -4.421,-1.142 -5.995,-3.279c-5.849,-8.14 -5.714,-8.283 -11.423,-16.557c-2.565,-3.576 -6.134,-6.57 -9.555,-8.993c-3.427,-2.568 -7.847,-3.717 -11.987,-5.141c-3.998,-1.283 -8.133,-3.283 -12.558,-3.283c-8.283,-0 -8.283,-0.139 -16.697,-0.139c-8.284,0 -8.284,1.137 -16.705,1.137c-5.422,0 -10.987,1.43 -14.552,5.139c-3.711,3.567 -5.57,8.989 -5.57,14.555c-0,4.427 0.143,4.427 0.143,8.706c0,4.288 -3.28,8.135 -7.569,8.427c-4.559,0.139 -8.269,-3.716 -8.269,-8.14c-0,-7.847 0.851,-7.847 0.851,-15.695c-0,-7.704 -0.283,-7.704 -0.283,-15.557c-0,-7.849 -0.851,-7.849 -0.851,-15.703c-0,-7.704 0.138,-7.704 0.138,-15.559c0,-7.841 -0.569,-7.841 -0.569,-15.552l0,-15.695c0,-0.431 0.28,-1.147 0.431,-1.711c0.71,-3.57 4.421,-5.569 8.273,-5.569c7.423,0 7.423,-1.422 14.838,-1.422l14.703,-0c7.422,-0 7.422,0.568 14.84,0.568c7.43,-0 7.43,1.001 14.847,1.001l14.84,0c7.423,0 7.423,-1.288 14.848,-1.288c5.703,-0 10.986,2.424 15.551,5.138c4.858,2.852 8.993,6.561 11.844,11.415c2.715,4.564 3.853,9.994 3.853,15.699c0,4.566 0.851,4.566 0.851,9.278c0,7.987 -3.838,14.984 -8.838,20.554c-3.003,3.423 -3.566,8.134 -3.712,12.413c-0.291,4.286 1.002,8.281 3.571,11.99c3.85,5.274 3.707,5.422 7.561,10.701" style="fill:#1a171b;fill-rule:nonzero;"/><path d="M677.108,244.734c0,-6.271 -2.422,-12.128 -6.557,-16.267c-4.003,-3.995 -9.853,-6.562 -16.138,-6.562c-7.7,0 -7.7,-0.287 -15.407,-0.287c-7.848,0 -7.848,-0.143 -15.552,-0.143c-7.708,-0 -7.708,1.282 -15.56,1.282c-7.703,0 -7.703,-0.137 -15.416,-0.137c-5.428,0 -10.129,1.995 -13.694,5.566c-3.573,3.421 -5.282,8.129 -5.282,13.558c-0,6.852 -1.143,6.852 -1.143,13.701c-0,6.849 0.139,6.849 0.139,13.701c0,6.853 0.291,6.853 0.291,13.703c0,5.427 2.709,9.986 6.123,13.414c3.58,3.565 8.138,5.857 13.566,5.857l15.416,0c7.852,0 7.852,0.276 15.56,0.276c7.704,-0 7.704,-0.142 15.552,-0.142c7.707,-0 7.707,1.002 15.407,1.002c6.285,-0 12.277,-2.999 16.421,-6.993c3.997,-4.145 5.705,-10.137 5.705,-16.414c0,-8.709 1.147,-8.709 1.287,-17.555c0.143,-8.703 -0.718,-8.847 -0.718,-17.56m15.131,35.115c-0,5.282 0.138,10.421 -1.711,14.981c-2.005,4.712 -5.997,8.139 -9.562,11.71c-3.571,3.416 -6.848,7.559 -11.562,9.562c-4.563,1.849 -9.702,2.282 -14.991,2.282c-7.416,-0 -7.416,-0.575 -14.84,-0.575c-7.559,-0 -7.559,-0.138 -14.984,-0.138c-7.422,0 -7.422,0.849 -14.839,0.849c-7.565,0 -7.565,-0.992 -14.984,-0.992c-7.424,-0 -7.424,0.711 -14.846,0.711c-7.561,0 -7.561,-0.288 -14.984,-0.288c-4.421,0 -7.565,-3.277 -7.565,-7.565c0,-7.99 0.143,-7.99 0.143,-15.981c-0,-8.131 0.143,-8.131 0.143,-16.128c0,-7.991 -1.29,-7.991 -1.29,-15.983c-0,-7.99 0.289,-7.99 0.289,-15.983l0,-15.983c0,-8.138 -0.289,-8.138 -0.289,-16.127c-0,-4.282 4.148,-7.427 8.569,-7.427c7.423,0 7.423,-0.14 14.984,-0.14c7.422,0 7.422,-0.137 14.846,-0.137c7.419,0 7.419,-0.717 14.984,-0.717c7.417,-0 7.417,0.287 14.839,0.287c7.425,-0 7.425,-0.144 14.984,-0.144c7.424,0 7.424,0.427 14.84,0.427c5.289,-0 10.279,0.852 14.848,2.714c4.568,2.001 8.276,5.565 11.705,9.126c3.565,3.428 6.422,7.427 8.419,11.99c1.852,4.575 3.857,9.282 3.857,14.554c0,8.713 -0.865,8.713 -1.003,17.56c-0.149,8.846 -0,8.846 -0,17.555" style="fill:#1a171b;fill-rule:nonzero;"/><path d="M848.9,286.274c0,5.844 -2.712,11.133 -5.424,15.845c-2.858,4.844 -6.85,8.417 -11.707,11.268c-4.706,2.714 -9.841,4.284 -15.555,4.284c-7.989,-0 -7.989,0.712 -15.841,0.712c-7.989,0 -7.989,-0.288 -15.842,-0.288c-7.847,0 -7.847,0.426 -15.837,0.426c-7.849,-0 -7.849,-0.569 -15.704,-0.569c-7.99,-0 -7.99,-0.144 -15.839,-0.144c-5.851,0 -11.27,-0.998 -15.986,-3.708c-4.851,-2.853 -9.134,-6.847 -11.989,-11.703c-2.707,-4.708 -4.568,-10.279 -4.568,-16.123c0,-4.287 4.148,-7.135 8.568,-7.135c4.277,-0 7.848,2.848 7.848,7.135c0,4.558 2.146,8.274 4.993,11.133c2.996,2.996 6.708,5.562 11.134,5.562c7.849,0 7.849,-1.427 15.839,-1.427c7.855,-0 7.855,0.145 15.704,0.145c7.99,-0 7.99,0.71 15.837,0.71c7.999,-0 7.999,0.284 15.842,0.284c7.852,0 7.852,0.432 15.841,0.432c4.426,-0 8.993,-1.995 11.843,-4.855c2.86,-2.996 3.856,-7.426 3.856,-11.984c-0,-4.426 -1.997,-7.85 -4.988,-10.71c-2.86,-2.99 -6.285,-5.278 -10.711,-5.278c-7.989,-0 -7.989,0.571 -15.841,0.571c-7.989,0 -7.989,0.143 -15.842,0.143c-7.847,0 -7.847,-1.567 -15.837,-1.567c-7.849,0 -7.849,1.282 -15.704,1.282c-7.99,-0 -7.99,-1.282 -15.839,-1.282c-5.851,0 -10.985,-1.145 -15.696,-3.855c-4.856,-2.857 -9.424,-6.286 -12.279,-11.128c-2.707,-4.715 -3.566,-10.421 -3.566,-16.131c0,-5.849 1.002,-11.422 3.709,-16.129c2.712,-4.855 7.423,-8.136 12.27,-10.845c4.716,-2.85 9.711,-4.847 15.562,-4.847c7.849,-0 7.849,-0.719 15.839,-0.719c7.855,0 7.855,0.287 15.704,0.287c7.99,0 7.99,-0.43 15.837,-0.43c7.999,-0 7.999,0.713 15.842,0.713c7.852,0 7.852,-0.57 15.841,-0.57c5.714,0 11.561,1.571 16.273,4.28c4.851,2.856 7.992,7.708 10.843,12.562c2.71,4.71 5.287,9.849 5.287,15.698c0,4.28 -3.993,8.566 -8.424,8.566c-4.418,0 -8.701,-4.286 -8.701,-8.566c0,-4.426 -1.007,-8.562 -3.999,-11.422c-2.855,-2.85 -6.853,-4.847 -11.279,-4.847c-7.989,0 -7.989,-0.144 -15.841,-0.144c-7.989,-0 -7.989,0.571 -15.842,0.571l-15.837,0c-7.849,0 -7.849,0.281 -15.704,0.281c-7.99,-0 -7.99,-0.993 -15.839,-0.993c-4.426,-0 -7.99,2.706 -10.985,5.566c-2.855,2.997 -4.856,6.562 -4.856,10.988c-0,4.42 1.283,8.71 4.139,11.707c2.998,2.846 7.276,4.847 11.702,4.847c7.849,-0 7.849,-1.14 15.839,-1.14c7.855,0 7.855,-0.142 15.704,-0.142c7.99,0 7.99,1.425 15.837,1.425c7.999,0 7.999,-1.283 15.842,-1.283c7.852,0 7.852,1.427 15.841,1.427c5.714,-0 11.561,0.137 16.273,2.855c4.851,2.711 7.849,7.991 10.561,12.842c2.712,4.567 5.852,9.704 5.852,15.417" style="fill:#1a171b;fill-rule:nonzero;"/><path d="M31.923,375.231c0,1.3 -0.599,2.459 -1.199,3.502c-0.634,1.075 -1.515,1.868 -2.589,2.497c-1.046,0.598 -2.183,0.942 -3.442,0.942c-1.77,0 -1.77,0.16 -3.506,0.16c-1.769,0 -1.769,-0.06 -3.505,-0.06c-1.734,0 -1.734,0.095 -3.505,0.095c-1.735,0 -1.735,-0.13 -3.468,-0.13c-1.772,0 -1.772,-0.03 -3.506,-0.03c-1.294,0 -2.496,-0.222 -3.539,-0.819c-1.074,-0.634 -2.02,-1.515 -2.651,-2.595c-0.599,-1.035 -1.012,-2.262 -1.012,-3.562c-0,-0.95 0.915,-1.58 1.893,-1.58c0.952,0 1.739,0.63 1.739,1.58c-0,1.007 0.474,1.834 1.106,2.459c0.66,0.668 1.481,1.233 2.464,1.233c1.734,0 1.734,-0.309 3.506,-0.309c1.733,-0 1.733,0.026 3.468,0.026c1.771,-0 1.771,0.153 3.505,0.153c1.771,0 1.771,0.071 3.505,0.071c1.736,0 1.736,0.093 3.506,0.093c0.977,-0 1.989,-0.439 2.62,-1.075c0.628,-0.66 0.849,-1.644 0.849,-2.651c0,-0.983 -0.439,-1.738 -1.102,-2.367c-0.632,-0.665 -1.39,-1.168 -2.367,-1.168c-1.77,-0 -1.77,0.127 -3.506,0.127c-1.769,0 -1.769,0.028 -3.505,0.028c-1.734,-0 -1.734,-0.349 -3.505,-0.349c-1.735,0 -1.735,0.285 -3.468,0.285c-1.772,-0 -1.772,-0.285 -3.506,-0.285c-1.294,0 -2.433,-0.249 -3.476,-0.851c-1.075,-0.631 -2.083,-1.39 -2.714,-2.462c-0.599,-1.043 -0.788,-2.3 -0.788,-3.568c0,-1.295 0.216,-2.523 0.818,-3.565c0.601,-1.076 1.643,-1.802 2.717,-2.4c1.041,-0.632 2.149,-1.077 3.443,-1.077c1.734,0 1.734,-0.157 3.506,-0.157c1.733,0 1.733,0.064 3.468,0.064c1.771,-0 1.771,-0.095 3.505,-0.095c1.771,-0 1.771,0.166 3.505,0.166c1.736,-0 1.736,-0.135 3.506,-0.135c1.259,0 2.553,0.351 3.598,0.945c1.073,0.639 1.768,1.706 2.398,2.784c0.599,1.04 1.172,2.175 1.172,3.47c-0,0.947 -0.886,1.89 -1.867,1.89c-0.977,0 -1.924,-0.943 -1.924,-1.89c-0,-0.98 -0.223,-1.898 -0.885,-2.523c-0.634,-0.63 -1.515,-1.077 -2.492,-1.077c-1.77,-0 -1.77,-0.026 -3.506,-0.026c-1.769,-0 -1.769,0.121 -3.505,0.121l-3.505,-0c-1.735,-0 -1.735,0.062 -3.468,0.062c-1.772,0 -1.772,-0.217 -3.506,-0.217c-0.983,-0 -1.769,0.599 -2.433,1.23c-0.63,0.668 -1.075,1.45 -1.075,2.43c0,0.977 0.286,1.923 0.919,2.593c0.661,0.629 1.606,1.073 2.589,1.073c1.734,-0 1.734,-0.255 3.506,-0.255c1.733,0 1.733,-0.035 3.468,-0.035c1.771,0 1.771,0.319 3.505,0.319c1.771,-0 1.771,-0.284 3.505,-0.284c1.736,0 1.736,0.315 3.506,0.315c1.259,-0 2.553,0.035 3.598,0.632c1.073,0.603 1.738,1.77 2.337,2.844c0.599,1.008 1.295,2.145 1.295,3.408" style="fill:#1a171b;fill-rule:nonzero;"/><path d="M84.486,360.803c-1.043,1.419 -0.916,1.519 -1.955,2.937c-1.042,1.453 -0.951,1.513 -1.963,2.964c-1.039,1.425 -1.1,1.395 -2.144,2.809c-1.044,1.457 -1.136,1.387 -2.146,2.812c-1.047,1.452 -0.883,1.548 -1.926,2.999c-1.012,1.452 -1.041,1.419 -2.087,2.868c-0.379,0.541 -0.723,1.079 -1.166,1.615c-0.604,0.669 -0.979,1.673 -1.957,1.923c-0.409,0.099 -0.885,0 -1.263,-0.213c-1.109,-0.573 -1.641,-1.74 -2.334,-2.723c-0.823,-1.164 -0.601,-1.321 -1.457,-2.492c-0.818,-1.132 -0.978,-1.037 -1.8,-2.209c-0.978,-1.353 -2.995,-1.452 -3.974,-0.098c-0.826,1.175 -0.854,1.175 -1.675,2.307c-0.852,1.171 -0.692,1.294 -1.516,2.431c-0.348,0.478 -0.691,0.946 -1.043,1.39c-0.377,0.444 -0.785,1.264 -1.325,1.511c-0.19,0.069 -0.347,0.096 -0.534,0.096c-0.668,0 -1.206,-0.278 -1.646,-0.66c-0.377,-0.351 -0.723,-0.82 -1.04,-1.263c-0.378,-0.536 -0.757,-1.044 -1.139,-1.581c-0.977,-1.483 -0.977,-1.483 -2.021,-2.902c-1.009,-1.451 -0.881,-1.547 -1.924,-2.999c-1.044,-1.425 -0.978,-1.485 -1.986,-2.902c-1.043,-1.46 -1.075,-1.425 -2.116,-2.841c-1.044,-1.457 -1.012,-1.457 -2.024,-2.91c-1.039,-1.45 -1.071,-1.416 -2.114,-2.839c-0.571,-0.784 -0.473,-1.898 0.317,-2.466c0.789,-0.561 1.956,-0.344 2.527,0.446c0.917,1.293 1.041,1.2 1.957,2.495c0.915,1.291 0.723,1.448 1.673,2.744c0.915,1.298 0.881,1.332 1.832,2.621c0.912,1.29 1.043,1.204 1.955,2.495c0.947,1.292 0.885,1.358 1.797,2.654c0.918,1.296 0.791,1.383 1.707,2.683c0.952,1.29 1.105,2.083 1.99,2.083c0.943,-0 1.074,-1.041 2.114,-2.495c1.043,-1.452 0.916,-1.547 1.96,-3.001c0.629,-0.851 1.167,-1.795 1.167,-2.806c-0,-1.038 -0.508,-2.02 -1.106,-2.876c-0.821,-1.132 -0.755,-1.202 -1.546,-2.303c-0.822,-1.137 -0.884,-1.08 -1.674,-2.213c-0.571,-0.788 -0.316,-1.888 0.476,-2.458c0.789,-0.57 1.735,-0.317 2.303,0.469c0.851,1.201 0.947,1.167 1.8,2.367c0.881,1.236 0.787,1.297 1.638,2.498c0.568,0.785 1.895,0.725 2.466,-0.03c0.851,-1.232 0.661,-1.361 1.546,-2.59c0.851,-1.198 0.851,-1.198 1.74,-2.398c0.532,-0.79 1.795,-0.92 2.588,-0.385c0.784,0.568 0.913,1.705 0.345,2.466c-0.79,1.137 -0.916,1.039 -1.735,2.176c-0.793,1.108 -0.666,1.237 -1.454,2.341c-0.633,0.885 -0.885,1.898 -0.885,2.936c0,1.011 0.252,2.014 0.885,2.903c1.04,1.452 1.074,1.418 2.114,2.875c1.048,1.452 1.264,2.651 2.025,2.679c0.853,0.098 1.074,-0.948 2.021,-2.238c0.912,-1.3 0.881,-1.325 1.796,-2.619c0.913,-1.295 0.886,-1.331 1.835,-2.625c0.916,-1.298 0.846,-1.358 1.762,-2.651c0.952,-1.296 0.89,-1.321 1.833,-2.614c0.916,-1.304 1.047,-1.24 1.962,-2.529c0.916,-1.302 0.785,-1.395 1.701,-2.685c0.571,-0.793 1.643,-0.793 2.434,-0.221c0.785,0.538 0.977,1.452 0.409,2.242" style="fill:#1a171b;fill-rule:nonzero;"/><path d="M102.693,370.783c-0.978,-1.394 -0.91,-1.394 -1.894,-2.75c-0.979,-1.36 -0.851,-1.451 -1.828,-2.81c-0.853,-1.204 -2.877,-1.204 -3.729,-0c-0.978,1.388 -0.82,1.48 -1.763,2.841c-0.983,1.359 -1.047,1.325 -2.024,2.685c-0.634,0.883 0,2.175 1.102,2.175c1.522,0 1.522,0.129 3.036,0.129c1.481,-0 1.481,-0.19 2.999,-0.19l3.029,0c1.105,0 1.704,-1.201 1.072,-2.08m8.62,10.851c-0.38,-0.026 -0.723,-0.153 -0.977,-0.432c-0.129,-0.132 -0.19,-0.289 -0.284,-0.416c-1.136,-1.863 -3.442,-3.277 -5.463,-3.946c-1.043,-0.347 -2.179,-0.664 -3.315,-0.664c-2.086,0 -2.086,0.192 -4.2,0.192l-4.167,0c-1.139,0 -2.244,0.22 -3.284,0.564c-1.956,0.637 -4.04,1.862 -5.274,3.544c-0.345,0.468 -0.693,1.074 -1.259,1.289c-0.508,0.193 -0.979,-0.036 -1.424,-0.346c-0.789,-0.536 -1.007,-1.677 -0.443,-2.461c1.012,-1.42 1.073,-1.389 2.114,-2.839c1.012,-1.425 0.951,-1.486 1.99,-2.914c1.012,-1.452 1.107,-1.382 2.149,-2.835c1.043,-1.425 0.948,-1.485 1.989,-2.908c1.043,-1.453 1.074,-1.419 2.085,-2.872c1.042,-1.45 0.917,-1.518 1.958,-2.971c0.249,-0.347 0.599,-0.657 0.881,-1.005c0.474,-0.601 0.821,-1.328 1.359,-1.897c0.471,-0.505 1.2,-0.851 1.862,-0.598c0.382,0.125 0.697,0.471 0.948,0.786c1.518,1.768 2.873,3.694 4.202,5.59c1.041,1.419 0.851,1.579 1.894,2.998c1.006,1.452 1.04,1.418 2.079,2.877c1.043,1.418 1.076,1.383 2.088,2.835c1.043,1.461 0.977,1.489 1.989,2.939c1.039,1.425 1.039,1.452 2.051,2.878c0.851,1.228 -0.127,2.774 -1.548,2.612" style="fill:#1a171b;fill-rule:nonzero;"/><path d="M143.861,381.103c-0.348,0.447 -0.822,0.565 -1.36,0.565c-0.379,0 -0.79,0.034 -1.133,-0.217c-1.329,-1.103 -1.39,-1.01 -2.748,-2.082c-1.328,-1.076 -1.328,-1.107 -2.65,-2.181c-1.329,-1.102 -1.295,-1.137 -2.658,-2.212c-1.322,-1.073 -1.225,-1.199 -2.589,-2.271c-0.851,-0.696 -1.894,-1.009 -2.934,-1.074c-1.039,-0.057 -2.178,0.122 -3.09,0.695c-0.603,0.414 -0.634,0.349 -1.233,0.757c-0.951,0.603 -1.802,1.515 -2.337,2.497c-0.538,0.951 -0.538,2.144 -0.538,3.285c-0,0.566 -0.189,0.566 -0.189,1.103c0,0.945 -0.695,1.829 -1.638,1.86c-0.986,0.035 -1.647,-0.816 -1.647,-1.795c0,-1.706 -0.124,-1.706 -0.124,-3.383c0,-1.674 -0.096,-1.674 -0.096,-3.349c0,-1.696 -0.063,-1.696 -0.063,-3.371c-0,-1.678 0.063,-1.678 0.063,-3.349c0,-1.709 0.096,-1.709 0.096,-3.379c0,-1.677 -0.219,-1.677 -0.219,-3.344c-0,-1.011 1.004,-1.897 1.99,-1.868c0.943,0.069 1.73,0.945 1.73,1.895c-0,1.831 -0.092,1.831 -0.092,3.691c0,1.835 -0.063,1.835 -0.063,3.696c-0,0.98 0.724,1.774 1.674,1.963c1.167,0.212 2.144,-0.636 3.06,-1.203c2.434,-1.451 4.799,-3.032 7.2,-4.579c1.294,-0.854 1.355,-0.761 2.654,-1.608c1.324,-0.85 1.229,-1.011 2.555,-1.865c1.297,-0.82 1.263,-0.882 2.587,-1.735c0.825,-0.537 1.898,-0.093 2.401,0.69c0.536,0.824 0.348,1.804 -0.476,2.307c-1.259,0.821 -1.197,0.912 -2.458,1.733c-1.266,0.826 -1.205,0.922 -2.463,1.738c-1.265,0.823 -1.394,0.67 -2.655,1.489c-0.851,0.535 -1.202,1.449 -1.258,2.363c-0.034,0.916 0.186,1.896 0.978,2.528c1.165,0.946 1.102,1.047 2.269,1.99c1.201,0.946 1.325,0.789 2.523,1.739c1.17,0.948 1.139,0.973 2.342,1.921c1.17,0.947 1.136,0.981 2.333,1.928c0.759,0.599 0.889,1.677 0.256,2.432" style="fill:#1a171b;fill-rule:nonzero;"/><path d="M175.652,366.043c0,-1.386 -0.634,-2.68 -1.55,-3.571c-0.912,-0.912 -2.206,-1.416 -3.567,-1.416c-1.893,-0 -1.893,0.156 -3.756,0.156c-1.893,-0 -1.893,-0.156 -3.757,-0.156c-1.895,-0 -1.895,0.061 -3.758,0.061c-1.892,-0 -1.892,0.095 -3.756,0.095c-1.388,-0 -2.716,0.313 -3.631,1.201c-0.883,0.912 -1.454,2.244 -1.454,3.63c-0,1.92 -0.125,1.954 -0.097,3.887c0.035,1.956 0.224,1.956 0.224,3.877c0,1.389 0.444,2.724 1.327,3.633c0.915,0.888 2.243,1.231 3.631,1.231c1.864,-0 1.864,0.252 3.756,0.252c1.863,-0 1.863,-0.059 3.758,-0.059c1.864,0 1.864,-0.16 3.757,-0.16c1.863,0 1.863,0.09 3.756,0.09c1.361,0 2.655,-0.501 3.567,-1.416c0.889,-0.885 1.488,-2.182 1.488,-3.571c-0,-1.921 0.03,-1.921 0.03,-3.877c-0,-1.967 0.032,-1.967 0.032,-3.887m3.311,0c-0,1.92 -0.061,1.92 -0.061,3.887l-0,3.877c-0,1.169 -0.186,2.245 -0.598,3.224c-0.442,1.045 -0.98,2.025 -1.768,2.777c-0.789,0.793 -1.641,1.579 -2.684,2.02c-1.01,0.41 -2.18,0.505 -3.317,0.505c-1.893,0 -1.893,0.034 -3.756,0.034c-1.893,-0 -1.893,0.095 -3.757,0.095c-1.895,-0 -1.895,-0.29 -3.758,-0.29c-1.892,0 -1.892,0.035 -3.756,0.035c-1.168,0 -2.276,-0.094 -3.252,-0.504c-1.042,-0.443 -2.054,-1.011 -2.839,-1.798c-0.791,-0.79 -1.422,-1.772 -1.865,-2.778c-0.413,-1.008 -0.537,-2.151 -0.537,-3.32c0,-1.921 0.034,-1.921 0.034,-3.877c-0,-1.967 -0.192,-1.967 -0.192,-3.887c-0,-1.17 0.282,-2.303 0.695,-3.287c0.443,-1.04 1.039,-2.05 1.831,-2.837c0.792,-0.793 1.893,-1.137 2.933,-1.586c1.012,-0.406 2.024,-0.81 3.192,-0.81c1.864,-0 1.864,0.151 3.756,0.151c1.863,-0 1.863,-0.283 3.758,-0.283c1.864,-0 1.864,0.283 3.757,0.283c1.863,-0 1.863,-0.094 3.756,-0.094c1.137,0 2.274,0.094 3.284,0.538c1.041,0.409 1.956,1.103 2.717,1.896c0.788,0.789 1.354,1.767 1.8,2.811c0.407,0.976 0.627,2.048 0.627,3.218" style="fill:#1a171b;fill-rule:nonzero;"/><path d="M208.385,366.611c-0,-1.043 -0.158,-1.043 -0.158,-2.055c0,-0.947 -0.247,-1.957 -0.882,-2.587c-0.66,-0.624 -1.638,-1.074 -2.588,-1.074c-1.798,-0 -1.798,0.03 -3.602,0.03c-1.796,-0 -1.796,0.253 -3.598,0.253c-1.8,-0 -1.8,-0.122 -3.57,-0.122c-1.796,-0 -1.796,0.026 -3.597,0.026c-0.978,-0 -1.797,0.443 -2.462,1.073c-0.633,0.67 -0.916,1.486 -0.916,2.466c0,0.947 -0.092,0.947 -0.092,1.922c-0,0.982 0.286,1.9 0.912,2.56c0.664,0.636 1.58,1.048 2.558,1.048c1.801,-0 1.801,-0.034 3.597,-0.034c1.77,0 1.77,0.034 3.57,0.034c1.802,-0 1.802,0.15 3.598,0.15c1.804,-0 1.804,-0.216 3.602,-0.216c0.95,-0 1.8,-0.411 2.43,-1.04c0.631,-0.637 1.198,-1.486 1.198,-2.434m3.471,-0c-0,1.266 -0.28,2.558 -0.882,3.598c-0.599,1.079 -1.611,1.932 -2.686,2.531c-1.038,0.595 -2.268,0.853 -3.531,0.853l-3.285,0c-1.641,0 -1.641,0.028 -3.285,0.028c-1.639,-0 -1.639,-0.028 -3.284,-0.028c-1.639,0 -1.639,-0.164 -3.28,-0.164c-1.327,-0 -2.497,0.761 -3.351,1.644c-0.881,0.855 -1.387,2.016 -1.387,3.347c-0,0.757 -0.189,0.757 -0.189,1.547c0,0.946 -0.6,1.798 -1.542,1.83c-1.013,0.031 -1.708,-0.785 -1.708,-1.765c-0,-1.739 -0.094,-1.739 -0.094,-3.471c0,-1.711 -0.192,-1.711 -0.192,-3.443c0,-1.739 0.321,-1.739 0.321,-3.478c-0,-1.7 -0.129,-1.7 -0.129,-3.439c0,-1.922 -0.127,-3.854 -0.033,-5.777c0.033,-0.472 0.063,-0.948 0.093,-1.394c0,-0.183 0.034,-0.374 0.095,-0.56c0.572,-1.709 3.602,-0.913 4.834,-0.913c1.64,-0 1.64,-0.135 3.282,-0.135c1.641,-0 1.641,0.252 3.28,0.252c1.645,-0 1.645,0.034 3.284,0.034l3.285,-0c1.646,-0 1.646,-0.07 3.285,-0.07c1.263,-0 2.527,0.135 3.566,0.73c1.04,0.637 1.898,1.613 2.527,2.688c0.599,1.041 0.951,2.243 0.951,3.5c0,1.012 0.055,1.012 0.055,2.055" style="fill:#1a171b;fill-rule:nonzero;"/><path d="M249.395,363.203c0,1.669 -0.286,1.669 -0.286,3.379c0,1.67 0.095,1.67 0.095,3.349c0,1.673 -0.065,1.673 -0.065,3.37c0,1.676 -0.03,1.676 -0.03,3.348c0,1.678 0.064,1.678 0.064,3.383c0,0.979 -0.693,1.831 -1.704,1.796c-0.949,-0.032 -1.675,-0.915 -1.675,-1.86c-0,-1.776 -0.096,-1.776 -0.096,-3.539c-0,-1.762 0.13,-1.762 0.13,-3.539l-0,-3.536c-0,-1.391 -1.83,-2.014 -2.684,-0.877c-1.168,1.511 -1.105,1.544 -2.276,3.061c-1.167,1.516 -1.231,1.483 -2.366,3c-1.167,1.513 -1.202,1.482 -2.369,2.999c-0.474,0.629 -0.949,1.257 -1.418,1.86c-0.29,0.38 -0.539,0.819 -0.851,1.204c-0.16,0.152 -0.289,0.282 -0.442,0.41c-0.196,0.121 -0.413,0.219 -0.635,0.25c-1.389,0.256 -2.052,-1.171 -2.809,-2.022c-0.443,-0.534 -0.887,-1.047 -1.329,-1.574c-1.137,-1.522 -0.977,-1.645 -2.149,-3.159c-1.164,-1.517 -1.1,-1.552 -2.271,-3.068c-1.168,-1.507 -1.388,-1.353 -2.528,-2.872c-0.849,-1.133 -2.554,-0.603 -2.554,0.788c0,1.8 0.092,1.8 0.092,3.57c0,1.77 -0.219,1.77 -0.219,3.539c-0,1.763 0.317,1.763 0.317,3.569c-0,0.979 -1.008,1.926 -1.989,1.893c-0.949,-0.034 -1.513,-1.012 -1.513,-1.957c0,-1.675 -0.161,-1.675 -0.161,-3.345c0,-1.677 0.161,-1.677 0.161,-3.348c0,-1.671 -0.096,-1.671 -0.096,-3.381c0,-1.674 -0.035,-1.674 -0.035,-3.35c0,-1.099 -0.03,-2.174 -0.03,-3.28c-0.031,-1.294 -0.41,-2.782 0.126,-3.978c0.317,-0.664 0.916,-1.202 1.643,-1.202c0.537,-0.025 1.071,0.283 1.483,0.669c0.786,0.758 1.358,1.707 2.022,2.555c0.753,0.982 1.512,1.991 2.276,3.004c1.067,1.381 0.978,1.48 2.051,2.87c1.068,1.417 0.943,1.516 2.018,2.935c1.074,1.385 1.295,1.227 2.369,2.624c0.724,0.979 1.704,1.482 2.808,1.482c1.105,0 2.335,-0.319 3.065,-1.299c1.068,-1.386 0.821,-1.613 1.892,-2.993c1.075,-1.428 1.297,-1.233 2.368,-2.658c1.073,-1.385 1.011,-1.453 2.085,-2.839c1.074,-1.425 0.977,-1.484 2.052,-2.91c0.695,-0.911 1.514,-1.734 2.24,-2.646c0.257,-0.351 0.573,-0.667 0.98,-0.794c0.757,-0.217 1.548,0.283 1.924,0.981c0.697,1.235 0.319,2.809 0.319,4.138" style="fill:#1a171b;fill-rule:nonzero;"/><path d="M285.634,373.806c0,1.171 -0.318,2.245 -0.756,3.258c-0.414,1.011 -1.012,1.992 -1.807,2.744c-0.752,0.793 -1.698,1.394 -2.746,1.826c-1.004,0.419 -2.079,0.861 -3.245,0.861c-1.863,-0 -1.863,-0.189 -3.761,-0.189l-3.755,0c-1.863,0 -1.863,0.156 -3.761,0.156l-3.756,0c-1.134,0 -2.178,-0.476 -3.19,-0.884c-1.04,-0.446 -1.957,-1.011 -2.744,-1.801c-0.789,-0.79 -1.36,-1.702 -1.802,-2.746c-0.408,-1.011 -0.849,-2.054 -0.849,-3.225c0,-1.733 0.126,-1.733 0.126,-3.471c0,-1.769 0.153,-1.769 0.153,-3.498c-0,-1.742 -0.153,-1.742 -0.153,-3.511c0,-1.732 0.153,-1.732 0.153,-3.469c-0,-0.979 0.604,-1.646 1.583,-1.646c0.977,0 1.673,0.667 1.673,1.646c0,1.737 0.158,1.737 0.158,3.469c-0,1.769 -0.034,1.769 -0.034,3.511c-0,1.729 0.096,1.729 0.096,3.498c-0,1.738 -0.122,1.738 -0.122,3.471c-0,1.389 0.501,2.657 1.416,3.572c0.917,0.883 2.18,1.262 3.536,1.262c1.897,0 1.897,0.186 3.756,0.186c1.898,0 1.898,-0.063 3.761,-0.063c1.893,-0 1.893,-0.03 3.755,-0.03c1.898,-0 1.898,-0.028 3.761,-0.028c1.387,0 2.646,-0.444 3.531,-1.361c0.917,-0.881 1.329,-2.149 1.329,-3.538c-0,-1.733 -0.03,-1.733 -0.03,-3.471c-0,-1.769 0.221,-1.769 0.221,-3.498c-0,-1.742 0.124,-1.742 0.124,-3.511c0,-1.732 -0.315,-1.732 -0.315,-3.469c-0,-0.979 0.913,-1.833 1.896,-1.833c0.979,0 1.734,0.854 1.734,1.833c-0,1.737 0.03,1.737 0.03,3.469c-0,1.769 -0.03,1.769 -0.03,3.511c-0,1.729 -0.033,1.729 -0.033,3.498c0,1.738 0.097,1.738 0.097,3.471" style="fill:#1a171b;fill-rule:nonzero;"/><path d="M318.213,373.301c-0,2.342 0.094,4.74 -0.066,7.074c-0,0.227 -0,0.444 -0.124,0.66c-0.095,0.194 -0.255,0.352 -0.443,0.481c-0.535,0.312 -1.229,0.249 -1.801,0c-1.166,-0.481 -2.237,-1.548 -3.215,-2.338c-1.391,-1.168 -1.298,-1.295 -2.689,-2.435c-1.414,-1.163 -1.354,-1.227 -2.744,-2.4c-1.391,-1.163 -1.55,-0.974 -2.972,-2.11c-1.383,-1.17 -1.256,-1.333 -2.646,-2.469c-1.426,-1.165 -1.356,-1.229 -2.749,-2.4c-0.949,-0.783 -2.304,-0.82 -3.283,-0.343c-0.95,0.44 -1.642,1.514 -1.642,2.743c0,1.706 -0.032,1.706 -0.032,3.416c-0,1.702 0.123,1.702 0.123,3.409c0,1.704 -0.184,1.704 -0.184,3.444c-0,0.979 -0.697,1.83 -1.71,1.795c-0.946,-0.031 -1.733,-0.914 -1.733,-1.86c0,-1.675 -0.097,-1.675 -0.097,-3.346c-0,-1.677 0.159,-1.677 0.159,-3.347c0,-1.67 -0.093,-1.67 -0.093,-3.38c-0,-1.674 0.219,-1.674 0.219,-3.351c0,-1.161 -0.03,-2.335 -0.092,-3.535c-0.066,-1.04 -0.347,-2.27 -0.096,-3.281c0.062,-0.193 0.127,-0.409 0.221,-0.601c0.123,-0.25 0.282,-0.505 0.474,-0.691c0.538,-0.475 1.388,-0.412 2.051,-0.103c1.172,0.573 2.084,1.553 3.065,2.372c1.356,1.203 1.418,1.106 2.84,2.27c1.388,1.171 1.263,1.304 2.65,2.47c1.424,1.166 1.389,1.166 2.814,2.34c1.385,1.126 1.385,1.161 2.775,2.3c1.392,1.167 1.55,0.978 2.968,2.114c0.95,0.79 1.956,0.855 2.938,0.408c0.948,-0.439 1.829,-1.262 1.829,-2.522c0,-1.703 -0.03,-1.703 -0.03,-3.413c0,-1.708 0.097,-1.708 0.097,-3.409c-0,-1.703 -0.349,-1.703 -0.349,-3.405c0,-1.011 0.979,-1.682 1.987,-1.647c0.947,0.034 1.611,0.724 1.611,1.675c-0,1.674 -0.031,1.674 -0.031,3.349c-0,1.672 0.094,1.672 0.094,3.346c0,1.705 0.095,1.705 0.095,3.376c0,1.674 -0.189,1.674 -0.189,3.344" style="fill:#1a171b;fill-rule:nonzero;"/><path d="M349.279,366.043c-0,-1.386 -0.547,-2.68 -1.46,-3.595c-0.881,-0.888 -2.178,-1.454 -3.568,-1.454c-1.701,0 -1.701,-0.069 -3.409,-0.069c-1.735,-0 -1.735,-0.03 -3.441,-0.03c-1.705,-0 -1.705,0.284 -3.44,0.284c-1.705,0 -1.705,-0.029 -3.412,-0.029c-1.199,0 -2.242,0.445 -3.027,1.228c-0.791,0.763 -1.171,1.797 -1.171,3.006c0,1.514 -0.252,1.514 -0.252,3.025c0,1.521 0.029,1.521 0.029,3.028c0,1.518 0.07,1.518 0.07,3.039c-0,1.201 0.599,2.207 1.355,2.964c0.79,0.787 1.797,1.293 2.996,1.293l3.412,0c1.735,0 1.735,0.061 3.44,0.061c1.706,0 1.706,-0.032 3.441,-0.032c1.708,-0 1.708,0.226 3.409,0.226c1.39,-0 2.715,-0.66 3.631,-1.548c0.886,-0.909 1.266,-2.244 1.266,-3.633c-0,-1.921 0.254,-1.921 0.282,-3.877c0.033,-1.933 -0.151,-1.967 -0.151,-3.887m3.342,7.764c0,1.169 0.03,2.312 -0.375,3.32c-0.448,1.04 -1.329,1.796 -2.118,2.587c-0.793,0.761 -1.519,1.673 -2.559,2.114c-1.011,0.41 -2.146,0.505 -3.318,0.505c-1.638,0 -1.638,-0.126 -3.279,-0.126c-1.675,0 -1.675,-0.035 -3.317,-0.035c-1.643,0 -1.643,0.195 -3.285,0.195c-1.672,-0 -1.672,-0.219 -3.316,-0.219c-1.638,0 -1.638,0.158 -3.279,0.158c-1.676,-0 -1.676,-0.068 -3.316,-0.068c-0.977,0 -1.674,-0.722 -1.674,-1.671c0,-1.773 0.03,-1.773 0.03,-3.536c0,-1.8 0.033,-1.8 0.033,-3.57c-0,-1.765 -0.287,-1.765 -0.287,-3.531c-0,-1.774 0.067,-1.774 0.067,-3.54l0,-3.531c0,-1.803 -0.067,-1.803 -0.067,-3.573c-0,-0.953 0.921,-1.648 1.898,-1.648c1.64,-0 1.64,-0.023 3.316,-0.023c1.641,0 1.641,-0.035 3.279,-0.035c1.644,0 1.644,-0.158 3.316,-0.158c1.642,-0 1.642,0.065 3.285,0.065c1.642,-0 1.642,-0.031 3.317,-0.031c1.641,-0 1.641,0.101 3.279,0.101c1.172,-0 2.279,0.182 3.286,0.596c1.012,0.436 1.828,1.227 2.591,2.013c0.789,0.759 1.418,1.644 1.863,2.659c0.406,1.009 0.851,2.048 0.851,3.218c0,1.92 -0.191,1.92 -0.221,3.887c-0.032,1.956 0,1.956 0,3.877" style="fill:#1a171b;fill-rule:nonzero;"/><path d="M405.655,379.838c-0.817,0.789 -1.795,1.294 -2.844,1.712c-1.012,0.408 -2.05,0.622 -3.186,0.622c-1.862,-0 -1.862,0.228 -3.756,0.228l-3.756,-0c-1.894,-0 -1.894,-0.034 -3.761,-0.034c-1.893,0 -1.893,-0.217 -3.752,-0.217c-1.138,0 -2.214,-0.191 -3.191,-0.599c-1.044,-0.446 -2.088,-0.889 -2.875,-1.678c-0.788,-0.757 -1.231,-1.797 -1.674,-2.841c-0.408,-1.011 -0.758,-2.054 -0.758,-3.225c0,-1.92 -0.06,-1.92 -0.06,-3.875c0,-1.968 -0.063,-1.968 -0.063,-3.888c-0,-1.171 0.282,-2.273 0.692,-3.286c0.444,-1.041 1.264,-1.796 2.052,-2.592c0.793,-0.786 1.521,-1.695 2.559,-2.106c1.012,-0.444 2.18,-0.604 3.318,-0.604l3.752,0c1.867,0 1.867,-0.092 3.761,-0.092c1.859,-0 1.859,0.31 3.756,0.31l3.756,0c1.136,0 2.242,0.099 3.249,0.503c1.013,0.446 1.93,1.078 2.718,1.896c0.697,0.666 0.759,1.773 0.063,2.47c-0.694,0.692 -1.956,0.784 -2.619,0.089c-0.946,-0.947 -2.086,-1.452 -3.411,-1.452c-1.862,-0 -1.862,-0.285 -3.756,-0.285c-1.897,0 -1.897,-0.026 -3.756,-0.026c-1.894,-0 -1.894,0.343 -3.761,0.343c-1.893,0 -1.893,-0.343 -3.752,-0.343c-1.39,-0 -2.496,0.848 -3.416,1.763c-0.884,0.918 -1.576,2.025 -1.576,3.412c0,1.92 0.127,1.92 0.127,3.888c-0,1.955 -0.127,1.955 -0.127,3.875c0,1.389 0.636,2.588 1.517,3.473c0.914,0.913 2.085,1.426 3.475,1.426c1.859,0 1.859,0.19 3.752,0.19c1.867,-0 1.867,-0.069 3.761,-0.069c1.859,0 1.859,-0.032 3.756,-0.032c1.894,-0 1.894,-0.154 3.756,-0.154c1.325,0 2.685,-0.255 3.602,-1.2c0.69,-0.696 1.703,-0.756 2.394,-0.096c0.668,0.697 0.697,1.797 0.034,2.494" style="fill:#1a171b;fill-rule:nonzero;"/><path d="M438.452,366.043c0,-1.386 -0.629,-2.68 -1.545,-3.571c-0.919,-0.912 -2.211,-1.416 -3.568,-1.416c-1.896,-0 -1.896,0.156 -3.758,0.156c-1.894,-0 -1.894,-0.156 -3.755,-0.156c-1.898,-0 -1.898,0.061 -3.755,0.061c-1.902,-0 -1.902,0.095 -3.758,0.095c-1.392,-0 -2.718,0.313 -3.637,1.201c-0.881,0.912 -1.452,2.244 -1.452,3.63c-0,1.92 -0.125,1.954 -0.09,3.887c0.026,1.956 0.216,1.956 0.216,3.877c-0,1.389 0.445,2.724 1.326,3.633c0.919,0.888 2.245,1.231 3.637,1.231c1.856,-0 1.856,0.252 3.758,0.252c1.857,-0 1.857,-0.059 3.755,-0.059c1.861,0 1.861,-0.16 3.755,-0.16c1.862,0 1.862,0.09 3.758,0.09c1.357,0 2.649,-0.501 3.568,-1.416c0.885,-0.885 1.484,-2.182 1.484,-3.571c-0,-1.921 0.032,-1.921 0.032,-3.877c0,-1.967 0.029,-1.967 0.029,-3.887m3.314,0c0,1.92 -0.061,1.92 -0.061,3.887l0,3.877c0,1.169 -0.19,2.245 -0.599,3.224c-0.445,1.045 -0.982,2.025 -1.769,2.777c-0.793,0.793 -1.642,1.579 -2.683,2.02c-1.012,0.41 -2.18,0.505 -3.315,0.505c-1.896,0 -1.896,0.034 -3.758,0.034c-1.894,-0 -1.894,0.095 -3.755,0.095c-1.898,-0 -1.898,-0.29 -3.755,-0.29c-1.902,0 -1.902,0.035 -3.758,0.035c-1.171,0 -2.273,-0.094 -3.257,-0.504c-1.041,-0.443 -2.053,-1.011 -2.838,-1.798c-0.792,-0.79 -1.422,-1.772 -1.865,-2.778c-0.411,-1.008 -0.538,-2.151 -0.538,-3.32c-0,-1.921 0.035,-1.921 0.035,-3.877c-0,-1.967 -0.194,-1.967 -0.194,-3.887c0,-1.17 0.286,-2.303 0.697,-3.287c0.443,-1.04 1.043,-2.05 1.832,-2.837c0.791,-0.793 1.892,-1.137 2.938,-1.586c1.007,-0.406 2.019,-0.81 3.19,-0.81c1.856,-0 1.856,0.151 3.758,0.151c1.857,-0 1.857,-0.283 3.755,-0.283c1.861,-0 1.861,0.283 3.755,0.283c1.862,-0 1.862,-0.094 3.758,-0.094c1.135,0 2.272,0.094 3.283,0.538c1.04,0.409 1.957,1.103 2.715,1.896c0.787,0.789 1.357,1.767 1.795,2.811c0.415,0.976 0.634,2.048 0.634,3.218" style="fill:#1a171b;fill-rule:nonzero;"/><path d="M471.285,359.919c-0.034,0.949 -0.792,1.64 -1.742,1.64c-1.636,0 -1.636,0.035 -3.275,0.035c-1.644,0 -1.644,-0.188 -3.286,-0.188l-3.283,-0c-1.613,-0 -1.613,0.309 -3.257,0.309c-1.639,0 -1.639,-0.121 -3.279,-0.121c-0.981,0 -1.892,0.411 -2.562,1.07c-0.626,0.635 -0.879,1.544 -0.879,2.529c-0,0.66 -0.22,0.66 -0.22,1.318c0,0.982 0.378,1.992 1.007,2.658c0.663,0.631 1.673,0.883 2.654,0.883c1.545,-0 1.545,-0.095 3.095,-0.095c1.544,0 1.544,0.221 3.093,0.221c1.515,-0 1.515,0.122 3.061,0.122c1.547,0 1.547,-0.023 3.092,-0.023c0.982,-0 1.864,0.657 1.838,1.67c-0.035,0.944 -0.919,1.773 -1.867,1.773c-1.547,0 -1.547,-0.258 -3.096,-0.258c-1.547,0 -1.547,0.224 -3.066,0.224c-1.542,-0 -1.542,-0.224 -3.092,-0.224c-1.513,0 -1.513,0.224 -3.058,0.224c-0.981,-0 -1.83,0.408 -2.462,1.066c-0.667,0.673 -1.299,1.485 -1.299,2.47c0,1.391 0.066,1.391 0.066,2.745c0,0.946 -0.631,1.897 -1.579,1.923c-1.012,0.035 -1.77,-0.879 -1.77,-1.858c0,-1.705 -0.061,-1.705 -0.061,-3.383c0,-1.673 0.095,-1.673 0.095,-3.348l-0,-3.371c-0,-1.677 0.061,-1.677 0.061,-3.348c0,-1.71 -0.187,-1.71 -0.187,-3.379c-0,-1.679 -0.066,-1.679 -0.066,-3.346l-0,-0.38c0.192,-0.821 1.012,-1.3 1.833,-1.3c1.83,-0 1.83,-0.154 3.633,-0.154c1.828,0 1.828,0.252 3.631,0.252c1.831,0 1.831,-0.348 3.627,-0.348c1.83,0 1.83,0.192 3.631,0.192c1.833,0 1.833,-0.13 3.63,-0.13c1.8,0 1.8,0.188 3.631,0.188c0.979,-0 1.737,0.728 1.708,1.742" style="fill:#1a171b;fill-rule:nonzero;"/><path d="M499.031,359.919c-0.031,0.949 -0.789,1.64 -1.738,1.64c-1.639,0 -1.639,0.035 -3.278,0.035c-1.647,0 -1.647,-0.188 -3.286,-0.188l-3.283,-0c-1.611,-0 -1.611,0.309 -3.255,0.309c-1.639,0 -1.639,-0.121 -3.279,-0.121c-0.986,0 -1.892,0.411 -2.562,1.07c-0.629,0.635 -0.882,1.544 -0.882,2.529c0,0.66 -0.217,0.66 -0.217,1.318c0,0.982 0.378,1.992 1.005,2.658c0.667,0.631 1.67,0.883 2.656,0.883c1.545,-0 1.545,-0.095 3.092,-0.095c1.55,0 1.55,0.221 3.093,0.221c1.513,-0 1.513,0.122 3.064,0.122c1.545,0 1.545,-0.023 3.089,-0.023c0.985,-0 1.867,0.657 1.841,1.67c-0.038,0.944 -0.923,1.773 -1.867,1.773c-1.55,0 -1.55,-0.258 -3.096,-0.258c-1.547,0 -1.547,0.224 -3.065,0.224c-1.543,-0 -1.543,-0.224 -3.095,-0.224c-1.511,0 -1.511,0.224 -3.056,0.224c-0.986,-0 -1.83,0.408 -2.464,1.066c-0.668,0.673 -1.294,1.485 -1.294,2.47c-0,1.391 0.058,1.391 0.058,2.745c0,0.946 -0.629,1.897 -1.574,1.923c-1.01,0.035 -1.77,-0.879 -1.77,-1.858c0,-1.705 -0.061,-1.705 -0.061,-3.383c0,-1.673 0.095,-1.673 0.095,-3.348l-0,-3.371c-0,-1.677 0.061,-1.677 0.061,-3.348c0,-1.71 -0.185,-1.71 -0.185,-3.379c0,-1.679 -0.071,-1.679 -0.071,-3.346l0,-0.38c0.195,-0.821 1.015,-1.3 1.836,-1.3c1.83,-0 1.83,-0.154 3.628,-0.154c1.828,0 1.828,0.252 3.637,0.252c1.828,0 1.828,-0.348 3.626,-0.348c1.83,0 1.83,0.192 3.631,0.192c1.833,0 1.833,-0.13 3.632,-0.13c1.798,0 1.798,0.188 3.629,0.188c0.979,-0 1.734,0.728 1.705,1.742" style="fill:#1a171b;fill-rule:nonzero;"/><path d="M504.995,364.748c-0.217,2.02 1.609,3.285 3.409,3.285c1.736,0 1.736,0.253 3.476,0.253c1.735,0 1.735,-0.131 3.471,-0.131c1.737,0 1.737,0.16 3.475,0.16c1.735,0 1.735,-0.251 3.472,-0.251c0.98,0 1.741,0.916 1.701,1.923c-0.06,0.947 -0.786,1.708 -1.734,1.708c-1.736,0 -1.736,-0.121 -3.468,-0.121c-1.741,0 -1.741,0.249 -3.446,0.249c-1.736,-0 -1.736,-0.128 -3.471,-0.128c-1.74,0 -1.74,0.155 -3.476,0.155c-0.729,0 -1.512,0.129 -2.146,0.573c-0.785,0.565 -1.168,1.859 -1.076,2.901c0.161,1.551 1.644,3.096 3.222,3.096c1.802,-0 1.802,-0.127 3.603,-0.127c1.799,-0 1.799,-0.218 3.599,-0.218c1.796,0 1.796,0.345 3.598,0.345c1.769,-0 1.769,-0.286 3.562,-0.286c1.8,0 1.8,-0.059 3.603,-0.059c0.982,0 1.861,1.004 1.833,2.016c-0.03,0.944 -0.915,1.517 -1.867,1.517c-1.641,-0 -1.641,0.095 -3.28,0.095c-1.641,-0 -1.641,0.256 -3.281,0.256c-1.646,-0 -1.646,-0.163 -3.285,-0.163c-1.641,0 -1.641,-0.031 -3.286,-0.031c-1.639,0 -1.639,-0.157 -3.283,-0.157c-1.639,-0 -1.639,-0.031 -3.285,-0.031c-1.609,-0 -1.609,0.092 -3.248,0.092c-0.854,0 -1.704,-0.467 -1.862,-1.258c-0.037,-0.131 -0.066,-0.288 -0.066,-0.379c-0,-1.704 0.314,-1.704 0.314,-3.383c0,-1.673 -0.248,-1.673 -0.248,-3.349c-0,-1.696 0.248,-1.696 0.248,-3.37c0,-1.677 -0.156,-1.677 -0.156,-3.348c0,-1.71 0.123,-1.71 0.123,-3.379c-0,-1.048 -0.215,-2.121 -0.089,-3.131c-0,-0.283 0.061,-0.538 0.188,-0.786c0.095,-0.256 0.219,-0.473 0.41,-0.664c0.882,-0.914 3.224,-0.469 4.421,-0.469c1.639,0 1.639,-0.13 3.283,-0.13c1.642,0 1.642,0.221 3.28,0.221c1.645,0 1.645,-0.221 3.287,-0.221c1.643,0 1.643,-0.096 3.28,-0.096c1.646,0 1.646,0.191 3.286,0.191c1.642,0 1.642,0.126 3.283,0.126c0.982,0 1.956,0.661 1.928,1.675c-0.033,0.949 -1.01,1.606 -1.962,1.606c-1.797,-0 -1.797,-0.027 -3.597,-0.027c-1.765,0 -1.765,0.186 -3.567,0.186c-1.8,0 -1.8,-0.03 -3.596,-0.03c-1.769,0 -1.769,-0.156 -3.568,-0.156c-1.801,0 -1.801,0.217 -3.603,0.217c-1.2,0 -2.238,0.733 -2.905,1.739c-0.251,0.382 -0.438,0.824 -0.504,1.294" style="fill:#1a171b;fill-rule:nonzero;"/><path d="M535.398,364.748c-0.224,2.02 1.604,3.285 3.407,3.285c1.738,0 1.738,0.253 3.474,0.253c1.732,0 1.732,-0.131 3.472,-0.131c1.736,0 1.736,0.16 3.473,0.16c1.741,0 1.741,-0.251 3.475,-0.251c0.98,0 1.733,0.916 1.703,1.923c-0.062,0.947 -0.788,1.708 -1.737,1.708c-1.738,0 -1.738,-0.121 -3.477,-0.121c-1.731,0 -1.731,0.249 -3.437,0.249c-1.74,-0 -1.74,-0.128 -3.472,-0.128c-1.736,0 -1.736,0.155 -3.474,0.155c-0.73,0 -1.513,0.129 -2.146,0.573c-0.79,0.565 -1.168,1.859 -1.076,2.901c0.161,1.551 1.646,3.096 3.222,3.096c1.797,-0 1.797,-0.127 3.602,-0.127c1.797,-0 1.797,-0.218 3.6,-0.218c1.796,0 1.796,0.345 3.595,0.345c1.769,-0 1.769,-0.286 3.567,-0.286c1.797,0 1.797,-0.059 3.6,-0.059c0.98,0 1.86,1.004 1.833,2.016c-0.032,0.944 -0.917,1.517 -1.866,1.517c-1.639,-0 -1.639,0.095 -3.281,0.095c-1.641,-0 -1.641,0.256 -3.28,0.256c-1.649,-0 -1.649,-0.163 -3.288,-0.163c-1.637,0 -1.637,-0.031 -3.283,-0.031c-1.64,0 -1.64,-0.157 -3.283,-0.157c-1.642,-0 -1.642,-0.031 -3.284,-0.031c-1.613,-0 -1.613,0.092 -3.25,0.092c-0.856,0 -1.708,-0.467 -1.864,-1.258c-0.035,-0.131 -0.066,-0.288 -0.066,-0.379c-0,-1.704 0.317,-1.704 0.317,-3.383c-0,-1.673 -0.251,-1.673 -0.251,-3.349c0,-1.696 0.251,-1.696 0.251,-3.37c-0,-1.677 -0.159,-1.677 -0.159,-3.348c0,-1.71 0.128,-1.71 0.128,-3.379c-0,-1.048 -0.22,-2.121 -0.091,-3.131c-0,-0.283 0.061,-0.538 0.186,-0.786c0.094,-0.256 0.219,-0.473 0.414,-0.664c0.88,-0.914 3.217,-0.469 4.413,-0.469c1.645,0 1.645,-0.13 3.286,-0.13c1.642,0 1.642,0.221 3.283,0.221c1.644,0 1.644,-0.221 3.286,-0.221c1.641,0 1.641,-0.096 3.281,-0.096c1.643,0 1.643,0.191 3.283,0.191c1.646,0 1.646,0.126 3.285,0.126c0.98,0 1.957,0.661 1.928,1.675c-0.033,0.949 -1.012,1.606 -1.961,1.606c-1.797,-0 -1.797,-0.027 -3.598,-0.027c-1.767,0 -1.767,0.186 -3.566,0.186c-1.801,0 -1.801,-0.03 -3.599,-0.03c-1.769,0 -1.769,-0.156 -3.566,-0.156c-1.805,0 -1.805,0.217 -3.602,0.217c-1.198,0 -2.241,0.733 -2.905,1.739c-0.251,0.382 -0.446,0.824 -0.502,1.294" style="fill:#1a171b;fill-rule:nonzero;"/><path d="M607.088,366.611c0,-1.043 -0.033,-1.043 -0.033,-2.055c-0,-0.947 -0.439,-1.731 -1.071,-2.401c-0.626,-0.63 -1.422,-0.943 -2.398,-0.943c-1.893,-0 -1.893,-0.062 -3.792,-0.062l-3.755,0c-1.897,0 -1.897,-0.156 -3.756,-0.156c-1.899,0 -1.899,-0.069 -3.789,-0.069c-1.546,-0 -3.004,1.396 -3.004,2.972c0,1.671 0.066,1.671 0.066,3.375c0,1.58 1.392,2.715 2.938,2.715c1.89,0 1.89,0.29 3.789,0.29c1.859,-0 1.859,0.024 3.756,0.024c1.891,-0 1.891,-0.216 3.755,-0.216c1.899,-0 1.899,0.192 3.792,0.192c0.976,-0 1.894,-0.513 2.528,-1.174c0.624,-0.627 0.974,-1.544 0.974,-2.492m3.286,12.312c0.536,0.791 0.343,2.02 -0.447,2.593c-0.314,0.213 -0.724,0.187 -1.067,0.187c-0.536,-0 -0.982,-0.251 -1.33,-0.725c-1.293,-1.801 -1.263,-1.837 -2.523,-3.665c-0.573,-0.782 -1.36,-1.452 -2.117,-1.99c-0.757,-0.572 -1.736,-0.817 -2.652,-1.133c-0.885,-0.286 -1.799,-0.729 -2.781,-0.729c-1.833,0 -1.833,-0.032 -3.69,-0.032c-1.831,-0 -1.831,0.257 -3.7,0.257c-1.196,-0 -2.427,0.309 -3.214,1.135c-0.824,0.791 -1.231,1.989 -1.231,3.22c0,0.98 0.029,0.98 0.029,1.926c0,0.946 -0.726,1.798 -1.673,1.861c-1.012,0.036 -1.836,-0.816 -1.836,-1.796c0,-1.739 0.195,-1.739 0.195,-3.471c0,-1.711 -0.064,-1.711 -0.064,-3.443c0,-1.739 -0.192,-1.739 -0.192,-3.478c0,-1.7 0.034,-1.7 0.034,-3.439c-0,-1.74 -0.126,-1.74 -0.126,-3.445l-0,-3.47c-0,-0.098 0.065,-0.256 0.092,-0.38c0.159,-0.788 0.98,-1.232 1.831,-1.232c1.644,-0 1.644,-0.311 3.285,-0.311l3.251,0c1.641,0 1.641,0.123 3.285,0.123c1.642,-0 1.642,0.222 3.283,0.222l3.286,-0c1.642,-0 1.642,-0.286 3.284,-0.286c1.26,-0 2.431,0.539 3.441,1.139c1.073,0.627 1.984,1.453 2.621,2.521c0.599,1.015 0.849,2.217 0.849,3.474c0,1.012 0.191,1.012 0.191,2.055c0,1.77 -0.851,3.319 -1.957,4.543c-0.663,0.761 -0.789,1.801 -0.821,2.75c-0.064,0.946 0.219,1.831 0.792,2.657c0.851,1.163 0.818,1.198 1.672,2.362" style="fill:#1a171b;fill-rule:nonzero;"/><path d="M643.579,366.043c0,-1.386 -0.631,-2.68 -1.544,-3.571c-0.918,-0.912 -2.212,-1.416 -3.567,-1.416c-1.893,-0 -1.893,0.156 -3.759,0.156c-1.897,-0 -1.897,-0.156 -3.759,-0.156c-1.894,-0 -1.894,0.061 -3.756,0.061c-1.892,-0 -1.892,0.095 -3.76,0.095c-1.384,-0 -2.712,0.313 -3.627,1.201c-0.884,0.912 -1.452,2.244 -1.452,3.63c-0,1.92 -0.124,1.954 -0.097,3.887c0.031,1.956 0.219,1.956 0.219,3.877c0,1.389 0.446,2.724 1.33,3.633c0.915,0.888 2.243,1.231 3.627,1.231c1.868,-0 1.868,0.252 3.76,0.252c1.862,-0 1.862,-0.059 3.756,-0.059c1.862,0 1.862,-0.16 3.759,-0.16c1.866,0 1.866,0.09 3.759,0.09c1.355,0 2.649,-0.501 3.567,-1.416c0.884,-0.885 1.483,-2.182 1.483,-3.571c0,-1.921 0.03,-1.921 0.03,-3.877c0,-1.967 0.031,-1.967 0.031,-3.887m3.317,0c0,1.92 -0.064,1.92 -0.064,3.887l0,3.877c0,1.169 -0.189,2.245 -0.599,3.224c-0.439,1.045 -0.979,2.025 -1.769,2.777c-0.787,0.793 -1.638,1.579 -2.685,2.02c-1.005,0.41 -2.175,0.505 -3.311,0.505c-1.893,0 -1.893,0.034 -3.759,0.034c-1.897,-0 -1.897,0.095 -3.759,0.095c-1.894,-0 -1.894,-0.29 -3.756,-0.29c-1.892,0 -1.892,0.035 -3.76,0.035c-1.162,0 -2.269,-0.094 -3.248,-0.504c-1.039,-0.443 -2.053,-1.011 -2.839,-1.798c-0.79,-0.79 -1.424,-1.772 -1.866,-2.778c-0.411,-1.008 -0.537,-2.151 -0.537,-3.32c-0,-1.921 0.033,-1.921 0.033,-3.877c0,-1.967 -0.189,-1.967 -0.189,-3.887c-0,-1.17 0.282,-2.303 0.693,-3.287c0.442,-1.04 1.041,-2.05 1.831,-2.837c0.79,-0.793 1.896,-1.137 2.935,-1.586c1.013,-0.406 2.025,-0.81 3.187,-0.81c1.868,-0 1.868,0.151 3.76,0.151c1.862,-0 1.862,-0.283 3.756,-0.283c1.862,-0 1.862,0.283 3.759,0.283c1.866,-0 1.866,-0.094 3.759,-0.094c1.136,0 2.27,0.094 3.283,0.538c1.041,0.409 1.956,1.103 2.713,1.896c0.79,0.789 1.358,1.767 1.798,2.811c0.412,0.976 0.634,2.048 0.634,3.218" style="fill:#1a171b;fill-rule:nonzero;"/><path d="M671.236,370.783c-0.982,-1.394 -0.914,-1.394 -1.898,-2.75c-0.978,-1.36 -0.851,-1.451 -1.828,-2.81c-0.854,-1.204 -2.874,-1.204 -3.725,-0c-0.982,1.388 -0.823,1.48 -1.769,2.841c-0.982,1.359 -1.043,1.325 -2.023,2.685c-0.636,0.883 0,2.175 1.107,2.175c1.516,0 1.516,0.129 3.03,0.129c1.486,-0 1.486,-0.19 3.002,-0.19l3.029,0c1.106,0 1.706,-1.201 1.075,-2.08m8.62,10.851c-0.382,-0.026 -0.729,-0.153 -0.977,-0.432c-0.131,-0.132 -0.193,-0.289 -0.29,-0.416c-1.137,-1.863 -3.444,-3.277 -5.459,-3.946c-1.043,-0.347 -2.18,-0.664 -3.32,-0.664c-2.079,0 -2.079,0.192 -4.194,0.192l-4.173,0c-1.135,0 -2.237,0.22 -3.28,0.564c-1.959,0.637 -4.041,1.862 -5.274,3.544c-0.348,0.468 -0.692,1.074 -1.262,1.289c-0.505,0.193 -0.98,-0.036 -1.422,-0.346c-0.786,-0.536 -1.01,-1.677 -0.44,-2.461c1.007,-1.42 1.074,-1.389 2.115,-2.839c1.009,-1.425 0.943,-1.486 1.986,-2.914c1.015,-1.452 1.107,-1.382 2.15,-2.835c1.044,-1.425 0.946,-1.485 1.988,-2.908c1.043,-1.453 1.076,-1.419 2.086,-2.872c1.036,-1.45 0.915,-1.518 1.956,-2.971c0.251,-0.347 0.599,-0.657 0.884,-1.005c0.473,-0.601 0.821,-1.328 1.358,-1.897c0.477,-0.505 1.199,-0.851 1.862,-0.598c0.382,0.125 0.692,0.471 0.948,0.786c1.512,1.768 2.873,3.694 4.199,5.59c1.043,1.419 0.855,1.579 1.895,2.998c1.01,1.452 1.046,1.418 2.084,2.877c1.041,1.418 1.068,1.383 2.082,2.835c1.045,1.461 0.977,1.489 1.989,2.939c1.04,1.425 1.04,1.452 2.053,2.878c0.851,1.228 -0.126,2.774 -1.544,2.612" style="fill:#1a171b;fill-rule:nonzero;"/><path d="M716.6,375.231c0,1.3 -0.601,2.459 -1.201,3.502c-0.632,1.075 -1.514,1.868 -2.588,2.497c-1.041,0.598 -2.176,0.942 -3.442,0.942c-1.767,0 -1.767,0.16 -3.502,0.16c-1.77,0 -1.77,-0.06 -3.504,-0.06c-1.741,0 -1.741,0.095 -3.51,0.095c-1.732,0 -1.732,-0.13 -3.47,-0.13c-1.767,0 -1.767,-0.03 -3.505,-0.03c-1.294,0 -2.493,-0.222 -3.535,-0.819c-1.074,-0.634 -2.022,-1.515 -2.651,-2.595c-0.604,-1.035 -1.013,-2.262 -1.013,-3.562c0,-0.95 0.918,-1.58 1.898,-1.58c0.943,0 1.736,0.63 1.736,1.58c-0,1.007 0.475,1.834 1.104,2.459c0.66,0.668 1.481,1.233 2.461,1.233c1.738,0 1.738,-0.309 3.505,-0.309c1.738,-0 1.738,0.026 3.47,0.026c1.769,-0 1.769,0.153 3.51,0.153c1.764,0 1.764,0.071 3.504,0.071c1.735,0 1.735,0.093 3.502,0.093c0.98,-0 1.989,-0.439 2.623,-1.075c0.629,-0.66 0.852,-1.644 0.852,-2.651c0,-0.983 -0.44,-1.738 -1.108,-2.367c-0.631,-0.665 -1.387,-1.168 -2.367,-1.168c-1.767,-0 -1.767,0.127 -3.502,0.127c-1.77,0 -1.77,0.028 -3.504,0.028c-1.741,-0 -1.741,-0.349 -3.51,-0.349c-1.732,0 -1.732,0.285 -3.47,0.285c-1.767,-0 -1.767,-0.285 -3.505,-0.285c-1.294,0 -2.43,-0.249 -3.473,-0.851c-1.074,-0.631 -2.084,-1.39 -2.713,-2.462c-0.604,-1.043 -0.786,-2.3 -0.786,-3.568c0,-1.295 0.216,-2.523 0.816,-3.565c0.599,-1.076 1.642,-1.802 2.718,-2.4c1.038,-0.632 2.144,-1.077 3.438,-1.077c1.738,0 1.738,-0.157 3.505,-0.157c1.738,0 1.738,0.064 3.47,0.064c1.769,-0 1.769,-0.095 3.51,-0.095c1.764,-0 1.764,0.166 3.504,0.166c1.735,-0 1.735,-0.135 3.502,-0.135c1.266,0 2.557,0.351 3.6,0.945c1.07,0.639 1.772,1.706 2.401,2.784c0.599,1.04 1.167,2.175 1.167,3.47c-0,0.947 -0.882,1.89 -1.864,1.89c-0.978,0 -1.923,-0.943 -1.923,-1.89c-0,-0.98 -0.225,-1.898 -0.885,-2.523c-0.636,-0.63 -1.516,-1.077 -2.496,-1.077c-1.767,-0 -1.767,-0.026 -3.502,-0.026c-1.77,-0 -1.77,0.121 -3.504,0.121l-3.51,-0c-1.732,-0 -1.732,0.062 -3.47,0.062c-1.767,0 -1.767,-0.217 -3.505,-0.217c-0.98,-0 -1.771,0.599 -2.43,1.23c-0.634,0.668 -1.077,1.45 -1.077,2.43c0,0.977 0.285,1.923 0.921,2.593c0.659,0.629 1.606,1.073 2.586,1.073c1.738,-0 1.738,-0.255 3.505,-0.255c1.738,0 1.738,-0.035 3.47,-0.035c1.769,0 1.769,0.319 3.51,0.319c1.764,-0 1.764,-0.284 3.504,-0.284c1.735,0 1.735,0.315 3.502,0.315c1.266,-0 2.557,0.035 3.6,0.632c1.07,0.603 1.737,1.77 2.34,2.844c0.596,1.008 1.291,2.145 1.291,3.408" style="fill:#1a171b;fill-rule:nonzero;"/><path d="M750.598,359.919c-0.031,0.949 -1.012,1.861 -1.959,1.861c-1.986,0 -1.986,-0.256 -3.943,-0.256c-1.994,0 -1.994,0.07 -3.98,0.07c-0.98,0 -1.77,0.503 -2.399,1.128c-0.662,0.674 -1.008,1.453 -1.008,2.436c0,1.862 -0.035,1.862 -0.035,3.727c0,1.864 -0.187,1.864 -0.187,3.695c-0,1.858 0.251,1.858 0.251,3.722c-0,1.864 -0.348,1.864 -0.348,3.73c-0,0.979 -0.629,1.637 -1.641,1.602c-0.946,-0.026 -1.672,-0.721 -1.672,-1.667c-0,-1.833 0.156,-1.833 0.156,-3.696c-0,-1.86 -0.343,-1.86 -0.343,-3.691c-0,-1.865 0.122,-1.865 0.122,-3.728c-0,-1.832 -0.03,-1.832 -0.03,-3.694c-0,-0.983 -0.317,-1.859 -0.98,-2.527c-0.631,-0.626 -1.516,-1.107 -2.526,-1.107c-1.958,0 -1.958,0.226 -3.946,0.226c-1.958,0 -1.958,-0.131 -3.948,-0.131c-0.946,0 -1.611,-0.751 -1.641,-1.733c-0.031,-0.981 0.6,-1.924 1.613,-1.924c1.639,-0 1.639,0.061 3.312,0.061l6.632,0c1.642,0 1.642,0.221 3.312,0.221c1.644,-0 1.644,-0.317 3.317,-0.317c1.674,0 1.674,0.192 3.315,0.192c1.676,0 1.676,-0.157 3.317,-0.157c1.672,-0 1.672,0.157 3.316,0.157c0.977,0 1.954,0.786 1.923,1.8" style="fill:#1a171b;fill-rule:nonzero;"/><path d="M757.317,364.748c-0.219,2.02 1.611,3.285 3.409,3.285c1.741,0 1.741,0.253 3.479,0.253c1.737,0 1.737,-0.131 3.47,-0.131c1.735,0 1.735,0.16 3.473,0.16c1.736,0 1.736,-0.251 3.473,-0.251c0.979,0 1.735,0.916 1.705,1.923c-0.065,0.947 -0.788,1.708 -1.739,1.708c-1.733,0 -1.733,-0.121 -3.47,-0.121c-1.739,0 -1.739,0.249 -3.442,0.249c-1.733,-0 -1.733,-0.128 -3.47,-0.128c-1.738,0 -1.738,0.155 -3.479,0.155c-0.726,0 -1.512,0.129 -2.148,0.573c-0.783,0.565 -1.161,1.859 -1.071,2.901c0.158,1.551 1.643,3.096 3.219,3.096c1.802,-0 1.802,-0.127 3.603,-0.127c1.799,-0 1.799,-0.218 3.6,-0.218c1.798,0 1.798,0.345 3.594,0.345c1.77,-0 1.77,-0.286 3.57,-0.286c1.8,0 1.8,-0.059 3.6,-0.059c0.98,0 1.862,1.004 1.836,2.016c-0.038,0.944 -0.925,1.517 -1.869,1.517c-1.639,-0 -1.639,0.095 -3.281,0.095c-1.643,-0 -1.643,0.256 -3.283,0.256c-1.643,-0 -1.643,-0.163 -3.285,-0.163c-1.641,0 -1.641,-0.031 -3.283,-0.031c-1.64,0 -1.64,-0.157 -3.286,-0.157c-1.642,-0 -1.642,-0.031 -3.28,-0.031c-1.614,-0 -1.614,0.092 -3.253,0.092c-0.851,0 -1.706,-0.467 -1.859,-1.258c-0.035,-0.131 -0.067,-0.288 -0.067,-0.379c0,-1.704 0.317,-1.704 0.317,-3.383c0,-1.673 -0.25,-1.673 -0.25,-3.349c-0,-1.696 0.25,-1.696 0.25,-3.37c0,-1.677 -0.161,-1.677 -0.161,-3.348c0,-1.71 0.128,-1.71 0.128,-3.379c-0,-1.048 -0.217,-2.121 -0.094,-3.131c0,-0.283 0.061,-0.538 0.189,-0.786c0.097,-0.256 0.218,-0.473 0.411,-0.664c0.885,-0.914 3.222,-0.469 4.421,-0.469c1.64,0 1.64,-0.13 3.283,-0.13c1.637,0 1.637,0.221 3.281,0.221c1.644,0 1.644,-0.221 3.289,-0.221c1.638,0 1.638,-0.096 3.28,-0.096c1.641,0 1.641,0.191 3.283,0.191c1.642,0 1.642,0.126 3.283,0.126c0.98,0 1.957,0.661 1.928,1.675c-0.032,0.949 -1.017,1.606 -1.961,1.606c-1.797,-0 -1.797,-0.027 -3.595,-0.027c-1.772,0 -1.772,0.186 -3.566,0.186c-1.804,0 -1.804,-0.03 -3.604,-0.03c-1.767,0 -1.767,-0.156 -3.566,-0.156c-1.801,0 -1.801,0.217 -3.603,0.217c-1.196,0 -2.238,0.733 -2.9,1.739c-0.253,0.382 -0.448,0.824 -0.509,1.294" style="fill:#1a171b;fill-rule:nonzero;"/><path d="M809.282,366.611c-0,-1.043 -0.027,-1.043 -0.027,-2.055c0,-0.947 -0.446,-1.731 -1.075,-2.401c-0.632,-0.63 -1.423,-0.943 -2.401,-0.943c-1.895,-0 -1.895,-0.062 -3.79,-0.062l-3.757,0c-1.894,0 -1.894,-0.156 -3.756,-0.156c-1.896,0 -1.896,-0.069 -3.792,-0.069c-1.543,-0 -3.001,1.396 -3.001,2.972c0,1.671 0.066,1.671 0.066,3.375c0,1.58 1.392,2.715 2.935,2.715c1.896,0 1.896,0.29 3.792,0.29c1.862,-0 1.862,0.024 3.756,0.024c1.896,-0 1.896,-0.216 3.757,-0.216c1.895,-0 1.895,0.192 3.79,0.192c0.978,-0 1.894,-0.513 2.525,-1.174c0.629,-0.627 0.978,-1.544 0.978,-2.492m3.285,12.312c0.537,0.791 0.348,2.02 -0.442,2.593c-0.319,0.213 -0.728,0.187 -1.074,0.187c-0.534,-0 -0.977,-0.251 -1.328,-0.725c-1.292,-1.801 -1.263,-1.837 -2.52,-3.665c-0.573,-0.782 -1.36,-1.452 -2.118,-1.99c-0.763,-0.572 -1.741,-0.817 -2.654,-1.133c-0.885,-0.286 -1.799,-0.729 -2.779,-0.729c-1.828,0 -1.828,-0.032 -3.695,-0.032c-1.828,-0 -1.828,0.257 -3.689,0.257c-1.204,-0 -2.435,0.309 -3.222,1.135c-0.821,0.791 -1.233,1.989 -1.233,3.22c0,0.98 0.034,0.98 0.034,1.926c-0,0.946 -0.729,1.798 -1.675,1.861c-1.011,0.036 -1.832,-0.816 -1.832,-1.796c0,-1.739 0.188,-1.739 0.188,-3.471c-0,-1.711 -0.064,-1.711 -0.064,-3.443c-0,-1.739 -0.19,-1.739 -0.19,-3.478c0,-1.7 0.036,-1.7 0.036,-3.439c0,-1.74 -0.128,-1.74 -0.128,-3.445l-0,-3.47c-0,-0.098 0.065,-0.256 0.092,-0.38c0.161,-0.788 0.982,-1.232 1.833,-1.232c1.642,-0 1.642,-0.311 3.286,-0.311l3.248,0c1.642,0 1.642,0.123 3.29,0.123c1.637,-0 1.637,0.222 3.278,0.222l3.287,-0c1.641,-0 1.641,-0.286 3.283,-0.286c1.26,-0 2.428,0.539 3.439,1.139c1.075,0.627 1.989,1.453 2.625,2.521c0.599,1.015 0.85,2.217 0.85,3.474c0,1.012 0.188,1.012 0.188,2.055c0,1.77 -0.856,3.319 -1.96,4.543c-0.662,0.761 -0.786,1.801 -0.818,2.75c-0.064,0.946 0.219,1.831 0.787,2.657c0.856,1.163 0.823,1.198 1.677,2.362" style="fill:#1a171b;fill-rule:nonzero;"/><path d="M848.899,375.231c0,1.3 -0.599,2.459 -1.201,3.502c-0.629,1.075 -1.511,1.868 -2.586,2.497c-1.04,0.598 -2.178,0.942 -3.441,0.942c-1.767,0 -1.767,0.16 -3.505,0.16c-1.77,0 -1.77,-0.06 -3.504,-0.06c-1.738,0 -1.738,0.095 -3.505,0.095c-1.735,0 -1.735,-0.13 -3.475,-0.13c-1.765,0 -1.765,-0.03 -3.5,-0.03c-1.297,0 -2.496,-0.222 -3.539,-0.819c-1.077,-0.634 -2.018,-1.515 -2.652,-2.595c-0.601,-1.035 -1.013,-2.262 -1.013,-3.562c-0,-0.95 0.918,-1.58 1.898,-1.58c0.946,0 1.741,0.63 1.741,1.58c-0,1.007 0.47,1.834 1.099,2.459c0.662,0.668 1.484,1.233 2.466,1.233c1.735,0 1.735,-0.309 3.5,-0.309c1.74,-0 1.74,0.026 3.475,0.026c1.767,-0 1.767,0.153 3.505,0.153c1.769,0 1.769,0.071 3.504,0.071c1.738,0 1.738,0.093 3.505,0.093c0.977,-0 1.986,-0.439 2.623,-1.075c0.63,-0.66 0.847,-1.644 0.847,-2.651c-0,-0.983 -0.441,-1.738 -1.102,-2.367c-0.633,-0.665 -1.391,-1.168 -2.368,-1.168c-1.767,-0 -1.767,0.127 -3.505,0.127c-1.77,0 -1.77,0.028 -3.504,0.028c-1.738,-0 -1.738,-0.349 -3.505,-0.349c-1.735,0 -1.735,0.285 -3.475,0.285c-1.765,-0 -1.765,-0.285 -3.5,-0.285c-1.297,0 -2.437,-0.249 -3.478,-0.851c-1.074,-0.631 -2.079,-1.39 -2.713,-2.462c-0.601,-1.043 -0.788,-2.3 -0.788,-3.568c-0,-1.295 0.22,-2.523 0.821,-3.565c0.601,-1.076 1.639,-1.802 2.715,-2.4c1.041,-0.632 2.146,-1.077 3.443,-1.077c1.735,0 1.735,-0.157 3.5,-0.157c1.74,0 1.74,0.064 3.475,0.064c1.767,-0 1.767,-0.095 3.505,-0.095c1.769,-0 1.769,0.166 3.504,0.166c1.738,-0 1.738,-0.135 3.505,-0.135c1.263,0 2.552,0.351 3.6,0.945c1.072,0.639 1.767,1.706 2.4,2.784c0.599,1.04 1.167,2.175 1.167,3.47c0,0.947 -0.887,1.89 -1.867,1.89c-0.979,0 -1.922,-0.943 -1.922,-1.89c-0,-0.98 -0.223,-1.898 -0.883,-2.523c-0.633,-0.63 -1.518,-1.077 -2.495,-1.077c-1.767,-0 -1.767,-0.026 -3.505,-0.026c-1.77,-0 -1.77,0.121 -3.504,0.121l-3.505,-0c-1.735,-0 -1.735,0.062 -3.475,0.062c-1.765,0 -1.765,-0.217 -3.5,-0.217c-0.982,-0 -1.77,0.599 -2.437,1.23c-0.629,0.668 -1.07,1.45 -1.07,2.43c0,0.977 0.28,1.923 0.919,2.593c0.658,0.629 1.606,1.073 2.588,1.073c1.735,-0 1.735,-0.255 3.5,-0.255c1.74,0 1.74,-0.035 3.475,-0.035c1.767,0 1.767,0.319 3.505,0.319c1.769,-0 1.769,-0.284 3.504,-0.284c1.738,0 1.738,0.315 3.505,0.315c1.263,-0 2.552,0.035 3.6,0.632c1.072,0.603 1.734,1.77 2.339,2.844c0.597,1.008 1.289,2.145 1.289,3.408" style="fill:#1a171b;fill-rule:nonzero;"/><path d="M292.884,415.012c-18.356,-0.055 -77.785,0.77 -96.137,0.684c-37.594,-0.182 -75.193,-0.472 -112.779,-1.152c-17.072,-0.309 -34.066,0.316 -51.15,-0.069c-8.169,-0.179 -17.403,-1.337 -25.406,1.692c-1.91,0.723 -7.079,2.944 -7.376,6.548c-0.004,0.071 -0.011,0.146 -0.018,0.216c-0.364,4.457 4.771,4.946 9.426,3.324c1.832,0.141 7.561,-0.336 8.927,-0.35c7.232,-0.057 14.466,0.229 21.697,0.509c17.374,0.669 34.789,-0.464 52.204,-0.058c35.93,0.838 71.905,0.761 107.835,0.868c11.962,0.036 87.775,-0.817 99.74,-0.777c-3.193,-5.781 -3.193,-5.781 -6.963,-11.435" style="fill:#1a171b;fill-rule:nonzero;"/><path d="M847.458,416.083c-4.841,-3.332 -13.412,-1.29 -18.516,-1.283c-15.924,0.035 -31.816,0.737 -47.738,0.443c-37.258,-0.677 -74.541,0.442 -111.81,0.148c-23.337,-0.18 -73.373,-0.379 -96.726,-0.542c-2.889,4.928 -5.342,5.694 -6.443,11.692c12.318,0.103 39.925,0.193 52.238,0.276c35.871,0.214 105.901,-0.276 141.763,-0.257c15.387,-0 30.739,0.349 46.127,-0.027c6.509,-0.157 23.776,-2.836 27.611,-0.2c4.23,2.909 19.68,-6.002 13.494,-10.25" style="fill:#1a171b;fill-rule:nonzero;"/><path d="M567.769,19.226c-6.787,9.173 -6.075,9.786 -12.868,18.952c-6.802,9.374 -6.268,9.778 -12.878,19.153c-6.789,9.172 -7.15,8.978 -13.943,18.14c-6.794,9.374 -7.338,8.969 -13.946,18.142c-6.803,9.372 -5.896,9.987 -12.708,19.363c-6.61,9.374 -6.781,9.169 -13.587,18.547c-2.476,3.456 -4.759,6.922 -7.613,10.393c-3.851,4.271 -6.517,10.798 -12.462,12.425c-2.491,0.61 -5.281,-0.004 -7.459,-1.435c-6.367,-3.673 -9.111,-11.22 -12.869,-17.545c-4.437,-7.549 -3.053,-8.569 -7.676,-16.114c-4.445,-7.345 -5.428,-6.738 -9.866,-14.28c-5.304,-8.774 -17.337,-9.396 -23.724,-0.634c-5.369,7.542 -5.552,7.542 -10.911,14.879c-5.559,7.538 -4.667,8.355 -10.026,15.69c-2.262,3.058 -4.526,6.116 -6.773,8.975c-2.436,2.844 -5.221,8.143 -8.53,9.777c-1.157,0.408 -2.11,0.61 -3.246,0.609c-3.955,-0.003 -7.042,-1.837 -9.537,-4.285c-2.122,-2.253 -4.009,-5.31 -5.72,-8.162c-2.047,-3.474 -4.107,-6.741 -6.15,-10.206c-5.263,-9.584 -5.263,-9.584 -10.921,-18.763c-5.443,-9.386 -4.654,-9.998 -10.299,-19.38c-5.654,-9.184 -5.251,-9.591 -10.711,-18.774c-5.657,-9.379 -5.85,-9.176 -11.5,-18.358c-5.649,-9.386 -5.458,-9.385 -10.908,-18.77c-5.648,-9.379 -5.85,-9.186 -11.498,-18.365c-3.084,-5.095 -2.077,-12.232 2.863,-15.897c4.941,-3.667 11.823,-2.236 14.914,2.868c4.947,8.365 5.732,7.75 10.693,16.116c4.948,8.358 3.747,9.378 8.893,17.748c4.957,8.359 4.751,8.566 9.893,16.931c4.95,8.366 5.74,7.752 10.691,16.117c5.137,8.359 4.743,8.771 9.691,17.136c4.951,8.362 4.164,8.977 9.109,17.341c5.146,8.365 5.769,13.46 11.05,13.464c5.655,0.003 6.832,-6.721 13.632,-16.095c6.798,-9.378 6.081,-9.987 12.884,-19.363c4.113,-5.507 7.7,-11.617 8.103,-18.139c0.416,-6.732 -2.205,-13.056 -5.454,-18.565c-4.445,-7.341 -4.038,-7.755 -8.32,-14.894c-4.449,-7.342 -4.846,-6.934 -9.109,-14.279c-3.08,-5.096 -1.132,-12.239 3.821,-15.904c4.932,-3.666 10.487,-2.029 13.567,3.069c4.612,7.758 5.197,7.552 9.806,15.309c4.788,7.951 4.198,8.355 8.804,16.114c3.078,5.096 11.024,4.695 14.724,-0.196c5.58,-7.949 4.496,-8.769 10.274,-16.716c5.567,-7.742 5.567,-7.742 11.325,-15.488c3.529,-5.094 11.116,-5.904 15.613,-2.432c4.489,3.673 4.789,11.015 1.094,15.901c-5.17,7.341 -5.883,6.722 -11.238,14.063c-5.152,7.134 -4.449,7.953 -9.609,15.081c-4.129,5.707 -6.034,12.235 -6.449,18.967c-0.404,6.522 0.693,13.053 4.117,18.76c5.636,9.384 5.841,9.187 11.483,18.569c5.642,9.377 6.483,17.125 11.001,17.338c5.057,0.609 6.793,-6.112 12.968,-14.469c5.976,-8.354 5.803,-8.563 11.791,-16.919c5.981,-8.351 5.805,-8.558 11.984,-16.912c5.983,-8.354 5.629,-8.763 11.619,-17.122c6.168,-8.354 5.808,-8.556 11.979,-16.916c5.989,-8.354 6.717,-7.949 12.709,-16.303c5.976,-8.354 5.262,-8.966 11.253,-17.324c3.705,-5.094 10.116,-5.089 14.603,-1.42c4.498,3.474 5.262,9.389 1.557,14.487m-67.895,480.918c6.184,-8.408 6.012,-8.619 12.39,-17.028c6.188,-8.409 5.848,-8.818 12.042,-17.239c6.372,-8.408 6.015,-8.609 12.393,-17.028c6.188,-8.41 6.903,-7.995 13.098,-16.41c6.184,-8.409 5.485,-9.026 11.677,-17.434c0.176,-0.151 0.325,-0.282 0.466,-0.426c-0.315,1.041 -9.425,-0.955 -24.481,-0.007c-16.894,-0.56 -31.545,2.724 -53.822,0.007c-14.76,1.133 -39.105,-1.179 -53.879,-0.019c-15.902,1.011 -19.819,-0.284 -24.457,-0.013c3.962,6.044 8.047,12.322 10.496,16.664c4.582,8 3.983,8.411 8.391,16.207c0.837,1.457 11.244,20.058 15.772,28.214c4.663,8.395 12.002,18.544 12.83,19.999c5.403,9.435 7.274,14.217 9.833,18.865c5.245,9.528 7.221,17.033 11.729,17.241c5.033,0.616 6.936,-6.152 13.318,-14.564c6.181,-8.409 6.008,-8.619 12.204,-17.029m-192.973,-85.584c0.827,0.259 19.164,0.863 36.29,-0.01c18.204,-0.93 30.122,0.184 36.315,0.012c4.087,7.362 13.712,21.169 17.928,28.541c4.093,7.186 3.679,7.597 7.937,14.984c3.104,5.541 8.135,14.957 7.813,18.672c-0.285,3.3 -7.135,12.717 -11.381,18.256c-7.032,9.44 -6.332,10.051 -13.358,19.492c-7.032,9.436 -9.581,16.212 -14.026,16.208c-5.271,-0.005 -5.766,-5.13 -10.694,-13.542c-4.731,-8.409 -3.931,-9.027 -8.664,-17.442c-4.732,-8.41 -4.593,-7.385 -9.576,-15.75c-2.626,-4.411 -5.215,-9.274 -9.95,-17.688c-4.926,-8.408 -4.713,-8.617 -9.453,-17.027c-4.931,-8.412 -5.316,-12.216 -8.436,-17.851c-2.762,-4.99 -7.744,-11.914 -10.277,-16.205c-0.131,-0.224 -0.305,-0.431 -0.468,-0.65" style="fill:#1a171b;fill-rule:nonzero;"/><path d="M452.097,4.554c-5.275,7.754 -5.275,7.754 -10.356,15.506c-5.282,7.956 -4.149,8.776 -9.231,16.734c-3.393,4.896 -11.303,5.304 -14.694,0.207c-5.079,-7.76 -4.515,-8.165 -9.787,-16.118c-5.086,-7.757 -5.656,-7.55 -10.742,-15.308c-3.39,-5.101 -9.04,-6.733 -13.743,-3.062c-4.717,3.671 -6.222,10.82 -2.832,15.916c4.713,7.347 5.083,6.939 9.982,14.282c4.716,7.139 4.333,7.554 9.23,14.896c3.583,5.511 6.593,11.835 6.593,18.573c0,6.525 -3.204,12.644 -6.971,18.155c-6.217,9.389 -5.462,9.998 -11.671,19.386c-6.215,9.385 -6.975,16.116 -12.625,16.116c-5.274,-0 -6.21,-5.098 -11.866,-13.465c-5.456,-8.364 -4.709,-8.981 -10.172,-17.345c-5.458,-8.365 -5.09,-8.778 -10.737,-17.139c-5.462,-8.366 -6.214,-7.751 -11.676,-16.117c-5.65,-8.368 -5.458,-8.575 -10.926,-16.936c-5.656,-8.37 -4.521,-9.391 -9.977,-17.751c-5.472,-8.368 -6.218,-7.751 -11.676,-16.119c-3.404,-5.104 -10.365,-6.528 -15.075,-2.857c-4.71,3.672 -5.274,10.813 -1.879,15.91c6.21,9.18 6.4,8.987 12.619,18.368c6.025,9.385 5.835,9.385 12.056,18.772c6.212,9.184 6.392,8.979 12.621,18.36c6.022,9.184 5.645,9.593 11.86,18.777c6.217,9.384 5.466,9.997 11.484,19.385c6.216,9.18 6.216,9.18 12.065,18.765c2.253,3.467 4.514,6.734 6.777,10.209c1.881,2.851 3.954,5.909 6.212,8.162c2.643,2.447 5.84,4.28 9.793,4.28c1.134,-0 2.074,-0.204 3.206,-0.613c3.203,-1.637 5.656,-6.94 7.916,-9.789c2.065,-2.86 4.138,-5.923 6.209,-8.987c4.898,-7.342 3.957,-8.159 9.041,-15.706c4.904,-7.346 5.087,-7.346 9.983,-14.896c5.84,-8.772 17.892,-8.16 23.734,0.616c4.899,7.543 5.843,6.934 10.737,14.28c5.082,7.547 3.764,8.569 8.662,16.119c4.144,6.325 7.354,13.875 13.936,17.547c2.264,1.429 5.092,2.041 7.541,1.429c5.836,-1.634 8.096,-8.166 11.678,-12.442c2.636,-3.475 4.703,-6.947 6.963,-10.406c6.219,-9.388 6.402,-9.185 12.424,-18.568c6.226,-9.388 5.282,-10.001 11.496,-19.385c6.035,-9.184 6.602,-8.779 12.812,-18.164c6.217,-9.174 6.588,-8.979 12.805,-18.162c6.023,-9.386 5.465,-9.792 11.679,-19.175c6.218,-9.178 5.468,-9.789 11.681,-18.972c3.385,-5.106 2.259,-11.023 -2.45,-14.497c-4.709,-3.667 -11.113,-3.667 -14.498,1.434c-5.467,8.367 -4.715,8.978 -10.17,17.342c-5.469,8.364 -6.221,7.96 -11.687,16.324c-5.646,8.369 -5.273,8.571 -10.917,16.934c-5.469,8.37 -5.092,8.778 -10.551,17.143c-5.654,8.363 -5.465,8.57 -10.922,16.931c-5.467,8.367 -5.28,8.575 -10.734,16.939c-5.651,8.367 -6.967,15.093 -12.058,14.488c-4.526,-0.211 -5.843,-7.962 -12.059,-17.34c-6.216,-9.384 -6.405,-9.187 -12.617,-18.572c-3.771,-5.709 -5.272,-12.243 -5.272,-18.768c0,-6.738 1.501,-13.271 5.272,-18.984c4.713,-7.136 3.959,-7.955 8.666,-15.099c4.894,-7.348 5.644,-6.729 10.356,-14.079c3.386,-4.892 2.636,-12.238 -2.077,-15.91c-1.904,-1.405 -4.271,-2.108 -6.627,-2.108c-3.464,0 -6.905,1.519 -8.814,4.554Zm-108.368,409.774c-17.053,0.868 -35.44,0.269 -36.289,0.01c0.182,0.218 0.371,0.425 0.523,0.647c2.902,4.267 8.484,11.154 11.677,16.115c3.607,5.607 4.321,9.389 9.979,17.755c5.466,8.364 5.272,8.571 10.923,16.934c5.462,8.368 8.471,13.204 11.48,17.592c5.705,8.319 5.478,7.299 10.935,15.663c5.461,8.371 4.713,8.983 10.17,17.346c5.656,8.367 6.593,13.464 11.865,13.469c4.446,0.004 6.412,-6.733 12.627,-16.119c6.209,-9.389 5.458,-9.998 11.673,-19.386c3.767,-5.508 9.804,-14.873 9.804,-18.156c0,-3.694 -5.845,-13.059 -9.427,-18.571c-4.896,-7.347 -4.516,-7.755 -9.23,-14.901c-4.854,-7.332 -15.671,-21.064 -20.395,-28.385c-2.387,0.066 -5.644,-0.058 -9.787,-0.182c-3.354,-0.103 -7.288,-0.204 -11.813,-0.204c-4.356,0 -9.259,0.095 -14.715,0.373Zm86.567,0.01c-9.427,0.599 -14.665,0.385 -18.337,0.17c-2.49,-0.146 -4.258,-0.292 -6.121,-0.183c4.482,6.012 9.113,12.256 11.935,16.573c5.272,7.957 4.71,8.364 9.791,16.12c0.963,1.449 12.977,19.948 18.21,28.057c5.389,8.352 13.604,18.444 14.56,19.892c6.217,9.384 8.5,14.14 11.461,18.763c6.069,9.474 8.693,16.939 13.219,17.146c5.086,0.612 6.405,-6.119 12.06,-14.486c5.454,-8.363 5.263,-8.571 10.732,-16.935c5.457,-8.362 5.267,-8.571 10.919,-16.935c5.461,-8.363 5.086,-8.769 10.552,-17.145c5.647,-8.362 5.272,-8.563 10.921,-16.935c5.462,-8.364 6.212,-7.951 11.681,-16.319c5.456,-8.363 4.706,-8.977 10.171,-17.341c0.098,-0.09 0.187,-0.173 0.27,-0.256c-0.615,0.295 -2.958,0.075 -6.742,-0.146c-4.211,-0.245 -10.205,-0.491 -17.58,-0.027c-6.619,-0.217 -12.845,0.148 -19.316,0.514c-10.095,0.57 -20.788,1.139 -34.505,-0.505c-7.304,0.56 -17.057,0.27 -26.822,-0.018c-5.697,-0.168 -11.4,-0.337 -16.621,-0.337c-3.796,0 -7.337,0.089 -10.438,0.333Zm132.024,0.186c0.09,-0.043 0.144,-0.097 0.159,-0.164c-0.051,0.056 -0.104,0.109 -0.159,0.164Z" style="fill:url(#_Linear1);fill-rule:nonzero;"/><defs><linearGradient id="_Linear1" x1="0" y1="0" x2="1" y2="0" gradientUnits="userSpaceOnUse" gradientTransform="matrix(-346.177,53.5743,-53.5743,-346.177,595.663,233.221)"><stop offset="0" style="stop-color:#eec980;stop-opacity:1"/><stop offset="0.18" style="stop-color:#fce088;stop-opacity:1"/><stop offset="0.29" style="stop-color:#c5860b;stop-opacity:1"/><stop offset="0.46" style="stop-color:#f2d88e;stop-opacity:1"/><stop offset="0.71" style="stop-color:#c5860b;stop-opacity:1"/><stop offset="0.77" style="stop-color:#efc97a;stop-opacity:1"/><stop offset="1" style="stop-color:#efc97a;stop-opacity:1"/></linearGradient></defs></svg>