<?xml version="1.0" encoding="UTF-8" standalone="no"?><!DOCTYPE svg PUBLIC "-//W3C//DTD SVG 1.1//EN" "http://www.w3.org/Graphics/SVG/1.1/DTD/svg11.dtd"><svg width="100%" height="100%" viewBox="0 0 1500 125" version="1.1" xmlns="http://www.w3.org/2000/svg" xmlns:xlink="http://www.w3.org/1999/xlink" xml:space="preserve" xmlns:serif="http://www.serif.com/" style="fill-rule:evenodd;clip-rule:evenodd;stroke-linejoin:round;stroke-miterlimit:2;"><rect x="0" y="0" width="1500.01" height="125" style="fill:#fff;"/><path d="M1500.11,95.065c-0.123,0.972 -0.187,1.918 -0.112,2.79c-45.665,0.059 -709.876,0.173 -710.229,0.47c-0.31,0.261 -1.351,0.807 -2.312,1.214c-0.962,0.406 -2.02,1.01 -2.352,1.342c-0.355,0.355 -0.823,0.548 -1.132,0.467c-0.403,-0.106 -0.721,0.204 -1.347,1.314c-1.481,2.624 -3.247,3.999 -5.541,4.313c-0.738,0.101 -1.274,0.323 -1.274,0.527c0,0.194 -0.462,0.572 -1.026,0.84c-2.292,1.087 -5.504,-0.283 -6.737,-2.873c-1.509,-3.173 -0.588,-6.221 3.086,-10.216c2.581,-2.806 3.92,-3.869 7.135,-5.665c2.37,-1.323 2.382,-1.336 1.447,-1.481c-1.057,-0.164 -2.777,0.683 -2.777,1.366c0,0.22 -0.109,0.4 -0.243,0.4c-0.374,-0 -0.134,-1.399 0.331,-1.927c0.288,-0.327 0.34,-0.663 0.172,-1.104c-0.216,-0.568 -0.434,-0.635 -2.06,-0.635c-2.254,0 -2.622,-0.138 -3.162,-1.182c-0.301,-0.58 -0.531,-0.751 -0.765,-0.564c-0.184,0.148 -1.08,0.482 -1.99,0.743c-3.272,0.938 -6.521,3.59 -17.518,14.293c-4.224,4.112 -7,6.248 -10.138,7.799c-6.066,2.998 -11.477,3.098 -14.69,0.27c-2.524,-2.222 -3.635,-5.18 -3.628,-9.657c0.006,-3.83 0.706,-6.034 3.019,-9.509c1.638,-2.462 2.241,-3.086 5.416,-5.608c4.855,-3.855 7.531,-5.165 17.54,-8.585c4.285,-1.465 7.857,-2.729 7.938,-2.81c0.081,-0.081 -0.149,-0.355 -0.512,-0.609c-2.545,-1.783 -4.234,-4.248 -4.238,-6.187c-0.002,-0.694 0.168,-1.306 0.42,-1.515c0.233,-0.193 0.423,-0.502 0.423,-0.687c-0,-0.184 -1.931,-2.104 -4.29,-4.265c-2.359,-2.162 -5.05,-4.628 -5.979,-5.481c-0.929,-0.853 -2.873,-2.719 -4.322,-4.146c-2.352,-2.319 -2.684,-2.554 -3.114,-2.206c-0.265,0.214 -1.434,1.149 -2.597,2.079c-2.066,1.652 -3.641,3.293 -8.412,8.767c-9.306,10.675 -11.502,13.018 -19.748,21.07c-10.618,10.369 -17.848,16.383 -21.791,18.127c-3.102,1.372 -3.756,1.424 -17.921,1.424l-665.082,-0l0,-2.508l665.634,-0.086l13.887,-0.085l1.833,-0.87c2.637,-1.252 4.593,-2.569 8.072,-5.433c6.84,-5.632 19.634,-18.065 25.698,-24.974c2.44,-2.78 5.949,-6.777 7.798,-8.882c4.372,-4.979 8.293,-8.847 10.088,-9.951c1.211,-0.745 1.352,-0.915 0.901,-1.086c-0.293,-0.111 -1.993,-1.494 -3.776,-3.071c-1.784,-1.578 -4.575,-4.033 -6.204,-5.456c-1.628,-1.423 -3.912,-3.488 -5.075,-4.59c-2.069,-1.959 -3.379,-3.106 -10.329,-9.046c-5.902,-5.045 -6.151,-6.11 -2.31,-9.879c2.193,-2.153 3.583,-2.814 4.851,-2.308c1.191,0.476 4.065,2.763 5.261,4.186c0.537,0.639 3.387,3.406 6.333,6.149c2.947,2.742 6.69,6.26 8.318,7.815c5.316,5.079 10.204,9.584 10.887,10.034c0.849,0.56 9.334,0.712 16.041,0.288c2.482,-0.157 8.575,-0.372 13.541,-0.478c8.631,-0.185 9.085,-0.169 10.292,0.368c1.67,0.742 3.085,1.966 3.545,3.068c0.206,0.491 0.825,3.606 1.376,6.921c0.551,3.316 1.135,6.789 1.297,7.72c0.548,3.134 2.458,8.205 4.17,11.075c3.547,5.944 4.277,7.763 4.319,10.753c0.022,1.61 -0.643,2.49 -2.17,2.875c-1.352,0.34 -1.699,0.815 -0.596,0.815c0.986,-0 4.864,2.645 6.754,4.606c1.601,1.662 2.728,3.412 2.728,4.237c0,0.224 0.349,0.529 0.776,0.678c1.002,0.351 3.62,2.71 4.088,3.683l0.362,0.753l691.722,-0.024Zm-728.777,10.42c-0.74,-0.519 -1.443,-1.996 -1.443,-3.033c0,-1.138 0.986,-3.07 2.102,-4.121c0.577,-0.543 1.418,-1.482 1.87,-2.086c0.919,-1.23 0.955,-1.123 0.504,1.469c-0.246,1.41 -0.237,2.184 0.04,3.406c0.796,3.518 0.428,4.824 -1.358,4.824c-0.582,0 -1.354,-0.207 -1.715,-0.459Zm-41.467,0.891c-2.662,-1.376 -4.05,-4.219 -4.063,-8.319c-0.017,-4.994 2.536,-9.448 7.609,-13.28c1.22,-0.922 2.473,-1.873 2.783,-2.114c0.988,-0.768 7.821,-3.979 9.869,-4.638c2.796,-0.899 15.126,-5.243 16.41,-5.781c0.59,-0.247 2.003,-0.7 3.142,-1.005c4.775,-1.283 7.752,-3.79 8.657,-7.293c0.371,-1.433 0.974,-1.87 0.974,-0.705c0,0.422 0.137,1.289 0.304,1.927c0.773,2.962 0.858,3.336 0.773,3.413c-0.049,0.046 -0.733,-0.05 -1.52,-0.214c-1.312,-0.272 -1.505,-0.241 -2.33,0.369c-1.174,0.868 -1.357,1.689 -1.599,7.18c-0.109,2.481 -0.217,4.892 -0.239,5.357c-0.051,1.043 -0.171,1.123 -2.495,1.662c-2.39,0.554 -2.85,0.846 -7.196,4.558c-3.577,3.055 -5.583,4.911 -12.629,11.683c-2.602,2.501 -4.308,3.887 -5.866,4.765c-2.419,1.365 -5.285,2.496 -7.242,2.858c-1.713,0.318 -4.307,0.112 -5.342,-0.423Zm46.383,-4.486c-0.403,-1.084 -0.482,-1.896 -0.372,-3.834c0.078,-1.353 0.253,-2.646 0.39,-2.875c0.328,-0.546 2.633,-2.6 2.759,-2.458c0.054,0.06 -0.094,1.085 -0.328,2.278c-0.422,2.145 -0.418,2.194 0.339,4.572c0.422,1.323 0.689,2.646 0.596,2.941c-0.383,1.205 -2.031,1.965 -2.572,1.186c-0.165,-0.239 -0.531,-1.053 -0.812,-1.81Zm5.08,-2.994c-0.553,-1.086 -1.006,-2.046 -1.006,-2.134c-0,-0.087 0.63,0.488 1.4,1.278c1.275,1.309 1.371,1.499 1.082,2.134c-0.174,0.383 -0.351,0.696 -0.393,0.696c-0.043,-0 -0.53,-0.888 -1.083,-1.974Zm1.944,-2.89c-0.974,-0.814 -1.93,-1.766 -2.126,-2.115c-0.195,-0.349 -0.524,-0.634 -0.731,-0.634c-0.61,-0 -0.428,-1.029 0.263,-1.482c1.107,-0.725 2.248,-0.828 3.075,-0.278c1.094,0.727 4.182,4.401 4.182,4.975c0,0.238 -1.731,0.964 -2.363,0.991c-0.292,0.013 -1.327,-0.643 -2.3,-1.457Zm6.918,-2.326c-0.346,-1.086 -0.759,-2.136 -0.918,-2.333c-0.159,-0.198 -0.213,-0.436 -0.119,-0.53c0.094,-0.094 1.285,0.657 2.648,1.669c1.363,1.012 2.986,2.056 3.606,2.321c1.482,0.632 0.922,0.846 -2.212,0.846l-2.375,0l-0.63,-1.973Zm-0.902,-11.476c0.181,-0.181 0.423,-0.236 0.537,-0.121c0.115,0.114 0.026,0.321 -0.198,0.459c-0.527,0.325 -0.765,0.088 -0.339,-0.338Zm11.595,11.969c0.307,-0.582 0.627,-1.287 0.711,-1.568c0.147,-0.491 0.186,-0.491 1.001,-0.011c0.467,0.276 0.848,0.601 0.848,0.723c0,0.121 0.195,0.221 0.432,0.221c0.238,-0 0.505,0.19 0.594,0.423c0.089,0.232 0.332,0.423 0.539,0.423c0.206,-0 0.46,0.136 0.563,0.303c0.13,0.209 -0.195,0.249 -1.04,0.126c-0.676,-0.099 -1.736,-0.058 -2.357,0.09c-1.869,0.447 -1.903,0.429 -1.291,-0.73Zm-39.103,-25.864c-0.115,-0.124 -0.082,-0.273 0.073,-0.332c1.568,-0.594 1.401,-0.875 -2.582,-4.327c-7.53,-6.527 -15.041,-13.518 -15.041,-13.999c0,-0.21 -0.188,-0.381 -0.417,-0.381c-0.23,-0 -1.277,-0.779 -2.326,-1.731c-1.05,-0.952 -2.195,-1.918 -2.544,-2.147c-0.836,-0.549 -0.806,-0.87 0.066,-0.704c1.727,0.331 1.948,-0.845 0.247,-1.314c-0.534,-0.148 -1.404,-0.198 -1.934,-0.112c-0.841,0.136 -1.066,0.035 -1.751,-0.787c-1.038,-1.246 -1.353,-1.551 -3.317,-3.215c-0.916,-0.775 -4.004,-3.503 -6.864,-6.062c-2.859,-2.559 -5.755,-5.094 -6.435,-5.634l-1.237,-0.981l2.131,-2.121c1.757,-1.747 2.177,-2.041 2.389,-1.673c0.377,0.657 18.649,18.112 22.701,21.687c0.967,0.853 3.582,3.251 5.811,5.328c2.23,2.077 5.88,5.313 8.111,7.19c2.232,1.878 4.878,4.143 5.88,5.035c1.002,0.892 2.047,1.621 2.322,1.621c0.276,0 0.659,0.191 0.852,0.423c0.46,0.554 1.682,0.54 2.493,-0.029c0.836,-0.585 1.088,-0.314 0.519,0.555c-0.619,0.945 -2.594,2.505 -4.281,3.382c-1.14,0.594 -1.719,0.716 -3.033,0.643c-0.893,-0.05 -1.718,-0.192 -1.833,-0.315Zm18.906,19.026c0.095,-0.366 0.008,-0.564 -0.25,-0.564c-0.218,0 -0.396,-0.126 -0.396,-0.282c-0,-0.155 0.244,-0.282 0.542,-0.282c0.298,0 0.901,-0.295 1.34,-0.656c0.438,-0.362 1.019,-0.738 1.29,-0.838c0.271,-0.099 0.493,-0.413 0.493,-0.699c0,-0.285 0.187,-0.765 0.414,-1.066c0.5,-0.66 0.542,-1.7 0.118,-2.916c-0.173,-0.496 -0.241,-0.976 -0.151,-1.066c0.09,-0.09 0.876,0.487 1.747,1.283c0.871,0.796 1.827,1.447 2.125,1.447c0.297,-0 0.541,0.127 0.541,0.282c-0,0.155 -0.124,0.282 -0.277,0.282c-0.438,-0 -3.389,1.963 -3.389,2.255c0,0.423 -1.758,2.305 -2.678,2.866c-1.126,0.687 -1.657,0.67 -1.469,-0.046Zm13.187,-9.053c0.23,-0.43 0.232,-0.679 0.01,-0.902c-0.169,-0.17 -0.304,-0.441 -0.299,-0.604c0.015,-0.498 0.837,0.764 0.837,1.285c-0,0.404 -0.235,0.641 -0.785,0.793c-0.045,0.013 0.062,-0.245 0.237,-0.572Zm-7.537,-0.4c-1.371,-1.315 -2.067,-2.196 -2.067,-2.618c0,-0.35 -0.325,-1.279 -0.723,-2.064c-0.399,-0.786 -0.661,-1.492 -0.584,-1.569c0.077,-0.077 1.418,1.007 2.981,2.408c1.563,1.402 3.475,2.893 4.249,3.315c1.506,0.819 1.805,1.427 0.774,1.573c-0.403,0.057 -0.645,0.295 -0.663,0.654c-0.048,0.932 -0.079,0.951 -1.006,0.61c-0.492,-0.18 -1.824,-1.219 -2.961,-2.309Zm-14.473,0.994c-0,-1.128 0.121,-1.973 0.282,-1.973c0.155,-0 0.28,0.412 0.279,0.916c-0.005,1.051 -0.302,3.031 -0.457,3.031c-0.057,0 -0.104,-0.888 -0.104,-1.974Zm-3.414,-18.802c-0.571,0.149 -2.763,-0.477 -3.06,-0.874c-0.084,-0.112 -0.914,-0.709 -1.844,-1.326l-1.692,-1.121l1.41,-0.192c2.137,-0.292 5.237,-0.272 6.36,0.04c1.63,0.453 2.513,1.612 2.814,3.698c0.49,3.388 0.501,3.378 -1.569,1.391c-1.381,-1.326 -1.985,-1.729 -2.419,-1.616Zm13.125,29.931c0.627,-0.474 1.004,-0.531 1.004,-0.153c-0,0.144 -0.222,0.32 -0.494,0.391c-0.922,0.24 -1.058,0.177 -0.51,-0.238Zm-22.875,-20.645c-0.536,-0.582 -1.314,-1.49 -1.73,-2.018c-0.415,-0.528 -1.041,-1.308 -1.39,-1.732c-0.581,-0.708 -0.857,-1.678 -0.476,-1.678c0.088,0 1.241,1.073 2.564,2.383c1.411,1.399 2.801,2.515 3.366,2.701c1.203,0.397 1.215,0.674 0.045,1.05c-1.348,0.432 -1.324,0.439 -2.379,-0.706Zm36.752,22.88c-1.062,-0.657 -2.283,-1.508 -2.713,-1.891c-1.44,-1.283 -2.272,-1.679 -3.895,-1.854l-1.613,-0.173l1.251,-1.128c0.687,-0.62 1.917,-1.809 2.732,-2.641l1.482,-1.514l1.332,0.744c3.06,1.711 5.395,4.177 5.872,6.204c0.343,1.454 -1.09,3.979 -2.055,3.62c-0.255,-0.094 -1.332,-0.709 -2.393,-1.367Zm-11.06,-3.6c-0.127,-0.369 0.08,-0.79 0.685,-1.396c0.477,-0.477 0.941,-0.793 1.031,-0.703c0.09,0.09 -0.011,0.338 -0.226,0.552c-0.214,0.214 -0.478,0.745 -0.587,1.181c-0.173,0.686 -0.009,1.001 1.221,2.346c0.781,0.855 1.418,1.703 1.415,1.884c-0.006,0.427 -3.299,-3.169 -3.539,-3.864Zm7.459,-13.464c-0.793,-0.417 -2.692,-1.937 -4.752,-3.802c-2.347,-2.125 -3.979,-3.203 -5.538,-3.657c-1.191,-0.346 -1.637,-0.373 -1.944,-0.119c-0.558,0.463 -0.934,0.139 -0.779,-0.672c0.301,-1.578 -1.323,-5.525 -3.31,-8.038c-1.085,-1.372 -1.14,-1.523 -0.727,-1.979c0.245,-0.271 0.446,-0.593 0.446,-0.716c0,-0.122 0.621,-1.012 1.38,-1.977c0.759,-0.965 1.6,-2.182 1.869,-2.703c0.27,-0.521 0.664,-1.121 0.877,-1.333c0.465,-0.466 0.506,-1.367 0.072,-1.635c-0.172,-0.106 -0.412,-0.034 -0.532,0.161c-0.285,0.461 -0.814,0.121 -1.138,-0.733c-0.142,-0.372 -0.375,-0.677 -0.518,-0.677c-0.142,-0 -0.748,0.596 -1.346,1.324c-0.598,0.729 -1.752,2.12 -2.565,3.092c-1.354,1.618 -1.452,1.827 -1.153,2.483c0.497,1.09 0.154,1.113 -1.353,0.093c-1.314,-0.89 -1.487,-0.93 -4.052,-0.93c-2.284,0 -2.965,0.117 -4.621,0.79l-1.943,0.791l-0.736,-0.677c-0.405,-0.372 -1.62,-1.489 -2.701,-2.482c-1.081,-0.993 -3.112,-2.884 -4.513,-4.202c-4.856,-4.568 -6.685,-6.203 -6.941,-6.203c-0.141,-0 -0.256,-0.121 -0.256,-0.269c-0,-0.158 1.416,-0.245 3.454,-0.211c3.628,0.06 16.367,-0.29 18.539,-0.509c0.698,-0.07 3.945,-0.146 7.216,-0.168c5.163,-0.035 6.085,0.025 6.999,0.459c1.752,0.831 1.708,0.694 3.009,9.389c0.726,4.857 1.499,8.588 2.224,10.739c0.724,2.151 2.533,6.056 2.863,6.182c0.136,0.051 0.247,0.254 0.247,0.451c-0,0.196 0.38,0.882 0.846,1.525c0.465,0.642 0.846,1.24 0.846,1.33c-0,0.089 0.308,0.566 0.685,1.061c0.749,0.982 1.229,2.058 1.586,3.559c0.284,1.193 0.08,1.595 -0.537,1.056c-0.256,-0.223 -0.798,-0.58 -1.203,-0.793Zm-13.037,8.93c-0.756,-0.577 -1.28,-0.706 -3.153,-0.776c-2.02,-0.075 -2.255,-0.142 -2.329,-0.663c-0.046,-0.322 0.236,-0.924 0.634,-1.354c0.865,-0.933 0.894,-1.517 0.153,-3.144c-0.311,-0.682 -0.703,-2.227 -0.87,-3.434c-0.168,-1.207 -0.37,-2.298 -0.449,-2.426c-0.079,-0.128 -0.177,-0.542 -0.219,-0.921c-0.106,-0.968 0.324,-0.893 3.473,0.6c2.659,1.261 5.397,3.429 5.397,4.273c-0,0.202 0.121,0.588 0.269,0.857c0.149,0.269 0.474,1.234 0.723,2.144c0.434,1.588 0.43,1.68 -0.097,2.256c-0.302,0.331 -0.814,1.129 -1.138,1.773c-0.497,0.991 -0.828,1.342 -1.397,1.484c-0.049,0.013 -0.498,-0.289 -0.997,-0.669Zm-68.842,-65.854c-0.096,-0.155 -0.04,-0.282 0.124,-0.282c0.165,0 0.299,0.127 0.299,0.282c-0,0.155 -0.056,0.282 -0.124,0.282c-0.069,0 -0.203,-0.127 -0.299,-0.282Zm8.036,4.636c0,-0.242 0.129,-0.36 0.287,-0.262c0.157,0.097 0.213,0.295 0.124,0.439c-0.242,0.391 -0.411,0.318 -0.411,-0.177Zm-4.37,-0.688c-0.096,-0.155 0.023,-0.282 0.265,-0.282c0.242,-0 0.439,0.127 0.439,0.282c0,0.155 -0.119,0.282 -0.265,0.282c-0.146,-0 -0.344,-0.127 -0.439,-0.282Zm-6.556,-6.332c-0.349,-0.105 -0.635,-0.286 -0.635,-0.4c0,-0.115 0.833,-1.067 1.851,-2.116c1.513,-1.558 1.925,-1.845 2.256,-1.57c0.441,0.366 0.569,1.248 0.143,0.984c-0.144,-0.089 -0.344,0.1 -0.446,0.419c-0.131,0.415 -0.337,0.531 -0.725,0.408c-0.303,-0.097 -0.541,-0.04 -0.541,0.129c0,0.166 0.127,0.301 0.282,0.301c0.155,-0 0.282,0.127 0.282,0.282c0,0.155 -0.254,0.282 -0.564,0.282c-0.539,-0 -0.796,0.669 -0.352,0.917c0.255,0.143 -0.304,-0.001 -0.987,-0.254c-0.272,-0.1 0.015,0.375 0.634,1.056c0.72,0.79 0.822,0.97 0.282,0.496c-0.465,-0.408 -1.131,-0.828 -1.48,-0.934Zm5.573,-1.55c0.003,-0.244 0.264,-0.033 0.592,0.48c0.323,0.504 0.671,0.917 0.773,0.917c0.103,-0 0.359,0.285 0.57,0.634c0.218,0.361 -0.117,0.155 -0.778,-0.48c-0.639,-0.613 -1.159,-1.311 -1.157,-1.551Zm2.392,9.292c0.096,-0.155 0.302,-0.282 0.457,-0.282c0.155,-0 0.203,0.127 0.107,0.282c-0.096,0.155 -0.301,0.282 -0.456,0.282c-0.155,-0 -0.203,-0.127 -0.108,-0.282Zm-4.793,-3.948c-0.096,-0.155 -0.04,-0.282 0.124,-0.282c0.164,0 0.299,0.127 0.299,0.282c-0,0.155 -0.056,0.282 -0.124,0.282c-0.069,0 -0.203,-0.127 -0.299,-0.282Zm1.551,-1.41c-0,-0.155 0.127,-0.282 0.282,-0.282c0.155,0 0.282,0.127 0.282,0.282c-0,0.155 -0.127,0.282 -0.282,0.282c-0.155,0 -0.282,-0.127 -0.282,-0.282Zm5.603,2.467c-0.306,-0.573 -0.294,-0.597 0.127,-0.25c0.256,0.211 0.651,0.313 0.878,0.226c0.277,-0.106 0.361,-0.024 0.255,0.25c-0.233,0.609 -0.877,0.494 -1.26,-0.226Zm1.596,1.495c-0.091,-0.147 0.097,-0.409 0.419,-0.581c0.541,-0.29 0.558,-0.27 0.222,0.268c-0.417,0.668 -0.421,0.67 -0.641,0.313Zm-11.781,-4.772c-0.737,-0.709 -1.34,-1.388 -1.34,-1.509c0,-0.5 0.571,-0.139 1.868,1.184c0.756,0.772 1.534,1.406 1.727,1.41c0.194,0.004 0.353,0.202 0.353,0.44c-0,0.629 -0.949,0.074 -2.608,-1.525Zm5.67,2.244c-0.366,-0.296 -0.596,-0.609 -0.512,-0.693c0.084,-0.085 0.516,0.158 0.96,0.54c0.943,0.81 0.535,0.95 -0.448,0.153Zm-3.096,-3.126c-0.573,0 -0.712,-0.418 -0.237,-0.711c0.162,-0.1 0.558,0.154 0.88,0.564c0.359,0.457 0.753,0.682 1.016,0.581c0.367,-0.141 0.373,-0.098 0.045,0.297c-0.351,0.423 -0.416,0.412 -0.779,-0.134c-0.218,-0.328 -0.634,-0.597 -0.925,-0.597Zm3.418,1.269c-0.365,-0.387 -0.536,-0.705 -0.381,-0.705c0.155,0 0.58,0.318 0.945,0.705c0.364,0.388 0.535,0.705 0.38,0.705c-0.155,0 -0.58,-0.317 -0.944,-0.705Zm3.242,1.833c-0.096,-0.155 -0.047,-0.282 0.108,-0.282c0.155,0 0.36,0.127 0.456,0.282c0.096,0.155 0.047,0.282 -0.108,0.282c-0.155,0 -0.36,-0.127 -0.456,-0.282Zm-1.294,-0.799c0.329,-0.614 1.153,-1.341 1.153,-1.016c0,0.226 -1.132,1.533 -1.328,1.533c-0.056,0 0.023,-0.232 0.175,-0.517Zm1.568,4.238c0.189,-0.189 0.995,0.514 0.995,0.869c0,0.16 -0.255,0.061 -0.566,-0.221c-0.311,-0.281 -0.504,-0.573 -0.429,-0.648Zm-1.12,-2.827c0.187,-0.188 1.269,0.813 1.269,1.173c0,0.158 -0.317,-0.011 -0.704,-0.374c-0.387,-0.364 -0.641,-0.723 -0.565,-0.799Zm-3.806,-0.08c-0,-0.421 0.413,-0.279 0.924,0.317c0.681,0.796 0.604,0.934 -0.219,0.394c-0.388,-0.254 -0.705,-0.574 -0.705,-0.711Zm5.254,-1.44c0.106,-0.17 0.269,-0.13 0.416,0.103c0.385,0.608 0.29,0.906 -0.169,0.526c-0.231,-0.192 -0.342,-0.475 -0.247,-0.629Zm-0.743,5.702c0,-0.156 0.12,-0.282 0.266,-0.282c0.146,-0 0.343,0.127 0.439,0.282c0.096,0.155 -0.023,0.282 -0.265,0.282c-0.242,-0 -0.44,-0.127 -0.44,-0.282Zm-1.792,-3.45c0.169,-0.273 1.51,0.839 1.51,1.251c0,0.133 -0.375,-0.036 -0.835,-0.376c-0.459,-0.339 -0.763,-0.733 -0.675,-0.875Zm-3.565,-1.626c-0,-0.155 0.134,-0.282 0.298,-0.282c0.165,0 0.221,0.127 0.125,0.282c-0.096,0.155 -0.23,0.282 -0.299,0.282c-0.068,0 -0.124,-0.127 -0.124,-0.282Zm-0.281,-4.727c0.001,-0.327 0.18,-0.195 0.541,0.396c0.297,0.487 0.677,0.971 0.845,1.074c0.168,0.104 0.301,0.34 0.296,0.525c-0.012,0.531 -1.683,-1.45 -1.682,-1.995Zm0.845,-0.506c-0,-0.242 0.127,-0.361 0.282,-0.265c0.155,0.096 0.282,0.293 0.282,0.439c-0,0.146 -0.127,0.266 -0.282,0.266c-0.155,-0 -0.282,-0.198 -0.282,-0.44Z" style="fill:#808080;"/></svg>