<?xml version="1.0" encoding="UTF-8" standalone="no"?><!DOCTYPE svg PUBLIC "-//W3C//DTD SVG 1.1//EN" "http://www.w3.org/Graphics/SVG/1.1/DTD/svg11.dtd"><svg width="100%" height="100%" viewBox="0 0 524 550" version="1.1" xmlns="http://www.w3.org/2000/svg" xmlns:xlink="http://www.w3.org/1999/xlink" xml:space="preserve" xmlns:serif="http://www.serif.com/" style="fill-rule:evenodd;clip-rule:evenodd;stroke-linejoin:round;stroke-miterlimit:2;"><path d="M207.615,548.516c0,-3.588 8.231,-22.943 11.408,-26.824c2.117,-2.587 5.208,-8.816 6.868,-13.841c1.659,-5.025 4.133,-10.855 5.496,-12.954c1.363,-2.099 1.967,-4.645 1.342,-5.657c-0.626,-1.012 -0.233,-4.58 0.872,-7.928c1.571,-4.761 1.532,-6.664 -0.179,-8.726c-1.895,-2.283 -1.568,-2.481 2.439,-1.475c4.225,1.06 4.617,0.73 4.506,-3.784c-0.106,-4.324 -0.308,-4.511 -1.609,-1.486c-0.817,1.904 -1.541,2.487 -1.608,1.298c-0.214,-3.812 -5.319,-2.311 -7.357,2.163c-1.084,2.379 -2.588,4.325 -3.343,4.325c-0.754,-0 -0.044,-2.331 1.576,-5.179c1.621,-2.849 4.189,-5.185 5.706,-5.191c1.518,-0.006 4.049,-1.435 5.623,-3.175c3.054,-3.374 3.879,-6.318 1.329,-4.742c-0.844,0.522 -1.428,-0.322 -1.298,-1.874c0.375,-4.464 -3.733,-4.702 -4.613,-0.268c-0.61,3.069 -0.787,2.792 -0.768,-1.198c0.017,-2.855 -0.601,-6.68 -1.366,-8.502c-0.921,-2.196 -0.768,-2.928 0.453,-2.172c1.014,0.626 2.314,-0.089 2.889,-1.588c1.423,-3.708 1.336,-4.174 -0.785,-4.174c-1.008,-0 -1.351,0.779 -0.763,1.73c0.588,0.952 0.31,1.73 -0.619,1.73c-0.929,0 -2.081,-0.973 -2.561,-2.162c-0.551,-1.366 -0.923,-1.116 -1.009,0.68c-0.071,1.563 -1.316,3.295 -2.758,3.848c-2.012,0.773 -2.44,0.009 -1.845,-3.274c0.663,-3.653 0.327,-4.04 -2.287,-2.642c-2.592,1.388 -10.069,9.678 -18.711,20.747c-1.159,1.485 -2.133,2.146 -2.163,1.47c-0.027,-0.677 3.352,-5.413 7.515,-10.524c14.084,-17.291 14.892,-22.436 4.783,-30.442c-6.543,-5.183 -8.893,-5.386 -8.893,-0.768c0,1.268 1.557,2.306 3.461,2.306c1.903,0 3.46,0.706 3.46,1.569c-0,0.862 -1.593,1.151 -3.54,0.642c-2.233,-0.584 -4.502,0.274 -6.15,2.324c-2.476,3.082 -2.517,3.054 -0.786,-0.528c2.877,-5.957 2.28,-7.839 -2.067,-6.514c-6.838,2.084 -10.25,6.249 -9.076,11.082l1.07,4.401l-4.864,-4.811c-3.733,-3.692 -4.331,-5.143 -2.574,-6.237c1.899,-1.181 1.897,-1.838 -0.017,-3.839c-1.932,-2.023 -1.658,-3.106 1.689,-6.677c2.198,-2.345 3.532,-3.053 2.964,-1.575c-0.567,1.479 0.054,3.585 1.371,4.682c1.912,1.587 2.839,1.035 4.543,-2.704c1.398,-3.067 1.526,-4.903 0.369,-5.289c-0.975,-0.325 -1.308,-1.799 -0.742,-3.275c0.883,-2.303 0.463,-2.381 -2.954,-0.552c-3.524,1.886 -3.852,1.785 -2.833,-0.87c0.949,-2.473 0.377,-2.855 -3.239,-2.163c-2.416,0.461 -4.808,0.165 -5.318,-0.659c-0.509,-0.824 -0.006,-1.499 1.119,-1.499c1.53,0 1.506,-0.647 -0.094,-2.576c-1.176,-1.417 -3.023,-2.046 -4.105,-1.398c-1.082,0.648 -0.825,-0.334 0.571,-2.181c1.396,-1.848 1.884,-2.809 1.083,-2.136c-0.801,0.673 -2.915,-0.495 -4.699,-2.595c-3.102,-3.651 -3.352,-3.681 -5.675,-0.689c-1.538,1.982 -2.846,2.458 -3.564,1.298c-0.623,-1.009 -0.503,-1.846 0.267,-1.86c0.77,-0.018 0.232,-0.844 -1.195,-1.844c-2.047,-1.433 -1.795,-1.592 1.196,-0.754c3.059,0.858 3.74,0.379 3.525,-2.481c-0.147,-1.95 -1.27,-3.545 -2.494,-3.545c-1.225,-0 -2.227,-0.862 -2.227,-1.915c-0,-1.054 -1.061,-1.509 -2.358,-1.011c-1.769,0.679 -2.266,-0.724 -1.99,-5.615c0.202,-3.586 0.941,-7.447 1.642,-8.581c1.766,-2.859 -2.157,-7.117 -5.408,-5.87c-2.268,0.871 -2.358,0.442 -0.598,-2.846c3.625,-6.772 0.746,-5.645 -4.035,1.581c-4.732,7.15 -8.015,8.936 -8.015,4.36c0,-3.566 -4.624,-3.271 -6.781,0.433c-0.979,1.68 -1.787,2.065 -1.817,0.865c-0.026,-1.189 -0.83,-2.163 -1.782,-2.163c-0.952,0 -1.536,0.87 -1.298,1.933c0.238,1.063 -0.974,2.169 -2.693,2.457c-4.327,0.724 -2.731,-3.045 2.397,-5.662c2.304,-1.175 3.125,-2.148 1.824,-2.162c-1.514,-0.018 -2.036,-1.279 -1.453,-3.509c0.862,-3.295 0.475,-3.245 -7.151,0.931c-4.435,2.428 -9.882,5.802 -12.106,7.497l-4.043,3.083l4.63,5.502c4.979,5.917 7.782,7.001 7.782,3.008c-0,-1.371 0.638,-2.887 1.417,-3.368c0.779,-0.482 1.097,1.305 0.706,3.971c-0.635,4.33 0.08,5.164 6.696,7.811c4.074,1.63 8.403,4.274 9.62,5.875c1.326,1.745 2.235,2.066 2.268,0.802c0.035,-1.178 1.228,-1.658 2.714,-1.087c2.978,1.142 9.886,-4.218 8.444,-6.551c-0.51,-0.825 -0.232,-1.499 0.617,-1.499c2.891,-0 3.826,2.271 1.894,4.598c-1.418,1.708 -1.414,2.322 0.017,2.322c1.069,0 1.942,1.103 1.942,2.451c0,1.348 0.974,2.844 2.163,3.324c1.292,0.522 0.944,0.928 -0.865,1.009c-1.666,0.071 -3.028,-1.031 -3.028,-2.458c0,-1.428 -0.779,-2.595 -1.73,-2.595c-0.952,-0 -1.73,0.687 -1.73,1.528c-0,2.335 -9.231,3.591 -11.657,1.585c-1.177,-0.974 -3.293,-1.328 -4.702,-0.788c-1.409,0.541 -3.096,0.118 -3.75,-0.939c-0.771,-1.248 -0.335,-1.453 1.242,-0.586c1.337,0.734 0.188,-0.686 -2.553,-3.156c-2.741,-2.47 -5.489,-4.179 -6.106,-3.797c-0.618,0.382 -4.859,-3.122 -9.424,-7.786l-8.301,-8.479l-5.489,5.145c-3.019,2.83 -6.463,5.149 -7.652,5.153c-1.19,0.005 -2.163,0.683 -2.163,1.508c0,1.792 -13.833,11.196 -14.9,10.129c-0.407,-0.408 2.194,-2.739 5.782,-5.18c3.588,-2.44 8.618,-6.303 11.178,-8.584c2.561,-2.281 6.618,-5.621 9.017,-7.422c4.248,-3.19 5.11,-8.506 1.771,-10.914c-2.185,-1.576 -2.488,-6.93 -0.664,-11.727c1.972,-5.189 -2.205,-3.886 -5.097,1.589c-1.612,3.052 -1.78,3.116 -0.862,0.332c0.628,-1.904 1.477,-5.407 1.889,-7.786c0.656,-3.797 0.507,-3.946 -1.216,-1.222c-1.336,2.111 -3.099,2.744 -5.513,1.978c-2.248,-0.714 -3.141,-0.468 -2.438,0.669c0.61,0.988 0.175,2.374 -0.966,3.079c-1.443,0.892 -1.056,1.641 1.266,2.456c2.699,0.946 2.269,1.329 -2.236,1.991c-4.568,0.67 -5.222,0.39 -3.616,-1.545c1.475,-1.778 1.402,-2.879 -0.296,-4.452c-1.771,-1.639 -1.992,-1.62 -1.028,0.089c1.709,3.025 -3.001,7.408 -5.981,5.567c-1.298,-0.803 -2.982,-1.075 -3.741,-0.606c-0.759,0.469 -1.38,-0.062 -1.38,-1.181c-0,-1.182 1.449,-1.655 3.46,-1.129c2.27,0.593 3.46,0.053 3.46,-1.571c0,-2.482 7.242,-6.442 12.111,-6.624c1.428,-0.053 2.401,-0.68 2.163,-1.392c-0.238,-0.712 -0.432,-2.463 -0.432,-3.891c-0,-1.427 -1.144,-2.595 -2.541,-2.595c-1.556,0 -2.152,1.013 -1.538,2.615c0.719,1.871 0.211,2.311 -1.784,1.545c-3.629,-1.392 -3.539,-3.551 0.24,-5.751c4.606,-2.683 2.157,-2.257 -14.106,2.456c-16.627,4.818 -17.174,4.918 -15.924,2.894c0.487,-0.787 5.593,-2.856 11.348,-4.599c5.755,-1.742 10.464,-3.737 10.464,-4.432c-0,-0.695 0.973,-1.228 2.162,-1.184c5.813,0.217 8.219,-0.698 8.219,-3.12c-0,-2.202 -0.653,-2.307 -3.811,-0.618c-2.838,1.519 -3.978,1.535 -4.469,0.062c-0.362,-1.088 -1.762,-1.978 -3.11,-1.978c-1.349,-0 -2.451,-0.671 -2.451,-1.49c-0,-0.82 1.937,-1.12 4.305,-0.667c2.406,0.459 3.814,1.616 3.193,2.622c-0.651,1.054 -0.272,1.281 0.913,0.548c1.114,-0.689 1.621,-1.907 1.127,-2.707c-1.362,-2.203 0.973,-7.08 2.838,-5.928c0.977,0.604 0.818,1.99 -0.394,3.451c-1.602,1.93 -1.439,2.441 0.782,2.441c1.544,-0 2.807,1.214 2.807,2.697c-0,1.484 0.791,2.208 1.758,1.611c0.967,-0.598 1.229,-1.944 0.581,-2.992c-0.741,-1.2 -0.179,-1.521 1.524,-0.868c2.015,0.774 2.913,-0.359 3.538,-4.464c0.46,-3.025 0.533,-6.022 0.16,-6.661c-0.372,-0.638 -17.019,-1.028 -36.992,-0.865c-19.974,0.163 -36.316,-0.159 -36.315,-0.713c0,-0.556 0.973,-1.05 2.163,-1.099c1.189,-0.054 9.948,-0.551 19.464,-1.116c9.516,-0.564 17.885,-1.042 18.599,-1.063c0.714,-0.018 1.309,-1.401 1.324,-3.066c0.018,-1.764 0.557,-2.281 1.298,-1.238c1.161,1.635 2.685,1.827 8.471,1.069c2.172,-0.285 1.996,-6.962 -0.28,-10.645c-0.894,-1.447 -0.722,-1.845 0.479,-1.104c1.033,0.639 2.303,0.473 2.822,-0.366c0.519,-0.841 -2.837,-1.528 -7.458,-1.528c-9.028,0 -12.294,-1.188 -12.252,-4.456c0.018,-1.371 0.452,-1.454 1.297,-0.247c2.097,2.991 9.794,1.987 10.447,-1.363c0.476,-2.441 -0.335,-2.841 -4.294,-2.117c-11.266,2.059 -31.842,3.512 -33.677,2.377c-1.09,-0.673 4.944,-1.777 13.407,-2.453c8.464,-0.676 22.006,-2.169 30.095,-3.318c11.853,-1.685 13.752,-2.334 9.791,-3.345c-3.244,-0.829 -4.598,-2.084 -3.981,-3.69c0.646,-1.686 0.079,-2.105 -1.857,-1.364c-1.901,0.73 -2.379,0.404 -1.497,-1.022c0.951,-1.539 0.035,-1.779 -3.445,-0.905c-4.084,1.025 -4.611,0.736 -3.816,-2.093c2.186,-7.778 2.153,-8.46 -0.385,-7.896c-1.428,0.317 -1.989,-0.027 -1.248,-0.771c2.836,-2.835 6.126,-1.868 8.056,2.369c1.42,3.117 2.547,3.868 3.851,2.565c2.041,-2.042 0.331,-6.186 -1.967,-4.765c-0.797,0.492 -1.01,-0.786 -0.472,-2.841c0.83,-3.175 0.402,-3.585 -2.855,-2.733c-2.522,0.659 -3.577,0.309 -3.085,-1.025c0.411,-1.114 1.623,-1.832 2.694,-1.594c1.07,0.238 1.946,-0.39 1.946,-1.395c0,-1.039 1.619,-0.695 3.749,0.797c3.442,2.411 4.013,2.321 6.978,-1.099c2.92,-3.366 2.963,-3.873 0.448,-5.281c-1.531,-0.856 -3.244,-1.097 -3.807,-0.533c-0.563,0.562 -0.14,1.024 0.941,1.024c1.08,-0 1.534,1.118 1.01,2.485c-0.525,1.368 -2.053,2.065 -3.396,1.549c-1.343,-0.515 -2.056,-1.561 -1.585,-2.324c0.472,-0.764 -0.7,-0.98 -2.605,-0.482c-2.013,0.526 -3.462,0.053 -3.462,-1.129c-0,-1.118 0.724,-1.586 1.61,-1.038c0.886,0.547 2.174,0.079 2.863,-1.031c0.782,-1.265 0.502,-1.562 -0.746,-0.791c-1.099,0.679 -1.998,0.361 -1.998,-0.707c0,-1.067 1.363,-1.802 3.028,-1.633c5.959,0.606 7.353,-0.146 7.38,-3.983c0.017,-2.649 0.473,-3.189 1.424,-1.689c0.769,1.211 2.965,2.504 4.879,2.873c4.103,0.79 8.864,-1.706 6.934,-3.635c-0.738,-0.738 -1.883,-0.585 -2.545,0.338c-1.62,2.262 -5.529,2.94 -5.529,0.96c0,-0.873 0.974,-1.952 2.163,-2.398c1.278,-0.479 0.392,-1.556 -2.163,-2.63c-6.01,-2.526 -2.375,-2.494 4.636,0.044c3.16,1.143 5.745,2.7 5.745,3.461c0,0.76 1.947,1.382 4.326,1.382c2.378,0 4.325,-0.873 4.325,-1.942c-0,-1.357 0.651,-1.402 2.163,-0.147c1.189,0.987 2.746,1.861 3.46,1.942c0.714,0.08 1.492,0.206 1.73,0.28c3.897,1.193 6.42,0.811 7.145,-1.08c0.61,-1.588 -0.003,-1.991 -1.911,-1.259c-2.061,0.791 -2.526,0.345 -1.749,-1.681c1.585,-4.131 -5.782,-11.256 -10.933,-10.575l-4.23,0.559l4.238,-2.377c2.331,-1.307 5.378,-1.94 6.772,-1.405c1.709,0.657 2.098,0.269 1.196,-1.192c-0.827,-1.337 -3.085,-1.76 -5.907,-1.106c-3.412,0.79 -3.912,0.615 -1.974,-0.69c2.114,-1.423 1.553,-2.144 -3.028,-3.892c-7.865,-3 -7.069,-4.955 0.866,-2.123c7.639,2.726 13.156,3.128 11.752,0.856c-0.548,-0.886 -0.185,-2.111 0.806,-2.724c0.991,-0.612 1.69,-0.471 1.553,0.313c-0.136,0.785 -0.155,2.789 -0.044,4.454c0.231,3.415 4.773,4.217 4.901,0.865c0.044,-1.189 0.437,-3.33 0.87,-4.757c0.433,-1.428 0.45,-1.98 0.035,-1.227c-0.412,0.753 -2.62,-0.649 -4.906,-3.116c-2.287,-2.468 -4.158,-4.022 -4.158,-3.453c0,0.567 -2.029,-0.997 -4.509,-3.476c-2.48,-2.48 -4.162,-4.856 -3.738,-5.28c0.425,-0.424 2.185,0.791 3.912,2.7c1.728,1.909 4.494,3.471 6.148,3.471c1.654,-0 3.455,1.168 4.003,2.595c0.548,1.427 2.059,2.595 3.357,2.595c1.299,0 2.361,-1.168 2.361,-2.595c0,-1.427 -0.559,-2.595 -1.243,-2.595c-0.683,-0 -2.582,-2.045 -4.219,-4.543c-2.146,-3.276 -2.42,-4.887 -0.982,-5.776c1.418,-0.876 1.182,-1.907 -0.814,-3.564c-2.297,-1.906 -3.063,-1.92 -4.201,-0.079c-1.844,2.983 -6.571,0.341 -9.326,-5.211c-1.695,-3.415 -3.606,-4.283 -10.391,-4.718c-8.551,-0.549 -29.002,-10.992 -23.572,-12.038c1.442,-0.277 3.592,-2.699 4.779,-5.38c4.535,-10.245 14.891,-10.404 23.344,-0.358c2.91,3.458 4.926,4.654 5.709,3.387c0.831,-1.345 1.705,-1.075 2.787,0.858c1.7,3.038 10.056,3.941 10.056,1.087c-0,-3.003 6.776,-1.874 10.381,1.731c1.903,1.903 4.065,3.46 4.805,3.46c1.801,-0 5.854,-4.975 9.02,-11.071c5.759,-11.086 16.912,-13.114 30.467,-5.538c9.829,5.494 10.952,5.562 9.999,0.605c-0.695,-3.62 -0.633,-3.65 0.883,-0.432c0.897,1.903 2.089,4.897 2.649,6.652c0.56,1.756 2.571,3.598 4.47,4.095c1.898,0.496 3.451,1.739 3.451,2.761c0,2.953 5.074,-4.554 5.136,-7.597c0.026,-1.507 1.109,-2.739 2.398,-2.739c1.947,-0 1.962,0.734 0.088,4.345c-2.338,4.508 -1.68,7.998 1.177,6.233c0.901,-0.558 1.21,-1.706 0.686,-2.553c-0.523,-0.847 -0.203,-2.935 0.713,-4.639c0.916,-1.704 3.387,-6.877 5.491,-11.497c4.24,-9.307 3.222,-11.42 -5.529,-11.471c-5.262,-0.026 -7.653,2.331 -9.398,9.284c-1.019,4.061 -1.529,4.46 -2.799,2.191c-1.638,-2.927 1.991,-11.929 5.744,-14.249c3.172,-1.96 13.83,-2.494 12.681,-0.635c-0.561,0.909 0.192,1.652 1.676,1.652c4.38,0 3.078,-4.72 -1.628,-5.901c-4.277,-1.073 -6.11,-4.48 -2.41,-4.48c1.054,0 1.487,-1.117 0.963,-2.483c-0.525,-1.366 -0.163,-2.747 0.804,-3.069c3.474,-1.158 -5.409,-9.548 -13.3,-12.561c-5.685,-2.171 -7.37,-3.503 -5.722,-4.521c1.86,-1.15 1.898,-1.881 0.188,-3.592c-3.118,-3.117 -2.645,-6.76 1.441,-11.109c3.01,-3.204 3.248,-4.368 1.474,-7.208c-3.078,-4.93 -8.404,-7.866 -10.822,-5.968c-7.312,5.738 -22.709,3.15 -29.537,-4.964c-15.633,-18.578 -4.018,-42.956 22.576,-47.382c12.403,-2.065 20.795,1.731 33.481,15.145c6.185,6.54 14.131,13.377 17.657,15.195c7.745,3.992 24.277,24.235 29.999,36.734c2.437,5.322 4.637,14.278 5.324,21.672l1.171,12.602l5.39,-0.464c2.964,-0.256 6.316,0.108 7.45,0.809c1.245,0.769 3.214,-0.483 4.968,-3.16c1.598,-2.439 2.597,-4.605 2.219,-4.813c-0.377,-0.208 -3.644,-3.104 -7.261,-6.434c-4.438,-4.088 -6.164,-4.979 -5.309,-2.744c0.886,2.321 0.656,2.935 -0.772,2.053c-3.762,-2.325 -6.948,-10.695 -8.165,-21.446c-1.419,-12.543 0.607,-16.812 11.354,-23.924c5.808,-3.843 8.679,-4.514 18.925,-4.417c14.344,0.135 18.591,2.058 21.869,9.904c5.003,11.972 1.571,21.942 -9.742,28.3c-6.879,3.866 -14.108,4.465 -24.574,2.034c-3.569,-0.828 -6.488,-0.874 -6.488,-0.102c-0,0.773 3.253,4.107 7.229,7.41l7.23,6.005l-3.276,8.412c-1.802,4.627 -3.006,9.19 -2.676,10.142c2.173,6.271 1.11,16.436 -1.718,16.436c-0.82,0 -1.04,-1.174 -0.49,-2.608c0.551,-1.435 -0.202,-4.445 -1.673,-6.69c-2.782,-4.247 -9.817,-7.253 -9.817,-4.196c-0,0.965 -1.111,1.327 -2.469,0.806c-1.358,-0.521 -3.499,0.369 -4.758,1.978c-2.057,2.628 -1.982,2.684 0.739,0.55c1.982,-1.554 3.028,-1.704 3.028,-0.432c-0,1.068 -0.779,2.039 -1.73,2.158c-0.952,0.119 -2.537,0.313 -3.524,0.432c-2.585,0.312 -5.099,4.846 -4.916,8.867c0.126,2.779 0.528,2.523 2.037,-1.298c1.034,-2.616 2.509,-4.757 3.276,-4.757c1.973,-0 1.738,3.045 -0.333,4.325c-3.018,1.865 -1.876,10.458 2.478,18.646c6.107,11.486 8.16,19.996 5.889,24.422c-1.517,2.957 -1.449,3.247 0.362,1.538c2.921,-2.757 7.043,-14.818 5.469,-16.003c-0.672,-0.507 -1.36,-2.478 -1.527,-4.381c-0.301,-3.411 -0.27,-3.413 2.162,-0.102c1.357,1.847 2.468,4.034 2.468,4.86c-0,0.825 0.778,1.02 1.73,0.432c0.951,-0.588 1.73,0.351 1.73,2.086c-0,1.736 1.504,5.961 3.342,9.391c1.98,3.695 2.707,6.869 1.784,7.792c-0.857,0.857 -2.015,4.437 -2.575,7.957l-1.017,6.4l5.288,-1.844c2.909,-1.014 5.289,-2.518 5.289,-3.343c-0,-0.825 1.582,-2.347 3.516,-3.382c3.224,-1.725 3.418,-1.494 2.343,2.793c-0.938,3.735 -0.689,4.371 1.241,3.167c3.439,-2.146 6.741,-2.433 6.741,-0.587c-0,0.867 0.954,1.383 2.121,1.145c1.167,-0.239 2.395,1.364 2.729,3.561c0.497,3.269 1.062,3.617 3.111,1.916c1.377,-1.143 3.003,-1.577 3.615,-0.966c0.611,0.611 0.157,1.112 -1.009,1.112c-1.167,-0 -1.632,0.791 -1.034,1.758c0.598,0.967 1.944,1.229 2.991,0.581c1.218,-0.753 1.514,-0.159 0.821,1.647c-0.596,1.553 -0.275,3.322 0.712,3.932c0.987,0.611 1.373,3.166 0.858,5.679c-0.515,2.513 -0.513,3.596 0.004,2.406c0.517,-1.189 2.795,-2.162 5.061,-2.162c2.501,-0 4.938,-1.529 6.201,-3.889c1.37,-2.559 2.338,-3.116 2.834,-1.63c0.413,1.242 -0.663,3.965 -2.393,6.051c-1.731,2.086 1.693,-0.854 7.608,-6.534c5.914,-5.679 10.754,-10.573 10.754,-10.874c-0,-0.301 -1.745,0.386 -3.878,1.528c-2.772,1.483 -2.236,0.434 1.881,-3.683c3.167,-3.168 6.45,-7.578 7.295,-9.8c0.912,-2.399 2.96,-4.042 5.039,-4.042c3.65,0 4.418,1.561 2.206,4.481c-0.714,0.942 0.843,-0.625 3.46,-3.482c2.617,-2.856 4.727,-6.391 4.689,-7.854c-0.036,-1.463 -1.364,-0.325 -2.947,2.53c-2.232,4.024 -3.02,4.522 -3.508,2.215c-0.346,-1.636 0.98,-4.702 2.947,-6.814c3.72,-3.992 4.747,-9.397 1.977,-10.396c-0.881,-0.317 -1.854,-1.744 -2.163,-3.172c-0.309,-1.427 -1.673,-3.043 -3.031,-3.59c-2.012,-0.811 -1.935,-1.2 0.415,-2.101c2.09,-0.803 3.178,0.07 3.953,3.157c0.589,2.346 1.848,4.265 2.798,4.265c0.951,-0 1.28,-1.168 0.732,-2.596c-0.607,-1.581 -0.003,-2.595 1.545,-2.595c1.398,0 2.541,1.557 2.541,3.46c0,1.904 0.789,3.461 1.755,3.461c2.482,-0 19.831,-18.801 26.146,-28.336c2.914,-4.398 5.996,-7.997 6.85,-7.997c2.081,-0 -12.842,19.533 -22.975,30.074c-4.467,4.646 -8.52,9.487 -9.008,10.758c-1.492,3.886 2.42,4.678 6.394,1.293c3.216,-2.738 3.419,-2.764 1.417,-0.179c-1.285,1.66 -1.912,4.641 -1.394,6.625c0.699,2.671 0.286,3.354 -1.591,2.633c-1.475,-0.566 -2.979,0.281 -3.597,2.026c-0.585,1.65 -2.204,4.33 -3.6,5.957c-1.646,1.919 -2.133,4.57 -1.385,7.547c1.119,4.461 1.248,4.502 4.591,1.477c1.943,-1.759 2.997,-4.267 2.422,-5.765c-0.56,-1.458 -0.455,-2.089 0.231,-1.403c0.687,0.687 2.708,-0.071 4.492,-1.686c3.044,-2.754 3.173,-2.755 2.117,-0.003c-0.618,1.612 -1.676,2.93 -2.351,2.93c-0.674,0 -2.938,3.047 -5.031,6.771c-3.475,6.183 -3.567,7.009 -1.06,9.516c2.415,2.415 2.102,3.35 -1.028,3.072c-0.512,-0.044 -1.084,1.78 -1.273,4.057c-0.251,3.025 0.349,3.873 2.228,3.153c1.617,-0.621 2.571,0.044 2.571,1.793c-0,1.53 0.824,2.781 1.832,2.781c1.008,-0 1.421,-0.665 0.919,-1.477c-0.502,-0.813 1.046,-2.37 3.44,-3.461c5.358,-2.441 9.585,-2.622 5.92,-0.253c-1.428,0.922 -1.718,1.689 -0.644,1.704c1.073,0.017 2.899,-1.117 4.058,-2.514c1.16,-1.397 2.757,-2.37 3.55,-2.162c0.793,0.207 2.556,-1.117 3.917,-2.942c2.427,-3.255 2.574,-3.247 7.742,0.432c2.897,2.064 6.131,3.752 7.187,3.752c1.055,-0 3.315,0.871 5.022,1.937c2.384,1.489 6.461,1.089 17.607,-1.73c16.49,-4.17 17.925,-4.339 16.441,-1.937c-0.588,0.951 -3.045,1.73 -5.459,1.73c-8.017,-0 -23.088,5.268 -23.088,8.07c-0,1.449 -1.464,3.017 -3.253,3.485c-1.788,0.468 -4.014,3.314 -4.947,6.326c-1.45,4.687 -1.89,5.014 -3.055,2.273c-0.758,-1.784 -0.618,-3.7 0.316,-4.325c2.414,-1.618 4.057,-6.794 3.017,-9.504c-0.622,-1.621 -3.616,-2.187 -9.894,-1.869c-12.222,0.619 -11.909,0.559 -10.948,2.114c0.47,0.759 0.126,2.511 -0.762,3.893c-1.407,2.187 -1.837,2.176 -3.32,-0.08c-1.459,-2.222 -1.707,-2.159 -1.73,0.433c-0.018,1.665 -0.851,3.027 -1.859,3.027c-1.008,0 -1.454,-0.612 -0.992,-1.359c0.462,-0.748 -0.598,-1.359 -2.355,-1.359c-2.652,-0 -2.889,0.599 -1.392,3.522c1.483,2.894 1.397,3.136 -0.483,1.359c-3.098,-2.928 -5.057,-2.721 -5.057,0.535c0,1.484 0.698,2.266 1.549,1.74c0.852,-0.526 2.023,0.278 2.603,1.788c0.695,1.812 -0.093,3.045 -2.317,3.627c-1.854,0.484 -3.704,2.164 -4.113,3.733c-0.408,1.568 -0.441,-0.264 -0.071,-4.07c0.487,-5.023 0.196,-6.209 -1.058,-4.325c-0.95,1.427 -1.74,1.856 -1.755,0.952c-0.044,-2.535 -4.091,2.115 -4.547,5.22c-0.236,1.611 0.51,2.396 1.804,1.9c1.593,-0.611 2.025,0.794 1.556,5.056c-0.595,5.394 -0.256,5.904 3.927,5.904c3.827,-0 4.232,0.416 2.473,2.537c-1.159,1.395 -1.792,3.479 -1.408,4.631c0.385,1.152 2.539,-0.883 4.789,-4.523c3.961,-6.409 4.136,-6.493 5.558,-2.651c0.807,2.183 1.061,4.374 0.565,4.87c-0.496,0.496 -0.934,-0.2 -0.972,-1.548c-0.035,-1.349 -1.24,-0.292 -2.672,2.347c-1.431,2.64 -2.058,5.68 -1.393,6.756c0.708,1.145 0.438,1.48 -0.65,0.808c-1.023,-0.632 -3.601,0.999 -5.729,3.625c-2.128,2.626 -3.398,3.453 -2.822,1.837c0.89,-2.499 0.108,-2.817 -5.252,-2.131c-3.464,0.444 -7.826,2.155 -9.694,3.803c-3.354,2.957 -3.358,2.935 -0.335,-1.762c2.747,-4.27 2.775,-4.758 0.267,-4.758c-1.536,-0 -2.794,1.168 -2.794,2.595c0,1.427 -1.168,2.595 -2.595,2.595c-1.427,0 -2.595,0.696 -2.595,1.545c-0,0.85 1.168,1.993 2.595,2.541c1.427,0.548 2.595,1.759 2.595,2.691c0,0.933 1.994,3.847 4.43,6.475c3.421,3.691 4.756,4.252 5.862,2.463c0.788,-1.274 2.298,-1.782 3.356,-1.128c1.058,0.653 1.951,0.17 1.985,-1.076c0.035,-1.246 1.047,-0.489 2.252,1.682c1.205,2.171 2.777,3.361 3.493,2.645c0.716,-0.715 1.919,-0.304 2.672,0.915c0.869,1.406 1.425,0.28 1.52,-3.078c0.161,-5.647 -1.114,-6.566 -4.462,-3.218c-1.615,1.615 -2.076,1.07 -2.076,-2.451c-0,-4.842 2.388,-6.485 7.499,-5.159c2.182,0.566 2.53,1.221 1.115,2.096c-1.529,0.945 -1.295,2.438 0.908,5.801c2.657,4.054 7.57,4.958 5.084,0.935c-1.828,-2.957 1.117,-12.261 3.581,-11.315c1.258,0.483 2.786,-0.421 3.395,-2.008c0.61,-1.587 0.279,-3.161 -0.733,-3.498c-1.011,-0.338 -1.405,-1.317 -0.874,-2.176c0.532,-0.859 -0.243,-1.099 -1.719,-0.533c-2.004,0.769 -2.685,-0.114 -2.685,-3.48c-0,-2.48 0.778,-4.51 1.73,-4.51c0.951,-0 1.73,1.077 1.73,2.393c-0,1.317 1.557,2.801 3.46,3.299c2.567,0.671 3.461,0.053 3.461,-2.394c-0,-1.814 0.824,-3.298 1.832,-3.298c1.007,-0 1.327,-0.817 0.711,-1.814c-0.764,-1.237 -1.912,-1.158 -3.604,0.246c-3.58,2.971 -4.547,1.039 -1.969,-3.932c1.223,-2.357 3.21,-3.956 4.415,-3.554c1.205,0.402 3.242,-0.142 4.526,-1.208c1.778,-1.475 2.59,-1.274 3.402,0.844c1.536,4.003 1.398,4.225 -1.96,3.145c-2.556,-0.822 -2.623,-0.683 -0.432,0.893c3.476,2.5 5.19,2.392 5.19,-0.33c-0,-3.579 3.461,-6.077 7.103,-5.125c2.805,0.734 2.993,1.319 1.152,3.593c-1.711,2.112 -1.719,2.427 -0.036,1.416c1.386,-0.832 2.163,-0.26 2.163,1.595c-0,2.909 2.011,2.937 13.373,0.187c4.317,-1.046 4.644,1.927 0.564,5.125c-2.161,1.695 -2.098,2.572 0.472,6.495c3.343,5.101 5.98,5.787 7.457,1.94c0.547,-1.428 2.165,-2.596 3.593,-2.596c1.907,0 2.309,-1.15 1.512,-4.325c-0.903,-3.598 -0.466,-4.325 2.593,-4.325c2.752,-0 3.413,0.762 2.624,3.028c-0.936,2.686 -0.774,2.667 1.43,-0.174c1.366,-1.761 3.361,-2.659 4.433,-1.997c1.322,0.817 0.942,1.941 -1.18,3.492c-4.185,3.06 -1.831,5.114 2.937,2.563c2.511,-1.344 3.482,-3.124 2.905,-5.329c-0.476,-1.821 -0.229,-3.703 0.549,-4.184c1.663,-1.028 1.357,-4.226 -0.722,-7.558c-1.021,-1.635 0.205,-3.95 3.941,-7.441c5.982,-5.591 6.844,-10.144 2.704,-14.284c-3.673,-3.673 -8.821,-3.426 -12.259,0.59c-1.558,1.819 -3.849,2.918 -5.091,2.441c-1.571,-0.602 -0.834,-2.139 2.417,-5.042c4.566,-4.078 4.597,-4.236 1.317,-6.767c-4.007,-3.092 -1.897,-3.308 6.128,-0.625c7.121,2.379 14.778,9.173 16.05,14.24c0.559,2.225 3.911,5.098 8.358,7.163c14.848,6.895 19.666,28.262 10.38,46.037c-8.895,17.027 -24.888,23.885 -47.514,20.375c-15.795,-2.451 -25.873,-1.034 -33.384,4.695c-6.869,5.239 -7.559,7.602 -2.219,7.602c5.429,-0 2.79,1.811 -3.867,2.654c-3.123,0.395 -6.234,1.616 -6.913,2.714c-0.678,1.097 -2.098,1.461 -3.156,0.807c-4.04,-2.497 -1.698,2.362 2.834,5.881c4.145,3.219 4.27,3.561 0.97,2.657c-2.731,-0.749 -4.32,-0.045 -5.699,2.534c-1.727,3.228 -1.14,3.903 6.094,7.004c4.403,1.887 9.836,3.431 12.074,3.431c4.521,0 13.838,3.145 12.697,4.285c-0.4,0.401 -3.817,0.054 -7.593,-0.776c-27.246,-5.971 -36.305,-6.118 -34.17,-0.555c0.785,2.045 0.177,2.371 -2.71,1.455c-3.013,-0.956 -3.722,-0.48 -3.722,2.498c-0,2.368 -0.721,3.233 -2.024,2.428c-1.38,-0.854 -1.656,-0.29 -0.866,1.769c0.638,1.661 1.171,3.541 1.186,4.177c0.017,0.636 0.718,0.062 1.565,-1.274c1.244,-1.966 2.314,-1.593 5.599,1.952c3.443,3.715 4.405,4.015 6.316,1.969c4.647,-4.976 10.33,5.99 7.272,14.033c-1.766,4.646 -1.885,4.68 -6.27,1.807l-4.47,-2.929l1.174,5.342c0.746,3.395 0.492,5.343 -0.695,5.343c-1.027,-0 -1.867,-0.797 -1.867,-1.77c-0,-0.974 -1.9,-0.526 -4.221,0.995c-2.649,1.736 -3.889,3.845 -3.33,5.663c0.769,2.499 0.624,2.48 -1.062,-0.142c-1.862,-2.898 -2.14,-2.898 -6.008,0c-2.23,1.672 -3.618,3.755 -3.084,4.631c0.534,0.875 -0.325,1.094 -1.908,0.486c-1.88,-0.721 -2.879,-0.223 -2.879,1.436c-0,1.398 -0.862,2.541 -1.915,2.541c-1.054,0 -1.529,-1.008 -1.056,-2.241c0.512,-1.332 -0.533,-2.346 -2.573,-2.5c-2.834,-0.214 -3.245,0.496 -2.35,4.06c0.748,2.983 0.397,4.228 -1.134,4.025c-4.57,-0.605 -6.71,0.176 -5.564,2.031c0.825,1.335 1.634,1.204 2.671,-0.432c1.09,-1.72 1.494,-1.322 1.514,1.491c0.017,2.939 -0.683,3.573 -3.002,2.704c-2.644,-0.991 -2.729,-0.767 -0.668,1.765c1.297,1.595 2.978,2.517 3.736,2.049c1.907,-1.179 6.881,0.904 6.881,2.881c-0,0.891 -1.363,1.392 -3.028,1.112c-1.764,-0.296 -3.028,0.575 -3.028,2.087c0,1.427 1.168,2.595 2.595,2.595c2.951,0 8.409,4.604 7.506,6.332c-1.051,2.012 1.444,6.644 3.579,6.644c1.211,0 2.064,2.536 2.064,6.13c0,5.192 -0.543,6.053 -3.546,5.623c-2.372,-0.339 -3.365,-1.569 -2.998,-3.712c0.302,-1.762 -0.727,-4.487 -2.287,-6.055c-1.559,-1.568 -4.487,-5.576 -6.507,-8.906c-2.748,-4.534 -3.832,-5.318 -4.31,-3.119c-0.352,1.615 0.251,4.602 1.34,6.636c2.027,3.788 0.751,7.403 -1.423,4.031c-0.661,-1.028 -2.569,-1.657 -4.239,-1.4c-1.67,0.258 -2.598,-0.241 -2.062,-1.107c0.535,-0.866 -0.326,-3.328 -1.914,-5.471c-2.865,-3.866 -2.88,-3.851 -1.837,1.911l1.05,5.806l-3.303,-4.076c-2.54,-3.134 -2.858,-4.677 -1.375,-6.672c1.59,-2.139 1.508,-2.22 -0.469,-0.459c-3.379,3.008 -3.473,9.232 -0.216,14.217c2.599,3.977 2.578,4.168 -0.33,3.052c-2.773,-1.064 -3.024,-0.307 -2.373,7.134c0.402,4.579 2.34,11.964 4.307,16.412c5.175,11.7 3.016,9.931 -3.328,-2.726c-6.586,-13.137 -6.122,-12.615 -9.057,-10.179c-1.962,1.628 -2.249,1.2 -1.57,-2.349c0.619,-3.237 0.093,-4.34 -2.07,-4.34c-1.667,-0 -2.399,-0.809 -1.723,-1.903c0.769,-1.244 -0.182,-1.176 -2.746,0.197c-3.534,1.891 -3.832,1.755 -3.016,-1.367c1.04,-3.975 -1.281,-8.734 -3.283,-6.731c-0.738,0.738 -0.197,2.066 1.203,2.951c2.48,1.568 1.82,2.012 -3.51,2.359c-1.598,0.104 -2.928,2.495 -3.46,6.224c-0.589,4.116 -2.112,6.603 -4.758,7.763c-2.141,0.94 -3.893,3.081 -3.893,4.758c-0,2.033 -1.333,3.05 -3.995,3.05c-8.773,0 -10.518,3.458 -13.678,27.107l-2.966,22.202l0.776,-22.225c0.832,-23.846 -0.321,-29.094 -6.067,-27.591c-2.43,0.635 -3.483,0.062 -3.483,-1.886c0,-1.539 -1.362,-2.809 -3.027,-2.824c-2.253,-0.017 -2.453,-0.391 -0.783,-1.45c1.792,-1.137 1.705,-1.871 -0.433,-3.646c-1.813,-1.504 -2.677,-1.595 -2.677,-0.28c0,1.068 -1.168,1.942 -2.595,1.942c-1.427,0 -2.595,0.779 -2.595,1.731c-0,0.951 1.047,1.73 2.327,1.73c4.145,-0 8.471,6.339 7.155,10.485c-0.846,2.665 -1.609,3.168 -2.535,1.669c-0.944,-1.528 -1.665,-1.592 -2.511,-0.224c-0.784,1.269 -2.214,1.37 -4.217,0.298c-2.758,-1.477 -2.931,-0.849 -1.924,6.999c0.608,4.741 0.572,8.95 -0.08,9.353c-0.652,0.403 -2.131,6.594 -3.286,13.758c-1.156,7.164 -2.759,13.026 -3.562,13.026c-2.309,-0 -3.012,-3.876 -1.733,-9.565c0.954,-4.245 0.425,-5.806 -2.787,-8.229c-3.761,-2.837 -4.063,-2.834 -5.892,0.044c-1.659,2.615 -1.812,2.436 -1.097,-1.286c0.457,-2.379 1.405,-6.199 2.108,-8.489c1.834,-5.978 -1.513,-3.416 -8.16,6.245c-5.081,7.385 -5.26,8.118 -2.475,10.155c2.81,2.054 2.772,2.318 -0.581,4.112c-1.97,1.055 -4.024,3.675 -4.563,5.824c-0.539,2.148 -2.607,4.656 -4.595,5.573c-3.631,1.674 -6.672,8.056 -15.131,31.759c-4.029,11.286 -5.117,12.85 -9.251,13.29c-2.577,0.275 -4.686,0.052 -4.686,-0.504Zm82.986,-296.238c3.692,-6.898 2.052,-8.364 -5.952,-5.321c-3.849,1.464 -4.235,2.221 -2.646,5.191c2.356,4.402 6.28,4.462 8.598,0.13Zm85.27,-11.64c-1.19,-0.481 -2.163,-2.059 -2.163,-3.509c0,-1.693 -0.979,-2.261 -2.737,-1.586c-1.505,0.577 -3.062,1.05 -3.46,1.05c-0.398,0 -0.724,1.168 -0.724,2.595c0,1.803 1.718,2.554 5.623,2.459c3.093,-0.071 4.65,-0.53 3.461,-1.009Zm-279.849,13.256c0.588,-0.952 0.245,-1.73 -0.763,-1.73c-1.007,-0 -1.832,0.779 -1.832,1.73c0,0.952 0.344,1.73 0.763,1.73c0.42,0 1.244,-0.778 1.832,-1.73Zm338.241,-13.841c-0,-0.952 -0.344,-1.73 -0.763,-1.73c-0.42,-0 -1.244,0.778 -1.832,1.73c-0.588,0.951 -0.245,1.73 0.763,1.73c1.007,0 1.832,-0.779 1.832,-1.73Zm-346.026,1.832c-0,-0.895 -0.649,-2.029 -1.442,-2.519c-0.793,-0.49 -1.442,0.243 -1.442,1.628c0,1.386 0.649,2.52 1.442,2.52c0.793,-0 1.442,-0.733 1.442,-1.629Zm362.532,12.433c-0.946,-2.465 -1.362,-2.533 -2.659,-0.433c-0.956,1.546 -0.781,3.401 0.462,4.899c2.426,2.923 3.891,-0.054 2.197,-4.466Zm-358.733,-13.832c-0.502,-2.617 -1.246,-3.759 -1.654,-2.539c-0.736,2.202 0.581,7.296 1.886,7.296c0.374,0 0.269,-2.141 -0.232,-4.757Zm284.715,-12.976c-2.564,-2.266 -2.786,-3.028 -0.881,-3.028c1.4,-0 5.28,-2.58 8.623,-5.733c5.439,-5.129 5.828,-6.073 3.702,-8.981c-1.307,-1.787 -2.376,-4.562 -2.376,-6.167c0,-1.604 -1.313,-3.986 -2.919,-5.292c-2.565,-2.086 -2.777,-1.996 -1.75,0.743c0.703,1.873 0.486,2.696 -0.541,2.061c-0.941,-0.581 -1.71,-0.233 -1.71,0.775c-0,1.008 0.962,1.832 2.138,1.832c1.176,0 -0.374,1.752 -3.443,3.893c-6.958,4.853 -8.682,9.455 -4.646,12.406c2.112,1.544 2.417,2.574 1.018,3.439c-1.408,0.869 -1.478,2.204 -0.239,4.519c0.967,1.807 1.656,3.901 1.53,4.653c-0.817,4.902 0.508,6.051 2.576,2.233c2.084,-3.847 1.964,-4.661 -1.082,-7.353Zm-277.244,5.935c-2.082,-2.081 -5.809,-1.62 -4.952,0.614c0.489,1.274 2.026,1.879 3.415,1.346c1.39,-0.533 2.081,-1.415 1.537,-1.96Zm16.268,0.967c-0.397,-0.248 -2.583,-2 -4.859,-3.893l-4.138,-3.442l2.391,3.893c1.316,2.141 3.502,3.893 4.859,3.893c1.357,-0 2.143,-0.203 1.747,-0.451Zm204.273,-6.038c-0.045,-2.368 -3.229,-6.404 -4.246,-5.388c-1.363,1.363 0.808,6.686 2.727,6.686c0.85,-0 1.533,-0.584 1.519,-1.298Zm20.788,-0.378c-0,-0.922 -1.168,-1.228 -2.596,-0.681c-1.427,0.548 -2.595,1.302 -2.595,1.676c0,0.374 1.168,0.681 2.595,0.681c1.428,-0 2.596,-0.754 2.596,-1.676Zm1.73,-5.143c-0,-0.895 -0.816,-2.133 -1.814,-2.749c-1.252,-0.774 -1.217,-1.841 0.111,-3.442c1.485,-1.789 1.009,-2.809 -2.078,-4.454c-3.66,-1.951 -3.798,-1.883 -1.598,0.783c2.104,2.55 2.046,2.78 -0.451,1.821c-2.238,-0.859 -2.592,-0.397 -1.63,2.123c2.24,5.866 7.46,10.006 7.46,5.918Zm-213.166,-14.281c-4.562,-5.916 -8.291,-8.117 -8.291,-4.895c0,1.087 0.69,1.55 1.534,1.029c0.844,-0.522 2.496,0.21 3.672,1.628c1.176,1.417 1.459,2.601 0.629,2.631c-1.461,0.053 4.44,5.135 5.964,5.135c0.415,0 -1.163,-2.487 -3.508,-5.528Zm-24.727,17.639c-0.588,-0.951 -2.775,-1.675 -4.86,-1.608c-3.655,0.117 -3.667,0.174 -0.331,1.608c4.763,2.047 6.456,2.047 5.191,0Zm5.19,-3.46c0.588,-0.951 -0.579,-1.73 -2.595,-1.73c-2.015,-0 -3.183,0.779 -2.595,1.73c0.588,0.952 1.756,1.73 2.595,1.73c0.839,0 2.007,-0.778 2.595,-1.73Zm245.495,-12.832c-0.858,-2.235 -1.511,-2.465 -2.492,-0.879c-1.751,2.833 0.044,7.516 2.097,5.466c0.857,-0.857 1.034,-2.921 0.395,-4.587Zm-212.927,1.756c0.552,-1.437 -0.417,-2.777 -2.38,-3.29c-2.794,-0.731 -3.036,-0.352 -1.55,2.425c2.104,3.93 2.703,4.062 3.93,0.865Zm207.383,2.063c-3.07,-3.07 -5.777,0.105 -3.584,4.204c1.806,3.374 2.065,3.416 3.645,0.594c1.124,-2.01 1.106,-3.635 -0.061,-4.798Zm-225.245,19.763c0,-0.75 -1.742,-1.494 -3.871,-1.654c-3.042,-0.229 -3.32,0.053 -1.297,1.335c3.163,2.001 5.168,2.124 5.168,0.319Zm224.048,-23.969c1.561,-1.561 4.072,-4.721 5.58,-7.024c2.08,-3.173 3.091,-3.637 4.18,-1.92c2.114,3.334 1.753,6.173 -0.398,3.131c-1.216,-1.718 -1.631,-1.821 -1.228,-0.303c1.203,4.54 3.999,2.014 4.87,-4.397c0.565,-4.164 1.714,-6.373 3.156,-6.07c1.247,0.261 1.816,-0.256 1.263,-1.15c-0.553,-0.894 -0.026,-2.02 1.169,-2.501c1.196,-0.482 1.384,-0.938 0.419,-1.013c-2.209,-0.172 -25.063,20.338 -25.063,22.493c0,2.48 2.928,1.878 6.052,-1.246Zm26.821,-4.082c1.019,-1.904 1.463,-3.461 0.987,-3.461c-0.476,0 -1.698,1.557 -2.717,3.461c-1.018,1.903 -1.462,3.46 -0.987,3.46c0.476,-0 1.699,-1.557 2.717,-3.46Zm-50.2,22.059c0.018,-0.713 -0.752,-1.297 -1.704,-1.297c-0.951,-0 -1.718,1.752 -1.703,3.893c0.018,3.147 0.347,3.396 1.703,1.297c0.923,-1.427 1.689,-3.179 1.704,-3.893Zm-60.536,-60.978c1.18,-1.422 1.738,-4.148 1.239,-6.058c-0.613,-2.346 -0.259,-3.066 1.093,-2.22c6.827,4.268 7.819,1.11 2.836,-9.033c-1.87,-3.806 -2.985,-5.234 -2.479,-3.173c1.525,6.212 -1.79,5.963 -5.212,-0.392c-1.762,-3.273 -3.906,-5.95 -4.764,-5.95c-0.858,-0 -1.004,-0.899 -0.325,-1.997c0.766,-1.24 0.475,-1.528 -0.768,-0.76c-1.403,0.867 -1.482,2.21 -0.263,4.487c1.06,1.981 1.11,3.64 0.128,4.246c-0.886,0.548 -1.861,-0.707 -2.167,-2.787c-0.306,-2.081 -1.648,-4.143 -2.981,-4.583c-1.726,-0.568 -2.157,0.229 -1.494,2.763c0.701,2.68 0.279,3.312 -1.704,2.551c-1.749,-0.671 -2.365,-0.191 -1.831,1.427c0.442,1.341 2.506,2.689 4.587,2.995c2.081,0.306 3.328,1.292 2.773,2.191c-0.556,0.899 -1.702,1.207 -2.546,0.685c-3.179,-1.964 0.009,10.149 3.708,14.085c4.464,4.752 7.156,5.155 10.17,1.523Zm-160.894,-25.045c-0,-8.763 -9.013,-11.793 -15.571,-5.234c-4.992,4.991 -4.278,9.523 2.14,13.587l5.601,3.546l3.915,-3.678c2.153,-2.023 3.915,-5.722 3.915,-8.221Zm58.878,-2.648c7.914,-1.337 8.484,-4.858 0.93,-5.746c-5.152,-0.606 -13.095,5.242 -13.095,9.64c0,2.005 0.437,1.98 2.561,-0.143c1.409,-1.409 5.731,-3.097 9.604,-3.751Zm131.436,55.222c0,-3.056 -3.724,-2.524 -4.794,0.684c-0.376,1.13 0.548,2.055 2.055,2.055c1.506,-0 2.739,-1.233 2.739,-2.739Zm-85.975,-14.194c3.15,-3.481 2.239,-9.98 -1.606,-11.455c-3.154,-1.21 -9.306,4.88 -9.306,9.212c-0,5.585 6.651,6.952 10.912,2.243Zm172.842,10.185c-0.729,-1.901 -1.351,-1.365 -2.23,1.921c-0.671,2.506 -1.759,5.59 -2.42,6.854c-0.661,1.264 0.343,0.4 2.23,-1.92c1.887,-2.321 2.976,-5.405 2.42,-6.855Zm-15.897,-4.54c3.343,-4.028 0.958,-4.787 -2.62,-0.833c-1.728,1.909 -2.337,3.471 -1.355,3.471c0.983,-0 2.772,-1.187 3.975,-2.638Zm14.027,-9.041c2.152,-2.744 2.091,-2.805 -0.653,-0.653c-1.665,1.306 -3.027,2.669 -3.027,3.028c-0,1.424 1.42,0.507 3.68,-2.375Zm-123.06,-2.946c0,-2.298 -4.237,-9.598 -5.57,-9.598c-0.855,0 -1.114,0.713 -0.577,1.583c0.538,0.87 0,1.911 -1.195,2.314c-1.703,0.573 -1.659,1.354 0.201,3.608c2.135,2.587 7.141,4.054 7.141,2.093Zm33.498,-8.732c-0.547,-1.428 -1.301,-2.596 -1.675,-2.596c-0.374,0 -0.681,1.168 -0.681,2.596c0,1.427 0.754,2.595 1.676,2.595c0.922,-0 1.228,-1.168 0.68,-2.595Zm96.262,-7.786c0,-0.952 -0.779,-1.73 -1.73,-1.73c-0.952,-0 -1.73,0.778 -1.73,1.73c-0,0.951 0.778,1.73 1.73,1.73c0.952,0 1.73,-0.779 1.73,-1.73Zm-58.824,142.634c-0,-1.483 -0.779,-2.216 -1.73,-1.628c-0.952,0.589 -1.731,1.802 -1.731,2.698c0,0.895 0.779,1.628 1.731,1.628c0.951,-0 1.73,-1.214 1.73,-2.698Zm-213.505,51.577c3.363,-3.092 5.44,-13.539 2.307,-11.603c-0.935,0.578 -1.587,1.966 -1.449,3.083c0.529,4.293 -0.238,6.341 -2.219,5.925c-1.133,-0.237 -2.358,0.93 -2.722,2.595c-0.364,1.666 -0.335,3.028 0.062,3.028c0.4,0 2.21,-1.362 4.021,-3.028Zm59.468,1.731c-0.099,-2.331 -4.586,-7.326 -5.637,-6.275c-1.209,1.209 2.47,7.572 4.378,7.572c0.723,0 1.289,-0.584 1.259,-1.297Zm-49.493,-9.949c0.547,-1.427 0.242,-2.595 -0.68,-2.595c-0.922,0 -1.676,1.168 -1.676,2.595c-0,1.428 0.305,2.596 0.68,2.596c0.374,-0 1.128,-1.168 1.676,-2.596Zm14.397,-1.189c-0.552,-1.38 -0.962,-0.97 -1.045,1.045c-0.071,1.824 0.334,2.846 0.909,2.271c0.574,-0.575 0.636,-2.067 0.136,-3.316Zm30.558,-2.346c-0.564,-1.468 -1.396,-2.299 -1.849,-1.845c-0.454,0.454 -0.311,1.655 0.316,2.67c1.706,2.76 2.703,2.224 1.533,-0.825Zm1.106,17.812c-0.044,-3.278 -3.084,-7.414 -4.451,-6.047c-0.664,0.663 -0.323,2.269 0.756,3.569c1.079,1.3 1.449,2.876 0.822,3.502c-0.626,0.626 -0.23,1.138 0.881,1.138c1.11,0 2.007,-0.973 1.992,-2.162Zm-5.531,1.926c-0.432,-1.296 -1.216,-0.511 -1.828,1.828c-0.753,2.878 -0.527,3.553 0.757,2.269c1.005,-1.005 1.487,-2.849 1.071,-4.097Zm218.364,-6.684c4.157,-4.157 4.392,-8.281 0.767,-13.456c-2.93,-4.183 -9.229,-5.073 -12.532,-1.769c-3.561,3.561 -2.518,12.989 1.769,15.992c4.949,3.466 5.831,3.398 9.996,-0.767Zm5.381,-21.266c-2.963,-2.963 -4.117,-0.201 -1.608,3.851c1.911,3.088 2.379,3.226 2.877,0.85c0.327,-1.561 -0.244,-3.676 -1.269,-4.701Zm-20.087,-8.149c-0.588,-0.952 -0.407,-1.731 0.403,-1.731c0.809,0 1.441,-2.335 1.403,-5.19c-0.079,-6.094 -1.765,-6.657 -4.519,-1.51c-1.537,2.871 -1.455,4.007 0.372,5.164c1.287,0.816 1.711,1.495 0.941,1.51c-1.476,0.027 0.115,3.487 1.604,3.487c0.476,-0 0.383,-0.779 -0.204,-1.73Zm-257.79,19.031c0.588,-0.952 -0.534,-1.73 -2.493,-1.73c-1.959,-0 -3.562,0.779 -3.562,1.73c-0,0.952 1.122,1.73 2.493,1.73c1.371,0 2.974,-0.778 3.562,-1.73Zm288.932,10.357c0,-3.708 -5.027,-3.173 -5.756,0.613c-0.446,2.312 0.259,3.017 2.571,2.572c1.752,-0.338 3.185,-1.771 3.185,-3.185Zm12.976,-29.468c-0,-2.762 -4.498,-4.88 -6.979,-3.285c-2.027,1.304 -2.089,1.921 -0.306,3.073c2.727,1.763 7.285,1.895 7.285,0.212Zm-10.381,-31.066c0,-0.952 -0.824,-1.73 -1.832,-1.73c-1.008,-0 -1.351,0.779 -0.763,1.73c0.589,0.952 1.413,1.73 1.833,1.73c0.419,0 0.762,-0.779 0.762,-1.73Zm65.745,-6.044c0,-0.266 -2.335,-0.827 -5.19,-1.246c-5.478,-0.804 -7.343,1.368 -2.163,2.519c2.809,0.623 7.353,-0.163 7.353,-1.273Zm-31.142,-39.047c-0,-4.133 -0.461,-4.163 -3.996,-0.256c-2.602,2.874 -2.559,3.115 0.597,3.353c2.297,0.172 3.399,-0.83 3.399,-3.097Zm-72.666,32.115c0,-1.427 -1.121,-2.595 -2.493,-2.595c-2.89,-0 -4.841,2.469 -3.227,4.084c2.068,2.068 5.72,1.117 5.72,-1.489Zm66.61,-16.436c0.589,-0.952 0.245,-1.73 -0.762,-1.73c-1.008,-0 -1.832,0.778 -1.832,1.73c-0,0.951 0.343,1.73 0.762,1.73c0.42,-0 1.244,-0.779 1.832,-1.73Zm-345.662,10.381c-0.498,-1.903 -0.153,-3.461 0.765,-3.461c0.919,0 1.19,-0.778 0.601,-1.73c-0.588,-0.951 -3.359,-1.73 -6.158,-1.73c-4.131,0 -5.083,0.733 -5.061,3.893c0.017,3.148 0.347,3.396 1.703,1.297c1.118,-1.73 1.686,-1.874 1.704,-0.432c0.018,1.19 1.194,2.163 2.622,2.163c1.427,-0 2.595,0.778 2.595,1.73c-0,0.951 0.48,1.73 1.067,1.73c0.586,0 0.66,-1.557 0.162,-3.46Zm286.84,-18.797c0.78,-2.031 0.299,-2.012 -2.899,0.111c-2.109,1.4 -4.156,3.511 -4.549,4.692c-1.028,3.084 6.214,-1.586 7.448,-4.803Zm-25.856,-9.658c2.071,-3.16 2.313,-5.023 0.958,-7.353c-1.696,-2.914 -1.819,-2.92 -1.868,-0.093c-0.036,1.826 -1.386,3.028 -3.411,3.028c-3.982,-0 -5.977,2.642 -4.635,6.138c1.473,3.84 5.866,2.997 8.956,-1.72Zm-56.327,14.409c-0,-0.951 -0.779,-1.249 -1.73,-0.661c-0.952,0.589 -1.731,1.848 -1.731,2.8c0,0.952 0.779,1.249 1.731,0.661c0.951,-0.588 1.73,-1.848 1.73,-2.8Zm178.829,-0.661c0.547,-1.427 0.325,-2.595 -0.495,-2.595c-0.821,0 -1.939,1.168 -2.487,2.595c-0.547,1.428 -0.325,2.595 0.495,2.595c0.82,0 1.939,-1.167 2.487,-2.595Zm-88.648,-4.787c-1.708,-1.696 -1.907,-1.497 -0.968,0.969c0.649,1.706 1.617,2.666 2.15,2.134c0.532,-0.533 0.001,-1.929 -1.182,-3.103Zm-60.769,-13.379c-0,-4.063 -0.763,-5.19 -3.515,-5.19c-3.877,-0 -6.055,3.759 -4.51,7.785c0.547,1.428 2.577,2.596 4.51,2.596c2.752,-0 3.515,-1.127 3.515,-5.191Zm57.818,9.331c2.989,-1.147 3.799,-5.871 1.006,-5.871c-0.951,0 -1.73,1.103 -1.73,2.451c0,1.348 -0.973,2.844 -2.162,3.324c-1.19,0.48 -1.643,0.934 -1.007,1.009c0.636,0.071 2.388,-0.336 3.893,-0.913Zm5.255,168.026c-0.251,-5.75 -2.518,-7.838 -2.518,-2.319c-0,3.464 1.198,6.632 2.508,6.632c0.11,0 0.118,-1.941 0.01,-4.313Zm-105.18,29.832c-0.481,-1.189 -0.873,-0.216 -0.873,2.163c0,2.379 0.392,3.352 0.873,2.163c0.48,-1.19 0.48,-3.136 -0,-4.326Zm-2.876,2.163c-0,-0.951 -0.825,-1.73 -1.833,-1.73c-1.007,-0 -1.351,0.779 -0.762,1.73c0.588,0.952 1.412,1.73 1.832,1.73c0.42,0 0.763,-0.778 0.763,-1.73Zm75.705,-27.249c0.281,-4.016 0.053,-4.284 -1.447,-1.717c-0.979,1.673 -1.303,3.814 -0.719,4.758c1.562,2.528 1.798,2.196 2.166,-3.041Zm-158.752,-6.488c0,-1.428 -0.754,-2.596 -1.676,-2.596c-0.921,0 -1.227,1.168 -0.68,2.596c0.548,1.427 1.302,2.595 1.676,2.595c0.374,-0 0.68,-1.168 0.68,-2.595Zm159.643,-23.473c-0.621,-2.379 -1.511,-2.996 -2.662,-1.845c-2.063,2.063 -0.254,7.798 2.017,6.394c0.869,-0.537 1.159,-2.584 0.645,-4.549Zm4.72,-1.614c-0,-0.952 -0.344,-1.73 -0.763,-1.73c-0.42,-0 -1.244,0.778 -1.832,1.73c-0.588,0.951 -0.245,1.73 0.762,1.73c1.008,-0 1.833,-0.779 1.833,-1.73Zm-152.023,-6.921c0.938,0 1.196,-0.825 0.572,-1.833c-0.715,-1.158 -1.972,-0.686 -3.409,1.278c-1.251,1.712 -1.779,3.899 -1.172,4.861c0.607,0.962 1.374,0.388 1.704,-1.278c0.33,-1.665 1.367,-3.028 2.305,-3.028Zm-19.79,-1.115c0.667,-1.738 -0.146,-3.751 -2.091,-5.173c-4.026,-2.943 -5.008,-1.96 -3.609,3.612c1.257,5.01 4.08,5.783 5.7,1.561Zm83.144,94.348c-4.298,-2.425 -3.754,-4.831 0.865,-3.822c3.811,0.833 3.802,0.774 -0.432,-2.78c-2.379,-1.996 -3.065,-3.187 -1.525,-2.644c1.918,0.675 3.137,-0.272 3.869,-3.005c1.321,-4.932 1.243,-11.918 -0.095,-8.553c-0.733,1.845 -1.228,1.888 -2.272,0.198c-1.962,-3.174 -4.523,2.617 -5.601,12.662c-0.647,6.042 -0.176,9.012 1.737,10.924c1.946,1.946 3.126,2.121 4.554,0.678c1.42,-1.436 1.13,-2.399 -1.1,-3.658Zm99.049,-69.011c1.468,-0.948 1.723,-1.689 0.586,-1.704c-2.17,-0.026 -2.171,-3.042 -0.002,-6.514c2.171,-3.476 -1.268,-2.486 -4.507,1.298c-1.63,1.903 -2.109,3.46 -1.065,3.46c1.044,-0 1.45,1.168 0.902,2.595c-1.141,2.974 0.339,3.287 4.086,0.865Zm-170.678,-30.222c0.536,-1.397 0.392,-2.9 -0.321,-3.34c-0.712,-0.44 -1.408,0.702 -1.547,2.54c-0.299,3.973 0.517,4.322 1.868,0.8Zm-15.069,-4.053c1.947,0.338 3.351,-0.724 3.788,-2.868c0.603,-2.957 0.328,-3.1 -2.1,-1.086c-2.452,2.036 -2.795,1.764 -2.795,-2.217c0,-5.099 -1.348,-5.598 -5.98,-2.211c-2.38,1.741 -2.881,3.52 -1.989,7.073c0.954,3.801 1.669,4.351 3.587,2.759c1.318,-1.094 3.788,-1.746 5.489,-1.45Zm103.883,77.204c-0.553,-1.38 -0.962,-0.97 -1.045,1.045c-0.071,1.824 0.334,2.846 0.909,2.271c0.574,-0.575 0.636,-2.067 0.136,-3.316Zm68.496,-44.548c0.481,-1.841 -0.089,-3.716 -1.259,-4.167c-1.445,-0.554 -1.877,0.526 -1.337,3.349c0.964,5.042 1.451,5.196 2.596,0.818Zm-49.344,-337.487c1.879,-2.251 2.027,-2.193 1.112,0.433c-1.946,5.589 9.111,4.45 14.454,-1.489c4.536,-5.042 4.846,-8.885 1.386,-17.166c-2.068,-4.951 -3.412,-6 -7.683,-6c-2.847,0 -5.727,0.89 -6.399,1.978c-0.781,1.263 -2.086,0.327 -3.617,-2.596c-2.935,-5.601 -6.901,-5.781 -14.503,-0.658c-4.845,3.266 -5.852,5.058 -6.074,10.814c-0.368,9.554 1.705,14.118 8.209,18.073c5.814,3.536 7.751,3.035 13.115,-3.389Zm-45.602,5.432c0.163,-8.905 2.777,-10.761 2.777,-1.971c-0,2.742 0.778,5.467 1.73,6.055c0.951,0.588 1.73,-0.607 1.73,-2.655c-0,-3.972 -13.579,-25.892 -16.04,-25.892c-0.806,0 -0.985,-0.779 -0.396,-1.73c1.259,-2.037 -1.179,-2.315 -3.547,-0.404c-0.904,0.73 -1.456,0.996 -1.226,0.592c0.229,-0.404 -0.549,-1.974 -1.73,-3.489c-1.901,-2.437 -1.799,-2.481 0.88,-0.38c2.609,2.046 3.028,1.994 3.028,-0.372c-0,-1.511 -1.557,-3.58 -3.46,-4.598c-2.481,-1.328 -3.461,-1.316 -3.461,0.044c0,1.041 -0.778,1.412 -1.73,0.824c-0.951,-0.589 -1.755,-0.054 -1.785,1.195c-0.035,1.397 -1.028,0.978 -2.595,-1.094c-2.405,-3.178 -2.54,-3.063 -2.54,2.163c-0,3.037 -0.779,5.521 -1.73,5.521c-0.952,0 -1.731,0.779 -1.731,1.73c0,0.952 1.214,1.73 2.698,1.73c1.483,0 2.216,0.779 1.628,1.731c-0.588,0.951 -0.313,1.73 0.613,1.73c3.397,-0 17.485,16.623 20.271,23.918c3.584,9.386 6.395,7.411 6.616,-4.648Zm-21.445,-4.566c-0,-0.272 -1.168,-0.943 -2.595,-1.491c-1.565,-0.601 -2.596,-0.009 -2.596,1.491c0,1.499 1.031,2.091 2.596,1.49c1.427,-0.547 2.595,-1.218 2.595,-1.49Zm37.276,39.319c-1.065,-1.124 -5.95,1.824 -6.832,4.124c-0.728,1.895 0.053,1.755 3.157,-0.566c2.267,-1.697 3.921,-3.297 3.675,-3.558Zm-80.53,32.481c0,-0.952 -0.824,-1.73 -1.832,-1.73c-1.007,-0 -1.351,0.778 -0.762,1.73c0.588,0.951 1.412,1.73 1.832,1.73c0.42,0 0.762,-0.779 0.762,-1.73Z"/><path d="M173.048,368.996c-1.365,-1.644 -1.496,-2.637 -0.349,-2.637c2.091,-0 4.529,3.282 3.329,4.482c-0.436,0.436 -1.777,-0.395 -2.98,-1.845Z"/><path d="M287.202,51.475c-0,-0.951 0.824,-1.73 1.832,-1.73c1.008,0 1.351,0.779 0.763,1.73c-0.589,0.952 -1.413,1.73 -1.833,1.73c-0.42,0 -0.762,-0.778 -0.762,-1.73Z"/><path d="M294.987,70.507c-0.588,-0.952 -0.244,-1.731 0.763,-1.731c1.008,0 1.832,0.779 1.832,1.731c0,0.951 -0.344,1.73 -0.763,1.73c-0.419,-0 -1.244,-0.779 -1.832,-1.73Z"/><path d="M234.672,47.15c0.548,-1.428 1.219,-2.595 1.491,-2.595c0.272,-0 0.943,1.167 1.491,2.595c0.6,1.565 0.008,2.595 -1.491,2.595c-1.5,0 -2.091,-1.03 -1.491,-2.595Z"/><path d="M249.584,57.985c-0.23,-3.042 0.053,-3.32 1.335,-1.298c2,3.164 2.123,5.169 0.318,5.169c-0.749,-0 -1.493,-1.742 -1.653,-3.871Z"/><path d="M123.651,497.762c-1.589,-2.571 -0.326,-3.481 2.451,-1.766c1.487,0.92 1.664,1.811 0.502,2.53c-0.987,0.61 -2.316,0.266 -2.953,-0.764Z"/><path d="M216.41,483.518c0.397,-0.269 2.278,-1.632 4.182,-3.028c3.2,-2.347 3.282,-2.311 1.085,0.49c-1.306,1.666 -3.187,3.028 -4.181,3.028c-0.993,0 -1.482,-0.221 -1.086,-0.49Z"/><path d="M195.778,477.087c-0,-2.379 0.392,-3.352 0.872,-2.162c0.481,1.189 0.481,3.135 0,4.325c-0.48,1.189 -0.872,0.216 -0.872,-2.163Z"/><path d="M280.281,477.087c0,-0.951 0.825,-1.73 1.832,-1.73c1.008,0 1.351,0.779 0.763,1.73c-0.588,0.952 -1.413,1.73 -1.832,1.73c-0.42,0 -0.763,-0.778 -0.763,-1.73Z"/><path d="M280.281,466.604c0,-1.008 0.779,-1.351 1.73,-0.763c0.952,0.589 1.73,1.413 1.73,1.833c0,0.419 -0.778,0.762 -1.73,0.762c-0.951,0 -1.73,-0.824 -1.73,-1.832Z"/><path d="M117.068,462.194c1.048,-2.791 0.833,-2.951 -1.461,-1.089c-2.179,1.769 -3.065,1.731 -4.67,-0.203c-1.514,-1.824 -1.382,-2.885 0.559,-4.496c1.398,-1.159 3.354,-1.606 4.347,-0.992c0.993,0.614 1.806,0.337 1.806,-0.614c-0,-0.952 -0.779,-2.211 -1.73,-2.8c-0.952,-0.588 -1.73,-2.515 -1.73,-4.283c-0,-1.767 -0.973,-3.606 -2.163,-4.086c-1.292,-0.522 -0.944,-0.928 0.866,-1.01c2.112,-0.095 3.027,1.171 3.027,4.189c0,6.031 4.296,5.472 6.936,-0.902c2.626,-6.34 6.155,-9.086 4.744,-3.691c-0.537,2.053 -0.352,3.347 0.411,2.875c1.984,-1.226 3.407,3.354 2.326,7.487c-0.505,1.929 -1.968,3.911 -3.254,4.404c-1.613,0.619 -1.995,-0.018 -1.235,-2.043c0.976,-2.607 0.757,-2.66 -1.939,-0.465c-1.77,1.442 -2.677,3.86 -2.171,5.794c0.477,1.826 0.408,2.86 -0.153,2.299c-0.562,-0.562 -2.084,-0.139 -3.383,0.938c-1.896,1.574 -2.12,1.316 -1.133,-1.312Z"/><path d="M198.965,463.348c0,-0.895 0.77,-2.103 1.71,-2.685c0.981,-0.606 1.271,0.089 0.681,1.628c-1.151,2.998 -2.391,3.546 -2.391,1.057Z"/><path d="M286.465,460.362c-0.609,-1.587 -0.257,-3.728 0.782,-4.758c1.362,-1.351 1.568,-1.028 0.737,1.154c-0.668,1.755 -0.347,3.028 0.763,3.028c1.053,-0 1.915,0.779 1.915,1.73c0,2.803 -2.995,1.979 -4.197,-1.154Z"/><path d="M465.184,460.218c-2.196,-2.8 -2.115,-2.837 1.086,-0.49c1.903,1.396 3.785,2.759 4.181,3.028c0.397,0.269 -0.092,0.49 -1.085,0.49c-0.994,-0 -2.876,-1.363 -4.182,-3.028Z"/><path d="M143.918,459.411c-1.126,-1.126 -2.047,-3.232 -2.047,-4.681c-0,-1.808 0.869,-1.394 2.771,1.323c3.036,4.334 2.542,6.624 -0.724,3.358Z"/><path d="M154.051,459.004c-3.023,-3.642 -1.495,-8.649 2.827,-9.267c4.506,-0.645 7.113,5.462 3.955,9.267c-2.627,3.165 -4.155,3.165 -6.782,-0Z"/><path d="M190.314,451.237c0,-1.847 0.666,-3.77 1.48,-4.273c0.815,-0.503 1.113,1.008 0.664,3.358c-0.976,5.105 -2.144,5.603 -2.144,0.915Z"/><path d="M366.788,451.033c-0,-1.007 0.778,-1.351 1.73,-0.762c0.951,0.588 1.73,1.412 1.73,1.832c-0,0.42 -0.779,0.763 -1.73,0.763c-0.952,-0 -1.73,-0.825 -1.73,-1.833Z"/><path d="M138.476,444.492c-7.808,-4.187 -8.225,-6.214 -2.391,-11.621c3.442,-3.19 6.241,-4.299 9.605,-3.806c2.611,0.384 5.094,-0.139 5.518,-1.16c0.443,-1.066 0.829,-0.893 0.907,0.409c0.08,1.245 0.949,1.762 1.942,1.148c0.994,-0.613 2.871,-0.233 4.172,0.847c1.38,1.145 2.777,1.298 3.353,0.365c0.543,-0.879 3.107,-1.598 5.698,-1.598c4.643,0 4.661,0.045 1.197,2.846c-1.933,1.566 -3.168,3.886 -2.745,5.156c0.554,1.664 -0.376,2.022 -3.328,1.279c-2.253,-0.567 -3.124,-0.584 -1.934,-0.035c2.984,1.37 2.716,3.588 -0.433,3.588c-1.427,0 -2.607,-0.843 -2.621,-1.874c-0.018,-1.252 -0.449,-1.287 -1.298,-0.105c-1.174,1.635 -9.999,7.746 -11.185,7.746c-0.287,-0 -3.192,-1.434 -6.457,-3.185Z"/><path d="M183.451,444.593c-0.035,-2.171 1.144,-4.408 2.613,-4.971c4.255,-1.633 4.616,0.307 0.891,4.781l-3.446,4.137l-0.058,-3.947Z"/><path d="M119.379,442.485c-0,-1.903 0.706,-3.46 1.568,-3.46c0.863,-0 1.161,1.557 0.664,3.46c-0.498,1.903 -1.204,3.46 -1.569,3.46c-0.365,0 -0.663,-1.557 -0.663,-3.46Z"/><path d="M366.905,439.457c-0.08,-3.679 0.707,-5.623 2.266,-5.623c1.311,0 3.353,-1.167 4.537,-2.595c1.185,-1.427 3.421,-2.505 4.97,-2.394c2.376,0.169 2.342,0.324 -0.212,0.992c-1.821,0.475 -3.028,2.443 -3.028,4.935c0,2.735 -0.781,3.844 -2.299,3.262c-1.275,-0.489 -3.149,0.883 -4.208,3.082c-1.821,3.781 -1.914,3.705 -2.026,-1.659Z"/><path d="M193.471,437.858c0.738,-3.621 1.173,-4.056 1.678,-1.677c0.374,1.766 -0.071,3.966 -0.997,4.889c-1.084,1.083 -1.325,-0.053 -0.681,-3.212Z"/><path d="M442.15,439.836c-1.847,-1.397 -2.526,-2.541 -1.509,-2.541c1.017,-0 2.818,1.167 4.002,2.595c2.695,3.246 1.847,3.226 -2.493,-0.054Z"/><path d="M401.425,429.55c-1.365,-1.644 -1.496,-2.637 -0.349,-2.637c2.091,0 4.529,3.283 3.329,4.483c-0.436,0.436 -1.777,-0.395 -2.98,-1.846Z"/><path d="M208.592,425.69c-0.939,-2.465 -0.741,-2.664 0.968,-0.968c1.183,1.174 1.714,2.57 1.182,3.102c-0.533,0.533 -1.5,-0.428 -2.15,-2.134Z"/><path d="M216.266,425.082c0,-1.008 0.779,-1.351 1.73,-0.763c0.952,0.588 1.731,1.413 1.731,1.832c-0,0.42 -0.779,0.763 -1.731,0.763c-0.951,0 -1.73,-0.825 -1.73,-1.832Z"/><path d="M121.59,423.243c-2.876,-2.876 -0.68,-6.71 3.844,-6.71c2.176,0 4.367,1.073 4.871,2.385c0.999,2.606 -1.845,6.266 -4.871,6.266c-1.046,0 -2.776,-0.873 -3.844,-1.941Z"/><path d="M396.564,422.414c-1.227,-1.331 -1.467,-2.421 -0.535,-2.421c1.797,0 4.398,3.291 3.372,4.266c-0.334,0.316 -1.61,-0.514 -2.837,-1.845Z"/><path d="M149.367,418.541c-3.146,-5.037 0.67,-8.237 5.877,-4.929c1.676,1.065 1.68,2.068 0.017,4.731c-2.612,4.184 -3.388,4.21 -5.894,0.198Z"/><path d="M399.828,419.33c-1.529,-1.843 -1.392,-2.621 0.598,-3.385c1.421,-0.545 3.118,-0.126 3.772,0.931c0.773,1.252 0.388,1.428 -1.104,0.506c-1.664,-1.029 -1.989,-0.628 -1.187,1.462c1.345,3.506 0.576,3.686 -2.079,0.486Z"/><path d="M410.974,417.319c-2.818,-2.251 -4.731,-4.486 -4.251,-4.965c0.479,-0.479 3.105,1.047 5.834,3.392c6.46,5.551 5.093,6.909 -1.583,1.573Z"/><path d="M105.538,412.334c-0,-1.605 1.479,-2.722 3.604,-2.722c4.217,0 3.621,4.043 -0.72,4.885c-1.707,0.331 -2.884,-0.552 -2.884,-2.163Z"/><path d="M160.681,411.776c-2.152,-2.744 -2.09,-2.806 0.653,-0.653c1.666,1.306 3.028,2.668 3.028,3.027c0,1.424 -1.421,0.508 -3.681,-2.374Z"/><path d="M37.21,409.633c-0.606,-0.981 0.089,-1.27 1.628,-0.68c2.997,1.15 3.546,2.39 1.057,2.39c-0.895,0 -2.104,-0.769 -2.685,-1.71Z"/><path d="M128.895,409.616c-0.589,-0.952 -0.245,-1.731 0.762,-1.731c1.008,0 1.833,0.779 1.833,1.731c-0,0.951 -0.344,1.73 -0.763,1.73c-0.42,-0 -1.244,-0.779 -1.832,-1.73Z"/><path d="M165.84,409.812c-2.425,-0.904 -2.489,-1.393 -0.432,-3.292c1.971,-1.821 2.42,-1.821 2.441,-0c0.018,1.578 0.518,1.471 1.704,-0.364c0.922,-1.428 1.677,-1.817 1.677,-0.866c0,3.395 -2.588,5.566 -5.39,4.522Z"/><path d="M391.875,409.616c-0.589,-0.952 0.19,-1.731 1.73,-1.731c1.539,0 2.318,0.779 1.73,1.731c-0.588,0.951 -1.367,1.73 -1.73,1.73c-0.364,-0 -1.142,-0.779 -1.73,-1.73Z"/><path d="M398.301,406.914c-2.174,-2.32 -3.342,-4.193 -2.595,-4.161c1.728,0.07 9.144,6.215 9.144,7.572c0,2.094 -2.717,0.679 -6.549,-3.411Z"/><path d="M77.909,404.423c-0,-1.427 0.658,-3.632 1.463,-4.901c1.15,-1.815 1.719,-1.641 2.661,0.817c1.028,2.677 1.453,2.759 2.968,0.577c1.546,-2.225 1.67,-2.219 0.988,0.045c-0.429,1.427 -1.779,2.359 -3,2.071c-1.222,-0.288 -2.864,0.491 -3.65,1.73c-1.12,1.765 -1.43,1.693 -1.43,-0.339Z"/><path d="M72.666,402.797c-0,-0.895 0.769,-2.104 1.71,-2.685c0.981,-0.606 1.271,0.089 0.68,1.628c-1.15,2.997 -2.39,3.546 -2.39,1.057Z"/><path d="M411.55,401.398c-2.152,-2.744 -2.09,-2.806 0.653,-0.653c1.665,1.305 3.028,2.668 3.028,3.027c-0,1.424 -1.421,0.508 -3.681,-2.374Z"/><path d="M389.279,400.619c2.809,-3.371 1.976,-5.471 -1.148,-2.894c-2.593,2.14 -2.685,2.012 -0.926,-1.291c1.074,-2.016 1.461,-4.157 0.86,-4.757c-0.6,-0.601 -0.184,-1.093 0.926,-1.093c1.11,-0 2.019,0.754 2.019,1.676c-0,0.921 1.176,1.224 2.614,0.672c1.872,-0.717 2.311,-0.21 1.545,1.785c-0.794,2.071 -0.017,2.801 3.009,2.84c3.691,0.044 3.78,0.226 0.945,1.875c-1.723,1.002 -4.159,1.429 -5.412,0.948c-1.254,-0.481 -3.153,-0.157 -4.221,0.72c-1.368,1.124 -1.43,0.982 -0.211,-0.481Z"/><path d="M135.927,399.413c-0.526,-0.852 0.167,-1.98 1.54,-2.507c1.666,-0.64 2.177,-0.123 1.535,1.549c-1.115,2.906 -1.749,3.104 -3.075,0.958Z"/><path d="M379.443,397.934c-0.593,-1.665 -1.468,-3.732 -1.944,-4.592c-0.476,-0.861 0.027,-1.012 1.123,-0.336c3.112,1.923 5.95,7.956 3.743,7.956c-1.015,0 -2.33,-1.362 -2.922,-3.028Z"/><path d="M108.819,396.078c2.008,-1.403 1.928,-1.832 -0.469,-2.551c-2.612,-0.783 -2.606,-0.84 0.062,-0.607c3.429,0.299 3.636,3.35 0.287,4.237c-1.734,0.46 -1.706,0.197 0.12,-1.079Z"/><path d="M148.68,395.04c2.291,-2.76 12.237,-6.676 12.196,-4.802c-0.108,4.941 -6.5,8.286 -9.031,4.726c-0.817,-1.151 -1.28,-1.017 -1.297,0.375c-0.018,1.189 -0.901,2.162 -1.969,2.162c-1.388,0 -1.36,-0.7 0.101,-2.461Z"/><path d="M161.894,396.177c1.021,-0.699 2.358,-2.633 2.973,-4.299c0.615,-1.665 2.504,-3.016 4.199,-3.001c2.623,0.027 2.695,0.276 0.487,1.704c-1.427,0.922 -1.862,1.689 -0.967,1.703c2.147,0.036 -4.576,5.099 -6.818,5.136c-1.035,0.017 -0.984,-0.483 0.126,-1.243Z"/><path d="M403.121,394.041c-1.56,-1.008 -1.773,-1.688 -0.535,-1.704c1.133,-0.017 2.542,0.752 3.13,1.704c1.328,2.148 0.729,2.148 -2.595,0Z"/><path d="M99.594,391.804c0.649,-1.706 1.617,-2.667 2.15,-2.134c0.532,0.532 0.001,1.929 -1.182,3.102c-1.708,1.696 -1.907,1.498 -0.968,-0.968Z"/><path d="M413.069,391.165c1.189,-0.48 3.135,-0.48 4.325,0c1.189,0.48 0.216,0.873 -2.163,0.873c-2.379,-0 -3.352,-0.393 -2.162,-0.873Z"/><path d="M69.446,385.539c2.247,-1.821 4.417,-2.981 4.823,-2.577c0.889,0.883 -5.307,5.756 -7.418,5.834c-0.82,0.026 0.349,-1.435 2.595,-3.257Z"/><path d="M89.967,384.525c-1.202,-1.447 -1.389,-2.595 -0.424,-2.595c0.952,0 2.7,1.168 3.884,2.595c1.202,1.448 1.389,2.596 0.424,2.596c-0.952,-0 -2.7,-1.168 -3.884,-2.596Z"/><path d="M121.109,385.571c-3.802,-1.059 -3.942,-1.352 -1.156,-2.423c4.646,-1.785 5.77,-1.517 5.77,1.377c-0,1.428 -0.062,2.518 -0.145,2.423c-0.079,-0.095 -2.09,-0.715 -4.469,-1.377Z"/><path d="M394.47,381.93c-0,-1.903 0.298,-3.46 0.663,-3.46c0.365,-0 1.071,1.557 1.568,3.46c0.498,1.903 0.2,3.46 -0.663,3.46c-0.863,0 -1.568,-1.557 -1.568,-3.46Z"/><path d="M401.39,379.149c0,-3.62 3.002,-4.351 3.892,-0.948c0.499,1.911 -0.105,3.152 -1.534,3.152c-1.297,0 -2.358,-0.992 -2.358,-2.204Z"/><path d="M415.249,372.436c-1.492,-1.799 -1.564,-2.617 -0.229,-2.617c1.068,0 1.942,0.898 1.942,1.995c-0,1.097 1.557,0.199 3.46,-1.995c2.762,-3.185 3.46,-3.413 3.46,-1.13c0,1.573 1.168,2.86 2.595,2.86c1.428,0 2.596,0.71 2.596,1.577c-0,1.752 -4.421,1.5 -6.279,-0.358c-0.654,-0.654 -2.13,-0.408 -3.281,0.548c-1.447,1.201 -2.762,0.93 -4.264,-0.88Z"/><path d="M148.984,363.331c1.958,-5.871 3.267,-7.217 3.267,-3.358c0,1.245 -1.157,3.775 -2.571,5.623c-2.352,3.072 -2.412,2.879 -0.696,-2.265Z"/><path d="M142.195,364.52c0.416,-1.249 1.779,-2.611 3.028,-3.027c1.297,-0.433 1.946,0.216 1.514,1.514c-0.417,1.249 -1.779,2.611 -3.028,3.027c-1.298,0.433 -1.946,-0.216 -1.514,-1.514Z"/><path d="M423.417,359.3c0.612,-2.34 1.396,-3.124 1.828,-1.828c0.416,1.248 -0.062,3.092 -1.072,4.097c-1.283,1.284 -1.509,0.609 -0.756,-2.269Z"/><path d="M78.721,357.708c-0.588,-0.951 -0.245,-1.73 0.763,-1.73c1.007,0 1.832,0.779 1.832,1.73c-0,0.952 -0.344,1.731 -0.763,1.731c-0.42,-0 -1.244,-0.779 -1.832,-1.731Z"/><path d="M496.86,348.705c-11.723,-2.846 -21.033,-5.456 -20.688,-5.8c0.957,-0.957 45.87,8.578 47.343,10.051c2.194,2.195 -4.504,1.127 -26.655,-4.251Z"/><path d="M88.236,350.788c1.428,-0.923 3.764,-1.635 5.191,-1.582c1.711,0.062 1.417,0.601 -0.865,1.582c-4.757,2.044 -7.488,2.044 -4.326,-0Z"/><path d="M406.003,344.928c-3.693,-5.636 -3.289,-6.902 1.165,-3.645c1.747,1.277 2.911,3.705 2.585,5.394c-0.489,2.544 -1.134,2.243 -3.75,-1.749Z"/><path d="M27.221,345.383c1.173,-1.182 2.569,-1.714 3.102,-1.181c0.532,0.532 -0.428,1.5 -2.134,2.15c-2.466,0.939 -2.664,0.74 -0.968,-0.969Z"/><path d="M10.381,342.186c-0,-0.925 4.477,-2.924 9.948,-4.443c5.472,-1.518 12.205,-3.486 14.964,-4.373c12.676,-4.076 7.101,-0.791 -7.611,4.485c-19.269,6.909 -17.301,6.417 -17.301,4.331Z"/><path d="M418.692,339.702c-0,-0.33 1.167,-1.568 2.595,-2.753c1.496,-1.241 2.595,-1.409 2.595,-0.397c-0,0.967 -1.168,2.205 -2.595,2.753c-1.428,0.548 -2.595,0.726 -2.595,0.397Z"/><path d="M450.699,336.949c-1.353,-2.189 0.937,-2.189 4.325,0c2.237,1.446 2.191,1.681 -0.33,1.704c-1.609,0.017 -3.407,-0.752 -3.995,-1.704Z"/><path d="M6.921,333.714c-0,-1.5 12.894,-4.353 27.682,-6.124c4.989,-0.598 2.193,0.589 -7.786,3.305c-17.125,4.661 -19.896,5.054 -19.896,2.819Z"/><path d="M62.518,330.949c1.454,-1.454 13.608,-6.181 13.608,-5.293c-0,0.476 -2.82,2.044 -6.267,3.484c-6.383,2.667 -8.793,3.261 -7.341,1.809Z"/><path d="M80.594,326.8c-0.745,-1.206 -0.887,-2.66 -0.317,-3.231c1.549,-1.548 3.237,0.729 2.401,3.238c-0.587,1.758 -0.994,1.757 -2.084,-0.007Z"/><path d="M421.158,323.523c1.485,-1.485 9.717,-1.935 8.819,-0.482c-0.463,0.749 -2.835,1.362 -5.271,1.362c-2.435,0 -4.032,-0.396 -3.548,-0.88Z"/><path d="M60.554,313.802c0,-0.36 1.363,-1.722 3.028,-3.028c2.744,-2.152 2.806,-2.091 0.653,0.653c-2.26,2.882 -3.681,3.799 -3.681,2.375Z"/><path d="M92.488,302.779c0.516,-1.346 0.939,-2.774 0.939,-3.172c0,-0.397 1.263,-0.723 2.807,-0.723c2.152,-0 2.358,0.541 0.881,2.322c-1.06,1.277 -1.545,2.704 -1.077,3.171c0.467,0.468 -0.352,0.851 -1.82,0.851c-1.591,-0 -2.29,-0.989 -1.73,-2.449Z"/><path d="M60.555,298.884c-0,-0.952 1.121,-1.73 2.493,-1.73c1.371,-0 2.974,0.778 3.562,1.73c0.588,0.951 -0.534,1.73 -2.493,1.73c-1.959,0 -3.562,-0.779 -3.562,-1.73Z"/><path d="M472.001,299.432c1.249,-0.499 2.741,-0.438 3.316,0.137c0.575,0.575 -0.447,0.983 -2.271,0.908c-2.015,-0.079 -2.425,-0.492 -1.045,-1.045Z"/><path d="M54.499,288.503c-3.302,-1.418 -3.282,-1.492 0.432,-1.608c2.141,-0.071 3.893,0.657 3.893,1.608c0,0.952 -0.195,1.676 -0.432,1.609c-0.238,-0.071 -1.99,-0.791 -3.893,-1.609Z"/><path d="M69.373,283.173c2.979,-1.886 6.753,-2.05 6.751,-0.292c-0,0.714 -2.066,1.417 -4.59,1.563c-3.284,0.191 -3.899,-0.171 -2.161,-1.271Z"/><path d="M0,272.931c0,-0.951 3.16,-1.73 7.023,-1.73c4.241,0 6.599,0.685 5.953,1.73c-0.588,0.952 -3.748,1.731 -7.023,1.731c-3.274,-0 -5.953,-0.779 -5.953,-1.731Z"/><path d="M22.924,270.009c1.665,-0.435 4.39,-0.435 6.056,-0c1.665,0.435 0.303,0.791 -3.028,0.791c-3.331,-0 -4.693,-0.356 -3.028,-0.791Z"/><path d="M400.857,260.698c-0.481,-1.838 -0.168,-2.906 0.694,-2.373c0.863,0.533 1.569,0.099 1.569,-0.965c0,-1.064 0.779,-1.453 1.73,-0.865c2.53,1.563 2.113,5.539 -0.694,6.616c-1.442,0.553 -2.779,-0.425 -3.299,-2.413Z"/><path d="M59.998,257.15c-1.261,-4.822 -0.567,-5.824 1.941,-2.801c1.035,1.247 1.254,3.272 0.487,4.513c-1.009,1.631 -1.677,1.16 -2.428,-1.712Z"/><path d="M70.503,259.629c-1.665,-0.435 -3.028,-1.808 -3.028,-3.049c0,-1.241 -1.168,-3.226 -2.595,-4.41c-1.427,-1.185 -2.595,-2.967 -2.595,-3.961c-0,-0.993 0.491,-1.315 1.092,-0.714c0.601,0.601 2.5,0.34 4.221,-0.581c2.041,-1.092 3.5,-1.071 4.199,0.062c0.59,0.955 -0.336,1.747 -2.057,1.762c-1.786,0.017 -2.372,0.572 -1.365,1.297c1.463,1.054 6.792,11.216 5.551,10.586c-0.218,-0.11 -1.758,-0.557 -3.423,-0.992Z"/><path d="M76.126,258.225c-0,-1.427 0.778,-2.595 1.73,-2.595c0.951,0 1.73,1.168 1.73,2.595c0,1.428 -0.779,2.595 -1.73,2.595c-0.952,0 -1.73,-1.167 -1.73,-2.595Z"/><path d="M456.72,254.723c-1.204,-1.45 -1.854,-2.972 -1.444,-3.381c0.409,-0.41 1.695,0.777 2.856,2.637c2.512,4.022 1.674,4.463 -1.412,0.744Z"/><path d="M51.904,254.923c-0,-0.33 1.168,-1.569 2.595,-2.753c1.496,-1.242 2.595,-1.41 2.595,-0.397c0,0.966 -1.168,2.205 -2.595,2.753c-1.427,0.547 -2.595,0.726 -2.595,0.397Z"/><path d="M48.458,247.026c-1.951,-1.234 -2.093,-2.12 -0.584,-3.63c2.369,-2.368 5.76,-0.707 5.76,2.821c-0,2.878 -1.525,3.116 -5.176,0.809Z"/><path d="M405.232,239.146c-1.716,-1.946 -2.92,-2.072 -5.345,-0.557c-2.299,1.436 -4.006,1.445 -6.436,0.035c-3.133,-1.819 -3.102,-1.922 0.586,-1.972c2.284,-0.027 3.893,-1.126 3.893,-2.648c0,-1.427 0.779,-2.595 1.73,-2.595c0.952,-0 1.731,-1.162 1.731,-2.582c-0,-3.819 7.065,-11.259 10.692,-11.259c1.732,-0 3.149,0.352 3.149,0.784c-0,2.22 -4.215,9.597 -5.483,9.597c-0.807,-0 -0.517,-1.522 0.645,-3.382c2.823,-4.521 0.282,-6.787 -2.856,-2.547c-3.651,4.932 -4.52,9.32 -1.626,8.209c1.682,-0.645 2.399,0.482 2.399,3.775c0,3.39 0.697,4.428 2.507,3.734c1.676,-0.643 2.188,-0.13 1.545,1.545c-1.216,3.169 -4.269,3.11 -7.131,-0.137Z"/><path d="M60.946,232.368c-2.594,-4.274 -5.984,-7.795 -7.533,-7.826c-3.616,-0.07 -7.487,-4.554 -5.168,-5.987c0.934,-0.577 4.865,0.045 8.734,1.374c3.87,1.333 7.036,1.789 7.036,1.013c-0,-3.315 6.879,-3.416 10.145,-0.15c3.248,3.248 3.272,3.675 0.521,9.416c-1.584,3.307 -4.262,6.895 -5.95,7.972c-2.637,1.684 -3.732,0.867 -7.785,-5.812Z"/><path d="M416.961,233.036c0,-1.008 0.779,-1.351 1.731,-0.763c0.951,0.588 1.73,1.413 1.73,1.833c-0,0.419 -0.779,0.762 -1.73,0.762c-0.952,0 -1.731,-0.824 -1.731,-1.832Z"/><path d="M39.793,231.381c-1.427,-0.937 -5.593,-2.534 -9.258,-3.547c-3.664,-1.014 -6.307,-2.2 -5.872,-2.634c0.435,-0.435 6.547,1.096 13.583,3.403c7.602,2.492 11.038,4.252 8.468,4.338c-2.379,0.08 -5.494,-0.623 -6.921,-1.56Z"/><path d="M12.111,221.892c-3.331,-1.282 -4.888,-2.332 -3.46,-2.332c1.427,0 5.32,1.05 8.65,2.332c3.331,1.283 4.888,2.332 3.461,2.332c-1.428,0 -5.321,-1.049 -8.651,-2.332Z"/><path d="M36.128,223.19c-0.113,-0.714 -0.113,-1.882 -0,-2.595c0.112,-0.714 -0.963,-1.298 -2.391,-1.298c-1.427,-0 -2.595,-0.794 -2.595,-1.763c0,-1.017 -1.831,-1.304 -4.325,-0.678c-2.448,0.615 -4.325,0.337 -4.325,-0.639c-0,-0.949 0.973,-1.618 2.162,-1.485c5.213,0.579 2.541,-3.347 -3.071,-4.512c-6.906,-1.435 -13.663,-4.61 -12.431,-5.841c0.438,-0.439 4.019,0.491 7.957,2.067c3.938,1.576 9.208,2.473 11.711,1.995c2.503,-0.478 7.196,0.236 10.431,1.587c3.233,1.351 7.598,2.311 9.699,2.134c6.916,-0.585 9.014,0.169 11.433,4.107c2.291,3.73 2.254,3.774 -0.881,1.061c-4.174,-3.611 -18.138,-3.92 -16.775,-0.37c0.502,1.31 -0.045,3.539 -1.222,4.955c-2.283,2.751 -5.041,3.405 -5.377,1.275Z"/><path d="M74.296,218.313c-1.24,-1.493 -3.67,-2.347 -5.401,-1.894c-1.73,0.453 -3.583,0.118 -4.115,-0.745c-0.534,-0.862 0.439,-1.586 2.16,-1.609c1.722,-0.026 -1.519,-1.952 -7.201,-4.288c-6.736,-2.768 -10.921,-3.657 -12.025,-2.554c-2.24,2.241 -6.7,2.186 -5.308,-0.062c0.598,-0.967 1.931,-1.236 2.964,-0.598c1.112,0.688 1.381,0.357 0.661,-0.809c-0.67,-1.084 -3.709,-2.691 -6.755,-3.572l-5.538,-1.601l5.521,-0.156c3.036,-0.089 5.978,0.584 6.537,1.488c0.559,0.905 3.686,1.303 6.948,0.885c3.653,-0.467 6.459,0.08 7.304,1.433c1.705,2.723 14.114,7.951 18.356,7.733c2.395,-0.123 2.905,-1.111 2.141,-4.152c-1.497,-5.965 3.544,-3.356 5.751,2.976c1.531,4.391 1.344,5.052 -1.424,5.052c-1.752,-0 -3.633,1.167 -4.181,2.595c-1.282,3.34 -3.559,3.296 -6.395,-0.122Z"/><path d="M417.747,216.591c-1.86,-1.508 -2.402,-2.244 -1.205,-1.637c1.197,0.606 3.394,-0.114 4.882,-1.602c1.488,-1.488 4.012,-2.682 5.609,-2.653c2.676,0.044 2.67,0.189 -0.071,1.785c-1.634,0.953 -3.616,2.884 -4.403,4.29c-1.252,2.237 -1.853,2.214 -4.812,-0.183Z"/><path d="M416.096,210.646c-0.588,-0.951 -0.244,-1.73 0.763,-1.73c1.008,-0 1.832,0.779 1.832,1.73c0,0.952 -0.343,1.73 -0.762,1.73c-0.42,0 -1.245,-0.778 -1.833,-1.73Z"/><path d="M73.548,208.888c0.598,-0.967 1.811,-1.311 2.697,-0.763c2.4,1.483 1.953,2.521 -1.086,2.521c-1.484,0 -2.209,-0.791 -1.611,-1.758Z"/><path d="M405.016,202.099c-1.721,-1.064 -1.769,-1.707 -0.2,-2.677c1.137,-0.702 2.845,-0.498 3.796,0.454c2.255,2.255 -0.645,4.047 -3.596,2.223Z"/><path d="M25.952,199.666c4.749,-2.502 6.148,-2.348 4.396,0.486c-0.627,1.014 -2.846,1.833 -4.931,1.819c-3.635,-0.026 -3.613,-0.119 0.535,-2.305Z"/><path d="M394.47,200.267c-0,-0.952 0.824,-1.731 1.832,-1.731c1.008,0 1.351,0.779 0.763,1.731c-0.589,0.951 -1.413,1.73 -1.833,1.73c-0.419,-0 -0.762,-0.779 -0.762,-1.73Z"/><path d="M26.284,189.729c0.951,-2.883 8.319,-4.383 8.319,-1.694c-0,1.018 -0.715,1.851 -1.589,1.851c-0.873,-0 -2.926,0.513 -4.561,1.14c-2.087,0.801 -2.733,0.414 -2.169,-1.297Z"/><path d="M92.631,187.555c-3.83,-2.8 -1.473,-4.721 3.391,-2.765c1.903,0.766 2.441,1.447 1.196,1.514c-1.246,0.071 -1.784,0.9 -1.196,1.852c1.458,2.359 0.401,2.171 -3.391,-0.601Z"/><path d="M314.884,178.387c0,-1.401 -0.773,-2.069 -1.717,-1.486c-0.944,0.584 -3.085,0.203 -4.758,-0.846c-2.633,-1.65 -2.517,-1.763 0.861,-0.84c2.667,0.73 4.23,0.209 4.943,-1.647c0.573,-1.493 1.712,-2.715 2.532,-2.715c0.82,0 1.073,1.09 0.562,2.421c-1.514,3.946 1.918,4.594 5.037,0.951c2.921,-3.411 2.87,-3.632 -0.921,-4.02c-1.161,-0.119 -3.037,-2.074 -4.168,-4.343c-1.132,-2.27 -3.101,-4.874 -4.377,-5.786c-1.627,-1.165 -1.287,-1.28 1.141,-0.387c1.904,0.699 5.602,1.64 8.218,2.089c3.671,0.63 4.758,1.784 4.758,5.048c0,2.38 0.757,3.763 1.73,3.162c3.628,-2.242 1.539,3.62 -2.162,6.068c-6.356,4.204 -11.679,5.267 -11.679,2.331Zm10.38,-13.094c0,-0.951 -1.231,-1.257 -2.736,-0.68c-1.505,0.578 -3.108,1.05 -3.563,1.05c-0.454,0 -0.365,0.745 0.197,1.655c1.242,2.009 6.102,0.396 6.102,-2.025Z"/><path d="M486.167,179.921c-0,-0.723 1.751,-2.39 3.892,-3.705c3.879,-2.383 3.882,-2.379 0.598,1.314c-3.527,3.964 -4.49,4.477 -4.49,2.391Z"/><path d="M333.694,174.747c-2.152,-2.744 -2.09,-2.805 0.653,-0.654c1.666,1.306 3.028,2.669 3.028,3.028c0,1.424 -1.421,0.508 -3.681,-2.374Z"/><path d="M311.863,169.557c0.045,-3.093 0.747,-5.623 1.554,-5.623c1.792,-0 1.707,3.156 -0.208,7.785c-1.162,2.808 -1.416,2.4 -1.346,-2.162Z"/><path d="M108.777,167.826c-2.152,-2.744 -2.09,-2.805 0.653,-0.653c1.666,1.306 3.028,2.668 3.028,3.027c0,1.424 -1.42,0.508 -3.681,-2.374Z"/><path d="M340.025,166.887c-0.741,-1.706 -0.861,-3.588 -0.268,-4.181c1.757,-1.757 3.173,0.711 2.365,4.12c-0.717,3.022 -0.811,3.025 -2.097,0.061Z"/><path d="M366.009,164.529c-0.729,-2.908 -0.305,-5.443 1.155,-6.903c1.923,-1.923 2.197,-1.158 1.649,4.595c-0.775,8.117 -1.248,8.507 -2.804,2.308Z"/><path d="M344.296,157.281c-0,-1.099 0.687,-1.998 1.528,-1.998c0.841,-0 1.952,-1.619 2.469,-3.597c0.673,-2.576 0.264,-3.338 -1.44,-2.683c-3.651,1.4 -1.039,-3.866 2.985,-6.019c4.125,-2.208 6.869,-0.221 2.823,2.044c-1.617,0.904 -2.501,2.939 -2.042,4.696c0.459,1.758 -0.734,4.497 -2.756,6.328c-1.988,1.798 -3.567,2.342 -3.567,1.229Z"/><path d="M481.841,157.013c0.588,-0.952 1.413,-1.73 1.833,-1.73c0.419,-0 0.762,0.778 0.762,1.73c0,0.951 -0.824,1.73 -1.832,1.73c-1.008,-0 -1.351,-0.779 -0.763,-1.73Z"/><path d="M400.613,154.813c0.464,-1.21 2.581,-3.259 4.703,-4.553c3.681,-2.244 3.666,-2.142 -0.334,2.2c-4.684,5.083 -5.608,5.581 -4.369,2.353Z"/><path d="M309.693,153.552c0,-0.951 0.779,-1.73 1.73,-1.73c0.952,0 1.731,0.779 1.731,1.73c-0,0.952 -0.779,1.731 -1.731,1.731c-0.951,-0 -1.73,-0.779 -1.73,-1.731Z"/><path d="M355.683,146.36c2.125,-4.111 2.239,-5.688 0.555,-7.716c-1.164,-1.403 -3.253,-2.114 -4.642,-1.58c-1.83,0.702 -2.284,0.044 -1.646,-2.401c0.772,-2.949 0.351,-3.168 -3.364,-1.756c-6.887,2.619 -8.959,1.929 -12.04,-4.009c-1.606,-3.092 -3.247,-4.649 -3.649,-3.46c-0.401,1.19 -1.879,2.163 -3.284,2.163c-1.404,-0 -2.157,-0.64 -1.674,-1.422c0.483,-0.782 -0.211,-3.522 -1.543,-6.09c-2.026,-3.904 -2.931,-8.358 -4.189,-20.603c-0.314,-3.061 -5.562,-0.936 -7.344,2.974c-1.07,2.349 -2.554,3.895 -3.298,3.435c-2.09,-1.292 -3.637,5.419 -3.135,13.595c0.25,4.063 -0.127,8.328 -0.838,9.479c-0.712,1.151 -0.8,2.89 -0.198,3.865c0.602,0.975 0.129,1.559 -1.051,1.298c-2.625,-0.581 -7.664,-5.245 -9.159,-8.478c-0.605,-1.308 -0.775,-0.623 -0.377,1.522c0.56,3.013 -0.26,4.147 -3.605,4.986c-3.195,0.802 -3.72,1.465 -2.003,2.531c1.819,1.129 1.386,2.308 -1.979,5.394c-2.368,2.173 -3.341,2.821 -2.162,1.441c3.13,-3.664 2.62,-6.096 -0.702,-3.339c-6.48,5.377 -0.132,-5.838 7.839,-13.852c4.474,-4.497 9.415,-10.858 10.981,-14.135c1.565,-3.277 6.848,-10.435 11.74,-15.906c4.892,-5.472 8.147,-9.948 7.234,-9.948c-1.665,-0 -12.417,12.275 -18.069,20.629c-1.659,2.451 -3.022,3.725 -3.028,2.829c-0.006,-0.895 -1.154,-0.117 -2.551,1.73c-1.397,1.848 -2.565,2.501 -2.596,1.452c-0.07,-2.377 23.779,-30.101 25.892,-30.101c0.849,0 5.31,-3.825 9.912,-8.501c9.554,-9.706 17.431,-12.218 28.196,-8.993c11.485,3.441 18.029,14.446 22.236,37.394c2.294,12.507 0.648,19.849 -6.731,30.036c-2.852,3.937 -4.402,7.159 -3.445,7.159c0.958,-0 1.741,0.869 1.741,1.932c0,1.08 -1.526,1.532 -3.462,1.026c-1.905,-0.498 -3.027,-0.199 -2.493,0.664c0.533,0.862 -0.054,1.58 -1.296,1.595c-1.804,0.018 -1.787,0.328 0.08,1.514c2.8,1.774 1.504,2.699 -7.073,5.046l-6.456,1.767l2.676,-5.166Zm15.699,-29.983c-1.628,-3.503 -2.117,-3.744 -2.632,-1.297c-0.348,1.653 -1.516,3.663 -2.595,4.466c-1.218,0.906 -0.813,1.091 1.065,0.487c1.665,-0.536 3.028,-0.173 3.028,0.805c-0,0.977 0.705,1.342 1.567,0.809c0.901,-0.557 0.717,-2.796 -0.433,-5.27Zm-11.37,-7.324c1.427,-3.754 1.234,-5.112 -0.958,-6.715c-3.682,-2.692 -12.093,-1.871 -15.475,1.511c-3.73,3.73 -1.654,8.717 3.128,7.516c2.02,-0.506 4.835,-0.187 6.254,0.71c4.002,2.53 5.123,2.049 7.051,-3.022Zm2.182,27.989c-0.563,-1.468 -1.395,-2.299 -1.849,-1.845c-0.453,0.453 -0.312,1.655 0.316,2.67c1.706,2.76 2.703,2.224 1.533,-0.825Zm-21.222,-21.578c1.581,-0.018 1.796,-0.481 0.602,-1.298c-1.021,-0.699 -2.378,-2.683 -3.015,-4.409c-0.638,-1.725 -1.975,-2.633 -2.971,-2.017c-1.176,0.727 -1.47,-0.6 -0.837,-3.783c0.837,-4.215 0.741,-4.378 -0.686,-1.158c-0.913,2.06 -2.986,4.487 -4.608,5.395c-1.692,0.947 -2.406,2.528 -1.674,3.711c0.918,1.486 1.937,1.188 3.648,-1.069c1.539,-2.03 2.393,-2.335 2.429,-0.867c0.027,1.246 0.834,1.784 1.785,1.196c0.952,-0.588 1.73,-0.245 1.73,0.763c0,1.007 -1.168,1.832 -2.595,1.832c-1.504,-0 -2.595,1.567 -2.595,3.728c-0,3.503 0.192,3.555 3.164,0.866c1.74,-1.575 4.27,-2.876 5.623,-2.89Zm1.594,-19.005c-0,-3.293 1.667,-4.216 6.488,-3.59c3.392,0.44 2.53,-3.013 -1.259,-5.04c-2.791,-1.494 -3.235,-1.346 -2.41,0.804c0.967,2.521 -0.905,3.406 -5.847,2.764c-2.251,-0.292 -3.024,5.354 -1.009,7.369c2.193,2.193 4.037,1.14 4.037,-2.307Zm20.762,34.39c-0,-1.414 0.65,-1.402 2.392,0.045c1.849,1.533 2.629,1.373 3.427,-0.706c0.685,-1.787 -0.433,-3.36 -3.325,-4.678c-3,-1.367 -3.999,-2.833 -3.204,-4.705c2.267,-5.342 2.814,-10.505 1.113,-10.505c-0.952,-0 -2.137,1.557 -2.635,3.46c-0.498,1.903 -2.062,3.46 -3.477,3.46c-4.698,0 -4.903,5.16 -0.288,7.262c3.071,1.399 4.026,2.882 3.31,5.138c-0.554,1.744 -0.176,3.171 0.84,3.171c1.016,0 1.847,-0.873 1.847,-1.942Zm10.38,-45.636c0,-1.428 -0.778,-2.595 -1.73,-2.595c-0.951,-0 -1.73,1.167 -1.73,2.595c-0,1.427 0.779,2.595 1.73,2.595c0.952,-0 1.73,-1.168 1.73,-2.595Zm-6.437,-6.124c-0.508,-1.941 -1.309,-3.143 -1.782,-2.67c-0.936,0.936 0.718,6.199 1.947,6.199c0.417,-0 0.342,-1.588 -0.165,-3.529Zm-62.768,48.697c-0,-0.849 -1.128,-1.978 -2.507,-2.507c-1.676,-0.643 -2.188,-0.13 -1.545,1.545c1.05,2.737 4.052,3.449 4.052,0.962Z"/><path d="M308.1,143.893c0.08,-2.016 0.493,-2.426 1.045,-1.045c0.5,1.249 0.439,2.741 -0.136,3.316c-0.575,0.575 -0.984,-0.448 -0.909,-2.271Z"/><path d="M423.882,135.599c-0,-0.36 1.362,-1.722 3.028,-3.028c2.744,-2.152 2.805,-2.091 0.653,0.653c-2.261,2.882 -3.681,3.798 -3.681,2.375Z"/><path d="M444.182,129.116c1.174,-1.182 2.57,-1.714 3.102,-1.181c0.533,0.532 -0.427,1.5 -2.133,2.15c-2.466,0.939 -2.665,0.74 -0.969,-0.969Z"/><path d="M434.471,122.41c3.058,-3.806 6.015,-6.925 6.569,-6.932c0.555,-0.006 2.832,-2.69 5.061,-5.963c4.104,-6.028 3.846,-9.596 -0.695,-9.596c-1.371,-0 -2.493,-1.047 -2.493,-2.327c0,-3.783 6.317,-8.377 10.671,-7.76c3.306,0.468 4.068,1.665 4.217,6.627c0.16,5.317 -1.422,7.687 -12.976,19.435c-14.209,14.449 -19.308,17.658 -10.354,6.516Z"/><path d="M449.834,124.455c-0,-2.091 3.282,-4.529 4.482,-3.329c0.436,0.436 -0.395,1.777 -1.845,2.98c-1.644,1.365 -2.637,1.496 -2.637,0.349Z"/><path d="M424.852,111.428c2.582,-4.091 2.744,-5.515 0.95,-8.387c-2.649,-4.242 -2.034,-5.01 2.962,-3.704c4.804,1.257 3.738,6.325 -2.67,12.693l-4.352,4.325l3.11,-4.927Z"/><path d="M186.088,107.559c-1.846,-1.349 -2.623,-2.441 -1.727,-2.427c2.391,0.036 6.853,3.111 5.9,4.063c-0.45,0.45 -2.327,-0.286 -4.173,-1.636Z"/><path d="M398.276,96.109c-5.23,-5.23 -0.314,-14.816 6.491,-12.656c4.756,1.509 4.891,10.429 0.197,12.941c-4.171,2.232 -4.171,2.232 -6.688,-0.285Z"/><path d="M446.94,82.509c0.338,-2.219 1.518,-4.335 2.62,-4.702c2.921,-0.974 2.453,4.014 -0.616,6.561c-2.228,1.849 -2.527,1.571 -2.004,-1.859Z"/><path d="M427.342,71.516c0,-1.507 1.233,-2.74 2.74,-2.74c1.506,0 2.431,0.925 2.054,2.055c-1.069,3.208 -4.794,3.74 -4.794,0.685Z"/></svg>