<?xml version="1.0" encoding="UTF-8" standalone="no"?><!DOCTYPE svg PUBLIC "-//W3C//DTD SVG 1.1//EN" "http://www.w3.org/Graphics/SVG/1.1/DTD/svg11.dtd"><svg width="100%" height="100%" viewBox="0 0 535 563" version="1.1" xmlns="http://www.w3.org/2000/svg" xmlns:xlink="http://www.w3.org/1999/xlink" xml:space="preserve" xmlns:serif="http://www.serif.com/" style="fill-rule:evenodd;clip-rule:evenodd;stroke-linejoin:round;stroke-miterlimit:2;"><path d="M282.156,527.476c1.249,-0.499 2.741,-0.438 3.316,0.137c0.575,0.575 -0.447,0.983 -2.271,0.908c-2.016,-0.079 -2.426,-0.492 -1.045,-1.045Z"/><path d="M262.902,516.078c-6.605,-6.698 -13.678,-12.007 -18.485,-13.874c-19.699,-7.649 -30.082,-14.094 -33.436,-20.751c-1.813,-3.601 -5.537,-7.706 -8.275,-9.121c-4.92,-2.545 -5.927,-6.011 -2.233,-7.689c1.216,-0.552 0.746,-2.07 -1.297,-4.195c-3.142,-3.268 -3.203,-3.22 -3.203,2.508c0,7.617 -3.612,4.481 -3.834,-3.328c-0.086,-3.019 -0.947,-5.978 -1.915,-6.576c-1.061,-0.656 -1.321,0.053 -0.654,1.792c0.607,1.583 0.375,2.879 -0.517,2.879c-0.892,-0 -1.173,1.168 -0.626,2.595c1.596,4.159 -0.443,3 -3.803,-2.163c-3.007,-4.622 -3.004,-4.683 0.125,-2.162c2.936,2.365 3.116,2.314 2.033,-0.574c-0.654,-1.743 -1.189,-3.541 -1.189,-3.995c-0,-0.455 -0.779,-0.345 -1.73,0.243c-2.389,1.477 -2.224,0.691 1.736,-8.26c4.329,-9.788 5.032,-21.769 1.433,-24.421c-1.435,-1.057 -2.237,-3.024 -1.783,-4.373c0.561,-1.669 -0.772,-1.316 -4.174,1.102l-4.998,3.555l-3.028,-4.023c-3.765,-5.004 -3.954,-7.142 -0.309,-3.496c3.558,3.557 9.392,3.519 9.392,-0.062c0,-1.717 -0.958,-2.413 -2.507,-1.818c-1.637,0.628 -2.188,0.13 -1.587,-1.436c0.54,-1.406 2.114,-1.951 3.805,-1.318c2.404,0.9 2.527,0.638 0.737,-1.566c-1.181,-1.455 -1.672,-3.121 -1.092,-3.702c0.581,-0.581 -0.171,-2.284 -1.671,-3.784c-1.5,-1.5 -2.288,-3.873 -1.751,-5.273c0.917,-2.389 -1.87,-3.287 -9.342,-3.009c-1.189,0.044 -2.175,-1.196 -2.189,-2.756c-0.021,-2.213 -0.348,-2.329 -1.49,-0.528c-1.169,1.845 -1.682,1.736 -2.556,-0.542c-0.601,-1.567 -1.869,-2.371 -2.816,-1.785c-1.025,0.633 -1.268,-0.12 -0.599,-1.863c0.941,-2.454 1.429,-2.538 3.008,-0.523c2.126,2.715 7.94,3.702 7.94,1.348c-0,-0.846 0.778,-1.538 1.73,-1.538c0.951,0 1.73,1.122 1.73,2.493c-0,1.372 0.769,2.969 1.71,3.551c0.981,0.605 1.271,-0.089 0.68,-1.629c-0.567,-1.476 -0.168,-2.685 0.885,-2.685c1.053,0 1.915,1.298 1.915,2.884c0,1.586 0.461,2.423 1.023,1.861c1.686,-1.686 -1.071,-8.166 -3.291,-7.737c-1.342,0.259 -1.962,-1.954 -1.784,-6.367c0.197,-4.896 -0.2,-6.09 -1.438,-4.325c-1.23,1.754 -1.422,1.117 -0.684,-2.273c0.786,-3.607 0.454,-4.492 -1.415,-3.775c-1.343,0.516 -3.084,-0.09 -3.868,-1.344c-1.531,-2.446 -1.645,-3 -2.257,-10.931c-0.22,-2.855 -0.793,-4.217 -1.273,-3.028c-0.48,1.19 -2.17,2.151 -3.756,2.136c-2.278,-0.017 -2.39,-0.339 -0.536,-1.513c1.663,-1.054 1.781,-1.838 0.404,-2.689c-1.068,-0.66 -1.519,-1.886 -1.001,-2.724c0.518,-0.838 -0.637,-2.369 -2.567,-3.402c-3.006,-1.608 -3.509,-1.358 -3.509,1.746c0,1.992 0.779,3.142 1.73,2.554c3.822,-2.363 1.43,0.664 -2.625,3.32l-4.355,2.854l1.158,-7.245c0.851,-5.318 0.621,-6.913 -0.863,-5.995c-1.112,0.687 -1.624,1.892 -1.138,2.678c0.486,0.786 -0.28,1.876 -1.702,2.422c-1.422,0.545 -2.678,2.768 -2.79,4.939c-0.168,3.243 -0.4,3.052 -1.298,-1.072l-1.093,-5.018l-6.544,7.248c-3.599,3.987 -7.209,6.838 -8.022,6.336c-0.813,-0.503 -2.44,0.246 -3.616,1.662c-1.176,1.417 -3.134,2.577 -4.352,2.577c-1.218,-0 -2.988,2.219 -3.934,4.932c-1.596,4.58 -1.423,4.901 2.426,4.478c4.58,-0.503 5.635,1.759 1.551,3.326c-3.882,1.49 -3.132,4.381 0.865,3.336c4.124,-1.078 4.585,2.081 0.849,5.817c-1.436,1.436 -2.219,3.246 -1.74,4.021c1.355,2.193 -4.486,3.771 -6.812,1.84c-1.497,-1.242 -2.88,-0.035 -4.971,4.355c-1.594,3.341 -2.897,7.418 -2.897,9.06c-0,1.642 -1.558,3.958 -3.461,5.147c-4.054,2.531 -4.396,0.918 -0.81,-3.822c1.397,-1.847 2.517,-4.183 2.488,-5.191c-0.03,-1.007 -0.954,-0.274 -2.055,1.629c-1.101,1.903 -3.9,4.956 -6.22,6.784c-3.887,3.064 -3.987,3.494 -1.269,5.481c2.372,1.735 2.572,2.862 1.022,5.759c-2.236,4.177 -8.286,4.706 -13.149,1.15c-2.584,-1.889 -3.916,-1.989 -5.805,-0.432c-2.105,1.734 -2.12,1.409 -0.111,-2.306c1.287,-2.379 2.452,-5.493 2.59,-6.92c0.588,-6.114 2.99,-10.281 6.539,-11.349c4.281,-1.287 15.05,-10.934 15.05,-13.481c0,-0.912 -1.557,-0.25 -3.46,1.473c-1.903,1.722 -3.46,2.259 -3.46,1.194c-0,-2.348 6.037,-5.826 7.527,-4.336c1.417,1.417 7.985,-13.227 7.904,-17.62c-0.042,-2.247 -1.393,-0.77 -3.855,4.213c-2.649,5.363 -5.227,8.054 -8.56,8.937c-2.84,0.752 -4.366,0.61 -3.771,-0.352c1.7,-2.751 -9.95,-6.691 -13.757,-4.653c-2.725,1.458 -3.124,1.276 -2.241,-1.023c1.32,-3.441 -0.348,-3.492 -4.772,-0.146c-1.847,1.397 -4.572,2.539 -6.056,2.537c-1.483,-0.001 0.029,-1.365 3.359,-3.031c5.07,-2.537 5.97,-3.829 5.532,-7.941c-0.385,-3.626 0.068,-4.578 1.731,-3.635c1.809,1.025 1.827,0.818 0.09,-1.053c-2.582,-2.782 -2.885,-5.749 -0.433,-4.233c0.952,0.588 1.73,-0.121 1.73,-1.574c0,-1.639 -0.986,-2.265 -2.595,-1.647c-5.354,2.054 -1.22,-14.822 4.868,-19.87c4.117,-3.415 18.231,-2.726 27.75,1.355c9.245,3.963 15.65,2.603 13.868,-2.945c-0.735,-2.288 -0.566,-2.445 0.71,-0.66c2.178,3.047 9.033,-0.307 9.033,-4.421c0,-1.552 0.498,-2.325 1.106,-1.717c0.607,0.607 3.392,-0.82 6.188,-3.172c2.795,-2.353 5.802,-4.277 6.68,-4.277c0.879,-0 1.598,-1.202 1.598,-2.671c-0,-1.469 0.973,-2.545 2.162,-2.39c4.533,0.588 6.115,-0.243 7.015,-3.689c0.751,-2.87 0.47,-3.176 -1.452,-1.581c-3.449,2.863 -6.656,0.364 -3.537,-2.756c3.169,-3.168 5.225,-3.14 7.923,0.111c1.184,1.428 2.837,2.595 3.672,2.595c2.709,0 1.603,-4.968 -1.51,-6.782c-1.868,-1.088 -2.16,-1.783 -0.763,-1.816c1.246,-0.026 1.784,-0.831 1.196,-1.782c-0.588,-0.952 -0.089,-1.731 1.109,-1.731c1.599,0 1.666,-0.512 0.253,-1.925c-2.436,-2.436 -5.836,-0.474 -4.629,2.671c0.499,1.301 -0.073,2.971 -1.271,3.711c-1.219,0.754 -2.463,0.493 -2.825,-0.592c-0.356,-1.067 -1.634,-1.561 -2.842,-1.097c-1.207,0.463 -2.195,-0.393 -2.195,-1.902c0,-1.747 0.996,-2.402 2.74,-1.801c1.506,0.518 0.859,-0.651 -1.439,-2.597c-2.298,-1.946 -5.153,-3.165 -6.345,-2.708c-1.191,0.457 -2.611,-0.327 -3.155,-1.744c-0.62,-1.616 -0.268,-2.13 0.946,-1.38c1.17,0.723 1.604,0.245 1.099,-1.208c-0.46,-1.322 -2.197,-2.157 -3.859,-1.855c-1.792,0.325 -2.557,-0.203 -1.881,-1.298c0.628,-1.015 0.317,-1.845 -0.691,-1.845c-1.008,-0 -1.832,-0.909 -1.832,-2.019c-0,-1.11 0.486,-1.532 1.079,-0.939c0.594,0.594 2.401,-0.551 4.014,-2.543l2.934,-3.623l3.676,4.674c3.015,3.832 4.28,4.351 7.029,2.879c1.844,-0.986 3.828,-3.034 4.41,-4.55c0.817,-2.13 0.276,-2.508 -2.381,-1.665c-2.667,0.847 -3.199,0.468 -2.37,-1.692c0.587,-1.53 1.478,-2.372 1.98,-1.87c0.502,0.502 1.868,-0.393 3.036,-1.99c1.573,-2.151 1.617,-3.376 0.171,-4.731c-2.215,-2.075 -13.03,-2.396 -16.08,-0.477c-1.11,0.698 -4.208,0.436 -6.885,-0.582c-3.015,-1.146 -5.077,-1.221 -5.418,-0.195c-0.304,0.91 -2.071,1.257 -3.929,0.771c-2.248,-0.588 -3.377,-0.009 -3.377,1.729c-0,1.436 -1.168,3.06 -2.595,3.608c-1.428,0.547 -2.596,2.173 -2.596,3.612c0,3.324 -7.953,5.415 -10.995,2.891c-1.264,-1.05 -2.811,-1.396 -3.437,-0.77c-3.23,3.23 -0.53,-3.357 3.186,-7.773c5.236,-6.223 5.503,-7.988 0.83,-5.487c-1.923,1.029 -4.259,1.4 -5.191,0.824c-0.932,-0.576 -1.694,-0.28 -1.694,0.658c0,0.938 1.363,2.061 3.028,2.496c2.278,0.596 2.064,0.841 -0.865,0.992c-2.141,0.111 -3.699,1.174 -3.461,2.364c0.238,1.189 -0.735,2.162 -2.162,2.162c-1.747,0 -2.484,-1.519 -2.256,-4.649c0.227,-3.107 -0.634,-4.905 -2.595,-5.422c-2.681,-0.706 -2.673,-0.791 0.093,-0.974c3.727,-0.247 4.006,-4.645 0.382,-6.036c-1.903,-0.73 -2.935,0.432 -3.676,4.14c-0.568,2.836 -1.713,5.156 -2.545,5.156c-1.995,-0 -1.91,-1.219 0.385,-5.506c1.493,-2.79 1.295,-4.152 -0.928,-6.375c-2.489,-2.488 -3.022,-2.516 -4.468,-0.23c-1.419,2.245 -1.644,2.209 -1.667,-0.267c-0.017,-1.778 -4.283,-5.002 -11.255,-8.505c-6.176,-3.104 -13.591,-8.239 -16.479,-11.411c-2.913,-3.202 -6.962,-5.781 -9.1,-5.796c-2.93,-0.017 -3.267,-0.396 -1.412,-1.57c3.207,-2.03 7.199,-0.391 11.123,4.567c4.097,5.178 13.255,10.1 13.255,7.124c0,-1.157 1.153,-0.593 2.563,1.254c2.095,2.745 2.849,2.922 4.136,0.967c1.246,-1.893 1.818,-1.623 2.745,1.297c1.058,3.335 2.088,3.998 5.502,3.541c0.607,-0.079 1.775,0.892 2.595,2.163c1.225,1.899 1.781,1.858 3.122,-0.227c1.007,-1.566 1.015,-3.279 0.021,-4.477c-1.078,-1.299 -0.188,-2.7 2.694,-4.243c2.368,-1.267 4.304,-2.926 4.304,-3.687c0,-0.761 1.164,-0.937 2.586,-0.391c1.422,0.545 2.154,1.689 1.628,2.541c-0.527,0.852 0.451,1.61 2.172,1.685c2.435,0.106 2.554,0.356 0.535,1.125c-5.012,1.907 -6.918,7.389 -2.57,7.389c1.442,0 4.081,-2.4 5.865,-5.334c1.925,-3.165 3.714,-4.572 4.402,-3.46c1.903,3.08 5.831,2.126 7.049,-1.712c0.669,-2.109 2.119,-3.209 3.521,-2.67c1.311,0.503 2.918,0.053 3.571,-1.008c0.72,-1.164 0.4,-1.435 -0.809,-0.687c-2.6,1.607 -2.532,1.001 0.785,-6.938l2.783,-6.661l-5.745,-4.796c-3.16,-2.638 -6.59,-4.797 -7.622,-4.797c-2.331,0 -13.599,-11.642 -16.216,-16.755c-1.064,-2.078 -1.917,-5.192 -1.897,-6.92c0.022,-1.728 1.494,0.062 3.272,3.98c2.79,6.142 9.205,12.53 17.019,16.947c4.91,2.775 1.706,-0.712 -3.754,-4.087c-5.95,-3.677 -13.114,-13.703 -13.114,-18.35c-0,-1.373 -0.878,-2.497 -1.952,-2.497c-3.132,0 -0.171,-13.731 4.784,-22.187c2.9,-4.948 5.235,-7.155 6.897,-6.517c1.382,0.53 2.978,-0.249 3.547,-1.731c0.731,-1.905 2.359,-2.388 5.557,-1.648c2.564,0.592 3.613,0.434 2.423,-0.368c-1.511,-1.017 -0.668,-2.766 2.999,-6.228c2.805,-2.647 5.73,-4.424 6.5,-3.948c0.769,0.475 1.585,-1.571 1.812,-4.548c0.55,-7.225 2.035,-8.435 2.035,-1.659c0,2.957 0.709,5.815 1.574,6.35c2.275,1.406 7.18,-0.817 6.903,-3.128c-0.563,-4.692 0.289,-9.752 1.641,-9.752c0.807,0 2.864,3.097 4.571,6.883c1.707,3.785 4.938,8.084 7.179,9.552l4.075,2.67l-3.258,-7.39c-1.793,-4.064 -4.573,-10.456 -6.179,-14.205c-1.947,-4.542 -3.366,-6.094 -4.256,-4.654c-0.956,1.546 -2.183,0.868 -4.313,-2.384c-2.34,-3.571 -2.537,-5.076 -0.92,-7.024c2.399,-2.891 6.824,-3.311 6.824,-0.647c0,1.007 -0.697,1.401 -1.549,0.875c-0.851,-0.526 -1.965,0.129 -2.475,1.457c-0.587,1.53 0.104,2.263 1.888,2.002c1.547,-0.227 3.124,-1.344 3.503,-2.481c0.923,-2.768 18.095,-18.919 25.373,-23.865c3.198,-2.173 9.195,-4.478 13.326,-5.124c4.132,-0.646 8.085,-2.029 8.784,-3.074c0.899,-1.344 1.279,-1.307 1.298,0.129c0.03,2.303 7.649,4.931 18.959,6.541c10.929,1.555 23.29,8.849 32.998,19.471c4.603,5.037 8.815,9.157 9.361,9.157c2.62,0 0.389,-6.288 -5.399,-15.222c-3.515,-5.425 -6.583,-10.995 -6.818,-12.376c-0.596,-3.501 -7.149,-8.236 -15.337,-11.082c-18.734,-6.511 -19.667,-6.661 -23.729,-3.815c-6.021,4.217 -7.277,3.173 -1.887,-1.569c3.196,-2.812 3.968,-4.279 2.259,-4.295c-1.427,-0.009 -4.429,1.908 -6.67,4.271c-2.272,2.395 -6.034,4.295 -8.506,4.295c-3.975,0 -4.178,-2.276 -0.251,-2.811c0.872,-0.119 2.243,-0.314 3.047,-0.433c0.803,-0.118 3.723,-2.161 6.488,-4.539c6.015,-5.173 8.219,-5.369 12.312,-1.097c1.703,1.777 6.21,4.199 10.016,5.382c14.093,4.382 29.21,16.268 29.491,23.189c0.043,1.065 1.074,1.722 2.291,1.461c1.217,-0.262 1.806,0.182 1.309,0.987c-0.497,0.804 0.802,4.132 2.887,7.396l3.792,5.933l0.562,-5.742c1.358,-13.854 25.933,-32.858 39.347,-30.426c6.33,1.148 19.556,10.774 22.424,16.32c1.409,2.725 2.369,6.704 2.134,8.841c-0.346,3.132 0.985,4.419 6.861,6.63c4.009,1.509 9.515,4.876 12.236,7.482l4.945,4.738l4.614,-8.62l3.679,4.281c4.361,5.075 5.64,5.314 6.701,1.254c0.436,-1.665 0.882,-0.154 0.992,3.358c0.111,3.512 1.06,6.917 2.111,7.566c1.254,0.775 1.573,5.246 0.929,13.016c-0.569,6.858 -0.281,12.268 0.685,12.864c0.916,0.567 1.666,2.671 1.666,4.677c0,2.005 0.507,3.139 1.127,2.52c0.62,-0.619 2.152,0.224 3.405,1.874c1.402,1.846 2.3,2.168 2.334,0.838c0.03,-1.189 0.861,-2.162 1.846,-2.162c1.214,-0 1.195,1.114 -0.061,3.46c-2.55,4.764 -0.345,4.338 4.477,-0.866c4.847,-5.23 5.865,-5.418 4.675,-0.865c-0.506,1.934 -0.053,3.46 1.027,3.46c1.062,0 1.932,-1.214 1.932,-2.697c-0,-4.462 2.704,-1.376 5.066,5.782c1.893,5.736 2.947,6.719 7.199,6.719c3.776,0 4.549,-0.521 3.194,-2.153c-1.231,-1.483 -1.221,-2.502 0.032,-3.276c1.268,-0.784 1.271,-2.149 0.01,-4.506c-1.421,-2.655 -1.199,-3.615 1.035,-4.472c1.587,-0.609 3.59,-0.027 4.532,1.323c1.306,1.87 1.886,1.924 2.568,0.241c0.485,-1.195 1.627,-1.712 2.539,-1.148c0.912,0.563 2.6,0.243 3.75,-0.712c1.426,-1.183 3.087,-1.008 5.218,0.55c3.196,2.337 1.112,5.574 -2.251,3.496c-1,-0.618 -1.259,0.119 -0.622,1.778c0.816,2.128 0.231,2.69 -2.35,2.252c-3.495,-0.592 -9.159,2.924 -9.159,5.685c0,0.836 1.214,1.519 2.698,1.519c1.483,-0 2.261,-0.706 1.727,-1.569c-0.533,-0.863 1.951,-0.701 5.521,0.36c3.57,1.062 7.113,2.935 7.874,4.164c0.761,1.229 2.318,2.223 3.46,2.208c1.381,-0.018 1.274,-0.535 -0.319,-1.544c-1.89,-1.197 -1.524,-1.983 1.73,-3.717c3.516,-1.874 3.836,-1.838 2.163,0.246c-2.246,2.798 -0.147,10.232 2.889,10.232c1.115,-0 1.448,1.432 0.804,3.46c-0.779,2.455 -0.31,3.46 1.614,3.46c1.491,0 2.712,0.815 2.712,1.81c-0,1.831 17.137,1.226 25.952,-0.915c2.379,-0.578 8.413,-1.514 13.408,-2.08c7.901,-0.895 9.083,-0.633 9.083,2.01c0,2.292 -1.041,2.84 -4.239,2.228c-2.332,-0.445 -4.084,-0.053 -3.893,0.87c0.192,0.928 -3.912,1.665 -9.169,1.647c-21.591,-0.071 -35.42,15.415 -21.173,23.716c2.65,1.544 2.673,1.758 0.191,1.804c-1.549,0.027 -3.785,-1.115 -4.97,-2.542c-2.85,-3.434 -6.361,-3.289 -8.396,0.349c-1.015,1.813 -4.204,3.122 -8.304,3.408c-13.255,0.925 -15.328,1.483 -16.549,4.461c-0.683,1.665 -2.073,3.028 -3.089,3.028c-1.265,-0 -1.219,-1.225 0.147,-3.893c1.835,-3.584 1.766,-3.678 -0.862,-1.179c-1.907,1.813 -2.992,6.122 -3.27,12.976c-0.229,5.644 -0.977,11.154 -1.663,12.243c-0.686,1.09 -0.181,2.391 1.123,2.891c2.838,1.089 6.616,-6.257 5.164,-10.042c-0.552,-1.438 -0.142,-2.615 0.911,-2.615c1.054,-0 1.969,1.362 2.035,3.027c0.065,1.665 0.406,5.208 0.756,7.872c0.499,3.79 -0.281,5.263 -3.579,6.766c-2.319,1.057 -4.217,2.621 -4.217,3.476c0,0.855 -0.666,1.143 -1.48,0.64c-0.814,-0.504 -1.08,1.18 -0.59,3.741c0.754,3.947 1.159,4.23 2.656,1.856c1.404,-2.226 2.588,-2.425 5.781,-0.97c2.207,1.006 4.014,2.4 4.014,3.098c-0,0.698 1.88,1.157 4.177,1.02c3.219,-0.192 3.749,-0.765 2.311,-2.499c-1.37,-1.652 -1.118,-2.997 0.95,-5.065c2.537,-2.536 2.919,-2.547 3.856,-0.104c0.623,1.623 2.336,2.372 4.272,1.866c2.637,-0.69 3.043,-0.128 2.21,3.059c-0.863,3.302 -0.464,3.759 2.583,2.963c2.604,-0.682 3.346,-0.272 2.676,1.476c-0.668,1.739 -0.061,2.086 2.16,1.234c2.436,-0.935 2.842,-0.544 1.922,1.852c-0.641,1.67 -1.165,4.626 -1.165,6.568c-0,2.532 -0.611,3.074 -2.163,1.915c-4.375,-3.269 -7.356,-1.587 -7.272,4.104c0.046,3.123 -0.643,5.06 -1.591,4.474c-0.979,-0.605 -1.192,0.22 -0.514,1.987c0.638,1.661 1.159,4.125 1.159,5.474c0,1.35 1.474,2.454 3.275,2.454c1.802,-0 3.692,1.085 4.201,2.411c1.108,2.889 -5.736,9.58 -8.694,8.497c-1.193,-0.437 -2.789,1.69 -3.736,4.978c-1.163,4.034 -1.701,4.638 -1.81,2.033c-0.086,-2.039 -1.365,-4.172 -2.841,-4.738c-1.841,-0.707 -2.263,-0.357 -1.341,1.112c0.739,1.179 1.12,3.506 0.846,5.171c-0.274,1.665 0.135,3.028 0.908,3.029c2.099,0.002 2.238,9.185 0.177,11.677c-1.238,1.496 -1.222,2.163 0.05,2.163c1.012,-0 2.321,-0.779 2.91,-1.731c0.588,-0.951 1.996,-1.668 3.129,-1.593c1.486,0.098 1.458,0.38 -0.102,1.009c-1.189,0.48 -2.162,1.927 -2.162,3.216c-0,1.289 -1.558,2.227 -3.461,2.083c-1.903,-0.143 -3.46,-0.957 -3.46,-1.808c0,-0.851 -1.362,-1.006 -3.028,-0.346c-1.665,0.66 -5.456,1.517 -8.424,1.904c-4.25,0.553 -5.394,0.062 -5.386,-2.313c0.022,-6.069 -0.502,-7.521 -2.311,-6.403c-1.017,0.628 -1.43,2.231 -0.92,3.562c0.546,1.422 -0.16,2.42 -1.714,2.42c-1.557,0 -2.136,0.82 -1.408,1.997c0.802,1.299 0.47,1.526 -0.949,0.649c-1.623,-1.004 -1.866,-0.352 -0.947,2.544c0.842,2.653 0.625,3.517 -0.68,2.71c-1.18,-0.729 -1.915,0.286 -1.915,2.647c0,3.668 -0.141,3.703 -3.323,0.824c-3.165,-2.865 -3.409,-2.845 -5.16,0.427c-1.559,2.913 -1.357,3.308 1.335,2.604c3.919,-1.025 8.878,3.666 8.878,8.397c0,1.936 -1.9,5.015 -4.223,6.842c-2.323,1.827 -4.711,4.859 -5.307,6.737c-0.688,2.167 -2.622,3.415 -5.293,3.415c-2.314,0 -4.208,0.615 -4.208,1.366c-0,0.751 2.141,1.335 4.758,1.298c3.059,-0.045 4.588,0.749 4.282,2.223c-0.263,1.266 0.362,1.773 1.396,1.134c1.03,-0.636 3.932,-1.383 6.449,-1.659c4.035,-0.443 4.228,-0.247 1.632,1.651c-4.67,3.414 -3.696,6.661 1.598,5.333c3.706,-0.93 4.348,-0.629 3.48,1.632c-0.585,1.525 -0.409,2.368 0.391,1.874c0.801,-0.496 2.933,0.199 4.738,1.542c3.037,2.259 3.085,2.806 0.633,7.298c-3.062,5.61 -10.314,7.309 -13.714,3.213c-2.491,-3.003 -6.993,-3.616 -6.993,-0.953c0,0.952 0.696,1.73 1.545,1.73c0.85,0 1.994,1.168 2.541,2.595c0.603,1.572 0.007,2.596 -1.512,2.596c-1.379,-0 -2.996,-1.947 -3.593,-4.326c-0.597,-2.379 -1.833,-4.325 -2.745,-4.325c-0.932,-0 -1.119,1.701 -0.428,3.879c1.094,3.449 0.915,3.617 -1.614,1.518c-2.44,-2.025 -2.844,-1.962 -2.844,0.447c-0,2.428 1.73,3.456 5.269,3.13c2.438,-0.225 0.521,9.197 -1.968,9.676c-3.619,0.696 -8.194,-4.584 -5.444,-6.284c1.078,-0.666 1.36,-2.182 0.626,-3.369c-1.012,-1.638 -2.002,-1.418 -4.11,0.911c-1.528,1.687 -2.833,3.652 -2.901,4.366c-0.145,1.526 -7.043,8.659 -7.043,7.283c-0,-0.515 1.648,-3.165 3.664,-5.891c3.454,-4.672 3.214,-9.993 -0.352,-7.789c-0.901,0.557 -1.155,1.795 -0.564,2.752c1.306,2.112 -5.901,10.133 -9.105,10.133c-2.824,-0 -3.009,-2.814 -0.297,-4.491c1.31,-0.809 1.525,-0.469 0.625,0.988c-0.915,1.48 -0.571,1.958 1.03,1.431c1.322,-0.435 2.614,-3.066 2.872,-5.847c0.392,-4.238 0.168,-4.567 -1.384,-2.029c-1.018,1.665 -2.536,3.027 -3.372,3.027c-2.895,0 -6.958,-5.453 -6.958,-9.337c-0,-4.926 7.783,-12.771 9.313,-9.388c0.569,1.259 0.531,0.343 -0.086,-2.036c-0.617,-2.379 -1.128,-5.332 -1.137,-6.563c-0.009,-1.23 -0.901,-1.898 -1.981,-1.483c-1.081,0.415 -3.828,-1.182 -6.105,-3.548c-3.961,-4.116 -4.24,-4.164 -6.472,-1.111c-1.283,1.754 -2.708,2.936 -3.166,2.627c-1.615,-1.089 -5.057,0.97 -3.829,2.29c0.684,0.735 3.297,-0.009 5.808,-1.655c3.302,-2.163 5.087,-2.467 6.455,-1.099c1.368,1.368 1.317,1.891 -0.185,1.891c-1.142,0 -2.076,0.862 -2.076,1.915c-0,1.054 1.168,1.467 2.595,0.92c3.614,-1.387 7.786,0.5 7.786,3.522c-0,1.713 -1.081,2.184 -3.355,1.462c-2.392,-0.759 -3.966,0.08 -5.483,2.911c-1.17,2.187 -1.996,4.171 -1.835,4.409c0.16,0.237 0.195,0.822 0.076,1.297c-0.119,0.476 -0.314,1.644 -0.433,2.596c-0.119,0.951 -0.8,1.73 -1.514,1.73l-3.027,-0c-3.084,-0 -1.83,-5.016 1.73,-6.921c1.903,-1.018 3.46,-3.381 3.46,-5.251c0,-4.427 -2.914,-4.386 -4.325,0.062c-1.096,3.452 -4.326,4.865 -4.326,1.892c0,-0.863 -1.679,-1.129 -3.73,-0.593c-2.538,0.664 -3.339,0.341 -2.506,-1.007c0.795,-1.285 0.281,-1.62 -1.459,-0.952c-1.571,0.602 -2.685,3.108 -2.685,6.035c-0,4.833 1.583,6.306 4.087,3.802c2.817,-2.817 6.288,-1.808 6.157,1.789c-0.076,2.057 -0.53,2.767 -1.009,1.577c-1.289,-3.192 -4.024,-2.626 -4.182,0.866c-0.081,1.809 -0.488,2.157 -1.009,0.865c-0.48,-1.189 -1.632,-2.162 -2.561,-2.162c-0.928,-0 -1.24,0.724 -0.692,1.61c0.547,0.886 0.272,2.058 -0.611,2.604c-0.884,0.545 -1.405,-0.373 -1.159,-2.044c0.246,-1.669 -0.725,-3.894 -2.158,-4.944c-2.307,-1.69 -2.277,-2.378 0.265,-6.008c3.58,-5.111 3.623,-6.79 0.174,-6.79c-1.483,0 -2.216,0.779 -1.628,1.731c0.588,0.951 0.199,1.73 -0.865,1.73c-1.064,-0 -1.47,0.75 -0.904,1.667c1.124,1.819 -5.169,8.984 -6.618,7.535c-0.489,-0.49 -0.401,-2.176 0.197,-3.749c0.599,-1.572 -1.551,0.139 -4.776,3.804c-5.858,6.655 -5.861,6.666 -2.275,9.516c1.975,1.569 4.544,4.71 5.709,6.98c1.696,3.303 2.449,3.648 3.776,1.73c1.197,-1.731 1.366,-1.355 0.609,1.351c-1.377,4.92 1.964,6.837 5.825,3.342c1.68,-1.52 4.013,-2.764 5.184,-2.764c1.17,-0 1.744,-0.621 1.275,-1.38c-0.469,-0.76 -0.156,-2.507 0.695,-3.885c1.298,-2.1 1.997,-1.948 4.339,0.948c1.536,1.898 2.229,2.366 1.542,1.038c-0.968,-1.867 -0.183,-2.209 3.466,-1.511c3.586,0.685 5.015,0.099 5.955,-2.444c1.189,-3.214 1.37,-3.19 4.623,0.617c2.614,3.058 2.695,3.427 0.358,1.617c-2.647,-2.05 -3.028,-1.926 -3.028,0.981c0,1.83 -0.846,4.173 -1.881,5.207c-1.24,1.241 -1.287,2.248 -0.139,2.957c0.958,0.592 2.922,-0.104 4.366,-1.548c1.443,-1.443 3.036,-1.957 3.54,-1.141c0.504,0.816 -0.846,3.015 -3.001,4.888c-3.909,3.4 -3.922,3.399 -6.861,-0.497c-2.646,-3.508 -10.85,-5.381 -8.76,-2c0.475,0.77 1.586,0.953 2.468,0.408c0.881,-0.544 2.51,1 3.618,3.432c1.108,2.433 2.715,4.423 3.57,4.423c0.855,0 1.038,0.837 0.406,1.858c-0.718,1.161 -2.088,0.513 -3.66,-1.731c-1.382,-1.973 -3.368,-3.587 -4.413,-3.587c-1.129,0 -0.863,1.228 0.658,3.028c2.265,2.681 2.524,9.083 0.368,9.083c-0.449,0 -2.73,-1.913 -5.069,-4.252c-3.102,-3.101 -5.806,-4.129 -9.997,-3.799c-5.159,0.406 -5.668,0.044 -4.984,-3.534c0.428,-2.236 -0.086,-3.986 -1.17,-3.986c-1.062,-0 -1.931,-1.168 -1.931,-2.595c-0,-1.442 -1.538,-2.596 -3.461,-2.596c-1.903,0 -3.46,1.122 -3.46,2.494c0,7.278 -9.078,2.933 -11.154,-5.339c-1.309,-5.214 -4.743,-4.542 -6.36,1.244c-0.645,2.308 -1.25,3.287 -1.345,2.175c-0.095,-1.111 -0.694,-3.38 -1.331,-5.041c-0.822,-2.142 -0.534,-2.634 0.992,-1.691c1.614,0.998 1.584,0.419 -0.122,-2.311c-1.251,-2.003 -3.254,-3.641 -4.453,-3.641c-1.198,-0 -2.179,-0.909 -2.179,-2.019c0,-1.11 -0.469,-1.55 -1.041,-0.977c-0.573,0.573 0.205,2.822 1.73,4.999c3.319,4.738 3.652,7.729 0.609,5.455c-2.53,-1.89 -4.784,-1.883 -7.786,0.027c-2.605,1.654 -2.67,0.999 -0.475,-4.774c0.928,-2.441 1.298,-4.438 0.822,-4.438c-1.401,0 -4.487,9.027 -5.323,15.571c-0.426,3.331 -1.434,6.285 -2.241,6.566c-0.807,0.281 -0.819,3.381 -0.028,6.889c0.982,4.357 4.124,8.861 9.907,14.207c6.763,6.25 8.902,9.634 10.621,16.801c1.274,5.311 3.214,9.192 4.751,9.506c1.924,0.393 1.37,1.595 -2.136,4.635l-4.734,4.106l1.082,-4.106c1.457,-5.527 -3.816,-24.001 -6.851,-24.001c-1.302,-0 -2.367,1.427 -2.367,3.172c-0,1.744 -1.156,3.172 -2.568,3.172c-2.078,-0 -2.16,-0.495 -0.433,-2.59c1.857,-2.253 1.628,-2.32 -1.757,-0.516c-2.141,1.141 -3.951,3.02 -4.022,4.176c-0.071,1.156 -0.462,3.901 -0.87,6.1c-0.443,2.389 -0.043,3.567 0.994,2.926c2.297,-1.42 2.209,1.934 -0.168,6.375c-1.233,2.303 -1.269,3.163 -0.102,2.442c1.17,-0.723 1.482,0.87 0.891,4.549c-0.673,4.187 0.456,8.253 4.335,15.61c2.885,5.472 4.508,9.948 3.607,9.948c-0.901,0 -1.638,-1.213 -1.638,-2.697c0,-1.483 -0.784,-2.213 -1.742,-1.62c-0.958,0.592 -2.187,-0.08 -2.731,-1.499c-0.823,-2.145 -1.689,-1.967 -5.178,1.067c-2.304,2.004 -4.19,4.162 -4.19,4.797c0,1.908 6.479,8.773 12.407,13.147c4.02,2.965 4.721,4.107 2.521,4.107c-1.675,-0 -7.86,-4.883 -13.744,-10.85l0.001,-0.006Zm-33.061,-36.296c0.676,-2.141 3.842,-6.953 7.037,-10.692c3.195,-3.74 5.809,-7.369 5.809,-8.065c-0,-1.525 -3.501,-1.125 -6.488,0.741c-1.383,0.864 -2.163,0.378 -2.163,-1.346c0,-1.484 -0.723,-2.697 -1.606,-2.697c-2.914,-0 -7.261,5.589 -6.299,8.098c0.52,1.354 0.223,2.016 -0.659,1.471c-0.882,-0.545 -2.407,0.388 -3.388,2.073c-0.981,1.685 -1.807,2.22 -1.836,1.189c-0.029,-1.03 -1.178,-1.874 -2.554,-1.874c-2.977,0 -1.391,3.585 4.619,10.441c4.842,5.522 5.963,5.621 7.528,0.661Zm-8.893,-14.957c0.527,-0.853 -0.206,-1.996 -1.628,-2.541c-1.57,-0.603 -2.585,0.005 -2.585,1.549c0,2.798 2.704,3.434 4.213,0.992Zm43.016,-4.795c-0.487,-1.269 -1.581,-2.307 -2.431,-2.307c-0.849,-0 -1.545,1.038 -1.545,2.307c0,1.268 1.094,2.306 2.431,2.306c1.336,0 2.031,-1.038 1.545,-2.306Zm-36.848,-7.452c-0,-1.813 -0.779,-3.778 -1.73,-4.366c-0.952,-0.588 -1.73,-0.824 -1.73,-0.524c-0,0.301 -0.724,3.07 -1.609,6.154c-1.494,5.21 -1.371,5.48 1.731,3.82c1.836,-0.983 3.338,-3.27 3.338,-5.084Zm5.604,-2.584c0.449,-2.35 0.15,-3.861 -0.664,-3.358c-1.433,0.886 -2.155,7.631 -0.817,7.631c0.365,0 1.031,-1.922 1.481,-4.273Zm-41.072,-0.917c0.588,-0.952 0.245,-1.73 -0.763,-1.73c-1.008,-0 -1.832,0.778 -1.832,1.73c-0,0.952 0.343,1.73 0.763,1.73c0.42,0 1.244,-0.778 1.832,-1.73Zm46.101,28.499c-0.012,-3.024 5.142,-4.781 7.267,-2.477c1.523,1.649 1.483,1.873 -0.166,0.942c-1.19,-0.672 -2.163,-0.482 -2.163,0.422c0,0.903 2.67,1.954 5.934,2.335c3.264,0.381 5.554,0.08 5.088,-0.676c-0.465,-0.753 0.174,-1.373 1.419,-1.379c1.246,-0.006 0.035,-1.174 -2.69,-2.595c-6.613,-3.449 -13.177,-3.267 -15.993,0.443c-2.805,3.694 -3.057,6.127 -0.549,5.291c1.023,-0.341 1.857,-1.379 1.853,-2.306Zm22.239,31.186c0,-1.428 -0.754,-2.596 -1.676,-2.596c-0.921,0 -1.227,1.168 -0.679,2.596c0.547,1.427 1.301,2.595 1.675,2.595c0.374,-0 0.68,-1.168 0.68,-2.595Zm0,-9.304c0,-0.836 -1.204,-2.518 -2.677,-3.74c-1.966,-1.632 -2.134,-2.558 -0.631,-3.487c1.248,-0.77 1.605,-3.025 0.914,-5.775c-1.024,-4.082 -1.926,-4.511 -9.481,-4.511c-9.91,-0 -16.226,4.841 -12.373,9.483c1.199,1.445 3.256,2.628 4.57,2.628c1.314,-0 5.295,1.557 8.846,3.46c6.899,3.698 10.832,4.403 10.832,1.942Zm-168.616,-266.763c1.586,-2.566 0.094,-3.631 -3.274,-2.339c-1.558,0.598 -2.402,1.784 -1.876,2.636c1.295,2.095 3.759,1.954 5.15,-0.297Zm332.979,86.218c-0,-0.951 -1.557,-1.322 -3.461,-0.825c-1.903,0.498 -3.46,0.071 -3.46,-0.952c0,-1.021 -0.485,-1.371 -1.079,-0.777c-0.593,0.593 -0.641,2.219 -0.105,3.614c1.071,2.792 8.105,1.873 8.105,-1.06Zm-280.061,-92.489c2.027,-2.498 2.015,-2.711 -0.082,-1.447c-1.895,1.142 -2.191,0.724 -1.293,-1.831c1.14,-3.246 1.113,-3.247 -1.381,-0.026c-1.399,1.805 -2.134,3.946 -1.632,4.758c1.256,2.033 1.673,1.894 4.388,-1.454Zm237.787,99.628c0.804,-1.3 -0.136,-1.549 -2.926,-0.775c-4.049,1.124 -4.059,1.098 -0.649,-1.777c3.067,-2.586 3.101,-2.793 0.291,-1.82c-1.743,0.604 -3.495,1.098 -3.893,1.098c-0.398,-0 -0.723,1.168 -0.723,2.595c-0,2.998 6.14,3.527 7.9,0.679Zm-112.792,120.862c-0.709,-1.189 -2.815,-4.259 -4.68,-6.821c-2.779,-3.818 -3.21,-6.414 -2.388,-14.38c1.181,-11.438 -1.044,-12.009 -6.829,-1.752c-4.265,7.563 -3.694,10.864 2.134,12.327c2.24,0.563 4.585,2.696 5.211,4.743c1.407,4.597 4.073,8.046 6.22,8.046c0.891,0 1.04,-0.973 0.332,-2.163Zm-137.106,-116.783c2.152,-2.744 2.091,-2.806 -0.653,-0.653c-1.665,1.306 -3.028,2.668 -3.028,3.027c0,1.424 1.421,0.508 3.681,-2.374Zm4.97,-106.836c0,-1.427 -0.695,-2.595 -1.545,-2.595c-0.85,-0 -1.993,1.168 -2.541,2.595c-0.607,1.581 -0.003,2.595 1.545,2.595c1.398,0 2.541,-1.168 2.541,-2.595Zm17.847,-8.441c0.601,-1.568 -1.412,-3.3 -5.871,-5.051c-5.345,-2.1 -6.786,-2.189 -6.786,-0.421c0,2.422 6.533,7.618 9.764,7.767c1.087,0.053 2.389,-0.983 2.893,-2.295Zm257.113,93.61c2.046,-2.67 1.983,-2.926 -0.49,-1.977c-1.975,0.758 -2.84,0.156 -2.84,-1.979c0,-1.688 -0.427,-2.642 -0.949,-2.12c-0.522,0.522 -0.428,3.024 0.208,5.56c0.636,2.535 1.284,4.379 1.439,4.097c0.155,-0.283 1.339,-1.894 2.632,-3.581Zm-243.818,-15.099c0,-0.951 -0.824,-1.73 -1.832,-1.73c-1.008,0 -1.351,0.779 -0.763,1.73c0.588,0.952 1.413,1.73 1.832,1.73c0.42,0 0.763,-0.778 0.763,-1.73Zm-41.602,-76.274c-1.062,-1.984 -2.354,-3.186 -2.87,-2.669c-1.426,1.426 0.858,6.278 2.956,6.278c1.279,-0 1.253,-1.107 -0.086,-3.609Zm316.693,54.859c0,-0.359 -1.362,-1.721 -3.028,-3.027c-2.744,-2.152 -2.805,-2.091 -0.653,0.653c2.26,2.882 3.681,3.798 3.681,2.374Zm-353.939,93.167c1.577,-2.406 2.399,-5.131 1.827,-6.056c-2.327,-3.765 -7.08,-0.647 -8.67,5.689c-1.569,6.25 2.834,6.485 6.843,0.367Zm250.131,19.318c0,-1.487 -1.595,-2.182 -4.325,-1.882c-2.379,0.261 -4.325,-0.281 -4.325,-1.205c-0,-0.924 -0.779,-1.199 -1.73,-0.611c-3.146,1.944 -1.801,4.085 3.027,4.816c2.617,0.396 5.342,0.838 6.056,0.98c0.713,0.143 1.297,-0.801 1.297,-2.098Zm-173.997,-82.612c-0.654,-1.058 -0.116,-2.604 1.195,-3.434c1.568,-0.993 1.679,-1.52 0.324,-1.537c-2.681,-0.035 -4.494,2.957 -3.13,5.164c0.588,0.952 1.459,1.73 1.934,1.73c0.476,0 0.33,-0.865 -0.323,-1.923Zm2.688,-17.643c0.014,-0.769 -0.947,-0.815 -2.136,-0.1c-1.696,1.018 -1.717,0.748 -0.099,-1.254c1.336,-1.653 1.498,-3.447 0.459,-5.09c-1.188,-1.878 -1.612,-1.948 -1.631,-0.272c-0.015,1.246 -0.733,1.829 -1.596,1.296c-0.863,-0.534 -0.726,1.775 0.304,5.131c1.275,4.155 2.319,5.398 3.272,3.895c0.77,-1.213 1.412,-2.836 1.427,-3.606Zm224.939,68.001c-2.92,-5.456 -5.019,-5.535 -2.971,-0.111c1.057,2.803 2.551,4.707 3.319,4.233c0.768,-0.475 0.611,-2.33 -0.348,-4.122Zm-93.423,39.802c0,-0.952 -0.824,-1.73 -1.832,-1.73c-1.008,-0 -1.351,0.778 -0.763,1.73c0.588,0.951 1.413,1.73 1.832,1.73c0.42,-0 0.763,-0.779 0.763,-1.73Zm85.388,-50.926c1.787,-2.38 4.232,-3.799 5.623,-3.265c1.623,0.622 3.1,-0.889 4.338,-4.44c1.032,-2.961 2.491,-5.384 3.241,-5.384c0.75,-0 2.688,-2.79 4.306,-6.2c2.84,-5.986 3.048,-6.091 6,-3.028c1.682,1.745 2.519,3.562 1.861,4.038c-0.658,0.475 -1.614,2.519 -2.124,4.541c-0.752,2.983 -0.146,3.677 3.212,3.677c3.315,-0 3.746,-0.473 2.164,-2.379c-1.481,-1.786 -1.468,-2.989 0.055,-4.824c1.631,-1.965 0.654,-3.718 -4.978,-8.929c-3.854,-3.566 -7.008,-7.915 -7.008,-9.666c0,-1.75 -0.778,-3.182 -1.73,-3.182c-2.416,-0 -2.156,2.216 0.722,6.152c1.731,2.367 1.923,3.992 0.653,5.521c-0.989,1.193 -1.355,2.168 -0.812,2.168c0.543,0 0.159,2.377 -0.854,5.281c-1.768,5.073 -1.961,5.159 -4.879,2.163c-1.671,-1.715 -2.67,-3.754 -2.221,-4.531c0.449,-0.777 -0.55,-2.413 -2.221,-3.634c-1.974,-1.444 -2.695,-3.532 -2.059,-5.963c0.674,-2.58 -0.037,-4.285 -2.287,-5.49c-2.579,-1.38 -3.064,-1.221 -2.305,0.755c0.564,1.47 -0.57,3.321 -2.746,4.486c-2.847,1.524 -3.26,2.521 -1.78,4.304c1.34,1.615 1.37,2.664 0.097,3.451c-1.006,0.622 -2.491,-0.659 -3.3,-2.845l-1.47,-3.976l-1.282,4.039c-0.75,2.364 -0.493,4.826 0.62,5.94c1.383,1.383 1.902,1.256 1.902,-0.462c0,-1.301 0.492,-1.873 1.093,-1.272c0.6,0.6 2.643,0.006 4.538,-1.322c3.105,-2.175 3.853,-1.93 7.558,2.474c2.262,2.688 4.101,5.942 4.086,7.232c-0.022,1.945 -0.277,1.951 -1.489,0.036c-1.17,-1.845 -1.683,-1.736 -2.557,0.542c-0.601,1.567 -1.869,2.371 -2.816,1.785c-0.966,-0.597 -1.302,0.036 -0.766,1.43c0.565,1.47 2.331,2.134 4.306,1.618c2.027,-0.53 3.349,0.001 3.349,1.344c-0,1.221 -0.521,1.7 -1.158,1.063c-0.636,-0.636 -2.568,0.12 -4.293,1.681c-2.696,2.44 -3.545,2.501 -6.063,0.437c-2.624,-2.152 -2.822,-1.99 -1.906,1.562c0.854,3.313 0.477,3.791 -2.295,2.911c-1.929,-0.612 -3.317,-0.237 -3.317,0.896c0,1.072 0.725,1.501 1.611,0.954c0.885,-0.548 2.099,-0.204 2.697,0.762c1.673,2.708 3.241,2.134 6.684,-2.451Zm-188.33,104.56c0.588,-0.952 0.244,-1.73 -0.763,-1.73c-1.008,-0 -1.833,0.778 -1.833,1.73c0,0.951 0.344,1.73 0.763,1.73c0.42,-0 1.244,-0.779 1.833,-1.73Zm-113.894,-92.417c-0.658,-1.715 -2.113,-2.266 -4.035,-1.529c-1.856,0.713 -2.212,1.418 -0.93,1.845c1.141,0.38 2.075,1.951 2.075,3.489c-0,2.084 0.5,2.297 1.96,0.837c1.078,-1.078 1.496,-3.166 0.93,-4.642Zm93.132,-63.295c-0.588,-0.952 -1.997,-1.718 -3.13,-1.704c-1.238,0.018 -1.025,0.697 0.535,1.704c3.324,2.148 3.923,2.148 2.595,0Zm132.737,123.272c-0.414,-1.19 -1.772,-2.163 -3.018,-2.163c-1.246,0 -2.568,-0.905 -2.937,-2.011c-0.962,-2.889 -6.538,-3.326 -6.538,-0.512c0,3.922 3.864,11.129 5.443,10.152c0.813,-0.502 1.478,-0.088 1.478,0.92c-0,1.007 1.423,0.469 3.162,-1.196c1.74,-1.665 2.824,-4.001 2.41,-5.19Zm-148.786,-130.627c-0.669,-2.561 -1.202,-2.791 -2.331,-1.009c-2.071,3.267 -1.865,4.327 0.841,4.327c1.473,0 2.032,-1.246 1.49,-3.318Zm12.589,76.56c0.588,-0.951 0.29,-1.73 -0.661,-1.73c-0.952,0 -2.211,0.779 -2.8,1.73c-0.588,0.952 -0.29,1.73 0.661,1.73c0.952,0 2.212,-0.778 2.8,-1.73Zm-1.45,-86.939c-0.48,-1.189 -0.872,-0.216 -0.872,2.163c-0,2.379 0.392,3.352 0.872,2.163c0.48,-1.19 0.48,-3.136 0,-4.326Zm-71.146,69.857c-0.985,-3.101 -4.684,-5.329 -10.651,-6.414c-1.062,-0.193 -3.009,0.331 -4.326,1.165c-1.857,1.177 -1.889,1.523 -0.14,1.543c1.24,0.018 5.089,1.952 8.553,4.306c6.958,4.728 8.218,4.613 6.564,-0.6Zm-4.943,-87.05c-0.553,-1.38 -0.963,-0.97 -1.046,1.045c-0.075,1.824 0.334,2.846 0.909,2.271c0.575,-0.575 0.636,-2.067 0.137,-3.316Zm313.702,-4.681c-0,-0.849 -1.129,-1.978 -2.508,-2.507c-1.675,-0.643 -2.188,-0.131 -1.545,1.545c1.051,2.737 4.053,3.449 4.053,0.962Zm-12.811,61.832c0.765,-1.237 0.474,-1.527 -0.763,-0.762c-2.475,1.529 -2.544,0.093 -0.207,-4.274c1.445,-2.699 1.222,-3.347 -1.153,-3.347c-1.62,0 -2.432,0.512 -1.806,1.139c0.626,0.626 0.222,2.242 -0.898,3.592c-1.585,1.91 -1.486,2.802 0.447,4.025c3.125,1.978 2.916,1.995 4.38,-0.373Zm-82.126,-212.108c2.152,-2.744 2.091,-2.805 -0.653,-0.653c-4.233,3.319 -3.788,-0.044 0.634,-4.788c2.63,-2.823 3.134,-4.459 1.787,-5.806c-1.347,-1.346 -2.17,-0.94 -2.923,1.442c-0.577,1.825 -1.796,4.711 -2.711,6.415c-0.914,1.704 -1.201,3.845 -0.636,4.758c1.387,2.245 1.757,2.133 4.502,-1.368Zm-164.583,49.743c-0,-0.951 -0.825,-1.73 -1.832,-1.73c-1.008,0 -1.351,0.779 -0.763,1.73c0.588,0.952 1.412,1.731 1.832,1.731c0.42,-0 0.763,-0.779 0.763,-1.731Zm6.113,-31.719c0.032,-1.11 -0.402,-2.408 -0.965,-2.883c-0.563,-0.476 -2.341,-2.791 -3.951,-5.143c-2.268,-3.315 -2.927,-3.607 -2.927,-1.298c-0,1.639 0.754,2.98 1.676,2.98c0.921,0 1.243,1.128 0.714,2.507c-0.529,1.378 0.079,3.635 1.352,5.016c2.437,2.643 4.005,2.193 4.101,-1.179Zm20.82,13.093c-1.568,-1.568 -6.392,1.298 -5.262,3.127c0.775,1.254 1.907,1.181 3.612,-0.234c1.365,-1.133 2.108,-2.435 1.65,-2.893Zm188.51,11.836c-0.627,-1.975 -2.301,-3.59 -3.721,-3.59c-1.57,-0 -2.097,0.846 -1.344,2.162c4.055,7.091 7.138,7.961 5.065,1.428Zm-207.749,63.737c-0.557,-0.901 -1.75,-1.183 -2.651,-0.626c-0.902,0.557 -1.183,1.75 -0.626,2.651c0.557,0.902 1.75,1.183 2.651,0.627c0.902,-0.558 1.183,-1.751 0.626,-2.652Zm12.635,8.772c0.238,-0.223 1.406,-0.539 2.595,-0.701c1.19,-0.162 1.968,-1.233 1.73,-2.379c-0.238,-1.146 0.346,-2.084 1.298,-2.084c0.951,0 1.73,-0.825 1.73,-1.832c0,-1.008 -0.779,-1.351 -1.73,-0.763c-0.952,0.588 -1.73,-0.098 -1.73,-1.526c-0,-4.015 3.453,-5.2 5.8,-1.99c1.835,2.509 2.082,2.25 1.896,-1.99c-0.117,-2.681 -1.131,-4.875 -2.252,-4.875c-2.625,0 -8.835,9.414 -7.87,11.93c0.405,1.055 -0.83,2.897 -2.744,4.092c-4.16,2.598 -4.339,1.161 -0.886,-7.104c1.428,-3.416 2.593,-7.988 2.589,-10.16c-0.006,-3.526 -0.38,-3.335 -3.498,1.779c-1.92,3.15 -2.958,6.591 -2.305,7.647c0.768,1.243 0.172,1.531 -1.692,0.815c-1.584,-0.608 -2.968,-0.546 -3.077,0.138c-1.595,10.058 -1.468,10.357 4.21,9.875c3.027,-0.257 5.698,-0.649 5.936,-0.872Zm-28.85,-35.052c-0.214,-2.068 -2.587,-1.668 -3.33,0.563c-0.381,1.142 0.242,1.764 1.384,1.384c1.142,-0.381 2.017,-1.257 1.946,-1.947Zm-16.052,-15.349c-3.59,-2.277 -4.58,-1.722 -3.601,2.02c0.734,2.806 1.402,3.093 3.38,1.451c1.992,-1.654 2.035,-2.32 0.221,-3.471Zm50.525,31.192c-0,-0.952 -0.779,-1.249 -1.73,-0.661c-0.952,0.588 -1.73,1.848 -1.73,2.8c-0,0.951 0.778,1.249 1.73,0.66c0.951,-0.588 1.73,-1.848 1.73,-2.799Zm217.008,-6.2c2.571,-2.571 5.11,-6.853 5.643,-9.516c1.156,-5.78 2.4,-6.064 5.415,-1.236c1.246,1.995 3.339,3.188 4.686,2.67c1.339,-0.513 2.895,-0.189 3.457,0.721c0.563,0.91 1.802,1.654 2.753,1.654c0.952,0 1.249,-0.779 0.661,-1.73c-0.588,-0.952 -0.245,-1.73 0.763,-1.73c1.008,-0 1.709,-0.584 1.557,-1.298c-0.151,-0.714 0.335,-2.693 1.079,-4.4c2.425,-5.558 -0.47,-5.157 -3.379,0.469c-2.403,4.646 -3.234,5.139 -5.496,3.262c-2.363,-1.962 -2.232,-2.563 1.165,-5.313c3.749,-3.036 3.755,-3.101 0.279,-3.101c-1.952,-0 -4.025,0.77 -4.607,1.711c-0.653,1.057 -2.583,0.711 -5.049,-0.904c-2.195,-1.439 -5.277,-2.122 -6.849,-1.519c-2.066,0.793 -2.581,0.372 -1.856,-1.516c0.551,-1.437 0.278,-3.06 -0.606,-3.607c-0.885,-0.546 -1.53,1.126 -1.432,3.718c0.13,3.476 -0.613,4.649 -2.835,4.472c-1.656,-0.132 -3.011,0.84 -3.011,2.162c-0,1.322 1.213,2.403 2.697,2.403c1.484,0 2.235,0.749 1.669,1.664c-0.633,1.025 -2.599,1.067 -5.115,0.111c-2.247,-0.855 -4.555,-1.084 -5.129,-0.51c-1.708,1.708 -1.182,12.287 0.668,13.43c0.987,0.61 1.33,-0.26 0.811,-2.061c-0.507,-1.759 -0.006,-1.421 1.149,0.775c2.68,5.094 5.219,4.912 10.912,-0.781Zm-33.42,-32.156c-1.413,-1.413 -1.924,-1.219 -1.924,0.728c-0,1.459 0.567,3.221 1.261,3.914c0.694,0.694 1.56,0.366 1.925,-0.728c0.365,-1.094 -0.203,-2.856 -1.262,-3.914Zm-242.534,0.725c0.951,-1.778 1.173,-3.849 0.493,-4.601c-0.68,-0.753 0.321,-0.809 2.224,-0.125c2.496,0.896 2.938,0.716 1.587,-0.646c-2.273,-2.292 -8.053,-0.403 -7.132,2.33c0.362,1.072 -0.578,2.898 -2.089,4.057c-2.484,1.906 -2.463,2.113 0.22,2.163c1.631,0.026 3.745,-1.4 4.697,-3.178Zm45.105,-26.777c-0,-0.329 -1.752,-2.08 -3.893,-3.893l-3.893,-3.296l3.296,3.893c3.097,3.658 4.49,4.68 4.49,3.296Zm-16.676,70.668c0.548,-1.428 1.845,-2.596 2.883,-2.596c1.037,0 1.405,0.779 0.817,1.731c-2.041,3.301 4.989,1.71 8.972,-2.032c5.172,-4.859 5.059,-6.619 -0.424,-6.619c-2.435,-0 -4,-0.691 -3.478,-1.536c0.922,-1.491 -9.517,-3.927 -10.999,-2.567c-1.315,1.207 5.839,5.558 7.475,4.547c0.877,-0.542 0.987,-0.009 0.246,1.185c-0.766,1.24 -3.465,1.851 -6.322,1.432c-4.931,-0.724 -7.003,1.162 -2.823,2.569c1.686,0.568 1.639,1.362 -0.212,3.604c-2.032,2.461 -1.996,2.877 0.247,2.877c1.442,-0 3.07,-1.168 3.618,-2.595Zm80.258,-74.114c1.19,-0.743 2.941,-0.871 3.893,-0.282c0.952,0.588 1.73,0.29 1.73,-0.661c0,-0.952 -0.686,-2.154 -1.523,-2.672c-0.838,-0.518 -1.9,-2.906 -2.359,-5.308c-0.728,-3.808 -0.478,-4.087 1.956,-2.188c2.4,1.872 2.498,1.801 0.701,-0.507c-1.15,-1.477 -1.643,-4.397 -1.096,-6.488c0.557,-2.129 0.197,-3.803 -0.817,-3.803c-0.996,-0 -2.149,1.752 -2.561,3.893c-0.709,3.678 -0.766,3.654 -1.041,-0.433c-0.349,-5.192 -3.279,-9.268 -7.918,-11.013c-2.66,-1.001 -2.897,-1.602 -1.076,-2.727c2.759,-1.705 1.04,-5.291 -2.534,-5.291c-1.372,-0 -2.494,-0.779 -2.494,-1.73c0,-0.952 -1.167,-1.73 -2.595,-1.73c-2.945,-0 -3.477,-2.711 -0.852,-4.334c2.147,-1.327 -1.515,-5.351 -5.224,-5.741c-1.416,-0.149 -7.051,-0.764 -12.523,-1.368c-8.396,-0.926 -9.948,-0.668 -9.948,1.652c0,1.512 -1.651,3.632 -3.669,4.712c-2.579,1.38 -3.32,1.398 -2.493,0.062c0.647,-1.047 0.351,-1.903 -0.656,-1.903c-2.699,0 -2.253,2.607 1.628,9.516c1.903,3.388 3.46,7.305 3.46,8.703c-0,1.399 1.168,2.543 2.595,2.543c1.427,-0 2.595,1.072 2.595,2.383c0,1.311 1.168,3.353 2.596,4.537c3.882,3.223 3.128,5.598 -1.066,3.353c-2.897,-1.55 -3.502,-1.483 -2.9,0.321c1.007,3.022 13.535,5.615 15.866,3.284c3.006,-3.005 4.095,-1.972 3.152,2.991c-0.775,4.078 -0.533,4.451 1.697,2.61c1.43,-1.181 3.093,-1.655 3.695,-1.053c0.603,0.603 2.605,-0.767 4.45,-3.042c3.792,-4.678 4.607,-4.373 6.295,2.353c0.811,3.233 0.52,4.754 -0.91,4.754c-1.207,0 -1.655,-1.166 -1.051,-2.739c0.667,-1.74 0.261,-2.477 -1.113,-2.019c-3.822,1.274 -2.387,5.632 1.804,5.478c2.479,-0.091 3.66,0.657 3.147,1.994c-1.484,3.868 2.367,4.886 7.159,1.893Zm-102.114,70.473c-0.574,-0.575 -2.067,-0.636 -3.316,-0.136c-1.38,0.552 -0.97,0.962 1.046,1.045c1.823,0.071 2.845,-0.334 2.27,-0.909Zm41.992,-93.583c0,-2.15 -0.369,-2.137 -2.595,0.089c-1.427,1.427 -2.595,3.525 -2.595,4.661c-0,1.561 0.633,1.54 2.595,-0.089c1.427,-1.184 2.595,-3.282 2.595,-4.661Zm5.795,-4.91c-1.352,-3.522 -2.167,-3.173 -1.868,0.801c0.138,1.837 0.835,2.98 1.547,2.54c0.713,-0.441 0.857,-1.944 0.321,-3.341Zm-3.121,92.371c0.811,-2.555 1.634,-2.934 3.324,-1.531c1.741,1.445 2.419,0.696 3.009,-3.327c0.52,-3.539 0.171,-4.723 -1.095,-3.718c-1.021,0.811 -3.414,0.847 -5.317,0.08c-1.903,-0.767 -5.082,-1.449 -7.064,-1.516c-4.566,-0.154 -4.499,5.785 0.104,9.151c2.095,1.532 2.788,3.404 2.011,5.428c-0.988,2.577 -0.759,2.736 1.382,0.959c1.413,-1.172 3.053,-3.659 3.646,-5.526Zm193.696,-20.515c0.588,-0.951 0.245,-1.73 -0.763,-1.73c-1.008,0 -1.832,0.779 -1.832,1.73c-0,0.952 0.343,1.73 0.763,1.73c0.419,0 1.244,-0.778 1.832,-1.73Zm-206.751,-71.803c0,-1.427 -0.306,-2.595 -0.68,-2.595c-0.374,-0 -1.128,1.168 -1.675,2.595c-0.548,1.428 -0.242,2.595 0.68,2.595c0.921,0 1.675,-1.167 1.675,-2.595Zm-3.46,106.406c0,-0.952 -0.824,-1.73 -1.832,-1.73c-1.008,-0 -1.351,0.778 -0.763,1.73c0.588,0.952 1.412,1.73 1.832,1.73c0.42,0 0.763,-0.779 0.763,-1.73Zm16.015,-93.451c-2.137,-2.496 -3.229,-2.815 -4.231,-1.238c-2.056,3.238 -1.689,4.403 1.625,5.155c4.803,1.091 5.717,-0.283 2.606,-3.917Zm136.989,-13.09c3.909,-3.909 6.137,-8.533 6.557,-13.614c0.201,-2.429 1.005,-4.417 1.787,-4.417c0.781,-0 0.509,-0.973 -0.606,-2.163c-2.133,-2.276 -14.156,-2.738 -19.304,-0.742c-1.665,0.646 -4.195,1.539 -5.623,1.985c-4.145,1.295 -3.07,10.059 1.981,16.157c5.034,6.077 10.856,7.146 15.208,2.794Zm-76.878,-0.545c-0,-0.85 -1.128,-1.978 -2.507,-2.507c-1.676,-0.643 -2.188,-0.13 -1.545,1.545c1.05,2.736 4.052,3.449 4.052,0.962Zm-63.452,-5.93c1.399,0.839 1.363,0.392 -0.115,-1.435c-1.182,-1.46 -1.571,-3.291 -0.866,-4.07c0.706,-0.779 0.31,-0.856 -0.88,-0.171c-1.189,0.685 -2.072,3.34 -1.962,5.9c0.128,2.968 0.489,3.551 0.996,1.607c0.464,-1.779 1.642,-2.541 2.827,-1.831Zm131.912,-20.401c0.653,-1.057 0.115,-2.678 -1.196,-3.6c-1.659,-1.167 -0.806,-1.364 2.806,-0.647c4.301,0.852 4.65,0.701 2.037,-0.882c-3.479,-2.108 -11.553,-0.783 -11.553,1.896c0,0.933 0.974,1.709 2.163,1.723c1.442,0.018 1.298,0.586 -0.432,1.704c-2.11,1.363 -1.887,1.682 1.195,1.704c2.085,0.017 4.326,-0.839 4.98,-1.898Zm-47.699,9.921c0,-0.359 -1.362,-1.721 -3.027,-3.027c-2.744,-2.152 -2.806,-2.091 -0.654,0.652c2.261,2.882 3.681,3.799 3.681,2.375Zm32.873,9.593c-0,-1.745 -1.061,-3.172 -2.358,-3.172c-1.435,-0 -2.033,1.242 -1.528,3.172c0.456,1.744 1.517,3.172 2.358,3.172c0.84,-0 1.528,-1.428 1.528,-3.172Zm4.723,-17.053c0.717,-2.151 -4.307,-4.459 -6.609,-3.036c-0.866,0.535 -1.574,1.801 -1.574,2.813c-0,1.088 1.192,0.87 2.919,-0.535c2.57,-2.091 2.776,-1.995 1.729,0.798c-0.781,2.08 -0.482,2.936 0.865,2.487c1.131,-0.376 2.332,-1.514 2.67,-2.527Zm-63.548,14.271c0,-0.42 -0.778,-1.244 -1.73,-1.832c-0.951,-0.588 -1.73,-0.245 -1.73,0.763c0,1.007 0.779,1.832 1.73,1.832c0.952,-0 1.73,-0.344 1.73,-0.763Z"/><path d="M228.345,466.373c-0.498,-1.903 -0.616,-3.46 -0.263,-3.46c0.353,0 1.476,1.557 2.494,3.46c1.023,1.912 1.141,3.461 0.263,3.461c-0.874,-0 -1.997,-1.557 -2.494,-3.461Z"/><path d="M255.774,426.078c0.65,-1.706 1.617,-2.666 2.15,-2.134c0.533,0.533 0.001,1.929 -1.181,3.103c-1.709,1.696 -1.908,1.497 -0.969,-0.969Z"/><path d="M381.962,310.667c0.589,-0.952 1.848,-1.731 2.8,-1.731c0.951,0 1.249,0.779 0.661,1.731c-0.588,0.951 -1.848,1.73 -2.8,1.73c-0.951,-0 -1.249,-0.779 -0.661,-1.73Z"/><path d="M201.164,107.274c-0,-1.484 0.778,-2.216 1.73,-1.628c0.952,0.588 1.73,1.802 1.73,2.697c0,0.896 -0.778,1.628 -1.73,1.628c-0.952,0 -1.73,-1.214 -1.73,-2.697Z"/><path d="M186.458,92.67c-0.588,-0.952 0.58,-1.73 2.595,-1.73c2.015,-0 3.183,0.778 2.595,1.73c-0.588,0.951 -1.756,1.73 -2.595,1.73c-0.839,-0 -2.007,-0.779 -2.595,-1.73Z"/><path d="M220.484,125.362c-1.779,-2.848 -1.788,-4.068 -0.05,-6.163c1.891,-2.279 2.345,-2.132 3.56,1.153c0.766,2.071 0.789,4.844 0.051,6.164c-1.067,1.905 -1.799,1.668 -3.561,-1.154Z"/><path d="M195.108,85.749c-0.588,-0.951 -0.244,-1.73 0.763,-1.73c1.008,0 1.833,0.779 1.833,1.73c-0,0.952 -0.344,1.73 -0.763,1.73c-0.42,0 -1.244,-0.778 -1.833,-1.73Z"/><path d="M190.783,105.848c0,-0.365 1.557,-1.071 3.46,-1.569c1.903,-0.497 3.461,-0.199 3.461,0.664c-0,0.863 -1.558,1.568 -3.461,1.568c-1.903,0 -3.46,-0.298 -3.46,-0.663Z"/><path d="M163.101,190.321c-0,-1.484 0.791,-2.209 1.758,-1.611c0.967,0.598 1.311,1.811 0.763,2.697c-1.483,2.4 -2.521,1.953 -2.521,-1.086Z"/><path d="M299.781,83.337c0,-0.373 1.209,-1.143 2.685,-1.71c1.54,-0.591 2.235,-0.301 1.628,0.68c-1.016,1.644 -4.313,2.432 -4.313,1.03Z"/><path d="M291.404,520.012c-0,-2.379 0.393,-3.352 0.872,-2.162c0.48,1.189 0.48,3.136 0,4.325c-0.479,1.19 -0.872,0.216 -0.872,-2.163Z"/><path d="M286.445,511.794c-0.615,-1.665 -1.652,-3.417 -2.305,-3.893c-0.653,-0.475 -0.686,-2.265 -0.074,-3.977c0.837,-2.338 1.58,-1.37 2.984,3.892c1.878,7.036 1.482,9.636 -0.605,3.978Z"/><path d="M228.522,504.989c1.248,-0.499 2.741,-0.438 3.316,0.137c0.575,0.575 -0.447,0.984 -2.271,0.909c-2.016,-0.08 -2.426,-0.493 -1.045,-1.046Z"/><path d="M333.883,500.981c0.531,-2.032 2.36,-3.46 4.431,-3.46c3.417,-0 3.429,0.107 0.395,3.46c-1.722,1.903 -3.716,3.46 -4.431,3.46c-0.715,0 -0.893,-1.557 -0.395,-3.46Z"/><path d="M328.484,492.502c-3.24,-3.58 -1.884,-5.436 3.404,-4.66c3.093,0.454 3.487,1.342 2.755,6.219c-0.402,2.683 -2.891,2.053 -6.159,-1.559Z"/><path d="M396.703,484.587c-1.364,-1.645 -1.496,-2.637 -0.348,-2.637c2.091,-0 4.528,3.282 3.329,4.482c-0.436,0.436 -1.777,-0.395 -2.981,-1.845Z"/><path d="M273.609,478.921c-2.152,-2.744 -2.091,-2.805 0.653,-0.653c1.665,1.306 3.028,2.668 3.028,3.028c-0,1.424 -1.421,0.508 -3.681,-2.375Z"/><path d="M314.727,475.894c-1.063,-2.769 0.394,-3.239 4.799,-1.549c1.5,0.576 2.296,1.744 1.77,2.596c-1.508,2.44 -5.474,1.808 -6.569,-1.047Z"/><path d="M363.408,477.524c-0.531,-0.53 -0.582,-2.433 -0.113,-4.227c0.667,-2.551 2.311,-3.203 7.553,-2.994c3.756,0.15 7.087,1.276 7.58,2.562c1.366,3.559 -4.015,4.644 -7.48,1.509c-3.74,-3.385 -6.621,-3.74 -3.919,-0.483c2.564,3.089 -0.796,6.459 -3.621,3.633Z"/><path d="M276.692,474.596c0.441,-0.714 1.878,-1.297 3.193,-1.297c1.315,-0 2.752,0.583 3.193,1.297c0.441,0.714 -0.996,1.298 -3.193,1.298c-2.197,-0 -3.634,-0.584 -3.193,-1.298Z"/><path d="M346.876,471.704c0.266,-2.304 1.457,-4.51 2.647,-4.902c2.942,-0.969 2.72,1.667 -0.484,5.734c-2.562,3.252 -2.631,3.225 -2.163,-0.832Z"/><path d="M317.083,471.732l-4.326,-1.224l4.193,-1.117c4.481,-1.192 7.053,-0.361 7.053,2.279c0,1.814 -0.696,1.819 -6.92,0.062Z"/><path d="M334.657,469.838c0,-2.379 0.393,-3.352 0.873,-2.162c0.48,1.189 0.48,3.135 -0,4.325c-0.48,1.189 -0.873,0.216 -0.873,-2.163Z"/><path d="M343.035,466.582c-0,-0.951 0.778,-2.211 1.73,-2.799c0.951,-0.588 1.73,-0.291 1.73,0.661c-0,0.951 -0.779,2.211 -1.73,2.799c-0.952,0.588 -1.73,0.291 -1.73,-0.661Z"/><path d="M368.987,465.513c-0,-1.427 1.143,-2.595 2.54,-2.595c1.548,-0 2.152,1.014 1.545,2.595c-0.547,1.427 -1.691,2.595 -2.54,2.595c-0.85,0 -1.545,-1.168 -1.545,-2.595Z"/><path d="M397.559,464.677c-2.865,-3.165 -3.036,-4.398 -1.267,-9.085c1.126,-2.982 1.671,-5.798 1.212,-6.257c-0.46,-0.459 -0.835,0.168 -0.835,1.395c-0,1.787 -0.517,1.802 -2.596,0.08c-2.07,-1.718 -2.595,-1.718 -2.595,-0c0,1.718 -0.525,1.718 -2.595,-0c-1.427,-1.185 -2.583,-3.421 -2.569,-4.97c0.023,-2.45 0.245,-2.479 1.704,-0.22c1.309,2.026 1.683,1.564 1.704,-2.109c0.019,-3.476 -0.651,-4.443 -2.569,-3.707c-2.747,1.054 -3.78,-4.534 -1.298,-7.016c0.714,-0.714 1.298,-2.011 1.298,-2.884c-0,-0.872 0.584,-1.586 1.297,-1.586c0.714,0 1.289,0.395 1.279,0.876c-0.037,1.664 12.759,25.261 14.172,26.134c2.129,1.316 1.708,6.536 -0.805,9.972c-2.098,2.869 -2.411,2.832 -5.537,-0.623Z"/><path d="M382.183,460.323c0.666,-1.903 1.278,-5.173 1.36,-7.267c0.093,-2.368 0.762,-3.193 1.771,-2.184c1.009,1.009 0.496,3.755 -1.359,7.266c-1.64,3.105 -2.437,4.088 -1.772,2.185Z"/><path d="M338.949,455.132c-0.548,-1.427 -0.307,-2.595 0.535,-2.595c0.843,0 1.925,0.973 2.405,2.163c0.698,1.73 0.9,1.73 1.009,-0c0.075,-1.19 1.01,-2.163 2.079,-2.163c1.341,0 1.276,0.802 -0.212,2.595c-1.185,1.428 -2.754,2.596 -3.487,2.596c-0.734,-0 -1.782,-1.168 -2.329,-2.596Z"/><path d="M310.162,454.267c0,-0.952 0.779,-1.73 1.73,-1.73c0.952,-0 1.73,0.779 1.73,1.73c0,0.952 -0.778,1.73 -1.73,1.73c-0.951,0 -1.73,-0.778 -1.73,-1.73Z"/><path d="M370.717,453.614c-0,-0.359 1.362,-1.722 3.027,-3.028c2.744,-2.152 2.806,-2.09 0.654,0.654c-2.261,2.882 -3.681,3.798 -3.681,2.374Z"/><path d="M320.791,447.537c-1.444,-0.915 -1.68,-1.9 -0.614,-2.559c0.953,-0.589 2.18,0.092 2.726,1.514c1.146,2.987 1.038,3.041 -2.112,1.045Z"/><path d="M369.047,442.27c-2.273,-4.247 -2.299,-7.025 -0.034,-3.574c1.514,2.307 1.893,2.307 3.407,0c1.336,-2.035 1.709,-1.568 1.73,2.163c0.031,5.527 -2.522,6.233 -5.103,1.411Z"/><path d="M162.497,437.887c-1.11,-2.891 1.468,-5.121 4.064,-3.516c2.587,1.599 2.087,6.055 -0.68,6.055c-1.325,0 -2.848,-1.143 -3.384,-2.539Z"/><path d="M306.269,436.678c-1.665,-1.745 -2.344,-3.172 -1.509,-3.172c1.745,-0 6.238,5.004 5.216,5.809c-0.373,0.294 -2.041,-0.893 -3.707,-2.637Z"/><path d="M279.979,433.353c1.41,-2.281 7.694,-5.392 7.678,-3.801c-0.008,0.748 -1.955,2.259 -4.328,3.36c-2.372,1.1 -3.88,1.299 -3.35,0.441Z"/><path d="M179.01,429.18c0.035,-2.854 0.422,-3.813 0.861,-2.129c0.439,1.683 0.41,4.019 -0.064,5.19c-0.474,1.172 -0.833,-0.205 -0.797,-3.061Z"/><path d="M290.806,432.324c1.249,-0.5 2.741,-0.438 3.316,0.136c0.575,0.575 -0.447,0.984 -2.27,0.909c-2.016,-0.08 -2.426,-0.493 -1.046,-1.045Z"/><path d="M356.924,430.112c-2.242,-1.418 -2.242,-1.722 0,-2.548c5.446,-2.005 10.851,-1.745 11.664,0.56c0.49,1.391 0.074,1.925 -0.988,1.269c-1.009,-0.623 -2.324,-0.343 -2.921,0.625c-1.346,2.177 -4.403,2.214 -7.755,0.094Z"/><path d="M169.493,428.834c-1.718,-0.445 -2.837,-1.668 -2.487,-2.718c1.148,-3.445 4.286,-3.205 5.228,0.398c0.508,1.942 0.802,3.441 0.653,3.331c-0.149,-0.111 -1.676,-0.565 -3.394,-1.011Z"/><path d="M297.186,426.585c-0.588,-0.951 -0.245,-1.73 0.763,-1.73c1.008,0 1.832,0.779 1.832,1.73c0,0.952 -0.343,1.73 -0.763,1.73c-0.419,0 -1.244,-0.778 -1.832,-1.73Z"/><path d="M380.568,427.209c-1.293,-1.293 0.125,-4.084 2.073,-4.084c0.737,-0 1.34,1.168 1.34,2.595c-0,2.712 -1.525,3.377 -3.413,1.489Z"/><path d="M153.802,425.205c-0.47,-0.759 -0.126,-2.511 0.763,-3.893c1.412,-2.196 1.819,-2.196 3.231,0c1.716,2.668 0.918,5.273 -1.616,5.273c-0.839,0 -1.909,-0.621 -2.378,-1.38Z"/><path d="M288.535,424.855c0.589,-0.951 1.413,-1.73 1.833,-1.73c0.419,-0 0.763,0.779 0.763,1.73c-0,0.952 -0.825,1.73 -1.833,1.73c-1.007,0 -1.351,-0.778 -0.763,-1.73Z"/><path d="M273.829,424.114c0,-1.859 5.631,-6.111 6.985,-5.275c2.53,1.564 -0.215,6.016 -3.71,6.016c-1.801,0 -3.275,-0.334 -3.275,-0.741Z"/><path d="M368.987,422.837c-0,-0.793 1.167,-1.442 2.595,-1.442c1.427,-0 2.595,0.648 2.595,1.442c-0,0.793 -1.168,1.442 -2.595,1.442c-1.428,-0 -2.595,-0.649 -2.595,-1.442Z"/><path d="M413.646,423.673c1.248,-0.5 2.741,-0.439 3.316,0.136c0.574,0.575 -0.447,0.984 -2.271,0.909c-2.016,-0.08 -2.426,-0.492 -1.045,-1.045Z"/><path d="M420.89,423.295c0,-1.797 3.292,-4.398 4.266,-3.372c0.317,0.333 -0.514,1.61 -1.845,2.837c-1.331,1.227 -2.421,1.467 -2.421,0.535Z"/><path d="M376.044,420.385c0.083,-2.015 0.493,-2.425 1.045,-1.045c0.5,1.249 0.438,2.741 -0.137,3.316c-0.575,0.575 -0.984,-0.448 -0.908,-2.271Z"/><path d="M68.08,418.656c0.084,-2.016 0.493,-2.426 1.046,-1.046c0.499,1.249 0.438,2.741 -0.137,3.316c-0.575,0.575 -0.984,-0.447 -0.909,-2.27Z"/><path d="M456.531,416.897c-0.616,-1.605 -0.73,-3.307 -0.254,-3.783c0.475,-0.476 1.368,0.448 1.984,2.052c0.616,1.605 0.73,3.307 0.255,3.783c-0.476,0.476 -1.369,-0.448 -1.985,-2.052Z"/><path d="M160.963,415.827c-0.644,-1.634 -0.309,-3.505 0.746,-4.156c1.27,-0.785 0.834,-1.977 -1.295,-3.533c-3.124,-2.284 -3.122,-2.43 0.075,-5.359c2.544,-2.33 2.815,-2.378 1.198,-0.212c-1.652,2.212 -1.599,3.205 0.254,4.742c1.289,1.07 3.024,1.368 3.857,0.662c0.833,-0.705 0.65,-0.114 -0.406,1.313c-1.055,1.427 -2.22,4.152 -2.589,6.055c-0.595,3.076 -0.8,3.13 -1.84,0.488Z"/><path d="M384.096,415.99c1.174,-1.183 2.57,-1.714 3.103,-1.182c0.532,0.533 -0.428,1.5 -2.134,2.15c-2.466,0.939 -2.665,0.741 -0.969,-0.968Z"/><path d="M369.869,414.446c0.598,-0.967 1.812,-1.311 2.697,-0.763c2.4,1.483 1.953,2.521 -1.086,2.521c-1.484,0 -2.209,-0.791 -1.611,-1.758Z"/><path d="M389.122,413.609c-0.547,-1.428 -0.241,-2.595 0.68,-2.595c0.922,-0 1.676,1.167 1.676,2.595c0,1.427 -0.306,2.595 -0.68,2.595c-0.374,-0 -1.128,-1.168 -1.676,-2.595Z"/><path d="M407.049,410.095c0,-1.398 1.168,-2.541 2.596,-2.541c1.427,-0 2.595,0.695 2.595,1.545c-0,0.849 -1.168,1.993 -2.595,2.541c-1.581,0.607 -2.596,0.003 -2.596,-1.545Z"/><path d="M320.679,408.275c0.084,-2.016 0.493,-2.426 1.046,-1.045c0.5,1.248 0.438,2.741 -0.137,3.316c-0.575,0.575 -0.984,-0.448 -0.909,-2.271Z"/><path d="M394.002,409.169c-1.862,-3.013 0.259,-3.651 2.632,-0.792c1.365,1.644 1.496,2.637 0.349,2.637c-1.012,-0 -2.354,-0.83 -2.981,-1.845Z"/><path d="M425.216,407.554c0.588,-0.952 1.412,-1.73 1.832,-1.73c0.42,-0 0.763,0.778 0.763,1.73c-0,0.951 -0.825,1.73 -1.832,1.73c-1.008,0 -1.351,-0.779 -0.763,-1.73Z"/><path d="M309.838,404.642c1.249,-0.5 2.741,-0.439 3.316,0.136c0.575,0.575 -0.447,0.984 -2.271,0.909c-2.016,-0.08 -2.426,-0.493 -1.045,-1.045Z"/><path d="M315.352,403.992c0,-1.008 0.779,-1.351 1.731,-0.763c0.951,0.588 1.73,1.413 1.73,1.832c-0,0.42 -0.779,0.763 -1.73,0.763c-0.952,-0 -1.731,-0.825 -1.731,-1.832Z"/><path d="M174.012,401.155c-2.174,-0.782 -1.138,-5.712 1.2,-5.712c1.843,0 3.618,4.906 2.087,5.767c-0.672,0.378 -2.151,0.351 -3.287,-0.055Z"/><path d="M155.589,398.125c-0.642,-1.673 -0.131,-2.188 1.535,-1.549c1.373,0.527 2.066,1.655 1.54,2.507c-1.326,2.145 -1.96,1.948 -3.075,-0.958Z"/><path d="M162.252,397.734c0.484,-0.643 -0.878,-3.168 -3.028,-5.611c-3.35,-3.806 -3.394,-4.01 -0.308,-1.422c1.98,1.661 4.063,2.557 4.628,1.992c0.565,-0.565 0.849,0.19 0.631,1.676c-0.219,1.487 -0.939,3.116 -1.601,3.619c-0.662,0.503 -0.807,0.389 -0.322,-0.254Z"/><path d="M413.124,393.075c-3.118,-2.28 -3.091,-2.446 0.736,-4.494c3.262,-1.746 4.439,-1.662 6.572,0.471c5.075,5.075 -1.168,8.512 -7.308,4.023Z"/><path d="M63.618,388.522c0.589,-0.951 1.413,-1.73 1.833,-1.73c0.419,0 0.763,0.779 0.763,1.73c-0,0.952 -0.825,1.731 -1.833,1.731c-1.007,-0 -1.351,-0.779 -0.763,-1.731Z"/><path d="M431.539,387.568c0.328,-1.696 1.645,-3.433 2.925,-3.859c1.489,-0.496 2.113,0.335 1.73,2.308c-0.329,1.696 -1.645,3.433 -2.925,3.859c-1.489,0.496 -2.113,-0.336 -1.73,-2.308Z"/><path d="M144.07,385.927c-0,-1.427 0.778,-2.595 1.73,-2.595c0.951,0 1.73,1.168 1.73,2.595c-0,1.428 -0.779,2.595 -1.73,2.595c-0.952,0 -1.73,-1.167 -1.73,-2.595Z"/><path d="M460.683,386.793c0,-0.952 0.779,-1.73 1.731,-1.73c0.951,-0 1.73,0.778 1.73,1.73c-0,0.951 -0.779,1.73 -1.73,1.73c-0.952,-0 -1.731,-0.779 -1.731,-1.73Z"/><path d="M406.321,380.627c-1.488,-1.488 -3.49,-2.221 -4.449,-1.628c-0.959,0.593 -1.743,0.228 -1.743,-0.809c-0,-1.037 1.108,-2.311 2.461,-2.831c1.354,-0.519 2.894,-2.07 3.422,-3.446c0.762,-1.987 0.276,-2.136 -2.363,-0.724c-4.395,2.353 -12.171,-1.12 -12.171,-5.436c0,-3.418 5.892,-4.517 7.786,-1.452c0.588,0.951 1.922,1.73 2.965,1.73c1.043,0 0.487,-1.557 -1.235,-3.46c-2.808,-3.103 -2.424,-4.236 1.248,-3.682c0.687,0.104 0.535,-1.69 -0.338,-3.986c-1.091,-2.87 -0.941,-4.684 0.481,-5.803c2.541,-2 8.125,-2.056 8.125,-0.08c-0,0.793 -1.704,1.442 -3.787,1.442l-3.786,-0l3.924,3.656c2.817,2.624 3.633,4.823 2.889,7.786c-0.723,2.882 -0.303,4.129 1.39,4.129c1.334,-0 2.854,1.635 3.377,3.634c0.523,2.001 1.78,3.122 2.797,2.493c1.015,-0.628 1.846,-0.317 1.846,0.691c0,2.963 -4.867,2.098 -6.734,-1.195c-1.608,-2.837 -1.883,-2.81 -4.357,0.432c-3.019,3.958 -3.437,6.055 -1.205,6.055c0.85,0 1.993,1.168 2.541,2.596c1.276,3.324 0.316,3.289 -3.084,-0.112Zm-8.417,-14.101c-1.586,-1.586 -3.429,-2.338 -4.096,-1.672c-0.666,0.667 0.287,2.309 2.119,3.649c4.315,3.155 5.712,1.757 1.977,-1.977Z"/><path d="M455.493,379.872c0,-0.951 0.779,-1.73 1.73,-1.73c0.952,0 1.73,0.779 1.73,1.73c0,0.952 -0.778,1.73 -1.73,1.73c-0.951,0 -1.73,-0.778 -1.73,-1.73Z"/><path d="M64.051,378.68c-1.665,-0.435 -3.028,-1.566 -3.028,-2.512c0,-0.946 1.557,-1.226 3.461,-0.622c1.985,0.63 3.46,0.311 3.46,-0.748c-0,-1.016 0.874,-1.847 1.942,-1.847c1.428,0 1.432,0.614 0.015,2.322c-1.06,1.277 -1.415,2.834 -0.789,3.46c1.222,1.222 -0.237,1.206 -5.061,-0.053Z"/><path d="M81.785,377.277c-0,-1.428 0.306,-2.596 0.68,-2.596c0.374,0 1.128,1.168 1.676,2.596c0.547,1.427 0.241,2.595 -0.68,2.595c-0.922,-0 -1.676,-1.168 -1.676,-2.595Z"/><path d="M163.101,376.379c-0,-1.043 -1.872,-1.294 -4.583,-0.613c-3.226,0.809 -4.221,0.563 -3.359,-0.832c0.674,-1.091 2.542,-2.006 4.151,-2.035c2.53,-0.045 2.478,-0.313 -0.381,-1.972c-2.652,-1.54 -3.764,-1.293 -5.623,1.248c-2.713,3.711 -3.086,1.987 -0.581,-2.693c1.213,-2.267 1.133,-3.613 -0.267,-4.479c-1.165,-0.719 -1.537,-0.483 -0.889,0.565c0.612,0.99 0.015,2.712 -1.327,3.826c-1.994,1.655 -2.27,1.374 -1.509,-1.534c0.662,-2.534 0.105,-3.559 -1.935,-3.559c-2.365,-0 -2.476,-0.423 -0.634,-2.425c1.227,-1.333 2.504,-1.681 2.838,-0.773c0.334,0.908 1.672,0.247 2.973,-1.468c2.216,-2.923 2.369,-2.864 2.42,0.935c0.035,2.564 1.321,4.386 3.496,4.955c1.892,0.495 3.065,1.508 2.605,2.252c-0.459,0.743 0.328,1.798 1.75,2.344c1.604,0.615 2.585,-0.018 2.585,-1.673c0,-3.716 -3.849,-7.175 -6.936,-6.232c-2.081,0.636 -2.162,0.344 -0.417,-1.505c1.189,-1.261 2.163,-3.694 2.163,-5.407c-0,-1.713 0.862,-3.114 1.915,-3.114c1.053,0 1.475,1.147 0.937,2.548c-0.538,1.402 0.934,4.82 3.27,7.597c3.308,3.931 4.01,6.238 3.172,10.427c-0.972,4.86 -5.834,7.874 -5.834,3.617Z"/><path d="M55.833,374.784c-0,-0.896 0.77,-2.104 1.71,-2.685c0.981,-0.606 1.271,0.088 0.68,1.628c-1.15,2.997 -2.39,3.546 -2.39,1.057Z"/><path d="M74.864,375.704c0,-0.329 1.168,-1.568 2.596,-2.752c1.495,-1.242 2.595,-1.41 2.595,-0.397c-0,0.966 -1.168,2.205 -2.595,2.753c-1.428,0.547 -2.596,0.726 -2.596,0.396Z"/><path d="M422.695,373.24c-2.259,-0.722 -2.404,-10.67 -0.156,-10.67c3.92,0 10.223,4.155 11.906,7.847c1.723,3.782 1.497,3.988 -4.061,3.702c-3.236,-0.166 -6.697,-0.562 -7.689,-0.879Z"/><path d="M135.445,371.654c0.015,-0.714 0.706,-2.37 1.537,-3.682c1.92,-3.031 5.532,-0.949 4.232,2.44c-0.99,2.579 -5.817,3.619 -5.769,1.242Z"/><path d="M125.038,364.199c0,-1.008 0.779,-1.352 1.73,-0.763c0.952,0.588 1.73,1.412 1.73,1.832c0,0.42 -0.778,0.763 -1.73,0.763c-0.951,-0 -1.73,-0.825 -1.73,-1.832Z"/><path d="M415.235,361.529c-1.895,-1.895 -1.525,-4.513 0.465,-3.284c0.952,0.588 1.73,-0.534 1.73,-2.493c0,-4.057 4.327,-4.847 5.782,-1.055c0.601,1.564 0.131,2.188 -1.248,1.659c-1.216,-0.467 -2.943,0.791 -3.837,2.795c-0.894,2.004 -2.195,3.074 -2.892,2.378Z"/><path d="M153.763,353.632c0.491,-0.793 1.624,-1.442 2.52,-1.442c0.895,-0 1.628,0.648 1.628,1.442c-0,0.792 -1.134,1.441 -2.519,1.441c-1.386,0 -2.119,-0.648 -1.629,-1.441Z"/><path d="M446.363,352.864c-1.488,-1.488 1.826,-7.595 4.121,-7.595c0.984,0 1.541,1.691 1.237,3.758c-0.568,3.854 -3.349,5.846 -5.358,3.837Z"/><path d="M420.89,347.102c0,-0.896 0.912,-2.192 2.026,-2.88c1.343,-0.83 0.759,-1.721 -1.73,-2.642c-3.784,-1.4 -5.239,-4.961 -2.026,-4.961c0.952,-0 1.73,0.779 1.73,1.73c0,0.952 1.252,1.73 2.781,1.73c1.824,0 2.419,0.941 1.73,2.737c-0.578,1.505 -1.05,3.451 -1.05,4.325c-0,0.874 -0.779,1.589 -1.73,1.589c-0.952,-0 -1.731,-0.733 -1.731,-1.628Z"/><path d="M397.882,345.906c-2.25,-2.25 -1.236,-3.689 3.196,-4.537c3.378,-0.645 4.283,-0.191 3.873,1.942c-0.572,2.968 -5.052,4.612 -7.069,2.595Z"/><path d="M430.418,340.099c-0.606,-0.981 0.089,-1.271 1.628,-0.68c2.998,1.15 3.546,2.39 1.057,2.39c-0.895,-0 -2.103,-0.77 -2.685,-1.71Z"/><path d="M409.645,338.349c-0.589,-0.952 0.144,-1.73 1.628,-1.73c1.483,-0 2.697,0.778 2.697,1.73c-0,0.952 -0.733,1.73 -1.628,1.73c-0.896,0 -2.109,-0.779 -2.697,-1.73Z"/><path d="M441.328,331.977c1.249,-0.5 2.741,-0.439 3.316,0.136c0.575,0.575 -0.447,0.984 -2.271,0.909c-2.016,-0.08 -2.426,-0.493 -1.045,-1.045Z"/><path d="M450.667,323.468c-1.227,-1.331 -1.616,-2.432 -0.865,-2.447c0.751,-0.018 0.198,-0.781 -1.23,-1.704c-2.256,-1.457 -2.225,-1.68 0.231,-1.703c1.555,-0.018 3.275,1.691 3.824,3.791c1.242,4.746 0.871,5.136 -1.96,2.063Z"/><path d="M51.848,320.367c-0.708,-1.801 -0.879,-3.682 -0.381,-4.181c1.578,-1.578 2.966,1.008 2.305,4.294c-0.606,3.011 -0.698,3.005 -1.924,-0.113Z"/><path d="M436.551,320.615c-0.049,-1.665 -0.868,-3.027 -1.82,-3.027c-2.662,-0 -2.049,-4.698 0.754,-5.773c1.366,-0.525 2.892,-0.027 3.391,1.112c0.5,1.136 0.515,0.119 0.033,-2.26c-0.741,-3.662 -0.234,-4.325 3.309,-4.325c2.636,-0 3.877,0.8 3.354,2.163c-0.457,1.189 -1.442,2.162 -2.19,2.162c-0.748,0 -2.571,2.92 -4.051,6.488c-1.48,3.569 -2.731,5.126 -2.78,3.46Z"/><path d="M122.443,315.857c-0.588,-0.951 -0.291,-1.73 0.661,-1.73c0.951,0 2.211,0.779 2.799,1.73c0.588,0.952 0.291,1.73 -0.661,1.73c-0.951,0 -2.211,-0.778 -2.799,-1.73Z"/><path d="M128.037,312.182c1.174,-1.182 2.57,-1.714 3.102,-1.181c0.533,0.532 -0.427,1.5 -2.133,2.15c-2.466,0.939 -2.665,0.74 -0.969,-0.969Z"/><path d="M449.677,306.342c-0.548,-1.428 -0.242,-2.596 0.68,-2.596c0.922,0 1.676,1.168 1.676,2.596c-0,1.427 -0.306,2.595 -0.68,2.595c-0.374,-0 -1.128,-1.168 -1.676,-2.595Z"/><path d="M141.565,305.044c-0.929,-3.021 -0.564,-8.403 0.499,-7.341c0.956,0.957 1.596,9.503 0.711,9.503c-0.299,0 -0.844,-0.973 -1.21,-2.162Z"/><path d="M103.591,302.725c-1.417,-3.693 0.171,-5.899 4.248,-5.899c3.707,-0 4.483,2.561 1.361,4.49c-1.238,0.765 -1.528,0.475 -0.763,-0.762c0.679,-1.099 0.539,-1.998 -0.31,-1.998c-2.89,0 -3.825,2.271 -1.893,4.599c1.211,1.46 1.274,2.322 0.17,2.322c-0.967,-0 -2.232,-1.239 -2.813,-2.752Z"/><path d="M133.256,304.284c-1.665,-0.435 -3.027,-1.467 -3.027,-2.293c-0,-2.421 3.122,-3.652 4.325,-1.705c0.607,0.983 1.82,1.344 2.695,0.803c0.875,-0.54 1.127,0.225 0.56,1.702c-0.567,1.477 -1.142,2.595 -1.278,2.485c-0.136,-0.111 -1.61,-0.557 -3.275,-0.992Z"/><path d="M455.493,303.355c0,-1.484 1.278,-3.189 2.84,-3.789c2.472,-0.948 2.536,-0.692 0.49,1.978c-1.293,1.687 -2.571,3.392 -2.84,3.788c-0.27,0.397 -0.49,-0.493 -0.49,-1.977Z"/><path d="M463.518,295.961c0.548,-1.428 1.302,-2.596 1.676,-2.596c0.374,0 0.68,1.168 0.68,2.596c-0,1.427 -0.754,2.595 -1.676,2.595c-0.922,-0 -1.228,-1.168 -0.68,-2.595Z"/><path d="M467.91,294.14c0.307,-1.478 1.004,-2.452 1.548,-2.164c0.543,0.288 2.358,-0.846 4.032,-2.519c1.674,-1.674 3.693,-2.643 4.486,-2.152c0.794,0.491 1.746,-0.018 2.116,-1.126c0.504,-1.512 1.516,-1.528 4.04,-0.062c3.295,1.911 3.29,1.955 -0.188,2.007c-1.956,0.026 -6.195,1.999 -9.42,4.378c-6.877,5.074 -7.354,5.191 -6.614,1.638Z"/><path d="M95.626,293.368c-0,-0.951 0.778,-1.73 1.73,-1.73c0.952,0 1.73,0.779 1.73,1.73c0,0.952 -0.778,1.731 -1.73,1.731c-0.952,-0 -1.73,-0.779 -1.73,-1.731Z"/><path d="M140.609,293.47c0,-0.895 0.77,-2.103 1.711,-2.685c0.98,-0.606 1.27,0.089 0.68,1.628c-1.151,2.998 -2.391,3.546 -2.391,1.057Z"/><path d="M67.909,290.731c-1.204,-1.45 -1.853,-2.971 -1.444,-3.381c0.41,-0.409 1.695,0.777 2.857,2.637c2.511,4.022 1.674,4.464 -1.413,0.744Z"/><path d="M133.224,284.857c-0.753,-2.878 -0.528,-3.554 0.756,-2.27c1.006,1.006 1.488,2.849 1.072,4.098c-0.432,1.295 -1.216,0.511 -1.828,-1.828Z"/><path d="M107.316,281.587c0.477,-1.244 1.998,-1.828 3.381,-1.297c1.382,0.531 2.839,0.964 3.237,0.964c0.398,0 0.723,0.697 0.723,1.548c0,0.851 -1.847,1.434 -4.104,1.297c-2.609,-0.159 -3.789,-1.074 -3.237,-2.512Z"/><path d="M119.848,281.254c-0,-0.951 0.824,-1.73 1.832,-1.73c1.008,0 1.351,0.779 0.763,1.73c-0.588,0.952 -1.413,1.731 -1.832,1.731c-0.42,-0 -0.763,-0.779 -0.763,-1.731Z"/><path d="M111.247,277.862c-1.4,-0.885 -2.042,-2.113 -1.428,-2.727c1.513,-1.513 8.299,0.757 8.299,2.776c-0,2.058 -3.578,2.033 -6.871,-0.045l0,-0.004Z"/><path d="M119.848,274.388c-0,-0.921 -1.168,-1.227 -2.595,-0.68c-1.428,0.548 -2.596,0.089 -2.596,-1.021c0,-1.11 0.594,-1.651 1.32,-1.202c0.725,0.448 3.256,-0.257 5.623,-1.567c3.268,-1.809 3.575,-2.397 1.275,-2.443c-4.182,-0.089 -3.806,-3.042 0.563,-4.428c4.115,-1.306 5.521,-0.348 6.221,4.24c0.505,3.304 -3.666,6.111 -6.487,4.367c-0.855,-0.528 -1.091,0.248 -0.524,1.725c0.567,1.477 0.168,2.685 -0.885,2.685c-1.053,-0 -1.915,-0.754 -1.915,-1.676Z"/><path d="M135.419,265.9c-0,-0.849 -1.557,-1.95 -3.46,-2.448c-1.903,-0.498 -3.461,-1.756 -3.461,-2.797c0,-2.78 2.799,-2.307 6.143,1.038c2.611,2.61 3.143,2.641 4.882,0.283c1.737,-2.355 2.298,-2.316 5.097,0.355c1.823,1.739 2.431,3.444 1.446,4.053c-0.936,0.578 -2.055,0.071 -2.488,-1.122c-0.631,-1.744 -1.515,-1.744 -4.473,0.003c-2.027,1.198 -3.686,1.483 -3.686,0.635Z"/><path d="M471.337,263.953c0,-2.379 0.393,-3.352 0.873,-2.163c0.48,1.19 0.48,3.136 0,4.326c-0.48,1.189 -0.873,0.216 -0.873,-2.163Z"/><path d="M148.395,260.492c0.588,-0.951 1.412,-1.73 1.832,-1.73c0.42,0 0.763,0.779 0.763,1.73c0,0.952 -0.824,1.731 -1.832,1.731c-1.008,-0 -1.351,-0.779 -0.763,-1.731Z"/><path d="M76.594,255.302c-1.478,-2.762 -1.315,-3.46 0.805,-3.46c1.502,-0 2.656,1.502 2.656,3.46c-0,1.903 -0.362,3.46 -0.804,3.46c-0.443,0 -1.638,-1.557 -2.657,-3.46Z"/><path d="M45.452,250.01c0,-1.96 0.745,-3.103 1.655,-2.54c0.91,0.562 1.216,2.165 0.68,3.562c-1.373,3.577 -2.335,3.155 -2.335,-1.022Z"/><path d="M65.349,248.382c0.588,-0.952 2.191,-1.73 3.562,-1.73c1.371,-0 2.493,-0.909 2.493,-2.019c0,-1.11 0.583,-1.436 1.295,-0.724c0.712,0.712 -0.215,2.399 -2.061,3.749c-3.883,2.839 -6.848,3.245 -5.289,0.724Z"/><path d="M438.192,247.863c-0,-2.894 3.508,-6.402 6.401,-6.402c3.042,0 2.834,2.628 -0.469,5.932c-3.304,3.304 -5.932,3.512 -5.932,0.47Z"/><path d="M451.205,244.962c-1.743,-1.925 -2.353,-3.501 -1.356,-3.501c2.681,0 4.308,-5.489 2.24,-7.556c-2.91,-2.91 -2.06,-4.555 2.354,-4.555c5.237,0 6.616,3.532 4.201,10.765c-2.688,8.052 -3.852,8.811 -7.439,4.847Z"/><path d="M57.563,244.051c0,-2.501 2.826,-4.86 6.488,-5.416c1.189,-0.18 2.163,0.382 2.163,1.249c-0,0.868 -0.754,1.577 -1.676,1.577c-0.922,0 -1.292,1.001 -0.823,2.224c0.507,1.321 -0.568,2.331 -2.649,2.488c-1.951,0.147 -3.503,-0.793 -3.503,-2.122Z"/><path d="M420.89,229.248c0,-1.959 0.745,-3.102 1.655,-2.539c0.91,0.562 1.216,2.165 0.68,3.562c-1.372,3.576 -2.335,3.155 -2.335,-1.023Z"/><path d="M415.7,225.025c1.185,-1.427 3.322,-2.595 4.749,-2.595c2.111,-0 2.193,0.484 0.441,2.595c-1.184,1.427 -3.321,2.595 -4.749,2.595c-2.11,0 -2.193,-0.484 -0.441,-2.595Z"/><path d="M61.817,224.045c-0.627,-1.015 -0.769,-2.216 -0.316,-2.67c0.454,-0.453 1.286,0.377 1.85,1.845c1.169,3.049 0.172,3.585 -1.534,0.825Z"/><path d="M90.436,220.802c-0,-0.895 0.769,-2.103 1.71,-2.685c0.981,-0.606 1.271,0.089 0.68,1.628c-1.15,2.998 -2.39,3.546 -2.39,1.057Z"/><path d="M23.393,215.338c-3.012,-1.119 -3.893,-2.806 -3.893,-7.456c0,-6.756 1.884,-8.677 6.938,-7.073c4.42,1.403 6.987,6.22 5.779,10.841c-1.172,4.481 -3.77,5.567 -8.824,3.688Z"/><path d="M57.656,213.953c-1.321,-2.469 -1.143,-3.524 0.716,-4.238c1.697,-0.651 2.152,-0.107 1.446,1.732c-0.566,1.475 0.058,3.37 1.386,4.211c1.632,1.033 1.733,1.537 0.313,1.555c-1.156,0.018 -2.894,-1.452 -3.861,-3.26Z"/><path d="M48.047,212.05c-0.588,-0.952 -0.244,-1.731 0.763,-1.731c1.008,0 1.833,0.779 1.833,1.731c-0,0.951 -0.344,1.73 -0.763,1.73c-0.42,-0 -1.245,-0.779 -1.833,-1.73Z"/><path d="M71.404,211.996c0,-0.921 1.168,-1.676 2.595,-1.676c1.428,0 2.595,0.306 2.595,0.681c0,0.374 -1.167,1.128 -2.595,1.676c-1.427,0.547 -2.595,0.242 -2.595,-0.681Z"/><path d="M113.792,210.32c0.588,-0.951 2.386,-1.718 3.995,-1.703c2.521,0.026 2.567,0.259 0.331,1.703c-3.389,2.19 -5.679,2.19 -4.326,0Z"/><path d="M104.277,208.693c-0,-0.896 0.648,-2.029 1.441,-2.52c0.793,-0.489 1.442,0.243 1.442,1.628c0,1.386 -0.649,2.519 -1.442,2.519c-0.793,0 -1.441,-0.732 -1.441,-1.627Z"/><path d="M485.251,204.783c-1.141,-1.142 -2.076,-3.867 -2.076,-6.056c0,-4.691 5.916,-5.496 11.325,-1.54c3.273,2.393 3.274,2.506 0.063,6.055c-3.719,4.11 -6.313,4.539 -9.312,1.541Z"/><path d="M34.114,199.174c-1.523,-2.323 -4.071,-4.568 -5.663,-4.989c-2.1,-0.556 -1.865,-0.821 0.853,-0.967c2.062,-0.11 4.046,0.69 4.408,1.778c0.49,1.469 1.751,1.445 4.902,-0.096c3.764,-1.839 3.901,-1.797 1.215,0.375c-3.204,2.591 -4.236,5.614 -1.297,3.797c0.951,-0.588 1.73,0.145 1.73,1.629c-0,4.012 -3.008,3.265 -6.148,-1.527Z"/><path d="M45.02,197.21c-0.714,-0.719 -1.298,-2.891 -1.298,-4.826c0,-2.547 0.523,-2.996 1.892,-1.626c1.041,1.041 1.625,3.213 1.298,4.827c-0.327,1.613 -1.179,2.345 -1.892,1.625Z"/><path d="M59.293,191.287c0,-0.951 0.779,-1.73 1.73,-1.73c0.952,0 1.73,0.779 1.73,1.73c0,0.952 -0.778,1.73 -1.73,1.73c-0.951,0 -1.73,-0.778 -1.73,-1.73Z"/><path d="M497.016,172.202c0,-2.23 4.929,-4.244 6.513,-2.661c0.645,0.645 0.027,1.897 -1.373,2.783c-3.349,2.118 -5.14,2.076 -5.14,-0.122Z"/><path d="M476.255,168.981c-0,-0.85 1.278,-2.036 2.84,-2.635c2.374,-0.911 2.481,-0.658 0.653,1.545c-2.492,3.002 -3.493,3.315 -3.493,1.09Z"/><path d="M438.245,164.47c-0,-0.951 0.754,-2.898 1.677,-4.325c0.922,-1.427 1.677,-1.817 1.677,-0.865c0,0.951 -0.755,2.898 -1.677,4.325c-0.923,1.427 -1.677,1.817 -1.677,0.865Z"/><path d="M443.382,161.977c0,-0.895 0.77,-2.103 1.71,-2.685c0.981,-0.606 1.271,0.089 0.68,1.628c-1.15,2.998 -2.39,3.546 -2.39,1.057Z"/><path d="M448.573,156.583c-0,-1.008 0.778,-1.351 1.73,-0.763c0.951,0.588 1.73,1.413 1.73,1.832c-0,0.42 -0.779,0.763 -1.73,0.763c-0.952,0 -1.73,-0.825 -1.73,-1.832Z"/><path d="M435.597,154.955c-0.589,-0.952 -0.245,-1.73 0.762,-1.73c1.008,-0 1.833,0.778 1.833,1.73c-0,0.951 -0.344,1.73 -0.763,1.73c-0.42,0 -1.244,-0.779 -1.832,-1.73Z"/><path d="M81.097,150.467c-1.333,-3.472 -1.195,-3.658 3.283,-4.431c2.499,-0.431 3.46,0.358 3.46,2.84c0,4.305 -5.228,5.538 -6.743,1.591Z"/><path d="M445.977,151.495c0.588,-0.952 1.413,-1.731 1.833,-1.731c0.419,0 0.763,0.779 0.763,1.731c-0,0.951 -0.825,1.73 -1.833,1.73c-1.007,-0 -1.351,-0.779 -0.763,-1.73Z"/><path d="M395.61,145.948c0.233,-4.444 3.691,-6.027 5.106,-2.338c0.599,1.559 -0.279,3.333 -2.142,4.331c-2.611,1.397 -3.123,1.053 -2.964,-1.993Zm4.519,-0.407c-0,-0.42 -0.779,-1.244 -1.73,-1.832c-0.952,-0.588 -1.73,-0.245 -1.73,0.763c-0,1.007 0.778,1.832 1.73,1.832c0.951,-0 1.73,-0.344 1.73,-0.763Z"/><path d="M459.386,148.544c-2.276,-0.439 -3.836,-1.958 -3.756,-3.658c0.085,-1.817 0.465,-2.092 1.012,-0.733c0.482,1.195 1.474,1.804 2.204,1.353c0.73,-0.451 2.805,0.297 4.61,1.664c3.342,2.529 2.828,2.702 -4.07,1.374Z"/><path d="M375.96,145.785c-0.03,-0.761 1.193,-3.794 2.717,-6.74c2.107,-4.075 3.123,-4.784 4.247,-2.966c0.947,1.531 0.593,2.884 -0.985,3.767c-1.354,0.757 -3.241,2.715 -4.194,4.35c-0.953,1.635 -1.756,2.35 -1.785,1.589Z"/><path d="M415.7,144.819c0,-1.778 5.24,-4.233 6.451,-3.022c0.421,0.421 -0.858,1.635 -2.843,2.697c-1.985,1.063 -3.608,1.209 -3.608,0.325Z"/><path d="M429.932,143.581c1.643,-1.72 3.461,-2.652 4.041,-2.072c0.58,0.58 -0.764,1.987 -2.986,3.126c-3.863,1.982 -3.91,1.935 -1.055,-1.054Z"/><path d="M441.026,141.978c0.548,-1.427 1.787,-2.595 2.753,-2.595c1.013,0 0.845,1.099 -0.397,2.595c-1.184,1.428 -2.423,2.596 -2.753,2.596c-0.329,-0 -0.15,-1.168 0.397,-2.596Z"/><path d="M102.546,138.519c-1.764,-2.126 -1.645,-2.596 0.654,-2.596c1.544,0 2.807,1.168 2.807,2.596c-0,1.427 -0.294,2.595 -0.654,2.595c-0.359,-0 -1.622,-1.168 -2.807,-2.595Z"/><path d="M90.436,136.788c-0,-1.441 1.537,-2.595 3.46,-2.595c1.903,0 3.46,0.825 3.46,1.833c0,1.007 -0.779,1.351 -1.73,0.762c-0.952,-0.588 -1.73,-0.244 -1.73,0.763c-0,1.008 -0.779,1.832 -1.73,1.832c-0.952,0 -1.73,-1.167 -1.73,-2.595Z"/><path d="M415.023,136.228c-0.61,-0.988 -0.266,-2.317 0.764,-2.953c2.571,-1.59 3.481,-0.326 1.765,2.451c-0.919,1.487 -1.811,1.664 -2.529,0.502Z"/><path d="M426.081,136.974c-0,-0.374 1.168,-1.129 2.595,-1.676c1.427,-0.548 2.595,-0.242 2.595,0.68c0,0.922 -1.168,1.676 -2.595,1.676c-1.427,-0 -2.595,-0.306 -2.595,-0.68Z"/><path d="M438.192,134.193c-0,-0.951 0.824,-1.73 1.832,-1.73c1.008,0 1.351,0.779 0.763,1.73c-0.588,0.952 -1.413,1.73 -1.832,1.73c-0.42,0 -0.763,-0.778 -0.763,-1.73Z"/><path d="M391.478,129.003c0,-0.951 0.779,-1.73 1.73,-1.73c0.952,0 1.73,0.779 1.73,1.73c0,0.952 -0.778,1.73 -1.73,1.73c-0.951,0 -1.73,-0.778 -1.73,-1.73Z"/><path d="M102.546,126.408c0,-1.427 1.168,-2.595 2.596,-2.595c1.427,-0 2.595,1.168 2.595,2.595c-0,1.427 -1.168,2.595 -2.595,2.595c-1.428,0 -2.596,-1.168 -2.596,-2.595Z"/><path d="M434.731,125.645c0,-0.895 0.77,-2.103 1.711,-2.685c0.981,-0.606 1.271,0.089 0.68,1.628c-1.15,2.998 -2.391,3.546 -2.391,1.057Z"/><path d="M394.002,121.967c-0.627,-1.015 -0.707,-2.278 -0.176,-2.808c1.423,-1.423 6.303,0.798 6.303,2.87c-0,2.348 -4.666,2.302 -6.127,-0.062Z"/><path d="M447.16,121.708c-2.424,-2.423 -2.673,-4.815 -0.503,-4.815c1.586,-0 4.195,5.217 3.139,6.274c-0.324,0.324 -1.51,-0.333 -2.636,-1.459Z"/><path d="M404.759,117.326c-1.352,-2.296 2.098,-9.083 4.618,-9.083c3.465,0 6.894,4.667 5.706,7.764c-1.024,2.667 -8.935,3.678 -10.324,1.319Z"/><path d="M118.983,115.162c-0.588,-0.952 -0.245,-1.73 0.763,-1.73c1.007,-0 1.832,0.778 1.832,1.73c-0,0.951 -0.343,1.73 -0.763,1.73c-0.42,-0 -1.244,-0.779 -1.832,-1.73Z"/><path d="M428.605,111.587c-0.627,-1.015 -0.769,-2.217 -0.316,-2.67c0.454,-0.454 1.286,0.376 1.849,1.845c1.17,3.049 0.173,3.585 -1.533,0.825Z"/><path d="M382.828,110.26c-0,-2.435 1.947,-3.557 4.484,-2.583c1.329,0.51 1.985,1.624 1.459,2.476c-1.208,1.954 -5.943,2.039 -5.943,0.107Z"/><path d="M439.922,108.241c-0,-0.951 0.824,-1.73 1.832,-1.73c1.008,0 1.351,0.779 0.763,1.73c-0.588,0.952 -1.413,1.73 -1.832,1.73c-0.42,0 -0.763,-0.778 -0.763,-1.73Z"/><path d="M340.527,97.135c-4.347,-4.529 -4.654,-5.403 -2.071,-5.9c2.43,-0.468 2.622,-1.079 0.965,-3.074c-1.68,-2.025 -1.536,-2.287 0.774,-1.401c3.305,1.268 3.674,3.46 0.874,5.191c-1.307,0.807 -0.651,2.206 1.959,4.174c2.158,1.628 3.626,3.717 3.263,4.643c-0.364,0.925 -2.958,-0.71 -5.764,-3.633Z"/><path d="M404.96,100.888c-7.971,-6.266 -2.569,-18.599 8.147,-18.599c6.013,0 11.244,3.652 11.244,7.85c-0,3.551 -9.753,12.912 -13.452,12.912c-1.754,-0 -4.426,-0.973 -5.939,-2.163Zm12.47,-15.138c0,-0.952 -0.824,-1.731 -1.832,-1.731c-1.008,0 -1.351,0.779 -0.763,1.731c0.588,0.951 1.413,1.73 1.832,1.73c0.42,-0 0.763,-0.779 0.763,-1.73Z"/><path d="M354.52,96.995c-0.548,-1.428 -0.242,-2.595 0.68,-2.595c0.921,-0 1.676,1.167 1.676,2.595c-0,1.427 -0.306,2.595 -0.68,2.595c-0.374,0 -1.128,-1.168 -1.676,-2.595Z"/><path d="M362.066,94.4c-0,-0.951 0.825,-1.73 1.832,-1.73c1.008,0 1.351,0.779 0.763,1.73c-0.588,0.952 -1.412,1.73 -1.832,1.73c-0.42,0 -0.763,-0.778 -0.763,-1.73Z"/><path d="M353.283,90.507c-1.233,-4.029 -0.879,-6.872 0.944,-7.571c2.692,-1.033 1.592,-6.918 -2.223,-11.892c-1.459,-1.904 0.696,-0.009 4.789,4.205c7.06,7.272 7.253,7.737 3.763,9.028c-2.024,0.748 -3.68,2.554 -3.68,4.012c-0,2.103 -3.052,3.987 -3.593,2.218Z"/><path d="M378.791,89.786c-0.635,-0.634 -1.056,-4.332 -0.937,-8.218l0.216,-7.064l1.294,7.785c1.368,8.237 1.283,9.354 -0.573,7.497Z"/><path d="M136.076,74.586c-1.594,-4.153 0.961,-6.497 3.888,-3.57c2.607,2.607 1.898,6.082 -1.242,6.082c-0.925,0 -2.116,-1.13 -2.646,-2.512Z"/><path d="M145.8,69.313c-0,-0.476 1.427,-2.292 3.172,-4.037c3.187,-3.187 5.836,-3.901 14.478,-3.901c2.77,0 4.471,-0.85 4.176,-2.086c-0.274,-1.148 -0.171,-1.503 0.228,-0.789c0.399,0.714 2.802,1.309 5.339,1.324c2.538,0.017 5.782,0.781 7.209,1.703c1.862,1.204 -0.215,1.767 -7.353,1.992c-5.471,0.173 -11.31,0.38 -12.976,0.459c-1.665,0.08 -4.537,1.507 -6.381,3.172c-3.125,2.821 -7.892,4.127 -7.892,2.163Z"/><path d="M243.481,63.143c-0.627,-1.015 -0.769,-2.216 -0.316,-2.67c0.454,-0.454 1.286,0.376 1.849,1.845c1.17,3.049 0.173,3.585 -1.533,0.825Z"/><path d="M136.928,58.5c-2.152,-2.744 -2.091,-2.805 0.654,-0.653c1.665,1.306 3.027,2.669 3.027,3.028c0,1.424 -1.42,0.507 -3.681,-2.375Z"/><path d="M299.781,59.652c0,-1.919 5.837,-2.876 9.544,-1.565c2.679,0.947 2.008,1.382 -3.056,1.98c-3.568,0.421 -6.488,0.234 -6.488,-0.415Z"/><path d="M183.913,56.405c-1.4,-0.885 -2.095,-2.059 -1.546,-2.609c1.363,-1.363 6.686,0.807 6.686,2.727c-0,1.971 -1.905,1.928 -5.14,-0.118Z"/><path d="M221.925,54.607c0,-0.951 0.779,-1.73 1.731,-1.73c0.951,0 1.73,0.779 1.73,1.73c-0,0.952 -0.779,1.73 -1.73,1.73c-0.952,0 -1.731,-0.778 -1.731,-1.73Z"/></svg>