<?xml version="1.0" encoding="UTF-8" standalone="no"?><!DOCTYPE svg PUBLIC "-//W3C//DTD SVG 1.1//EN" "http://www.w3.org/Graphics/SVG/1.1/DTD/svg11.dtd"><svg width="100%" height="100%" viewBox="0 0 1500 125" version="1.1" xmlns="http://www.w3.org/2000/svg" xmlns:xlink="http://www.w3.org/1999/xlink" xml:space="preserve" xmlns:serif="http://www.serif.com/" style="fill-rule:evenodd;clip-rule:evenodd;stroke-linejoin:round;stroke-miterlimit:2;"><rect x="0" y="0" width="1500.01" height="125" style="fill:#fff;"/><path d="M0,94.855c39.019,-0.094 689.729,-1.039 691.714,-1.319c5.874,-0.826 12.425,-3.027 15.808,-5.31c0.699,-0.471 1.584,-0.936 1.966,-1.032c0.382,-0.096 0.695,-0.288 0.695,-0.426c0,-0.429 -1.302,-0.277 -2.679,0.313c-1.65,0.707 -2.114,0.71 -2.114,0.012c-0,-0.495 0.551,-1.495 1.831,-3.318c0.731,-1.043 2.896,-2.147 4.195,-2.139c0.64,0.004 3.109,0.596 5.487,1.316c2.378,0.72 4.364,1.309 4.415,1.309c0.169,0 2.007,-2.666 3.194,-4.634c1.147,-1.903 1.471,-2.979 0.897,-2.979c-0.155,0 -0.282,-0.5 -0.282,-1.112c0,-1.525 -0.772,-2.706 -3.171,-4.844c-3.895,-3.472 -7.573,-5.846 -11.46,-7.394c-2.598,-1.035 -6.14,-3.878 -7.405,-5.944c-1.313,-2.143 -2.462,-3.512 -3.594,-4.281c-0.558,-0.38 -1.447,-1.004 -1.974,-1.387c-0.527,-0.383 -1.318,-0.697 -1.758,-0.697c-0.647,0 -0.879,0.188 -1.209,0.977c-0.416,0.997 -1.412,1.509 -2.284,1.175c-0.445,-0.171 -0.536,-0.354 -0.822,-1.658c-0.093,-0.427 -0.345,-0.776 -0.559,-0.776c-0.298,0 -0.439,-0.778 -0.596,-3.295l-0.206,-3.295l1.046,-0.958c0.927,-0.85 1.001,-1.012 0.648,-1.428c-1.346,-1.586 -1.365,-4.348 -0.043,-6.193c0.809,-1.131 3.935,-3.41 6.228,-4.542c2.563,-1.265 6.003,-2.058 9.114,-2.101c4.886,-0.067 7.078,0.937 11.461,5.244l2.297,2.258l1.909,-0.599c3.182,-0.998 5.543,-0.773 11.542,1.102c4.116,1.286 10.522,3.862 12.266,4.932c0.543,0.333 2.002,1.154 3.243,1.825c1.24,0.671 3.48,2.019 4.976,2.995c3.701,2.416 5.888,3.385 8.417,3.729c3.586,0.488 13.349,2.25 17.484,3.156c7.012,1.536 10.607,2.801 11.4,4.012c0.651,0.994 0.327,1.483 -1.462,2.209c-1.387,0.563 -2.088,0.644 -5.766,0.659c-2.303,0.01 -3.962,0.103 -3.687,0.207c0.275,0.104 2.467,0.402 4.87,0.663c8.78,0.951 14.852,2.302 17.612,3.92c1.62,0.949 1.703,1.747 0.293,2.822c-1.967,1.501 -2.653,1.634 -9.727,1.894c-9.37,0.344 -13.374,0.701 -15.509,1.382c-7.117,2.27 -9.988,2.492 -14.424,1.114c-4.051,-1.259 -6.623,-2.518 -9.428,-4.617c-1.364,-1.02 -2.533,-1.801 -2.598,-1.735c-0.065,0.065 1.335,1.553 3.113,3.305c4.114,4.058 6.618,7.689 7.447,10.801c0.443,1.663 0.5,5.151 0.102,6.199c-0.453,1.19 -1.939,2.329 -3.744,2.87c-0.925,0.277 -1.743,0.664 -1.819,0.861c-0.075,0.197 0.122,0.855 0.439,1.463c0.317,0.608 0.663,1.57 0.77,2.138l0.194,1.034l3.841,-0.194c2.113,-0.106 8.473,-0.184 14.134,-0.173c5.66,0.012 14.827,0.024 20.372,0.031l702.9,0.222l0,2.575l-709.245,-0.275c-9.033,-0.036 -19.34,-0.044 -22.904,-0.019l-6.481,0.044l1.019,0.692c0.585,0.398 1.102,1.028 1.214,1.481c0.225,0.907 1.206,2.057 1.754,2.057c0.237,-0 0.374,0.351 0.374,0.961c-0,0.734 -0.212,1.14 -0.894,1.714c-0.866,0.729 -0.88,0.776 -0.449,1.506c0.245,0.414 0.536,1.235 0.646,1.824c0.2,1.067 0.197,1.071 -0.609,0.88c-0.986,-0.233 -0.765,-0.008 -3.026,-3.079c-2.047,-2.781 -4.319,-5.216 -4.865,-5.216c-0.615,-0 -1.518,-1.449 -1.518,-2.435c0,-0.522 0.129,-0.949 0.287,-0.949c0.164,0 0.213,-0.296 0.115,-0.69c-0.151,-0.601 -0.052,-0.721 0.77,-0.933c1.16,-0.299 1.345,-1.07 0.512,-2.129c-0.637,-0.81 -1.273,-0.984 -1.484,-0.407c-0.098,0.267 -0.213,0.274 -0.476,0.027c-0.471,-0.442 -0.104,-2.635 0.442,-2.635c0.219,-0 0.398,-0.19 0.398,-0.423c-0,-0.243 -0.254,-0.423 -0.597,-0.423c-0.458,0 -0.562,-0.131 -0.449,-0.564c0.081,-0.31 0.032,-0.634 -0.108,-0.721c-0.141,-0.087 -0.256,-0.404 -0.256,-0.705c0,-0.747 1.375,-0.737 2.333,0.017c0.394,0.31 0.95,0.563 1.236,0.562c0.736,-0.001 2.256,-0.984 2.645,-1.709c0.913,-1.707 -0.128,-6.448 -2.02,-9.197c-0.508,-0.738 -2.329,-2.805 -4.047,-4.593c-1.718,-1.788 -3.787,-3.948 -4.598,-4.801c-0.855,-0.899 -1.619,-2.021 -1.818,-2.669c-0.188,-0.615 -0.881,-1.68 -1.54,-2.368l-1.197,-1.25l-14.538,0.396l-3.656,-0.893c-3.369,-0.822 -3.778,-0.865 -5.216,-0.552c-1.894,0.411 -5.613,1.691 -5.801,1.995c-0.166,0.269 0.638,1.111 1.061,1.111c0.168,0 0.076,-0.253 -0.205,-0.564c-0.438,-0.484 -0.447,-0.564 -0.067,-0.564c0.244,0 0.503,0.159 0.575,0.353c0.097,0.257 0.237,0.225 0.517,-0.119c0.606,-0.74 4.132,-1.703 5.435,-1.483c1.062,0.179 2.422,1.19 2.422,1.8c0,0.392 -0.5,0.372 -1.999,-0.079c-0.996,-0.299 -1.542,-0.306 -2.744,-0.035c-0.826,0.186 -1.642,0.479 -1.814,0.651c-0.229,0.229 -0.054,0.235 0.655,0.023c2.492,-0.746 5.402,0.045 5.57,1.514l0.091,0.791l-1.21,-0.617c-0.676,-0.345 -1.969,-0.679 -2.926,-0.756c-1.607,-0.129 -1.747,-0.091 -2.195,0.593c-0.275,0.42 -0.645,0.666 -0.872,0.579c-0.216,-0.083 -0.469,-0.03 -0.561,0.119c-0.105,0.17 0.915,0.216 2.736,0.123l2.903,-0.148l2.241,1.224c1.232,0.673 2.408,1.388 2.613,1.588c0.205,0.201 0.554,0.365 0.775,0.365c0.222,-0 0.404,0.095 0.406,0.211c0.006,0.352 2.036,1.149 3.284,1.289c2.176,0.243 8.394,3.545 11.808,6.271c0.626,0.5 2.141,1.517 3.367,2.262c5.392,3.273 5.928,4.647 6.206,15.908c0.298,12.039 0.116,14.518 -1.257,17.132c-0.394,0.748 -0.569,1.45 -0.466,1.861c0.091,0.364 0.078,0.749 -0.029,0.856c-0.107,0.108 -0.453,0.158 -0.77,0.112c-0.609,-0.087 -0.696,-0.595 -0.34,-1.985c0.192,-0.752 0.162,-0.776 -0.947,-0.776c-1.163,0 -2.59,-0.884 -2.008,-1.243c0.28,-0.174 0.261,-1.04 -0.041,-1.859c-0.085,-0.232 -0.307,-1.278 -0.491,-2.324c-0.287,-1.622 -0.27,-2.065 0.111,-3.018c0.312,-0.778 0.354,-1.176 0.141,-1.308c-0.168,-0.104 -0.4,-0.036 -0.516,0.15c-0.115,0.186 -0.767,0.463 -1.448,0.614c-0.682,0.152 -1.708,0.65 -2.281,1.107c-1.053,0.842 -1.547,0.962 -2.695,0.654c-0.98,-0.262 -0.765,-0.864 0.846,-2.367l1.48,-1.381l-1.343,-0.011c-1.198,-0.009 -1.402,-0.106 -1.88,-0.893c-0.609,-1.001 -0.519,-1.47 0.491,-2.564c0.39,-0.423 0.746,-1.111 0.79,-1.529c0.216,-2.021 0.955,-2.699 3.352,-3.072c2.017,-0.315 3.768,-0.987 3.868,-1.486c0.052,-0.262 -0.002,-1.299 -0.121,-2.304c-0.161,-1.363 -0.429,-2.115 -1.053,-2.961c-0.46,-0.623 -1.307,-2.072 -1.882,-3.22c-1.582,-3.162 -4.603,-5.865 -9.828,-8.795l-1.686,-0.945l0.587,0.838c0.323,0.461 0.677,1.212 0.788,1.668c0.111,0.456 0.575,1.301 1.033,1.879c1.428,1.803 2.323,4.081 2.115,5.382c-0.37,2.311 -1.899,3.967 -4.561,4.939c-3.15,1.15 -9.679,0.424 -16.912,-1.88c-3.489,-1.111 -7.422,-1.774 -7.06,-1.189c0.104,0.169 0.363,0.24 0.576,0.159c0.639,-0.246 2.846,0.925 3.197,1.695c0.313,0.688 0.41,0.712 2.943,0.697c5.61,-0.032 12.933,2.287 14.633,4.634c0.965,1.332 1.007,1.729 0.252,2.376c-0.31,0.265 -0.564,0.649 -0.564,0.853c-0,0.705 -0.937,1.795 -2.017,2.346c-0.597,0.304 -1.085,0.678 -1.085,0.83c0,0.152 -0.187,0.276 -0.416,0.276c-0.752,-0 -1.343,-1.375 -1.574,-3.661c-0.289,-2.869 -0.657,-3.595 -2.358,-4.646c-1.366,-0.844 -1.458,-0.859 -6.062,-1c-4.67,-0.142 -4.676,-0.142 -5.532,0.564c-0.988,0.814 -3.96,2.212 -6.615,3.113c-1.008,0.341 -3.246,1.109 -4.973,1.706c-1.726,0.597 -4.074,1.275 -5.216,1.506c-2.908,0.59 -653.567,1.671 -695.19,1.811c-0.003,-0.872 -0.007,-1.744 -0.011,-2.616Zm729.639,-0.725c-0,-0.155 0.127,-0.282 0.282,-0.282c0.155,-0 0.282,0.127 0.282,0.282c-0,0.155 -0.127,0.282 -0.282,0.282c-0.155,-0 -0.282,-0.127 -0.282,-0.282Zm19.489,12.477c0.033,-1.04 0.037,-1.043 0.232,-0.212c0.188,0.801 0.136,1.269 -0.141,1.269c-0.068,0 -0.109,-0.476 -0.091,-1.057Zm-6.237,-4.749c0,-0.092 0.254,-0.49 0.564,-0.884c0.31,-0.394 0.564,-0.89 0.564,-1.102c0,-0.552 0.258,-0.476 0.851,0.25c0.47,0.577 0.535,0.589 0.709,0.141c0.106,-0.272 0.417,-0.494 0.692,-0.494c0.274,0 0.691,-0.285 0.926,-0.634c0.234,-0.349 0.524,-0.54 0.644,-0.424c0.281,0.271 -0.364,1.701 -0.679,1.506c-0.132,-0.081 -1.051,0.285 -2.044,0.814c-1.837,0.979 -2.227,1.124 -2.227,0.827Zm6.486,0.167c-0,-0.155 0.119,-0.282 0.265,-0.282c0.146,-0 0.344,0.127 0.44,0.282c0.095,0.155 -0.024,0.282 -0.266,0.282c-0.242,-0 -0.439,-0.127 -0.439,-0.282Zm-0.564,2.662c-0,-0.242 0.127,-0.361 0.282,-0.265c0.155,0.095 0.282,0.293 0.282,0.439c-0,0.146 -0.127,0.265 -0.282,0.265c-0.155,0 -0.282,-0.197 -0.282,-0.439Zm-6.581,-6.024c0.439,-0.365 1.787,-0.857 1.783,-0.65c-0.009,0.426 -0.438,0.849 -0.983,0.969c-0.667,0.147 -1.135,-0.04 -0.8,-0.319Zm-0.085,-2.642c0.342,-1.364 5.848,-2.88 6.289,-1.731c0.265,0.691 -0.172,0.917 -2.444,1.262c-1.162,0.177 -2.491,0.557 -2.952,0.844c-0.976,0.607 -1.124,0.545 -0.893,-0.375Zm2.436,1.774c0,-0.155 0.127,-0.282 0.282,-0.282c0.155,0 0.282,0.127 0.282,0.282c0,0.156 -0.127,0.282 -0.282,0.282c-0.155,0 -0.282,-0.127 -0.282,-0.282Zm6.228,7.229c-0.254,-1.594 -0.268,-2.304 -0.048,-2.524c0.168,-0.168 0.305,-0.513 0.305,-0.767c0,-0.323 0.252,-0.46 0.846,-0.46c0.466,-0 0.846,0.106 0.846,0.235c0,0.129 -0.127,0.235 -0.282,0.235c-0.155,-0 -0.282,0.175 -0.282,0.39c0,0.214 -0.274,0.462 -0.61,0.55c-0.512,0.133 -0.552,0.229 -0.252,0.59c0.261,0.316 0.496,0.358 0.873,0.156c0.653,-0.349 0.835,-0.348 0.835,0.006c0,0.155 -0.186,0.282 -0.413,0.282c-0.227,0 -0.544,0.245 -0.705,0.545c-0.392,0.734 -0.369,1.055 0.047,0.639c0.41,-0.41 1.071,-0.445 1.071,-0.056c0,0.155 -0.177,0.282 -0.393,0.282c-0.468,-0 -0.735,0.605 -0.735,1.668c0,0.895 -0.309,1.333 -0.57,0.807c-0.098,-0.198 -0.338,-1.359 -0.533,-2.578Zm-1.005,-6.171c0.074,-1.28 0.194,-2.771 0.268,-3.313c0.287,-2.112 0.712,-5.784 0.712,-6.142c0,-0.207 0.122,-0.302 0.27,-0.21c0.148,0.092 0.21,0.322 0.137,0.512c-0.073,0.19 0.155,0.472 0.506,0.627c0.549,0.242 0.631,0.475 0.589,1.66c-0.027,0.758 -0.196,1.469 -0.375,1.58c-0.326,0.201 -0.308,0.406 0.279,3.226c0.304,1.463 0.208,1.731 -0.677,1.891c-0.311,0.057 -0.65,0.457 -0.798,0.944c-0.141,0.465 -0.307,1.005 -0.367,1.199c-0.06,0.194 -0.238,0.352 -0.394,0.352c-0.179,0 -0.235,-0.861 -0.15,-2.326Zm-4.081,-1.206c0.054,-0.264 2.268,-1.048 2.449,-0.867c0.048,0.049 0.011,0.29 -0.084,0.536c-0.232,0.605 -2.485,0.92 -2.365,0.331Zm11.905,-2.842c0.094,-0.093 0.337,-0.103 0.541,-0.022c0.224,0.09 0.158,0.157 -0.171,0.17c-0.297,0.013 -0.464,-0.054 -0.37,-0.148Zm3.025,5.387c-0.147,-0.388 -0.366,-0.705 -0.486,-0.706c-0.453,-0.002 -2.333,-1.964 -2.333,-2.434c-0,-0.393 0.174,-0.327 0.883,0.338c0.569,0.534 0.927,0.706 1.007,0.484c0.082,-0.224 0.24,-0.251 0.457,-0.077c1.813,1.457 2.008,1.673 1.524,1.681c-0.39,0.007 -0.46,0.163 -0.322,0.714c0.111,0.441 0.058,0.705 -0.142,0.705c-0.176,-0 -0.44,-0.317 -0.588,-0.705Zm-32.708,-5.291c0,-0.041 -0.243,-0.739 -0.54,-1.551c-0.595,-1.628 -0.518,-1.774 0.451,-0.863c0.666,0.626 0.944,2.489 0.371,2.489c-0.155,-0 -0.282,-0.034 -0.282,-0.075Zm-4.229,-10.097c-0.854,-0.01 -0.91,-0.05 -0.415,-0.293c0.315,-0.154 0.947,-0.877 1.405,-1.605c0.458,-0.728 1.297,-1.831 1.864,-2.452c1.312,-1.435 1.699,-2.802 1.369,-4.831c-0.262,-1.609 -1.709,-4.096 -3.463,-5.95c-0.475,-0.501 -0.798,-0.976 -0.72,-1.055c0.188,-0.188 2.959,1.151 3.205,1.549c0.105,0.169 0.845,0.602 1.644,0.961c1.312,0.59 1.55,0.845 2.426,2.593c0.534,1.067 1.296,2.373 1.692,2.902c1.065,1.423 2.49,3.699 2.994,4.784c0.769,1.654 0.114,2.512 -2.696,3.533c-0.233,0.085 -2.2,0.091 -4.371,0.015c-2.171,-0.077 -4.392,-0.145 -4.934,-0.151Zm25.885,-0.473c-0.678,-0.726 -2.056,-3.454 -1.744,-3.454c0.078,0 0.832,0.653 1.676,1.451c1.012,0.957 1.533,1.676 1.533,2.115c0,0.883 -0.576,0.839 -1.465,-0.112Zm-40.019,-24.883c-1.126,-0.286 -3.889,-2.16 -4.132,-2.802c-0.043,-0.115 0.507,-0.23 1.223,-0.257c1.415,-0.054 2.16,-0.352 3.187,-1.277c0.667,-0.6 2.149,-2.802 2.776,-4.123c0.605,-1.276 1.422,-3.232 1.617,-3.87c0.256,-0.839 1.481,-1.77 2.329,-1.77c0.592,0 0.655,0.087 0.456,0.635c-0.415,1.141 -0.147,3.834 0.583,5.867c0.943,2.627 2.62,4.754 4.358,5.526c0.43,0.191 0.569,0.352 0.327,0.377c-0.233,0.025 -0.614,0.087 -0.846,0.138c-0.453,0.1 -5.874,1.806 -6.344,1.997c-0.488,0.198 -4.172,-0.096 -5.534,-0.441Zm38.524,33.836c-0.096,-0.155 -0.04,-0.282 0.124,-0.282c0.164,-0 0.299,0.127 0.299,0.282c-0,0.155 -0.056,0.282 -0.125,0.282c-0.068,-0 -0.202,-0.127 -0.298,-0.282Zm17.623,-23.026c-4.222,-1.171 -7.733,-3.07 -13.535,-7.318c-2.586,-1.894 -3.166,-2.416 -4.188,-3.763l-0.664,-0.876l6.365,0.061c4.91,0.048 6.301,0.139 6.085,0.4c-0.394,0.475 0.285,0.685 2.224,0.689c1.825,0.004 7.117,0.897 9.211,1.556c1.475,0.463 7.527,1.677 10.433,2.091c2.616,0.374 11.706,1.918 15.873,2.698c2.062,0.385 4.068,0.701 4.458,0.701c0.39,-0 0.643,0.107 0.562,0.237c-0.133,0.215 -7.295,0.64 -17.461,1.037c-3.241,0.127 -4.337,0.29 -6.486,0.969c-2.621,0.827 -6.516,1.87 -7.802,2.088c-1.036,0.176 -3.307,-0.079 -5.075,-0.57Zm-52.164,-7.796c-0.853,-0.397 -1.9,-0.807 -2.326,-0.912c-1.325,-0.324 -0.85,-0.64 0.522,-0.347c0.713,0.152 1.842,0.644 2.508,1.093c0.666,0.45 1.351,0.817 1.522,0.817c0.171,0 0.311,0.132 0.311,0.292c0,0.188 -0.175,0.2 -0.493,0.035c-0.271,-0.141 -1.191,-0.582 -2.044,-0.978Zm61.302,-3.312c-1.226,-0.164 -3.753,-0.399 -5.614,-0.523c-2.681,-0.179 -2.974,-0.234 -1.409,-0.266c1.085,-0.023 3.369,0.093 5.075,0.256c1.706,0.163 3.638,0.329 4.293,0.368c0.655,0.04 1.278,0.16 1.386,0.267c0.28,0.281 -1.159,0.241 -3.731,-0.102Zm-39.909,-0.343c0.336,-0.336 10.256,-0.397 10.372,-0.064c0.062,0.181 -1.807,0.282 -5.246,0.282c-2.939,-0 -5.246,-0.098 -5.126,-0.218Zm26.964,-0.758c-1.545,-0.192 -1.582,-0.211 -0.423,-0.224c0.698,-0.008 1.967,0.083 2.82,0.201c1.331,0.184 1.391,0.215 0.423,0.223c-0.62,0.005 -1.889,-0.085 -2.82,-0.2Zm-34.464,-1.799c-3.84,-0.835 -5.366,-1.659 -6.473,-3.496c-1.074,-1.78 -1.499,-2.788 -1.497,-3.541c0.003,-0.92 2.062,-3.156 3.594,-3.903c1.728,-0.843 4.432,-0.835 8.529,0.027c5.96,1.254 10.431,1.017 12.538,-0.662l0.804,-0.641l1.153,0.548c1.02,0.485 8.74,4.92 10.6,6.09c1.802,1.134 2.706,1.462 5.822,2.116c1.838,0.385 4.103,0.969 5.034,1.297c1.924,0.679 5.443,1.407 6.908,1.43c0.543,0.009 1.875,0.262 2.96,0.564l1.974,0.547l-1.551,-0.149c-4.49,-0.432 -11.913,-0.958 -15.649,-1.108c-9.261,-0.374 -10.474,-0.39 -11.56,-0.154c-0.621,0.135 -2.841,0.388 -4.935,0.563c-2.094,0.174 -5.329,0.552 -7.19,0.839c-4.133,0.637 -6.862,0.547 -11.061,-0.367Zm-23.901,-0.747c-0.099,-0.16 0.014,-0.207 0.265,-0.111c0.489,0.188 0.578,0.39 0.172,0.39c-0.145,-0 -0.342,-0.126 -0.437,-0.279Zm13.316,8.738c-0.266,-0.31 -0.413,-0.564 -0.326,-0.564c0.365,0 1.247,0.606 1.247,0.856c0,0.441 -0.403,0.313 -0.921,-0.292Zm-13.318,-10.747c-0.742,-0.205 -1.611,-0.808 -2.538,-1.761c-1.525,-1.568 -2.678,-2.922 -2.678,-3.143c-0,-0.342 2.219,-0.099 2.531,0.276c0.19,0.229 0.808,0.494 1.374,0.589c1.524,0.256 1.809,0.366 2.551,0.986c0.568,0.474 0.628,0.668 0.379,1.216c-0.501,1.099 -0.05,1.403 1.749,1.179c1.351,-0.169 1.638,-0.308 1.864,-0.901c0.301,-0.793 -0.02,-1.625 -0.732,-1.899c-0.306,-0.117 -0.391,-0.359 -0.267,-0.751c0.238,-0.75 -0.986,-2.393 -1.966,-2.639c-0.394,-0.099 -0.716,-0.307 -0.716,-0.463c-0,-0.156 -0.317,-0.404 -0.705,-0.552c-0.891,-0.339 -0.953,-0.98 -0.071,-0.735c0.349,0.096 0.943,0.257 1.319,0.358l0.684,0.181l-0.613,-0.862c-0.637,-0.894 -0.837,-2.718 -0.332,-3.03c0.155,-0.096 0.282,-0.418 0.282,-0.715c-0,-0.455 0.144,-0.514 0.916,-0.378c1.039,0.185 2.654,0.98 4.512,2.221c0.923,0.616 1.27,1.037 1.28,1.55c0.025,1.207 -1.003,5.076 -1.348,5.076c-0.104,-0 -0.496,0.666 -0.871,1.48c-0.787,1.706 -1.57,2.64 -2.375,2.832c-1.06,0.252 -3.1,0.196 -4.229,-0.115Zm1.627,1.554c0.094,-0.094 0.337,-0.104 0.541,-0.022c0.224,0.09 0.158,0.156 -0.171,0.17c-0.297,0.012 -0.464,-0.055 -0.37,-0.148Zm-12.047,-5.117c-0.134,-0.442 -0.075,-0.634 0.194,-0.634c0.705,-0 1.055,0.582 0.696,1.157c-0.359,0.575 -0.601,0.433 -0.89,-0.523Zm0.692,-7.053c0,-0.288 1.146,-0.989 1.325,-0.81c0.206,0.205 -0.557,1.001 -0.973,1.014c-0.193,0.006 -0.352,-0.086 -0.352,-0.204Zm11.168,6.627c-0.357,-0.567 -0.13,-0.847 0.493,-0.608c0.255,0.098 0.464,0.429 0.464,0.735c-0,0.634 -0.521,0.564 -0.957,-0.127Zm-3.704,-7.762c0.087,-0.228 0.019,-0.582 -0.152,-0.788c-0.171,-0.207 -0.226,-0.514 -0.121,-0.683c0.37,-0.599 0.986,0.326 0.986,1.48c0,0.985 -0.055,1.082 -0.436,0.766c-0.239,-0.199 -0.364,-0.548 -0.277,-0.775Zm18.266,-0.507c0.268,-0.268 0.807,0.167 0.607,0.491c-0.119,0.193 -0.277,0.187 -0.479,-0.015c-0.166,-0.166 -0.224,-0.38 -0.128,-0.476Zm1.29,2.332c0.337,-0.359 0.613,-0.829 0.613,-1.043c-0,-0.304 0.075,-0.316 0.338,-0.053c0.487,0.487 0.721,0.424 1.214,-0.328c0.332,-0.507 0.369,-0.845 0.154,-1.41c-0.328,-0.862 -0.873,-0.934 -2.006,-0.265c-0.446,0.264 -0.9,0.39 -1.008,0.281c-0.335,-0.334 1.011,-1.53 2.658,-2.364c2.236,-1.131 4.765,-1.085 8.942,0.164c1.706,0.509 3.482,1.1 3.947,1.311c0.465,0.212 1.84,0.774 3.054,1.25c1.214,0.476 2.8,1.167 3.524,1.535l1.317,0.669l-1.269,0.345c-1.861,0.506 -6.582,0.183 -10.432,-0.714c-4.173,-0.972 -6.603,-0.872 -9.305,0.382c-2.241,1.04 -2.53,1.08 -1.741,0.24Zm-8.301,-1.264c-1.193,-0.952 -1.329,-1.772 -0.155,-0.935c0.441,0.313 0.976,0.78 1.189,1.037c0.213,0.257 0.646,0.583 0.962,0.725c0.456,0.204 0.408,0.224 -0.234,0.096c-0.444,-0.089 -1.237,-0.504 -1.762,-0.923Zm-3.623,-2.241c-1.193,-0.72 -1.472,-1.184 -0.839,-1.393c0.413,-0.135 2.027,0.945 2.371,1.588c0.424,0.792 0.016,0.74 -1.532,-0.195Zm-16.097,-0.47c-0.23,-1.225 0.022,-2.016 1.062,-3.338c1.026,-1.304 1.512,-1.349 1.537,-0.141c0.018,0.886 0.589,2.38 1.286,3.37c0.458,0.649 0.035,1.009 -0.526,0.449c-0.341,-0.342 -0.652,-0.39 -1.313,-0.2c-0.476,0.136 -0.995,0.377 -1.153,0.535c-0.488,0.488 -0.705,0.324 -0.893,-0.675Zm10.87,-0.315c-0,-0.451 0.749,-0.887 1.034,-0.603c0.09,0.09 0.088,0.36 -0.004,0.599c-0.216,0.563 -1.03,0.566 -1.03,0.004Zm-3.102,-0.031c0,-0.255 -0.197,-0.607 -0.438,-0.783c-0.265,-0.194 -0.365,-0.513 -0.252,-0.807c0.274,-0.714 0.69,-0.592 0.69,0.202c0,0.379 0.127,0.767 0.282,0.863c0.155,0.096 0.282,0.357 0.282,0.581c0,0.223 -0.127,0.406 -0.282,0.406c-0.155,-0 -0.282,-0.208 -0.282,-0.462Zm15.086,3.846c0.783,-0.337 1.335,-0.337 1.127,-0c-0.095,0.155 -0.515,0.273 -0.933,0.262c-0.677,-0.017 -0.698,-0.046 -0.194,-0.262Zm-13.987,-5.159c0.362,-0.362 0.729,-0.083 0.461,0.351c-0.104,0.168 -0.318,0.225 -0.476,0.128c-0.193,-0.119 -0.188,-0.277 0.015,-0.479Zm-3.073,7.414c0,-0.155 0.191,-0.282 0.423,-0.282c0.233,0 0.423,0.127 0.423,0.282c0,0.155 -0.19,0.282 -0.423,0.282c-0.232,0 -0.423,-0.127 -0.423,-0.282Zm5.922,1.813c-0,-0.262 0.192,-0.406 0.47,-0.352c0.707,0.137 0.804,0.796 0.117,0.796c-0.346,-0 -0.587,-0.182 -0.587,-0.444Zm-12.426,-0.76c-0.246,-0.33 0.161,-2.999 0.51,-3.348c0.223,-0.223 0.59,-0.026 1.328,0.712c0.561,0.56 1.174,1.023 1.363,1.027c0.188,0.004 0.704,0.376 1.146,0.827c0.441,0.45 0.968,0.755 1.17,0.678c0.201,-0.078 0.448,-0.011 0.547,0.15c0.212,0.344 -5.809,0.298 -6.064,-0.046Zm8.216,-2.144c-0.155,-0.289 -0.202,-0.607 -0.104,-0.704c0.355,-0.355 0.868,-0.167 1.008,0.369c0.248,0.951 -0.438,1.206 -0.904,0.335Zm1.29,3.203c0.194,-0.507 0.376,-0.513 1.007,-0.034c0.356,0.271 0.4,0.451 0.168,0.683c-0.433,0.433 -1.388,-0.095 -1.175,-0.649Zm1.792,-0.984c-0,-0.155 0.056,-0.282 0.124,-0.282c0.069,0 0.203,0.127 0.299,0.282c0.096,0.155 0.04,0.282 -0.124,0.282c-0.165,0 -0.299,-0.127 -0.299,-0.282Zm9.595,-1.963c-0.228,-0.144 -0.346,-0.331 -0.261,-0.415c0.084,-0.085 0.398,0.031 0.696,0.257c0.595,0.45 0.234,0.581 -0.435,0.158Zm-15.722,-1.332c-0.055,-0.164 0.16,-0.366 0.476,-0.449c0.351,-0.092 0.576,-0.015 0.576,0.199c-0,0.729 -0.827,0.926 -1.052,0.25Zm14.914,-3.759c-1.242,-1.244 -2.685,-2.44 -3.207,-2.658c-1.048,-0.438 -4.264,-0.59 -5.971,-0.283c-0.781,0.14 -1.04,0.106 -0.9,-0.12c0.108,-0.175 0.443,-0.318 0.744,-0.318c0.669,0 0.689,-0.221 0.08,-0.894c-0.587,-0.649 -1.342,-0.644 -2.776,0.017c-1.712,0.79 -2.493,1.768 -2.261,2.828c0.116,0.524 0.078,0.869 -0.094,0.869c-0.395,-0 -0.526,-0.664 -0.586,-2.964l-0.051,-1.978l1.978,-0.769c3.97,-1.545 6.085,-1.972 9.169,-1.853c2.497,0.096 3.025,0.21 4.352,0.937c2.938,1.61 5.681,4.631 5.679,6.255c-0.001,1.018 -0.946,2.573 -1.763,2.901c-1.519,0.611 -2.055,0.371 -4.393,-1.97Zm-13.537,1.007c-0.062,-0.322 0.039,-0.457 0.282,-0.377c0.209,0.07 0.423,0.353 0.477,0.629c0.062,0.322 -0.039,0.457 -0.282,0.376c-0.209,-0.069 -0.423,-0.352 -0.477,-0.628Zm32.876,59.482c0.503,-0.57 0.436,-1.741 -0.111,-1.951c-0.605,-0.232 -0.858,0.036 -0.434,0.46c0.406,0.406 0.442,1.349 0.052,1.349c-0.155,0 -0.282,-0.211 -0.282,-0.47c-0,-0.258 -0.075,-0.395 -0.167,-0.303c-0.207,0.207 0.133,1.341 0.397,1.326c0.106,-0.006 0.351,-0.191 0.545,-0.411Zm0.917,-2.061c-0,-0.147 -0.191,-0.426 -0.423,-0.619c-0.233,-0.193 -0.423,-0.263 -0.423,-0.155c-0,0.108 0.19,0.386 0.423,0.619c0.232,0.232 0.423,0.302 0.423,0.155Z" style="fill:#808080;"/></svg>