<?xml version="1.0" encoding="UTF-8" standalone="no"?><!DOCTYPE svg PUBLIC "-//W3C//DTD SVG 1.1//EN" "http://www.w3.org/Graphics/SVG/1.1/DTD/svg11.dtd"><svg width="100%" height="100%" viewBox="0 0 194 1219" version="1.1" xmlns="http://www.w3.org/2000/svg" xmlns:xlink="http://www.w3.org/1999/xlink" xml:space="preserve" xmlns:serif="http://www.serif.com/" style="fill-rule:evenodd;clip-rule:evenodd;stroke-linejoin:round;stroke-miterlimit:2;"><g><path d="M0,40.196c0,-9.799 1.15,-17.648 3.45,-23.548c2.299,-5.899 6.399,-10.149 12.298,-12.748c5.9,-2.6 14.449,-3.9 25.648,-3.9l75.291,0c14.399,0 24.248,2.95 29.547,8.849c5.3,5.899 7.949,15.948 7.949,30.147c0,13.998 -2.599,23.947 -7.799,29.847c-5.199,5.899 -14.798,8.849 -28.797,8.849l-18.598,-0l0,-14.399l18.898,0c9.399,0 16.248,-1.55 20.548,-4.649c4.3,-3.1 6.449,-9.649 6.449,-19.648c0,-9.799 -2.149,-16.348 -6.449,-19.648c-4.3,-3.3 -11.149,-4.95 -20.548,-4.95l-79.491,0c-10.599,0 -17.998,1.65 -22.198,4.95c-4.199,3.3 -6.299,10.149 -6.299,20.548c-0,9.399 2.05,15.648 6.149,18.748c4.1,3.099 11.549,4.649 22.348,4.649l18.298,0l-0,14.399l-15.298,-0c-10.799,-0 -19.198,-1.3 -25.198,-3.9c-5.999,-2.6 -10.199,-6.649 -12.598,-12.149c-2.4,-5.499 -3.6,-12.648 -3.6,-21.447Z" style="fill:#fff;fill-rule:nonzero;"/><path d="M0.6,186.88c-0,-9.199 1.25,-16.698 3.75,-22.498c2.499,-5.799 6.849,-10.049 13.048,-12.748c6.199,-2.7 14.599,-4.05 25.197,-4.05l71.093,0c14.198,0 24.397,2.95 30.596,8.849c6.2,5.899 9.299,16.048 9.299,30.447c0,14.398 -3.049,24.497 -9.149,30.296c-6.099,5.8 -16.348,8.7 -30.746,8.7l-71.093,-0c-10.398,-0 -18.698,-1.3 -24.897,-3.9c-6.199,-2.6 -10.599,-6.749 -13.198,-12.449c-2.6,-5.699 -3.9,-13.248 -3.9,-22.647Zm9.599,-0c-0,8.999 2.2,15.348 6.599,19.048c4.4,3.699 12.399,5.549 23.998,5.549l72.892,0c10.799,0 18.548,-1.8 23.247,-5.399c4.7,-3.6 7.049,-9.999 7.049,-19.198c0,-8.999 -2.249,-15.399 -6.749,-19.198c-4.499,-3.8 -12.349,-5.7 -23.547,-5.7l-72.892,0c-11.399,0 -19.348,1.9 -23.848,5.7c-4.499,3.799 -6.749,10.199 -6.749,19.198Z" style="fill:#fff;fill-rule:nonzero;"/><path d="M2.7,300.867l190.479,0l0,14.099l-190.479,-0l-0,-14.099Z" style="fill:#fff;fill-rule:nonzero;"/><path d="M2.7,394.157l190.479,0l0,14.099l-190.479,-0l-0,-14.099Z" style="fill:#fff;fill-rule:nonzero;"/><path d="M0,524.043c0,-9.999 1.15,-17.948 3.45,-23.847c2.299,-5.9 6.449,-10.149 12.448,-12.749c6,-2.6 14.599,-3.899 25.797,-3.899l75.892,-0c13.799,-0 23.248,2.949 28.347,8.849c5.1,5.899 7.649,15.948 7.649,30.146c0,13.999 -2.549,23.948 -7.649,29.847c-5.099,5.9 -14.548,8.849 -28.347,8.849l-37.796,0l0,-63.293l-42.295,0c-10.399,0 -17.698,1.65 -21.898,4.95c-4.199,3.299 -6.299,10.148 -6.299,20.547c-0,9.399 2,15.649 5.999,18.748c4,3.1 11.399,4.65 22.198,4.65l17.998,-0l-0,14.398l-13.499,0c-10.998,0 -19.547,-1.3 -25.647,-3.899c-6.099,-2.6 -10.349,-6.6 -12.748,-11.999c-2.4,-5.399 -3.6,-12.499 -3.6,-21.298Zm87.89,-26.097l0,48.895l29.997,-0c9.199,-0 15.899,-1.55 20.098,-4.65c4.2,-3.099 6.299,-9.649 6.299,-19.648c0,-9.799 -2.099,-16.348 -6.299,-19.647c-4.199,-3.3 -10.899,-4.95 -20.098,-4.95l-29.997,0Z" style="fill:#fff;fill-rule:nonzero;"/><path d="M0,671.327c0,-9.799 1.15,-17.648 3.45,-23.547c2.299,-5.9 6.399,-10.149 12.298,-12.749c5.9,-2.6 14.449,-3.899 25.648,-3.899l75.291,-0c14.399,-0 24.248,2.949 29.547,8.849c5.3,5.899 7.949,15.948 7.949,30.146c0,13.999 -2.599,23.948 -7.799,29.847c-5.199,5.9 -14.798,8.849 -28.797,8.849l-18.598,0l0,-14.398l18.898,-0c9.399,-0 16.248,-1.55 20.548,-4.65c4.3,-3.099 6.449,-9.649 6.449,-19.648c0,-9.799 -2.149,-16.348 -6.449,-19.647c-4.3,-3.3 -11.149,-4.95 -20.548,-4.95l-79.491,0c-10.599,0 -17.998,1.65 -22.198,4.95c-4.199,3.299 -6.299,10.148 -6.299,20.547c-0,9.399 2.05,15.649 6.149,18.748c4.1,3.1 11.549,4.65 22.348,4.65l18.298,-0l-0,14.398l-15.298,0c-10.799,0 -19.198,-1.3 -25.198,-3.899c-5.999,-2.6 -10.199,-6.65 -12.598,-12.149c-2.4,-5.499 -3.6,-12.649 -3.6,-21.448Z" style="fill:#fff;fill-rule:nonzero;"/><path d="M2.4,811.412c-0,-4.199 0.55,-7.999 1.65,-11.399c1.099,-3.399 2.799,-6.249 5.099,-8.549c2.3,-2.299 5.249,-3.999 8.849,-5.099c3.6,-1.1 7.999,-1.65 13.199,-1.65l110.388,-0l-0,-13.199l7.799,0l1.8,13.799l27.897,3l-0,10.498l-27.897,0l-0,33.297l-9.599,-0l-0,-33.297l-107.989,0c-5.999,0 -10.948,1.1 -14.848,3.3c-3.9,2.2 -5.849,6.699 -5.849,13.499c-0,2.999 0.1,6.099 0.3,9.299c0.2,3.199 0.4,5.599 0.6,7.199l-9.599,-0c-0.2,-1.8 -0.55,-4.6 -1.05,-8.399c-0.5,-3.8 -0.75,-7.899 -0.75,-12.299Z" style="fill:#fff;fill-rule:nonzero;"/><path d="M2.7,897.203l148.484,-0l-0,14.098l-148.484,0l-0,-14.098Zm167.382,7.199c-0,-2.6 0.899,-4.799 2.699,-6.599c1.8,-1.8 3.9,-2.7 6.3,-2.7c2.599,0 4.699,0.9 6.299,2.7c1.6,1.8 2.4,3.999 2.4,6.599c-0,2.4 -0.8,4.55 -2.4,6.449c-1.6,1.9 -3.7,2.85 -6.299,2.85c-2.4,0 -4.5,-0.95 -6.3,-2.85c-1.8,-1.899 -2.699,-4.049 -2.699,-6.449Z" style="fill:#fff;fill-rule:nonzero;"/><path d="M0.6,1025.89c-0,-9.199 1.25,-16.698 3.75,-22.498c2.499,-5.799 6.849,-10.049 13.048,-12.748c6.199,-2.7 14.599,-4.05 25.197,-4.05l71.093,0c14.198,0 24.397,2.95 30.596,8.849c6.2,5.9 9.299,16.048 9.299,30.447c0,14.398 -3.049,24.497 -9.149,30.297c-6.099,5.799 -16.348,8.699 -30.746,8.699l-71.093,-0c-10.398,-0 -18.698,-1.3 -24.897,-3.9c-6.199,-2.6 -10.599,-6.749 -13.198,-12.449c-2.6,-5.699 -3.9,-13.248 -3.9,-22.647Zm9.599,-0c-0,8.999 2.2,15.348 6.599,19.048c4.4,3.699 12.399,5.549 23.998,5.549l72.892,0c10.799,0 18.548,-1.8 23.247,-5.399c4.7,-3.6 7.049,-9.999 7.049,-19.198c0,-8.999 -2.249,-15.398 -6.749,-19.198c-4.499,-3.8 -12.349,-5.699 -23.547,-5.699l-72.892,-0c-11.399,-0 -19.348,1.899 -23.848,5.699c-4.499,3.8 -6.749,10.199 -6.749,19.198Z" style="fill:#fff;fill-rule:nonzero;"/><path d="M2.7,1139.88l148.484,-0l-0,11.698l-15.299,2.1c5.8,1.6 10.249,5.349 13.349,11.249c3.099,5.899 4.649,11.949 4.649,18.148c0,10.799 -1.899,18.698 -5.699,23.697c-3.8,5 -8.699,8.199 -14.698,9.599c-6,1.4 -12.399,2.1 -19.198,2.1l-111.588,-0l-0,-14.398l109.188,-0c3.799,-0 7.549,-0.1 11.249,-0.3c3.699,-0.2 7.049,-1.05 10.049,-2.55c2.999,-1.5 5.399,-3.95 7.199,-7.349c1.8,-3.4 2.699,-8.299 2.699,-14.699c0,-5.799 -1.049,-10.449 -3.149,-13.948c-2.1,-3.5 -4.6,-6 -7.499,-7.499c-2.9,-1.5 -5.65,-2.65 -8.249,-3.45l-121.487,-0l-0,-14.398Z" style="fill:#fff;fill-rule:nonzero;"/></g></svg>