<?xml version="1.0" encoding="UTF-8" standalone="no"?><!DOCTYPE svg PUBLIC "-//W3C//DTD SVG 1.1//EN" "http://www.w3.org/Graphics/SVG/1.1/DTD/svg11.dtd"><svg width="100%" height="100%" viewBox="0 0 218 372" version="1.1" xmlns="http://www.w3.org/2000/svg" xmlns:xlink="http://www.w3.org/1999/xlink" xml:space="preserve" xmlns:serif="http://www.serif.com/" style="fill-rule:evenodd;clip-rule:evenodd;stroke-linecap:round;stroke-linejoin:round;stroke-miterlimit:1.5;"><path d="M3.75,327.255l102,-183" style="fill:none;stroke:#000;stroke-width:7.5px;"/><path d="M102,367.755c0,-0 10.125,-167.875 15,-207c1.286,-10.319 6.516,-22.276 14.25,-27.75c11.125,-7.875 23.858,-5.888 34.5,-1.5c14.25,5.875 48,21.75 48,21.75" style="fill:none;stroke:#000;stroke-width:7.5px;"/><path d="M111,244.005l15.75,-0l0.75,-83.25c0,-0 -1.044,-9.519 5.25,-11.25c9.027,-2.483 11.25,6.75 11.25,6.75l54.75,195.75" style="fill:none;stroke:#000;stroke-width:7.5px;"/><path d="M65.25,138.255c0,-0 45.625,-16.75 61.5,-21.75c10.476,-3.299 33.75,-8.25 33.75,-8.25c0,-0 5.75,-1.375 7.5,-3.75c1.75,-2.375 3,-10.5 3,-10.5c0,-0 1.25,-20.75 1.5,-29.25c0.213,-7.247 0.625,-16.75 0,-21.75c-0.375,-2.998 -1.75,-6.125 -3.75,-8.25c-2,-2.125 -5.448,-3.099 -8.25,-4.5c-3.75,-1.875 -10.593,-2.975 -14.25,-6.75c-3.875,-4 -4.875,-14 -9,-17.25c-4.125,-3.25 -10.75,-2.5 -15.75,-2.25c-4.906,0.245 -11,1.375 -14.25,3.75c-3.159,2.309 -3.5,7.75 -5.25,10.5c-1.427,2.242 -2.691,5.283 -5.25,6c-6.25,1.75 -24,2.5 -32.25,4.5c-6.093,1.477 -13.75,3.375 -17.25,7.5c-3.5,4.125 -3.337,11.38 -3.75,17.25c-0.625,8.875 -0.375,27.125 0,36c0.245,5.793 -0.125,13.875 2.25,17.25c2.373,3.372 7.896,3.399 12,3c9,-0.875 29.75,-4.625 41.25,-6c8.936,-1.069 18.846,-0.942 27.75,-2.25c17.875,-2.625 26.043,-15.193 26.25,-32.25c0.224,-18.504 -16.518,-28.559 -33,-27.75c-18.76,0.921 -31.336,14.628 -32.25,26.25c-1.496,19.023 17.288,35.439 17.288,35.439" style="fill:none;stroke:#000;stroke-width:7.5px;"/><path d="M75.75,30.255c-0.75,4.75 -0.682,6.603 -0.75,9.75c-0.179,8.239 -6.451,10.429 -9,10.5c-4.5,0.125 -14.125,-1.125 -17.25,-0c-2.364,0.851 -1.735,4.933 0,6.75c2.625,2.75 10,5.25 15,8.25" style="fill:none;stroke:#000;stroke-width:7.5px;"/></svg>