<?xml version="1.0" encoding="UTF-8" standalone="no"?><!DOCTYPE svg PUBLIC "-//W3C//DTD SVG 1.1//EN" "http://www.w3.org/Graphics/SVG/1.1/DTD/svg11.dtd"><svg width="100%" height="100%" viewBox="0 0 1500 125" version="1.1" xmlns="http://www.w3.org/2000/svg" xmlns:xlink="http://www.w3.org/1999/xlink" xml:space="preserve" xmlns:serif="http://www.serif.com/" style="fill-rule:evenodd;clip-rule:evenodd;stroke-linejoin:round;stroke-miterlimit:2;"><rect x="0" y="0" width="1500.01" height="125" style="fill:#fff;"/><path d="M1500.01,97.834c-36.871,0.124 -682.095,0.209 -700.892,0.207l-38.77,-0.004l-2.256,-0.66c-1.241,-0.363 -2.827,-0.941 -3.525,-1.284c-1.052,-0.518 -1.284,-0.775 -1.356,-1.509c-0.067,-0.682 0.09,-1.034 0.685,-1.533c6.03,-5.052 8.116,-7.515 10.151,-11.981c1.437,-3.154 1.892,-5.529 1.877,-9.814c-0.01,-3.106 -0.125,-4.052 -0.755,-6.203c-0.794,-2.711 -2.616,-6.7 -3.8,-8.318c-2.181,-2.982 -5.787,-6.287 -7.91,-7.249c-3.209,-1.455 -3.855,-1.568 -9.95,-1.745l-5.842,-0.17l-1.539,-1.521c-2.377,-2.348 -2.325,-3.339 0.235,-4.531c1.702,-0.793 1.869,-0.959 2.131,-2.12l0.24,-1.064l-2.94,0.131c-1.617,0.072 -3.018,0.209 -3.113,0.304c-0.096,0.095 -0.21,0.909 -0.254,1.809c-0.324,6.588 -0.626,7.895 -2.238,9.671c-1.154,1.271 -3.412,4.898 -4.202,6.751c-1.057,2.476 -1.643,6.64 -1.654,11.73c-0.007,3.698 0.091,4.638 0.762,7.331c1.027,4.115 2.099,6.629 4.595,10.777c2.335,3.879 3.338,6.531 3.051,8.062c-0.246,1.309 -1.496,2.601 -2.866,2.962c-0.727,0.191 -12.315,0.311 -33.675,0.348c-9.698,0.016 -674.458,0.405 -696.201,0.434c-0.075,-0.872 -0.011,-1.818 0.112,-2.79l705.192,-0.391c21.681,-0.039 23.676,-0.081 24.346,-0.52c0.957,-0.627 0.78,-1.574 -0.792,-4.232c-2.506,-4.236 -4.173,-7.342 -4.754,-8.854c-0.334,-0.868 -0.721,-1.832 -0.86,-2.143c-0.389,-0.871 -1.021,-3.955 -1.404,-6.856c-0.437,-3.303 -0.187,-11.052 0.433,-13.445c0.734,-2.836 2.89,-7.135 4.267,-8.513c1.112,-1.112 0.788,-1.221 -1.367,-0.462c-1.777,0.626 -2.654,0.739 -6.697,0.862c-5.287,0.161 -11.098,-0.276 -12.636,-0.951c-0.571,-0.251 -1.483,-0.536 -2.026,-0.634c-0.967,-0.175 -0.989,-0.208 -1.073,-1.676c-0.062,-1.077 0.062,-1.75 0.442,-2.393c0.415,-0.705 0.473,-1.102 0.275,-1.864c-0.53,-2.044 0.698,-4.246 2.578,-4.622c1.337,-0.267 17,-0.579 18.161,-0.361c0.901,0.169 1.046,0.303 1.046,0.959c0,0.541 0.306,1.009 1.051,1.609c1.017,0.818 2.405,1.551 2.94,1.551c0.143,-0 0.238,-0.941 0.212,-2.091l-0.049,-2.09l-2.852,-0.192c-1.569,-0.105 -7.04,-0.139 -12.157,-0.075c-10.129,0.127 -11.141,0.272 -12.583,1.805c-0.644,0.686 -0.67,0.875 -0.67,4.991c0,3.728 0.079,4.477 0.613,5.829c0.554,1.402 0.694,1.55 1.465,1.55c0.895,0 2.857,1.588 2.857,2.312c-0,0.202 0.135,0.367 0.3,0.367c0.39,0 2.102,3.713 2.687,5.826c2.969,10.731 4.318,17.369 4.699,23.124c0.331,4.979 0.24,5.427 -1.305,6.439c-1.32,0.865 -9.014,0.496 -11.525,-0.553c-1.4,-0.586 -1.79,-1.196 -2.436,-3.819c-0.501,-2.033 -0.618,-3.638 -0.772,-10.574c-0.19,-8.604 0.153,-15.996 0.869,-18.71c0.211,-0.802 0.714,-2.021 1.117,-2.709l0.732,-1.249l-0.778,-1.637c-0.76,-1.598 -0.777,-1.745 -0.735,-6.322c0.049,-5.245 0.219,-5.871 1.946,-7.188c1.963,-1.497 2.852,-1.59 16.534,-1.73c11.212,-0.114 12.703,-0.078 13.517,0.328c0.827,0.412 1.054,0.415 2.374,0.031c1.703,-0.495 11.382,-0.548 28.132,-0.154l10.101,0.238l1.601,-0.739c1.295,-0.598 2.138,-0.761 4.417,-0.857c3.982,-0.166 9.462,0.75 9.445,1.579c-0.009,0.448 -0.556,1.04 -1.349,1.459c-2.348,1.243 -2.838,1.593 -4.067,2.905l-1.332,1.421l-1.722,-0.156c-0.946,-0.086 -1.802,-0.236 -1.9,-0.335c-0.442,-0.442 0.535,-1.154 1.944,-1.418c1.168,-0.219 1.776,-0.534 2.615,-1.356c0.6,-0.59 1.457,-1.145 1.903,-1.234c1.372,-0.275 0.944,-0.751 -0.497,-0.553c-0.72,0.099 -2.877,0.179 -4.794,0.179l-3.485,0l-0,1.768l-4.018,-0.176c-2.21,-0.096 -7.761,-0.244 -12.336,-0.329c-4.575,-0.084 -9.016,-0.218 -9.869,-0.297c-1.113,-0.104 -1.431,-0.063 -1.128,0.145c0.233,0.16 0.696,0.293 1.029,0.295c0.825,0.006 3.512,1.451 5.069,2.727l1.278,1.047l0.949,-0.511c0.849,-0.458 1.657,-0.506 7.661,-0.46c8.159,0.062 10.015,0.385 10.818,1.885c0.495,0.925 0.849,0.846 0.651,-0.146c-0.131,-0.655 -0.038,-0.888 0.46,-1.154c0.848,-0.454 1.238,-0.017 1.255,1.409c0.012,0.957 0.104,1.127 0.614,1.127c0.771,0.002 2.599,-0.761 3.154,-1.316c0.35,-0.35 1.091,-0.411 4.047,-0.331l3.619,0.098l0.05,-1.128c0.027,-0.621 0.024,-1.382 -0.008,-1.692c-0.212,-2.062 0.145,-2.693 1.131,-2.002c0.549,0.385 1.121,0.43 3.5,0.276c3.588,-0.232 5.13,0.208 6.802,1.942c1.667,1.728 2.632,3.871 3.714,8.243c0.884,3.571 1.163,6.863 1.164,13.715c0.001,10.47 -0.99,24.225 -2.141,29.692c-0.452,2.152 -0.512,2.256 -1.451,2.54c-0.504,0.152 -0.701,0.041 -0.97,-0.549c-0.272,-0.598 -0.189,-2.13 0.435,-7.984c0.999,-9.374 1.208,-13.123 1.274,-22.893c0.063,-9.301 -0.256,-12.361 -1.757,-16.851c-0.944,-2.822 -1.969,-4.599 -2.944,-5.101c-1.415,-0.728 -5.311,-0.628 -5.021,0.129c0.079,0.207 0.023,0.451 -0.125,0.542c-0.149,0.092 -0.274,0.699 -0.279,1.349c-0.018,2.32 -0.764,2.578 -8.388,2.895c-2.799,0.116 -5.029,0.334 -5.256,0.513c-0.313,0.247 -0.429,1.908 -0.563,8.065c-0.092,4.265 -0.308,10.454 -0.48,13.753c-0.287,5.519 -0.195,13.408 0.203,17.317c0.19,1.868 -0.447,4.453 -1.308,5.315c-0.304,0.304 -0.907,0.553 -1.339,0.553c-1.766,-0 -3.778,-4.89 -3.336,-8.11c0.19,-1.39 1.069,-2.605 1.885,-2.605c0.675,0 0.783,-0.651 0.956,-5.783c0.451,-13.407 0.445,-17.128 -0.029,-17.474c-0.348,-0.255 -0.469,-0.894 -0.513,-2.707c-0.08,-3.336 0.222,-4.088 1.148,-2.867c0.323,0.425 0.376,0.214 0.384,-1.528c0.005,-1.111 0.093,-2.253 0.195,-2.537c0.165,-0.458 0.108,-0.449 -0.493,0.078c-2.072,1.815 -5.54,1.556 -11.678,-0.872c-1.749,-0.691 -3.705,-1.341 -4.345,-1.444c-2.593,-0.414 -1.325,-1.21 2.301,-1.445l2.572,-0.167l0.749,0.896c0.799,0.958 2.653,1.512 6.365,1.902c1.629,0.172 1.768,0.137 2.664,-0.663c0.927,-0.829 0.936,-0.858 0.469,-1.572c-0.268,-0.408 -0.941,-0.86 -1.537,-1.031c-1.698,-0.488 -6.631,-0.698 -7.695,-0.327c-0.704,0.246 -1.495,0.243 -3.261,-0.012c-2.712,-0.392 -3.508,-0.172 -4.085,1.132c-0.291,0.657 -0.606,0.877 -1.445,1.011c-1.549,0.248 -3.539,-0.343 -5.157,-1.531c-0.776,-0.57 -2.33,-1.459 -3.454,-1.976c-1.125,-0.517 -2.045,-1.044 -2.045,-1.172c0,-0.289 -0.086,-0.292 2.343,0.072c1.508,0.226 2.413,0.556 3.529,1.286c0.859,0.562 1.764,0.942 2.115,0.889c0.474,-0.072 0.102,-0.398 -1.642,-1.436c-2.921,-1.738 -4.808,-2.316 -7.513,-2.299c-1.917,0.012 -2.287,0.105 -3.354,0.846c-0.66,0.458 -1.398,0.96 -1.64,1.115c-1.394,0.893 -1.737,1.981 -0.937,2.969c0.544,0.672 0.599,0.678 6.009,0.705c5.109,0.026 5.624,0.078 7.988,0.801c3.305,1.012 5.923,2.411 7.954,4.251c3.262,2.957 7,9.082 8.44,13.832c0.701,2.312 0.771,2.951 0.782,7.19c0.01,4 -0.077,4.965 -0.623,6.884c-0.775,2.724 -2.64,6.541 -4.404,9.012c-1.363,1.911 -4.545,5.185 -5.905,6.078c-1.012,0.664 -0.92,0.921 0.498,1.394c1.537,0.514 27.614,0.834 56.852,0.699c9.95,-0.046 650.655,-0.163 685.091,-0.246c0.004,0.872 0.008,1.743 0.011,2.615Zm-726.958,-9.35c-0.68,-2.038 -0.831,-3.634 -0.451,-4.786c0.705,-2.135 1.466,-0.759 1.646,2.976c0.193,4 -0.243,4.659 -1.195,1.81Zm-69.044,-0.188c-1.431,-0.364 -2.209,-0.967 -2.909,-2.253c-0.494,-0.906 -0.529,-1.778 -0.529,-13.236c0,-12.87 0.066,-13.681 1.31,-16.283c0.315,-0.659 0.746,-1.199 0.957,-1.199c1.183,0 3.296,4.46 4.607,9.728c2.646,10.625 2.518,10.057 2.874,12.772c0.724,5.511 1.065,9.224 0.917,9.965l-0.161,0.808l-2.942,-0c-1.618,-0 -3.473,-0.136 -4.124,-0.302Zm69.451,-30.715c-0,-0.155 0.127,-0.282 0.282,-0.282c0.155,0 0.282,0.127 0.282,0.282c-0,0.155 -0.127,0.282 -0.282,0.282c-0.155,0 -0.282,-0.127 -0.282,-0.282Zm0.104,-1.344c-0.236,-0.153 -0.238,-0.555 -0.006,-1.546c0.42,-1.803 0.776,-1.694 0.683,0.209c-0.078,1.591 -0.13,1.693 -0.677,1.337Zm0.742,-11.345c-0,-0.155 0.127,-0.282 0.282,-0.282c0.155,-0 0.282,0.127 0.282,0.282c-0,0.155 -0.127,0.282 -0.282,0.282c-0.155,-0 -0.282,-0.127 -0.282,-0.282Zm6.203,0.015c0,-0.314 2.581,-0.581 5.217,-0.541l2.255,0.034l-2.114,0.242c-1.164,0.132 -2.306,0.286 -2.538,0.341c-0.82,0.194 -2.82,0.14 -2.82,-0.076Zm-26.154,-0.65c0.064,-0.194 0.479,-0.395 0.924,-0.447c0.709,-0.083 0.763,-0.04 0.437,0.353c-0.441,0.531 -1.529,0.606 -1.361,0.094Zm34.049,-1.215c0,-0.242 0.127,-0.361 0.282,-0.265c0.155,0.096 0.282,0.294 0.282,0.439c0,0.146 -0.127,0.266 -0.282,0.266c-0.155,-0 -0.282,-0.198 -0.282,-0.44Zm-61.404,3.207c0.174,-0.523 0.781,-0.61 0.781,-0.112c0,0.246 -0.201,0.446 -0.446,0.446c-0.246,0 -0.396,-0.15 -0.335,-0.334Zm-21.706,2.166c-0.761,-0.247 -0.812,-0.737 -0.14,-1.345c0.452,-0.409 0.626,-0.402 2.044,0.088c1.369,0.472 2.434,0.536 9.12,0.544c5.888,0.006 7.893,-0.084 9.023,-0.411c1.948,-0.562 3.906,-0.666 4.059,-0.214c0.085,0.249 -0.278,0.354 -1.243,0.356c-0.749,0.003 -1.934,0.204 -2.632,0.448c-0.697,0.244 -1.776,0.553 -2.396,0.686c-1.323,0.283 -16.904,0.151 -17.835,-0.152Zm1.11,-0.896c-0.203,-0.082 -0.446,-0.072 -0.54,0.022c-0.094,0.094 0.073,0.16 0.37,0.148c0.329,-0.013 0.395,-0.08 0.17,-0.17Zm21.73,-1.959c-0.349,-0.094 -0.635,-0.282 -0.635,-0.419c0,-0.415 1.316,-0.279 1.692,0.174c0.396,0.477 0.082,0.55 -1.057,0.245Zm-20.559,-0.742c-0.49,-0.264 -1.152,-0.811 -1.47,-1.216c-0.53,-0.673 -0.543,-0.791 -0.153,-1.386c0.236,-0.36 0.83,-0.725 1.33,-0.817c1.647,-0.302 15.615,-0.176 16.549,0.15c1.688,0.588 2.831,3.42 1.485,3.676c-0.256,0.049 -4.152,0.085 -8.658,0.081c-7.165,-0.007 -8.303,-0.069 -9.083,-0.488Zm34.023,-6.412c-0,-0.155 0.056,-0.282 0.124,-0.282c0.068,0 0.203,0.127 0.298,0.282c0.096,0.155 0.04,0.282 -0.124,0.282c-0.164,0 -0.298,-0.127 -0.298,-0.282Zm6.387,50.497c4.219,-1.146 6.924,-3.126 9.659,-7.073c2.346,-3.386 3.412,-6.734 3.405,-10.697c-0.01,-5.777 -2.123,-10.067 -6.882,-13.967c-3.073,-2.519 -6.1,-3.524 -10.628,-3.529c-3.826,-0.004 -5.555,0.326 -8.004,1.531c-4.741,2.332 -8.118,6.77 -9.468,12.446c-0.677,2.843 -0.609,4.683 0.313,8.544c0.824,3.449 2.073,5.756 4.362,8.058c2.2,2.213 3.727,3.134 7.049,4.253c3.085,1.04 7.299,1.219 10.194,0.434Zm-8.825,-2.868c-4.023,-1.226 -7.352,-3.808 -8.935,-6.931c-2.276,-4.493 -2.627,-8.571 -1.106,-12.881c1.323,-3.751 3.089,-5.934 6.416,-7.932c2.787,-1.673 5.061,-2.224 8.426,-2.044c4.231,0.228 7.188,1.473 9.987,4.204c3.955,3.86 5.378,8.985 4.01,14.446c-0.346,1.379 -0.883,2.965 -1.194,3.522c-0.928,1.666 -2.992,4.459 -3.715,5.028c-1.098,0.864 -4.862,2.682 -6.013,2.905c-2.258,0.438 -5.877,0.292 -7.876,-0.317Zm29.413,-40.283c2.258,-0.172 2.751,-0.432 1.942,-1.023c-0.373,-0.273 -1.328,-0.4 -3.007,-0.4c-1.354,-0 -2.662,-0.077 -2.907,-0.171c-0.542,-0.209 -0.599,0.435 -0.093,1.069c0.456,0.573 1.567,0.716 4.065,0.525Zm-28.315,-2.189c0.427,-0.065 0.776,-0.232 0.776,-0.371c-0,-0.342 -0.965,-0.837 -1.63,-0.837c-0.505,-0 -1.472,0.802 -1.472,1.22c0,0.197 0.983,0.191 2.326,-0.012Zm35.834,-2.242c0.383,-0.383 0.197,-1.208 -0.235,-1.042c-0.233,0.089 -0.423,0.403 -0.423,0.696c-0,0.536 0.307,0.697 0.658,0.346Zm-3.407,-0.578c1.113,-0.169 0.957,-0.644 -0.212,-0.644c-0.689,0 -0.987,0.128 -0.987,0.423c0,0.233 0.095,0.404 0.212,0.381c0.116,-0.023 0.56,-0.095 0.987,-0.16Z" style="fill:#808080;"/></svg>