<?xml version="1.0" encoding="UTF-8" standalone="no"?><!DOCTYPE svg PUBLIC "-//W3C//DTD SVG 1.1//EN" "http://www.w3.org/Graphics/SVG/1.1/DTD/svg11.dtd"><svg width="100%" height="100%" viewBox="0 0 18 18" version="1.1" xmlns="http://www.w3.org/2000/svg" xmlns:xlink="http://www.w3.org/1999/xlink" xml:space="preserve" xmlns:serif="http://www.serif.com/" style="fill-rule:evenodd;clip-rule:evenodd;stroke-linejoin:round;stroke-miterlimit:2;"><g><path d="M11.535,9.836c-0.274,-0.164 -0.631,-0.347 -0.954,-0.215c-0.248,0.101 -0.406,0.489 -0.567,0.687c-0.082,0.102 -0.18,0.118 -0.307,0.067c-0.93,-0.371 -1.643,-0.992 -2.156,-1.847c-0.087,-0.133 -0.071,-0.238 0.033,-0.361c0.155,-0.183 0.35,-0.39 0.392,-0.636c0.042,-0.247 -0.073,-0.534 -0.175,-0.753c-0.13,-0.28 -0.275,-0.68 -0.556,-0.838c-0.258,-0.145 -0.597,-0.064 -0.827,0.123c-0.396,0.323 -0.588,0.829 -0.582,1.33c0.002,0.143 0.019,0.285 0.053,0.422c0.08,0.331 0.232,0.64 0.405,0.933c0.129,0.221 0.27,0.437 0.422,0.643c0.498,0.676 1.117,1.263 1.834,1.703c0.358,0.219 0.743,0.411 1.143,0.543c0.448,0.148 0.847,0.302 1.331,0.21c0.506,-0.096 1.005,-0.41 1.206,-0.897c0.06,-0.145 0.09,-0.306 0.057,-0.458c-0.069,-0.316 -0.497,-0.504 -0.752,-0.656m-2.478,4.476c-0.966,-0 -1.919,-0.264 -2.758,-0.764l-0.228,-0.136l-2.026,0.542l0.54,-2.013l-0.14,-0.231c-0.517,-0.849 -0.79,-1.817 -0.79,-2.801c-0,-2.979 2.423,-5.402 5.402,-5.402c2.979,0 5.403,2.423 5.403,5.402c-0,2.979 -2.424,5.403 -5.403,5.403m0,-12.064c-3.673,-0 -6.661,2.988 -6.661,6.661c-0,1.124 0.288,2.231 0.835,3.219l-0.967,3.607l3.627,-0.971c0.974,0.529 2.063,0.807 3.166,0.807c3.673,0 6.662,-2.988 6.662,-6.662c-0,-3.673 -2.989,-6.661 -6.662,-6.661" style="fill:#ffffff;fill-rule:nonzero;"/></g></svg>