<?xml version="1.0" encoding="UTF-8" standalone="no"?><!DOCTYPE svg PUBLIC "-//W3C//DTD SVG 1.1//EN" "http://www.w3.org/Graphics/SVG/1.1/DTD/svg11.dtd"><svg width="100%" height="100%" viewBox="0 0 18 18" version="1.1" xmlns="http://www.w3.org/2000/svg" xmlns:xlink="http://www.w3.org/1999/xlink" xml:space="preserve" xmlns:serif="http://www.serif.com/" style="fill-rule:evenodd;clip-rule:evenodd;stroke-linejoin:round;stroke-miterlimit:2;"><g><path d="M7.24,8.938l-0,6.627c-0,0.094 0.075,0.17 0.17,0.17l2.421,-0c0.093,-0 0.17,-0.076 0.17,-0.17l-0,-6.627l1.755,0c0.088,0 0.162,-0.067 0.169,-0.155l0.169,-1.997c0.008,-0.099 -0.07,-0.184 -0.169,-0.184l-1.924,-0l-0,-1.417c-0,-0.332 0.269,-0.601 0.601,-0.601l1.352,0c0.095,0 0.17,-0.076 0.17,-0.17l0,-1.996c0,-0.094 -0.075,-0.17 -0.17,-0.17l-2.286,-0c-1.341,-0 -2.428,1.087 -2.428,2.429l-0,1.925l-1.211,-0c-0.094,-0 -0.17,0.076 -0.17,0.17l-0,1.996c-0,0.094 0.076,0.17 0.17,0.17l1.211,0Z" style="fill:#ffffff;"/></g></svg>