<?xml version="1.0" encoding="UTF-8" standalone="no"?><!DOCTYPE svg PUBLIC "-//W3C//DTD SVG 1.1//EN" "http://www.w3.org/Graphics/SVG/1.1/DTD/svg11.dtd"><svg width="100%" height="100%" viewBox="0 0 18 18" version="1.1" xmlns="http://www.w3.org/2000/svg" xmlns:xlink="http://www.w3.org/1999/xlink" xml:space="preserve" xmlns:serif="http://www.serif.com/" style="fill-rule:evenodd;clip-rule:evenodd;stroke-linejoin:round;stroke-miterlimit:2;"><g><path d="M14.419,11.666c0,1.521 -1.232,2.753 -2.753,2.753l-5.349,0c-1.52,0 -2.753,-1.232 -2.753,-2.753l-0,-5.349c-0,-1.521 1.233,-2.753 2.753,-2.753l5.349,-0c1.521,-0 2.753,1.232 2.753,2.753l0,5.349Zm1.316,-5.41c-0,-2.213 -1.795,-4.008 -4.009,-4.008l-5.469,-0c-2.214,-0 -4.009,1.795 -4.009,4.008l-0,5.471c-0,2.213 1.795,4.008 4.009,4.008l5.469,-0c2.214,-0 4.009,-1.795 4.009,-4.008l-0,-5.471Zm-4.547,2.641c0,-1.161 -0.944,-2.106 -2.105,-2.106c-1.161,0 -2.105,0.945 -2.105,2.106c-0,1.16 0.944,2.105 2.105,2.105c1.161,-0 2.105,-0.945 2.105,-2.105m1.182,-0c-0,1.811 -1.474,3.286 -3.287,3.286c-1.812,-0 -3.286,-1.475 -3.286,-3.286c-0,-1.813 1.474,-3.287 3.286,-3.287c1.813,0 3.287,1.474 3.287,3.287m0.974,-3.508c-0,0.432 -0.35,0.783 -0.783,0.783c-0.432,-0 -0.782,-0.351 -0.782,-0.783c0,-0.432 0.35,-0.782 0.782,-0.782c0.433,-0 0.783,0.35 0.783,0.782" style="fill:#ffffff;fill-rule:nonzero;"/></g></svg>