<?xml version="1.0" encoding="UTF-8" standalone="no"?><!DOCTYPE svg PUBLIC "-//W3C//DTD SVG 1.1//EN" "http://www.w3.org/Graphics/SVG/1.1/DTD/svg11.dtd"><svg width="100%" height="100%" viewBox="0 0 18 18" version="1.1" xmlns="http://www.w3.org/2000/svg" xmlns:xlink="http://www.w3.org/1999/xlink" xml:space="preserve" xmlns:serif="http://www.serif.com/" style="fill-rule:evenodd;clip-rule:evenodd;stroke-linejoin:round;stroke-miterlimit:2;"><g><path d="M7.022,15.719l2.793,0l-0,-4.446c-0,-1.172 0.221,-2.308 1.676,-2.308c1.432,0 1.452,1.341 1.452,2.384l-0,4.37l2.792,0l-0,-4.93c-0,-2.42 -0.522,-4.281 -3.35,-4.281c-1.361,-0 -2.273,0.745 -2.646,1.452l-0.037,0l0,-1.229l-2.68,-0l0,8.988Zm-3.152,-13.456c0.895,0 1.62,0.727 1.62,1.62c0,0.894 -0.725,1.621 -1.62,1.621c-0.897,-0 -1.622,-0.727 -1.622,-1.621c-0,-0.893 0.725,-1.62 1.622,-1.62m-1.399,4.468l2.798,-0l0,8.988l-2.798,0l-0,-8.988Z" style="fill:#ffffff;fill-rule:nonzero;"/></g></svg>