<?xml version="1.0" encoding="UTF-8" standalone="no"?><!DOCTYPE svg PUBLIC "-//W3C//DTD SVG 1.1//EN" "http://www.w3.org/Graphics/SVG/1.1/DTD/svg11.dtd"><svg width="100%" height="100%" viewBox="0 0 18 18" version="1.1" xmlns="http://www.w3.org/2000/svg" xmlns:xlink="http://www.w3.org/1999/xlink" xml:space="preserve" xmlns:serif="http://www.serif.com/" style="fill-rule:evenodd;clip-rule:evenodd;stroke-linejoin:round;stroke-miterlimit:2;"><g><path id="path1" d="M8.145,15.602c-0.092,-0.021 -0.375,-0.08 -0.628,-0.13c-5.778,-1.146 -5.778,-11.629 -0,-13.065c3.144,-0.782 7.202,1.445 7.282,3.996c0.002,0.074 -0.758,0.314 -1.032,0.325c-0.04,0.001 -0.148,-0.205 -0.241,-0.458c-1.303,-3.549 -6.866,-3.922 -8.469,-0.568c-0.862,1.804 -0.862,4.691 -0,6.495c1.559,3.263 7.579,2.957 8.037,-0.409c0.146,-1.075 -1.005,-2.703 -1.173,-1.657c-0.484,3.029 -5.357,3.135 -5.357,0.116c-0,-1.495 1.05,-2.247 3.151,-2.256c0.633,-0.002 1.151,-0.034 1.151,-0.07c0.001,-1.235 -1.982,-1.827 -2.975,-0.889c-0.249,0.235 -0.598,0.119 -1.206,-0.4c-0.102,-0.086 0.751,-0.797 1.199,-1c1.831,-0.828 3.9,0.294 4.12,2.233c0.056,0.494 0.056,0.495 0.513,0.752c4.008,2.262 0.374,8.068 -4.372,6.985Zm1.767,-4.467c0.813,-0.37 1.298,-1.856 0.64,-1.964c-1.897,-0.314 -3.339,0.504 -2.724,1.545c0.318,0.539 1.359,0.748 2.084,0.419Z" style="fill:#ffffff;fill-rule:nonzero;"/></g></svg>